<?xml version="1.0" encoding="UTF-8" standalone="no"?>
<!-- Created with Inkscape (http://www.inkscape.org/) -->

<svg
   xmlns:dc="http://purl.org/dc/elements/1.1/"
   xmlns:cc="http://creativecommons.org/ns#"
   xmlns:rdf="http://www.w3.org/1999/02/22-rdf-syntax-ns#"
   xmlns:svg="http://www.w3.org/2000/svg"
   xmlns="http://www.w3.org/2000/svg"
   xmlns:xlink="http://www.w3.org/1999/xlink"
   xmlns:sodipodi="http://sodipodi.sourceforge.net/DTD/sodipodi-0.dtd"
   xmlns:inkscape="http://www.inkscape.org/namespaces/inkscape"
   width="512"
   height="256"
   id="svg2"
   version="1.1"
   inkscape:version="0.48.5 r10040"
   sodipodi:docname="gray-2.svg"
   inkscape:export-filename="/home/sydney/Contrib/TSC/Pipes/second try done pipes/Gray/gray-2.png"
   inkscape:export-xdpi="90"
   inkscape:export-ydpi="90">
  <defs
     id="defs4">
    <linearGradient
       id="linearGradient3828">
      <stop
         style="stop-color:#ffffff;stop-opacity:0.50980395;"
         offset="0"
         id="stop3830" />
      <stop
         style="stop-color:#ffffff;stop-opacity:0;"
         offset="1"
         id="stop3832" />
    </linearGradient>
    <linearGradient
       id="linearGradient5275">
      <stop
         style="stop-color:#ffffff;stop-opacity:0.58823532;"
         offset="0"
         id="stop5277" />
      <stop
         style="stop-color:#3e4547;stop-opacity:0;"
         offset="1"
         id="stop5279" />
    </linearGradient>
    <linearGradient
       inkscape:collect="always"
       id="linearGradient3823">
      <stop
         style="stop-color:#3e4547;stop-opacity:1;"
         offset="0"
         id="stop3825" />
      <stop
         style="stop-color:#3e4547;stop-opacity:0;"
         offset="1"
         id="stop3827" />
    </linearGradient>
    <linearGradient
       id="linearGradient3853">
      <stop
         style="stop-color:#e5e5e5;stop-opacity:0.58823532;"
         offset="0"
         id="stop3855" />
      <stop
         style="stop-color:#d7f4e3;stop-opacity:0;"
         offset="1"
         id="stop3857" />
    </linearGradient>
    <linearGradient
       id="linearGradient3845">
      <stop
         style="stop-color:#e5e5e5;stop-opacity:0.58823532;"
         offset="0"
         id="stop3847" />
      <stop
         style="stop-color:#d7f4e3;stop-opacity:0;"
         offset="1"
         id="stop3849" />
    </linearGradient>
    <linearGradient
       inkscape:collect="always"
       id="linearGradient3819">
      <stop
         style="stop-color:#d7f4e3;stop-opacity:1;"
         offset="0"
         id="stop3821" />
      <stop
         style="stop-color:#d7f4e3;stop-opacity:0;"
         offset="1"
         id="stop3823" />
    </linearGradient>
    <linearGradient
       inkscape:collect="always"
       xlink:href="#linearGradient3819"
       id="linearGradient3825"
       x1="210.61681"
       y1="261.41275"
       x2="376.28183"
       y2="260.90768"
       gradientUnits="userSpaceOnUse" />
    <linearGradient
       inkscape:collect="always"
       xlink:href="#linearGradient4300"
       id="linearGradient4306"
       x1="505.11432"
       y1="545.83691"
       x2="-1130.158"
       y2="32.257023"
       gradientUnits="userSpaceOnUse" />
    <linearGradient
       inkscape:collect="always"
       id="linearGradient4300">
      <stop
         style="stop-color:#666d6e;stop-opacity:1;"
         offset="0"
         id="stop4302" />
      <stop
         style="stop-color:#666d6e;stop-opacity:0;"
         offset="1"
         id="stop4304" />
    </linearGradient>
    <linearGradient
       gradientTransform="translate(6.8602986,175.86163)"
       y2="32.257023"
       x2="-1130.158"
       y1="545.83691"
       x1="505.11432"
       gradientUnits="userSpaceOnUse"
       id="linearGradient4323"
       xlink:href="#linearGradient4300"
       inkscape:collect="always" />
    <linearGradient
       y2="233.6633"
       x2="192.07607"
       y1="233.63358"
       x1="258.53717"
       gradientTransform="matrix(1.206546,0,0,1.6692724,-159.39895,-262.64647)"
       gradientUnits="userSpaceOnUse"
       id="linearGradient4526"
       xlink:href="#linearGradient3845-5"
       inkscape:collect="always" />
    <linearGradient
       inkscape:collect="always"
       id="linearGradient3845-5">
      <stop
         style="stop-color:#d7f4e3;stop-opacity:1;"
         offset="0"
         id="stop3847-0" />
      <stop
         style="stop-color:#d7f4e3;stop-opacity:0;"
         offset="1"
         id="stop3849-3" />
    </linearGradient>
    <linearGradient
       y2="244.68396"
       x2="342.45535"
       y1="245.04109"
       x1="272.18933"
       gradientTransform="matrix(1.0931849,0,0,1.6694193,-135.40335,-262.67129)"
       gradientUnits="userSpaceOnUse"
       id="linearGradient4560"
       xlink:href="#linearGradient3853-2"
       inkscape:collect="always" />
    <linearGradient
       inkscape:collect="always"
       id="linearGradient3853-2">
      <stop
         style="stop-color:#d7f4e3;stop-opacity:1;"
         offset="0"
         id="stop3855-6" />
      <stop
         style="stop-color:#d7f4e3;stop-opacity:0;"
         offset="1"
         id="stop3857-7" />
    </linearGradient>
    <linearGradient
       inkscape:collect="always"
       xlink:href="#linearGradient3845-5"
       id="linearGradient4640"
       gradientUnits="userSpaceOnUse"
       gradientTransform="matrix(1.206546,0,0,1.6692724,-48.274525,96.344473)"
       x1="258.53717"
       y1="233.63358"
       x2="192.07607"
       y2="233.6633" />
    <linearGradient
       inkscape:collect="always"
       xlink:href="#linearGradient3853-2"
       id="linearGradient4642"
       gradientUnits="userSpaceOnUse"
       gradientTransform="matrix(1.0931849,0,0,1.6694193,-24.278925,96.319653)"
       x1="272.18933"
       y1="245.04109"
       x2="342.45535"
       y2="244.68396" />
    <linearGradient
       inkscape:collect="always"
       xlink:href="#linearGradient3823"
       id="linearGradient3829"
       x1="609.12201"
       y1="251.31122"
       x2="442.08786"
       y2="250.47437"
       gradientUnits="userSpaceOnUse"
       gradientTransform="matrix(0.76618234,0,0,0.76618234,48.896147,-9.0519467)" />
    <radialGradient
       inkscape:collect="always"
       xlink:href="#linearGradient5275"
       id="radialGradient5285"
       cx="273.01645"
       cy="288.87381"
       fx="273.01645"
       fy="288.87381"
       r="78.286819"
       gradientTransform="matrix(1.0359497,0.02021381,-0.73621119,55.221769,193.7037,-15619.71)"
       gradientUnits="userSpaceOnUse"
       spreadMethod="pad" />
    <radialGradient
       inkscape:collect="always"
       xlink:href="#linearGradient3828"
       id="radialGradient3836"
       cx="285.26718"
       cy="263.29697"
       fx="285.26718"
       fy="263.29697"
       r="288.78308"
       gradientTransform="matrix(0.44946676,0.0030047,-0.00910876,1.3852964,142.66214,-175.20866)"
       gradientUnits="userSpaceOnUse" />
    <radialGradient
       inkscape:collect="always"
       xlink:href="#linearGradient3794"
       id="radialGradient3800"
       cx="285.59552"
       cy="528.03241"
       fx="285.59552"
       fy="528.03241"
       r="254.59781"
       gradientTransform="matrix(0.46031111,2.4435867e-8,-8.8506047e-8,2.1845042,137.0244,-754.59549)"
       gradientUnits="userSpaceOnUse" />
    <linearGradient
       id="linearGradient3794">
      <stop
         style="stop-color:#ffffff;stop-opacity:0.50980395;"
         offset="0"
         id="stop3796" />
      <stop
         style="stop-color:#ffffff;stop-opacity:0;"
         offset="1"
         id="stop3798" />
    </linearGradient>
    <linearGradient
       inkscape:collect="always"
       xlink:href="#linearGradient3771"
       id="linearGradient3777"
       x1="572.83911"
       y1="521.85107"
       x2="440.21136"
       y2="521.85107"
       gradientUnits="userSpaceOnUse"
       gradientTransform="matrix(0.75900911,0,0,0.79451791,51.395261,-20.584387)" />
    <linearGradient
       inkscape:collect="always"
       id="linearGradient3771">
      <stop
         style="stop-color:#3e4547;stop-opacity:1;"
         offset="0"
         id="stop3773" />
      <stop
         style="stop-color:#3e4547;stop-opacity:0;"
         offset="1"
         id="stop3775" />
    </linearGradient>
  </defs>
  <sodipodi:namedview
     id="base"
     pagecolor="#ffffff"
     bordercolor="#666666"
     borderopacity="1.0"
     inkscape:pageopacity="0.0"
     inkscape:pageshadow="2"
     inkscape:zoom="0.70000001"
     inkscape:cx="395.41098"
     inkscape:cy="-155.07155"
     inkscape:document-units="px"
     inkscape:current-layer="layer2"
     showgrid="false"
     inkscape:window-width="1600"
     inkscape:window-height="847"
     inkscape:window-x="0"
     inkscape:window-y="31"
     inkscape:window-maximized="1"
     fit-margin-top="0"
     fit-margin-left="0"
     fit-margin-right="0"
     fit-margin-bottom="0" />
  <metadata
     id="metadata7">
    <rdf:RDF>
      <cc:Work
         rdf:about="">
        <dc:format>image/svg+xml</dc:format>
        <dc:type
           rdf:resource="http://purl.org/dc/dcmitype/StillImage" />
        <dc:title />
      </cc:Work>
    </rdf:RDF>
  </metadata>
  <g
     inkscape:label="Layer 1"
     inkscape:groupmode="layer"
     id="layer1"
     transform="translate(-76.552866,-108.15626)"
     style="display:inline">
    <path
       style="fill:none;stroke:#000000;stroke-width:0.76618236px;stroke-linecap:butt;stroke-linejoin:miter;stroke-opacity:1"
       d="m 111.28528,112.06346 25.17457,155.42556 392.94208,0 25.17456,-155.42556 z"
       id="path3012"
       inkscape:connector-curvature="0" />
    <path
       style="fill:#00ccff;fill-opacity:0;fill-rule:nonzero;stroke:#0b0b0b;stroke-width:0.7349878;stroke-linecap:butt;stroke-miterlimit:4;stroke-opacity:0.00465118;stroke-dasharray:none"
       d="m 136.79436,266.34838 c 0,-0.23142 -5.54114,-34.61881 -12.31365,-76.41644 -6.77251,-41.79763 -12.31365,-76.33276 -12.31365,-76.74475 0,-0.63268 34.32399,-0.74907 220.89311,-0.74907 l 220.8931,0 -0.27688,1.505 c -0.15228,0.82775 -5.77923,35.55222 -12.50433,77.1655 l -12.22745,75.66051 -196.07514,0 c -107.84131,0 -196.07511,-0.18934 -196.07511,-0.42075 z"
       id="path3019"
       inkscape:connector-curvature="0" />
    <path
       style="fill:#636e71;fill-opacity:1;fill-rule:nonzero;stroke:#0b0b0b;stroke-width:0.73476887;stroke-linecap:butt;stroke-miterlimit:4;stroke-opacity:0.00465118;stroke-dasharray:none"
       d="m 136.79436,266.33702 c 0,-0.23767 -5.54114,-34.63088 -12.31365,-76.42938 -6.77251,-41.7985 -12.31365,-76.32852 -12.31365,-76.73339 0,-0.61544 36.21523,-0.73613 220.89311,-0.73613 l 220.8931,0 -0.27775,1.505 c -0.15276,0.82775 -5.78072,35.55222 -12.50656,77.1655 l -12.2288,75.66051 -196.07291,0 c -107.84009,0 -196.07289,-0.19445 -196.07289,-0.43211 z"
       id="path3791"
       inkscape:connector-curvature="0"
       inkscape:export-filename="/home/sydney/Contrib/TSC/Pipes/Gray/gray-2.png"
       inkscape:export-xdpi="90"
       inkscape:export-ydpi="90" />
    <path
       style="fill:none;stroke:#000000;stroke-width:5.74636745;stroke-linecap:round;stroke-linejoin:round;stroke-miterlimit:4;stroke-opacity:0.98139535;stroke-dasharray:none"
       d="m 110.42605,111.13292 444.25363,0.38699 -24.76675,155.56617 -393.17221,0 z"
       id="path3827"
       inkscape:connector-curvature="0" />
    <path
       style="fill:url(#linearGradient3829);fill-opacity:1;stroke:none"
       d="m 388.27806,114.22876 162.9188,0.19349 -23.7993,149.56797 -136.41063,0 z"
       id="path3813"
       inkscape:connector-curvature="0" />
    <path
       inkscape:export-ydpi="90"
       inkscape:export-xdpi="90"
       inkscape:export-filename="/home/sydney/Contrib/TSC/Pipes/Gray/gray-2.png"
       inkscape:connector-curvature="0"
       id="path3826"
       d="m 133.51072,263.95861 c 0,-0.23116 -5.54114,-33.68174 -12.31365,-74.33466 -6.7725,-40.6529 -12.31364,-74.23655 -12.31364,-74.63033 0,-0.59857 36.21522,-0.71596 220.8931,-0.71596 l 220.89311,0 -0.27776,1.46376 c -0.15276,0.80507 -5.78071,34.57783 -12.50655,75.0506 l -12.2288,73.58686 -196.07291,0 c -107.84009,0 -196.0729,-0.18913 -196.0729,-0.42027 z"
       style="fill:url(#radialGradient3836);fill-opacity:1;fill-rule:nonzero;stroke:#0b0b0b;stroke-width:0.72462988;stroke-linecap:butt;stroke-miterlimit:4;stroke-opacity:0.00465118;stroke-dasharray:none" />
    <path
       style="fill:#666d6e;fill-opacity:1;fill-rule:nonzero;stroke:#0b0b0b;stroke-width:0.74182487;stroke-linecap:butt;stroke-miterlimit:4;stroke-opacity:0;stroke-dasharray:none;display:inline"
       d="m 139.57282,398.89353 0,-130.5272 192.34843,0 192.3484,0 0,130.5272 0,130.52723 -192.3484,0 -192.34843,0 0,-130.52723 z"
       id="path3997"
       inkscape:connector-curvature="0" />
    <path
       style="fill:none;stroke:#000000;stroke-width:5.80795383;stroke-linecap:round;stroke-linejoin:miter;stroke-miterlimit:4;stroke-opacity:1;stroke-dasharray:none;display:inline"
       d="m 139.44084,529.70228 0.0943,-261.31915 z"
       id="path4116"
       inkscape:connector-curvature="0" />
    <path
       inkscape:connector-curvature="0"
       id="path4118"
       d="m 525.56753,529.50466 0.0943,-261.26127 z"
       style="fill:none;stroke:#000000;stroke-width:5.80793333;stroke-linecap:round;stroke-linejoin:miter;stroke-miterlimit:4;stroke-opacity:1;stroke-dasharray:none;display:inline" />
    <rect
       style="fill:url(#linearGradient3777);fill-opacity:1;fill-rule:nonzero;stroke:none;display:inline"
       id="rect3001"
       width="137.38065"
       height="261.19589"
       x="385.4245"
       y="268.20203"
       ry="0.81094354" />
    <path
       inkscape:connector-curvature="0"
       id="path3024"
       d="m 139.57282,398.89353 0,-130.5272 192.34843,0 192.3484,0 0,130.5272 0,130.52723 -192.3484,0 -192.34843,0 0,-130.52723 z"
       style="fill:url(#radialGradient3800);fill-opacity:1;fill-rule:nonzero;stroke:#0b0b0b;stroke-width:0.74182487;stroke-linecap:butt;stroke-miterlimit:4;stroke-opacity:0;stroke-dasharray:none;display:inline" />
  </g>
  <g
     inkscape:groupmode="layer"
     id="layer2"
     inkscape:label="Layer"
     style="display:inline">
    <path
       sodipodi:type="arc"
       style="fill:#8f9697;fill-opacity:1;fill-rule:nonzero;stroke:#414646;stroke-width:69.58421326;stroke-linecap:round;stroke-linejoin:round;stroke-miterlimit:4;stroke-opacity:1;stroke-dasharray:none;display:inline"
       id="path3777-8"
       sodipodi:cx="-384.28571"
       sodipodi:cy="272.36218"
       sodipodi:rx="230"
       sodipodi:ry="228.57143"
       d="m -154.28571,272.36218 a 230,228.57143 0 1 1 -460,0 230,228.57143 0 1 1 460,0 z"
       transform="matrix(0.03931866,0.025448,-0.02542517,0.03935399,362.29426,213.65755)" />
    <rect
       style="fill:#414646;fill-opacity:1;fill-rule:nonzero;stroke:none;display:inline"
       id="rect3840-9"
       width="23.942963"
       height="6.5568027"
       x="390.24118"
       y="-8.0161572"
       ry="0.10739997"
       transform="matrix(0.83950673,0.54334929,-0.54266169,0.83995136,0,0)" />
    <path
       style="fill:#414646;fill-opacity:1;stroke:#000000;stroke-width:0.04074508px;stroke-linecap:butt;stroke-linejoin:miter;stroke-opacity:0;display:inline"
       d="m 328.46314,210.82158 0.60602,-1.5447 0.55031,-1.04137 0.94435,-1.4238 0.97189,-1.08726 0.45093,-0.39464 z"
       id="path3864-7"
       inkscape:connector-curvature="0" />
    <path
       inkscape:connector-curvature="0"
       id="path3866-8"
       d="m 328.46314,210.82158 0.60602,-1.5447 0.55031,-1.04137 0.94435,-1.4238 0.97189,-1.08726 0.45093,-0.39464 z"
       style="fill:#414646;fill-opacity:1;stroke:#000000;stroke-width:0.04074508px;stroke-linecap:butt;stroke-linejoin:miter;stroke-opacity:0;display:inline" />
    <path
       style="fill:#414646;fill-opacity:1;stroke:#000000;stroke-width:0.04074508px;stroke-linecap:butt;stroke-linejoin:miter;stroke-opacity:0;display:inline"
       d="m 328.46314,210.82158 0.60602,-1.5447 0.55031,-1.04137 0.94435,-1.4238 0.97189,-1.08726 0.45093,-0.39464 z"
       id="path3879-2"
       inkscape:connector-curvature="0" />
    <path
       style="fill:#414646;fill-opacity:1;stroke:#000000;stroke-width:0.04074508px;stroke-linecap:butt;stroke-linejoin:miter;stroke-opacity:0;display:inline"
       d="m 351.96329,218.25918 0.10364,0.0671 -0.30146,0.88369 -0.44265,0.98846 -0.65187,1.12273 -0.55088,0.79581 -0.51588,0.64683 -0.85767,0.89149 -0.25695,0.18918 -0.03,-0.10524 z"
       id="path3892-2"
       inkscape:connector-curvature="0" />
    <path
       style="fill:#323636;fill-opacity:1;fill-rule:nonzero;stroke:none;display:inline"
       d="m 336.72665,226.27157 c -6.67731,-2.17172 -10.08674,-9.01956 -7.99717,-16.06224 0.46625,-1.57143 1.11026,-2.55339 2.68193,-4.08921 2.8256,-2.76113 5.50995,-3.76939 9.43305,-3.54313 4.60502,0.26561 8.16538,2.55801 10.35118,6.66477 0.90939,1.70862 1.02584,2.35153 1.01392,5.59788 -0.0153,4.16794 -0.64713,5.84728 -3.13793,8.34032 -2.97852,2.9812 -8.46214,4.35448 -12.34498,3.09161 l 0,0 z m 6.55578,-3.16775 c 0.99219,-0.33838 1.89038,-0.75517 1.99601,-0.9262 0.1681,-0.27223 -13.2802,-9.26828 -13.85528,-9.26828 -0.51609,0 -0.14673,3.79513 0.51026,5.24303 2.00295,4.41405 6.79473,6.50465 11.34901,4.95145 z m 5.69572,-11.00081 c -1.53359,-5.14349 -7.51977,-7.92918 -12.33755,-5.74137 -0.93319,0.42379 -1.62748,0.83618 -1.54286,0.91644 0.0846,0.0803 3.27814,2.17672 7.09673,4.65882 l 6.94284,4.51288 0.12697,-1.48067 c 0.0698,-0.81438 -0.0589,-2.10412 -0.28613,-2.8661 z"
       id="path3834"
       inkscape:connector-curvature="0" />
    <path
       style="fill:#292d2d;fill-opacity:1;fill-rule:nonzero;stroke:none;display:inline"
       d="m 337.1076,226.44236 c -6.37803,-2.14568 -9.93704,-7.78273 -8.88191,-14.06788 0.70629,-4.20706 2.66455,-6.76608 6.69999,-8.75547 7.90804,-3.89847 17.5918,2.14531 17.5918,10.97932 0,5.12673 -3.06773,9.58632 -7.84819,11.40894 -1.95708,0.74618 -5.95349,0.97613 -7.56169,0.43509 z m 6.31813,-3.44599 c 0.84233,-0.29633 1.60452,-0.61183 1.69374,-0.70112 0.0892,-0.0892 -0.14277,-0.40649 -0.51555,-0.70483 -0.97788,-0.78265 -10.52423,-7.11368 -12.10797,-8.02987 l -1.33876,-0.77447 0.16059,2.12525 c 0.19496,2.58014 1.02404,4.43506 2.73122,6.11053 2.38907,2.34475 6.10184,3.12657 9.37673,1.97451 z m 5.40241,-11.02819 c -1.73609,-5.31259 -7.81483,-7.83993 -12.7704,-5.30953 l -1.06716,0.54492 4.19504,2.72542 c 2.30727,1.49899 5.48373,3.57574 7.05881,4.615 l 2.86378,1.88955 0.0833,-1.5493 c 0.0494,-0.91916 -0.0984,-2.10522 -0.36336,-2.91606 l 0,0 z"
       id="path3837"
       inkscape:connector-curvature="0" />
    <path
       transform="matrix(0.03931866,0.025448,-0.02542517,0.03935399,362.29426,213.65755)"
       d="m -154.28571,272.36218 a 230,228.57143 0 1 1 -460,0 230,228.57143 0 1 1 460,0 z"
       sodipodi:ry="228.57143"
       sodipodi:rx="230"
       sodipodi:cy="272.36218"
       sodipodi:cx="-384.28571"
       id="path3857"
       style="fill:#8f9697;fill-opacity:1;fill-rule:nonzero;stroke:#414646;stroke-width:69.58421326;stroke-linecap:round;stroke-linejoin:round;stroke-miterlimit:4;stroke-opacity:1;stroke-dasharray:none;display:inline"
       sodipodi:type="arc" />
    <rect
       transform="matrix(0.83950673,0.54334929,-0.54266169,0.83995136,0,0)"
       ry="0.10739997"
       y="-8.0161572"
       x="390.24118"
       height="6.5568027"
       width="23.942963"
       id="rect3859"
       style="fill:#414646;fill-opacity:1;fill-rule:nonzero;stroke:none;display:inline" />
    <path
       inkscape:connector-curvature="0"
       id="path3861"
       d="m 328.46314,210.82158 0.60602,-1.5447 0.55031,-1.04137 0.94435,-1.4238 0.97189,-1.08726 0.45093,-0.39464 z"
       style="fill:#414646;fill-opacity:1;stroke:#000000;stroke-width:0.04074508px;stroke-linecap:butt;stroke-linejoin:miter;stroke-opacity:0;display:inline" />
    <path
       style="fill:#414646;fill-opacity:1;stroke:#000000;stroke-width:0.04074508px;stroke-linecap:butt;stroke-linejoin:miter;stroke-opacity:0;display:inline"
       d="m 328.46314,210.82158 0.60602,-1.5447 0.55031,-1.04137 0.94435,-1.4238 0.97189,-1.08726 0.45093,-0.39464 z"
       id="path3863"
       inkscape:connector-curvature="0" />
    <path
       inkscape:connector-curvature="0"
       id="path3865"
       d="m 328.46314,210.82158 0.60602,-1.5447 0.55031,-1.04137 0.94435,-1.4238 0.97189,-1.08726 0.45093,-0.39464 z"
       style="fill:#414646;fill-opacity:1;stroke:#000000;stroke-width:0.04074508px;stroke-linecap:butt;stroke-linejoin:miter;stroke-opacity:0;display:inline" />
    <path
       inkscape:connector-curvature="0"
       id="path3867"
       d="m 351.96329,218.25918 0.10364,0.0671 -0.30146,0.88369 -0.44265,0.98846 -0.65187,1.12273 -0.55088,0.79581 -0.51588,0.64683 -0.85767,0.89149 -0.25695,0.18918 -0.03,-0.10524 z"
       style="fill:#414646;fill-opacity:1;stroke:#000000;stroke-width:0.04074508px;stroke-linecap:butt;stroke-linejoin:miter;stroke-opacity:0;display:inline" />
    <path
       inkscape:connector-curvature="0"
       id="path3927"
       d="m 336.72665,226.27157 c -6.67731,-2.17172 -10.08674,-9.01956 -7.99717,-16.06224 0.46625,-1.57143 1.11026,-2.55339 2.68193,-4.08921 2.8256,-2.76113 5.50995,-3.76939 9.43305,-3.54313 4.60502,0.26561 8.16538,2.55801 10.35118,6.66477 0.90939,1.70862 1.02584,2.35153 1.01392,5.59788 -0.0153,4.16794 -0.64713,5.84728 -3.13793,8.34032 -2.97852,2.9812 -8.46214,4.35448 -12.34498,3.09161 l 0,0 z m 6.55578,-3.16775 c 0.99219,-0.33838 1.89038,-0.75517 1.99601,-0.9262 0.1681,-0.27223 -13.2802,-9.26828 -13.85528,-9.26828 -0.51609,0 -0.14673,3.79513 0.51026,5.24303 2.00295,4.41405 6.79473,6.50465 11.34901,4.95145 z m 5.69572,-11.00081 c -1.53359,-5.14349 -7.51977,-7.92918 -12.33755,-5.74137 -0.93319,0.42379 -1.62748,0.83618 -1.54286,0.91644 0.0846,0.0803 3.27814,2.17672 7.09673,4.65882 l 6.94284,4.51288 0.12697,-1.48067 c 0.0698,-0.81438 -0.0589,-2.10412 -0.28613,-2.8661 z"
       style="fill:#323636;fill-opacity:1;fill-rule:nonzero;stroke:none;display:inline" />
    <path
       inkscape:connector-curvature="0"
       id="path3939"
       d="m 337.1076,226.44236 c -6.37803,-2.14568 -9.93704,-7.78273 -8.88191,-14.06788 0.70629,-4.20706 2.66455,-6.76608 6.69999,-8.75547 7.90804,-3.89847 17.5918,2.14531 17.5918,10.97932 0,5.12673 -3.06773,9.58632 -7.84819,11.40894 -1.95708,0.74618 -5.95349,0.97613 -7.56169,0.43509 z m 6.31813,-3.44599 c 0.84233,-0.29633 1.60452,-0.61183 1.69374,-0.70112 0.0892,-0.0892 -0.14277,-0.40649 -0.51555,-0.70483 -0.97788,-0.78265 -10.52423,-7.11368 -12.10797,-8.02987 l -1.33876,-0.77447 0.16059,2.12525 c 0.19496,2.58014 1.02404,4.43506 2.73122,6.11053 2.38907,2.34475 6.10184,3.12657 9.37673,1.97451 z m 5.40241,-11.02819 c -1.73609,-5.31259 -7.81483,-7.83993 -12.7704,-5.30953 l -1.06716,0.54492 4.19504,2.72542 c 2.30727,1.49899 5.48373,3.57574 7.05881,4.615 l 2.86378,1.88955 0.0833,-1.5493 c 0.0494,-0.91916 -0.0984,-2.10522 -0.36336,-2.91606 l 0,0 z"
       style="fill:#292d2d;fill-opacity:1;fill-rule:nonzero;stroke:none;display:inline" />
    <path
       sodipodi:type="arc"
       style="fill:#8f9697;fill-opacity:1;fill-rule:nonzero;stroke:#414646;stroke-width:69.58421326;stroke-linecap:round;stroke-linejoin:round;stroke-miterlimit:4;stroke-opacity:1;stroke-dasharray:none;display:inline"
       id="path3953"
       sodipodi:cx="-384.28571"
       sodipodi:cy="272.36218"
       sodipodi:rx="230"
       sodipodi:ry="228.57143"
       d="m -154.28571,272.36218 a 230,228.57143 0 1 1 -460,0 230,228.57143 0 1 1 460,0 z"
       transform="matrix(-0.03919043,0.02543869,0.02534223,0.03933957,149.88612,213.72914)" />
    <rect
       style="fill:#414646;fill-opacity:1;fill-rule:nonzero;stroke:none;display:inline"
       id="rect3955"
       width="23.885361"
       height="6.5488162"
       x="-40.199203"
       y="270.33948"
       ry="0.10726915"
       transform="matrix(-0.83878665,0.54446024,0.54155134,0.84066768,0,0)" />
    <path
       style="fill:#414646;fill-opacity:1;stroke:#000000;stroke-width:0.04067113px;stroke-linecap:butt;stroke-linejoin:miter;stroke-opacity:0;display:inline"
       d="m 183.60691,210.89422 -0.60406,-1.54412 -0.54852,-1.04099 -0.94127,-1.42329 -0.9687,-1.08685 -0.44946,-0.3945 z"
       id="path3957"
       inkscape:connector-curvature="0" />
    <path
       inkscape:connector-curvature="0"
       id="path3959"
       d="m 183.60691,210.89422 -0.60406,-1.54412 -0.54852,-1.04099 -0.94127,-1.42329 -0.9687,-1.08685 -0.44946,-0.3945 z"
       style="fill:#414646;fill-opacity:1;stroke:#000000;stroke-width:0.04067113px;stroke-linecap:butt;stroke-linejoin:miter;stroke-opacity:0;display:inline" />
    <path
       style="fill:#414646;fill-opacity:1;stroke:#000000;stroke-width:0.04067113px;stroke-linecap:butt;stroke-linejoin:miter;stroke-opacity:0;display:inline"
       d="m 183.60691,210.89422 -0.60406,-1.54412 -0.54852,-1.04099 -0.94127,-1.42329 -0.9687,-1.08685 -0.44946,-0.3945 z"
       id="path3961"
       inkscape:connector-curvature="0" />
    <path
       style="fill:#414646;fill-opacity:1;stroke:#000000;stroke-width:0.04067113px;stroke-linecap:butt;stroke-linejoin:miter;stroke-opacity:0;display:inline"
       d="m 160.18339,218.32911 -0.10329,0.0671 0.30047,0.88335 0.44122,0.9881 0.64974,1.12231 0.54908,0.79554 0.5142,0.64659 0.85486,0.89115 0.25613,0.18913 0.0299,-0.10521 z"
       id="path3963"
       inkscape:connector-curvature="0" />
    <path
       style="fill:#323636;fill-opacity:1;fill-rule:nonzero;stroke:none;display:inline"
       d="m 175.37035,226.33857 c 6.65551,-2.17094 10.05384,-9.01626 7.9711,-16.05635 -0.46473,-1.57086 -1.10667,-2.55248 -2.67321,-4.08774 -2.81638,-2.76011 -5.49197,-3.76801 -9.40228,-3.54182 -4.58998,0.26551 -8.13874,2.55708 -10.3174,6.66234 -0.90644,1.70798 -1.02252,2.35066 -1.01063,5.59583 0.0152,4.1664 0.64502,5.84512 3.1277,8.33727 2.96881,2.98007 8.43453,4.35289 12.30472,3.09047 l 0,0 z m -6.5344,-3.16659 c -0.98896,-0.33826 -1.88423,-0.7549 -1.98949,-0.92586 -0.16756,-0.27213 13.23688,-9.26487 13.81006,-9.26487 0.51442,0 0.14626,3.79372 -0.50859,5.24107 -1.99641,4.41245 -6.77257,6.50226 -11.31198,4.94966 z M 163.1588,212.1752 c 1.52859,-5.14161 7.49524,-7.92627 12.29731,-5.73925 0.93016,0.42362 1.62218,0.83583 1.53783,0.91608 -0.0844,0.0803 -3.26744,2.17592 -7.07358,4.65712 l -6.9202,4.51124 -0.12655,-1.48017 c -0.0696,-0.81405 0.0588,-2.10333 0.28519,-2.86502 z"
       id="path4021"
       inkscape:connector-curvature="0" />
    <path
       style="fill:#292d2d;fill-opacity:1;fill-rule:nonzero;stroke:none;display:inline"
       d="m 174.99064,226.5093 c 6.35722,-2.14491 9.90463,-7.77989 8.85293,-14.06275 -0.70397,-4.20551 -2.65584,-6.7636 -6.67813,-8.75224 -7.88224,-3.89704 -17.53444,2.1445 -17.53444,10.97527 0,5.12486 3.05776,9.58283 7.82261,11.40478 1.9507,0.74592 5.93406,0.97579 7.53703,0.43494 z m -6.29753,-3.44473 c -0.83958,-0.29622 -1.59929,-0.6116 -1.68821,-0.70089 -0.0889,-0.0893 0.14231,-0.40631 0.51388,-0.70455 0.97468,-0.78236 10.48989,-7.11106 12.06846,-8.02693 l 1.33442,-0.77419 -0.1601,2.12447 c -0.19431,2.5792 -1.02069,4.43343 -2.72229,6.1083 -2.38129,2.34389 -6.08196,3.12544 -9.34616,1.97379 z m -5.38477,-11.02417 c 1.73043,-5.31064 7.78931,-7.83706 12.72873,-5.30757 l 1.06368,0.54471 -4.18135,2.72444 c -2.29975,1.49844 -5.46584,3.57443 -7.03579,4.6133 l -2.85445,1.88885 -0.083,-1.54874 c -0.0493,-0.91882 0.0981,-2.10443 0.3622,-2.91499 l 0,0 z"
       id="path4033"
       inkscape:connector-curvature="0" />
  </g>
  <g
     inkscape:groupmode="layer"
     id="layer3"
     inkscape:label="Layer#1"
     style="display:inline">
    <path
       sodipodi:type="arc"
       style="fill:#8f9697;fill-opacity:1;fill-rule:nonzero;stroke:#414646;stroke-width:69.58421326;stroke-linecap:round;stroke-linejoin:round;stroke-miterlimit:4;stroke-opacity:1;stroke-dasharray:none;display:inline"
       id="path3777"
       sodipodi:cx="-384.28571"
       sodipodi:cy="272.36218"
       sodipodi:rx="230"
       sodipodi:ry="228.57143"
       d="m -154.28571,272.36218 a 230,228.57143 0 1 1 -460,0 230,228.57143 0 1 1 460,0 z"
       transform="matrix(0.00927324,-0.04513568,0.03280086,0.01276046,415.6215,193.77943)" />
    <rect
       style="fill:#414646;fill-opacity:1;fill-rule:nonzero;stroke:none;display:inline"
       id="rect3840"
       width="23.555975"
       height="4.9254403"
       x="-59.863659"
       y="459.62888"
       ry="0.080678366"
       transform="matrix(0.20124903,-0.97954011,0.93196076,0.36255916,0,0)" />
    <path
       style="fill:#414646;fill-opacity:1;stroke:#000000;stroke-width:0.03477926px;stroke-linecap:butt;stroke-linejoin:miter;stroke-opacity:0;display:inline"
       d="m 420.89268,227.00576 -1.20357,-0.12559 -0.84173,-0.2204 -1.19196,-0.48507 -0.96389,-0.61055 -0.37088,-0.31557 z"
       id="path3864"
       inkscape:connector-curvature="0" />
    <path
       inkscape:connector-curvature="0"
       id="path3866"
       d="m 420.89268,227.00576 -1.20357,-0.12559 -0.84173,-0.2204 -1.19196,-0.48507 -0.96389,-0.61055 -0.37088,-0.31557 z"
       style="fill:#414646;fill-opacity:1;stroke:#000000;stroke-width:0.03477926px;stroke-linecap:butt;stroke-linejoin:miter;stroke-opacity:0;display:inline" />
    <path
       style="fill:#414646;fill-opacity:1;stroke:#000000;stroke-width:0.03477926px;stroke-linecap:butt;stroke-linejoin:miter;stroke-opacity:0;display:inline"
       d="m 420.89268,227.00576 -1.20357,-0.12559 -0.84173,-0.2204 -1.19196,-0.48507 -0.96389,-0.61055 -0.37088,-0.31557 z"
       id="path3879"
       inkscape:connector-curvature="0" />
    <path
       style="fill:#414646;fill-opacity:1;stroke:#000000;stroke-width:0.03477926px;stroke-linecap:butt;stroke-linejoin:miter;stroke-opacity:0;display:inline"
       d="m 421.03212,202.31647 0.0245,-0.11899 0.67884,0.0285 0.78191,0.1329 0.92005,0.2937 0.67116,0.29319 0.5601,0.30355 0.80334,0.55879 0.18653,0.19034 -0.0667,0.0596 z"
       id="path3892"
       inkscape:connector-curvature="0" />
    <path
       style="fill:#2a2e2e;fill-opacity:1;fill-rule:nonzero;stroke:none;display:inline"
       d="m 418.80804,226.60019 c -0.77218,-0.28671 -1.47838,-0.52896 -1.56933,-0.53833 -0.0909,-0.01 -0.65573,-0.58214 -1.25509,-1.27281 -2.92719,-3.37318 -3.63384,-5.34554 -3.63384,-10.14268 0,-2.91032 0.1123,-3.79159 0.68866,-5.40331 2.0926,-5.85188 7.52793,-8.60493 11.58979,-5.87036 1.82647,1.22964 3.66933,3.82824 4.52169,6.37595 0.93049,2.78124 0.84392,7.29083 -0.19413,10.11396 -1.61308,4.38701 -3.6279,6.19324 -7.90137,7.08338 -0.46332,0.0965 -1.4742,-0.0591 -2.24638,-0.3458 z m 4.81252,-3.67219 c 0.96157,-0.49457 2.6176,-2.68032 3.17994,-4.19703 0.77678,-2.09524 0.94909,-4.55618 0.46979,-6.71016 -0.40621,-1.8256 -1.67237,-4.52261 -2.1232,-4.52261 -0.2144,0 -3.3907,14.82931 -3.3907,15.83023 0,0.43965 0.39637,0.35452 1.86417,-0.40043 l 0,0 z m -4.90301,-9.37044 c 0.87685,-4.28426 1.55252,-7.84701 1.5015,-7.91721 -0.051,-0.0701 -0.64208,0.097 -1.31347,0.37142 -1.58627,0.64852 -3.64525,3.45041 -4.10664,5.58832 -0.49877,2.31116 -0.4115,4.73349 0.24196,6.71697 0.61181,1.85698 1.65153,3.61845 1.91969,3.25227 0.0895,-0.12222 0.8801,-3.72751 1.75696,-8.01177 l 0,0 z"
       id="path3836"
       inkscape:connector-curvature="0" />
    <path
       transform="matrix(0.00927324,-0.04513568,0.03280086,0.01276046,415.6215,193.77943)"
       d="m -154.28571,272.36218 a 230,228.57143 0 1 1 -460,0 230,228.57143 0 1 1 460,0 z"
       sodipodi:ry="228.57143"
       sodipodi:rx="230"
       sodipodi:cy="272.36218"
       sodipodi:cx="-384.28571"
       id="path3845"
       style="fill:#8f9697;fill-opacity:1;fill-rule:nonzero;stroke:#414646;stroke-width:69.58421326;stroke-linecap:round;stroke-linejoin:round;stroke-miterlimit:4;stroke-opacity:1;stroke-dasharray:none;display:inline"
       sodipodi:type="arc" />
    <rect
       transform="matrix(0.20124903,-0.97954011,0.93196076,0.36255916,0,0)"
       ry="0.080678366"
       y="459.62888"
       x="-59.863659"
       height="4.9254403"
       width="23.555975"
       id="rect3847"
       style="fill:#414646;fill-opacity:1;fill-rule:nonzero;stroke:none;display:inline" />
    <path
       inkscape:connector-curvature="0"
       id="path3849"
       d="m 420.89268,227.00576 -1.20357,-0.12559 -0.84173,-0.2204 -1.19196,-0.48507 -0.96389,-0.61055 -0.37088,-0.31557 z"
       style="fill:#414646;fill-opacity:1;stroke:#000000;stroke-width:0.03477926px;stroke-linecap:butt;stroke-linejoin:miter;stroke-opacity:0;display:inline" />
    <path
       style="fill:#414646;fill-opacity:1;stroke:#000000;stroke-width:0.03477926px;stroke-linecap:butt;stroke-linejoin:miter;stroke-opacity:0;display:inline"
       d="m 420.89268,227.00576 -1.20357,-0.12559 -0.84173,-0.2204 -1.19196,-0.48507 -0.96389,-0.61055 -0.37088,-0.31557 z"
       id="path3851"
       inkscape:connector-curvature="0" />
    <path
       inkscape:connector-curvature="0"
       id="path3853"
       d="m 420.89268,227.00576 -1.20357,-0.12559 -0.84173,-0.2204 -1.19196,-0.48507 -0.96389,-0.61055 -0.37088,-0.31557 z"
       style="fill:#414646;fill-opacity:1;stroke:#000000;stroke-width:0.03477926px;stroke-linecap:butt;stroke-linejoin:miter;stroke-opacity:0;display:inline" />
    <path
       inkscape:connector-curvature="0"
       id="path3855"
       d="m 421.03212,202.31647 0.0245,-0.11899 0.67884,0.0285 0.78191,0.1329 0.92005,0.2937 0.67116,0.29319 0.5601,0.30355 0.80334,0.55879 0.18653,0.19034 -0.0667,0.0596 z"
       style="fill:#414646;fill-opacity:1;stroke:#000000;stroke-width:0.03477926px;stroke-linecap:butt;stroke-linejoin:miter;stroke-opacity:0;display:inline" />
    <path
       inkscape:connector-curvature="0"
       id="path3929"
       d="m 418.80804,226.60019 c -0.77218,-0.28671 -1.47838,-0.52896 -1.56933,-0.53833 -0.0909,-0.01 -0.65573,-0.58214 -1.25509,-1.27281 -2.92719,-3.37318 -3.63384,-5.34554 -3.63384,-10.14268 0,-2.91032 0.1123,-3.79159 0.68866,-5.40331 2.0926,-5.85188 7.52793,-8.60493 11.58979,-5.87036 1.82647,1.22964 3.66933,3.82824 4.52169,6.37595 0.93049,2.78124 0.84392,7.29083 -0.19413,10.11396 -1.61308,4.38701 -3.6279,6.19324 -7.90137,7.08338 -0.46332,0.0965 -1.4742,-0.0591 -2.24638,-0.3458 z m 4.81252,-3.67219 c 0.96157,-0.49457 2.6176,-2.68032 3.17994,-4.19703 0.77678,-2.09524 0.94909,-4.55618 0.46979,-6.71016 -0.40621,-1.8256 -1.67237,-4.52261 -2.1232,-4.52261 -0.2144,0 -3.3907,14.82931 -3.3907,15.83023 0,0.43965 0.39637,0.35452 1.86417,-0.40043 l 0,0 z m -4.90301,-9.37044 c 0.87685,-4.28426 1.55252,-7.84701 1.5015,-7.91721 -0.051,-0.0701 -0.64208,0.097 -1.31347,0.37142 -1.58627,0.64852 -3.64525,3.45041 -4.10664,5.58832 -0.49877,2.31116 -0.4115,4.73349 0.24196,6.71697 0.61181,1.85698 1.65153,3.61845 1.91969,3.25227 0.0895,-0.12222 0.8801,-3.72751 1.75696,-8.01177 l 0,0 z"
       style="fill:#2a2e2e;fill-opacity:1;fill-rule:nonzero;stroke:none;display:inline" />
    <path
       sodipodi:type="arc"
       style="fill:#8f9697;fill-opacity:1;fill-rule:nonzero;stroke:#414646;stroke-width:69.58421326;stroke-linecap:round;stroke-linejoin:round;stroke-miterlimit:4;stroke-opacity:1;stroke-dasharray:none;display:inline"
       id="path3941"
       sodipodi:cx="-384.28571"
       sodipodi:cy="272.36218"
       sodipodi:rx="230"
       sodipodi:ry="228.57143"
       d="m -154.28571,272.36218 a 230,228.57143 0 1 1 -460,0 230,228.57143 0 1 1 460,0 z"
       transform="matrix(-0.00924299,-0.04511916,-0.03269388,0.0127558,96.712661,193.85833)" />
    <rect
       style="fill:#414646;fill-opacity:1;fill-rule:nonzero;stroke:none;display:inline"
       id="rect3943"
       width="23.544592"
       height="4.911253"
       x="-248.41769"
       y="-49.562908"
       ry="0.080445975"
       transform="matrix(-0.20068963,-0.97965487,-0.93160458,0.36347338,0,0)" />
    <path
       style="fill:#414646;fill-opacity:1;stroke:#000000;stroke-width:0.03471614px;stroke-linecap:butt;stroke-linejoin:miter;stroke-opacity:0;display:inline"
       d="m 91.45866,227.0725 1.199661,-0.12557 0.83898,-0.22032 1.18806,-0.4849 0.96074,-0.61029 0.36968,-0.31547 z"
       id="path3945"
       inkscape:connector-curvature="0" />
    <path
       inkscape:connector-curvature="0"
       id="path3947"
       d="m 91.45866,227.0725 1.199661,-0.12557 0.83898,-0.22032 1.18806,-0.4849 0.96074,-0.61029 0.36968,-0.31547 z"
       style="fill:#414646;fill-opacity:1;stroke:#000000;stroke-width:0.03471614px;stroke-linecap:butt;stroke-linejoin:miter;stroke-opacity:0;display:inline" />
    <path
       style="fill:#414646;fill-opacity:1;stroke:#000000;stroke-width:0.03471614px;stroke-linecap:butt;stroke-linejoin:miter;stroke-opacity:0;display:inline"
       d="m 91.45866,227.0725 1.199661,-0.12557 0.83898,-0.22032 1.18806,-0.4849 0.96074,-0.61029 0.36968,-0.31547 z"
       id="path3949"
       inkscape:connector-curvature="0" />
    <path
       style="fill:#414646;fill-opacity:1;stroke:#000000;stroke-width:0.03471614px;stroke-linecap:butt;stroke-linejoin:miter;stroke-opacity:0;display:inline"
       d="m 91.31968,202.39224 -0.0244,-0.11894 -0.67663,0.0285 -0.77936,0.13282 -0.91705,0.2936 -0.66897,0.2931 -0.55827,0.30344 -0.80073,0.55858 -0.18593,0.19027 0.0664,0.0596 z"
       id="path3951"
       inkscape:connector-curvature="0" />
    <path
       style="fill:#2a2e2e;fill-opacity:1;fill-rule:nonzero;stroke:none;display:inline"
       d="m 93.536511,226.66705 c 0.76967,-0.28659 1.47355,-0.52873 1.5642,-0.53811 0.0906,-0.01 0.6536,-0.58193 1.251,-1.27234 2.91766,-3.37195 3.622,-5.34361 3.622,-10.13897 0,-2.90925 -0.11194,-3.7902 -0.68642,-5.40134 -2.08578,-5.84976 -7.503401,-8.60181 -11.552001,-5.86822 -1.82051,1.22921 -3.65736,3.82684 -4.50693,6.37362 -0.92745,2.78023 -0.84117,7.28816 0.19348,10.11025 1.60785,4.38543 3.61608,6.19099 7.87562,7.08079 0.46179,0.0965 1.469391,-0.0591 2.239051,-0.34568 z m -4.796821,-3.67084 c -0.95845,-0.49439 -2.60908,-2.67932 -3.16957,-4.19549 -0.77425,-2.09446 -0.94599,-4.5545 -0.46828,-6.70767 0.40491,-1.82493 1.66693,-4.52098 2.11629,-4.52098 0.21371,0 3.37963,14.82388 3.37963,15.82443 0,0.43951 -0.39507,0.35438 -1.85807,-0.40029 l 0,0 z m 4.887031,-9.36701 c -0.87401,-4.28269 -1.547481,-7.84411 -1.496641,-7.91431 0.0508,-0.0701 0.640011,0.0969 1.309201,0.37131 1.58109,0.64828 3.63335,3.44911 4.09325,5.58628 0.49714,2.3103 0.41016,4.73174 -0.24118,6.7145 -0.60981,1.85628 -1.64614,3.61713 -1.91341,3.25107 -0.0892,-0.12218 -0.87724,-3.72614 -1.75122,-8.00885 l 0,0 z"
       id="path4023"
       inkscape:connector-curvature="0" />
  </g>
</svg>
