<?xml version="1.0" encoding="UTF-8" standalone="no"?>
<!-- Created with Inkscape (http://www.inkscape.org/) -->

<svg
   xmlns:dc="http://purl.org/dc/elements/1.1/"
   xmlns:cc="http://creativecommons.org/ns#"
   xmlns:rdf="http://www.w3.org/1999/02/22-rdf-syntax-ns#"
   xmlns:svg="http://www.w3.org/2000/svg"
   xmlns="http://www.w3.org/2000/svg"
   xmlns:xlink="http://www.w3.org/1999/xlink"
   xmlns:sodipodi="http://sodipodi.sourceforge.net/DTD/sodipodi-0.dtd"
   xmlns:inkscape="http://www.inkscape.org/namespaces/inkscape"
   width="512"
   height="256"
   id="svg2"
   version="1.1"
   inkscape:version="0.48.5 r10040"
   sodipodi:docname="red-2.svg"
   inkscape:export-filename="/home/sydney/Contrib/TSC/Pipes/second try done pipes/Red/red-2.png"
   inkscape:export-xdpi="90"
   inkscape:export-ydpi="90">
  <defs
     id="defs4">
    <linearGradient
       id="linearGradient3828">
      <stop
         style="stop-color:#ffffff;stop-opacity:0.50980395;"
         offset="0"
         id="stop3830" />
      <stop
         style="stop-color:#ffffff;stop-opacity:0;"
         offset="1"
         id="stop3832" />
    </linearGradient>
    <linearGradient
       id="linearGradient5275">
      <stop
         style="stop-color:#ffffff;stop-opacity:0.58823532;"
         offset="0"
         id="stop5277" />
      <stop
         style="stop-color:#3e4547;stop-opacity:0;"
         offset="1"
         id="stop5279" />
    </linearGradient>
    <linearGradient
       id="linearGradient3823">
      <stop
         style="stop-color:#870000;stop-opacity:1;"
         offset="0"
         id="stop3825" />
      <stop
         style="stop-color:#3e4547;stop-opacity:0;"
         offset="1"
         id="stop3827" />
    </linearGradient>
    <linearGradient
       id="linearGradient3853">
      <stop
         style="stop-color:#e5e5e5;stop-opacity:0.58823532;"
         offset="0"
         id="stop3855" />
      <stop
         style="stop-color:#d7f4e3;stop-opacity:0;"
         offset="1"
         id="stop3857" />
    </linearGradient>
    <linearGradient
       id="linearGradient3845">
      <stop
         style="stop-color:#e5e5e5;stop-opacity:0.58823532;"
         offset="0"
         id="stop3847" />
      <stop
         style="stop-color:#d7f4e3;stop-opacity:0;"
         offset="1"
         id="stop3849" />
    </linearGradient>
    <linearGradient
       inkscape:collect="always"
       id="linearGradient3819">
      <stop
         style="stop-color:#d7f4e3;stop-opacity:1;"
         offset="0"
         id="stop3821" />
      <stop
         style="stop-color:#d7f4e3;stop-opacity:0;"
         offset="1"
         id="stop3823" />
    </linearGradient>
    <linearGradient
       inkscape:collect="always"
       xlink:href="#linearGradient3819"
       id="linearGradient3825"
       x1="210.61681"
       y1="261.41275"
       x2="376.28183"
       y2="260.90768"
       gradientUnits="userSpaceOnUse" />
    <linearGradient
       inkscape:collect="always"
       xlink:href="#linearGradient4300"
       id="linearGradient4306"
       x1="505.11432"
       y1="545.83691"
       x2="-1130.158"
       y2="32.257023"
       gradientUnits="userSpaceOnUse" />
    <linearGradient
       inkscape:collect="always"
       id="linearGradient4300">
      <stop
         style="stop-color:#666d6e;stop-opacity:1;"
         offset="0"
         id="stop4302" />
      <stop
         style="stop-color:#666d6e;stop-opacity:0;"
         offset="1"
         id="stop4304" />
    </linearGradient>
    <linearGradient
       gradientTransform="translate(6.8602986,175.86163)"
       y2="32.257023"
       x2="-1130.158"
       y1="545.83691"
       x1="505.11432"
       gradientUnits="userSpaceOnUse"
       id="linearGradient4323"
       xlink:href="#linearGradient4300"
       inkscape:collect="always" />
    <linearGradient
       y2="233.6633"
       x2="192.07607"
       y1="233.63358"
       x1="258.53717"
       gradientTransform="matrix(1.206546,0,0,1.6692724,-159.39895,-262.64647)"
       gradientUnits="userSpaceOnUse"
       id="linearGradient4526"
       xlink:href="#linearGradient3845-5"
       inkscape:collect="always" />
    <linearGradient
       inkscape:collect="always"
       id="linearGradient3845-5">
      <stop
         style="stop-color:#d7f4e3;stop-opacity:1;"
         offset="0"
         id="stop3847-0" />
      <stop
         style="stop-color:#d7f4e3;stop-opacity:0;"
         offset="1"
         id="stop3849-3" />
    </linearGradient>
    <linearGradient
       y2="244.68396"
       x2="342.45535"
       y1="245.04109"
       x1="272.18933"
       gradientTransform="matrix(1.0931849,0,0,1.6694193,-135.40335,-262.67129)"
       gradientUnits="userSpaceOnUse"
       id="linearGradient4560"
       xlink:href="#linearGradient3853-2"
       inkscape:collect="always" />
    <linearGradient
       inkscape:collect="always"
       id="linearGradient3853-2">
      <stop
         style="stop-color:#d7f4e3;stop-opacity:1;"
         offset="0"
         id="stop3855-6" />
      <stop
         style="stop-color:#d7f4e3;stop-opacity:0;"
         offset="1"
         id="stop3857-7" />
    </linearGradient>
    <linearGradient
       inkscape:collect="always"
       xlink:href="#linearGradient3845-5"
       id="linearGradient4640"
       gradientUnits="userSpaceOnUse"
       gradientTransform="matrix(1.206546,0,0,1.6692724,-48.274525,96.344473)"
       x1="258.53717"
       y1="233.63358"
       x2="192.07607"
       y2="233.6633" />
    <linearGradient
       inkscape:collect="always"
       xlink:href="#linearGradient3853-2"
       id="linearGradient4642"
       gradientUnits="userSpaceOnUse"
       gradientTransform="matrix(1.0931849,0,0,1.6694193,-24.278925,96.319653)"
       x1="272.18933"
       y1="245.04109"
       x2="342.45535"
       y2="244.68396" />
    <linearGradient
       inkscape:collect="always"
       xlink:href="#linearGradient3823"
       id="linearGradient3829"
       x1="637.40631"
       y1="254.34167"
       x2="465.32138"
       y2="254.51497"
       gradientUnits="userSpaceOnUse"
       gradientTransform="matrix(0.76618234,0,0,0.76618234,48.896147,-9.0519507)" />
    <radialGradient
       inkscape:collect="always"
       xlink:href="#linearGradient5275"
       id="radialGradient5285"
       cx="273.01645"
       cy="288.87381"
       fx="273.01645"
       fy="288.87381"
       r="78.286819"
       gradientTransform="matrix(1.0359497,0.02021381,-0.73621119,55.221769,193.7037,-15619.71)"
       gradientUnits="userSpaceOnUse"
       spreadMethod="pad" />
    <radialGradient
       inkscape:collect="always"
       xlink:href="#linearGradient3828"
       id="radialGradient3836"
       cx="285.26718"
       cy="263.29697"
       fx="285.26718"
       fy="263.29697"
       r="288.78308"
       gradientTransform="matrix(0.44946676,0.0030047,-0.00910876,1.3852964,142.66214,-175.20867)"
       gradientUnits="userSpaceOnUse" />
    <radialGradient
       inkscape:collect="always"
       xlink:href="#linearGradient3794"
       id="radialGradient3800"
       cx="285.59552"
       cy="528.03241"
       fx="285.59552"
       fy="528.03241"
       r="254.59781"
       gradientTransform="matrix(0.46033453,2.4555608e-8,-8.8510553e-8,2.1952087,137.03144,-758.346)"
       gradientUnits="userSpaceOnUse" />
    <linearGradient
       id="linearGradient3794">
      <stop
         style="stop-color:#ffffff;stop-opacity:0.50980395;"
         offset="0"
         id="stop3796" />
      <stop
         style="stop-color:#ffffff;stop-opacity:0;"
         offset="1"
         id="stop3798" />
    </linearGradient>
    <linearGradient
       inkscape:collect="always"
       xlink:href="#linearGradient3771"
       id="linearGradient3777"
       x1="616.61639"
       y1="521.85107"
       x2="456.13037"
       y2="521.85107"
       gradientUnits="userSpaceOnUse"
       gradientTransform="matrix(0.75904775,0,0,0.79841124,51.397936,-20.738074)" />
    <linearGradient
       id="linearGradient3771">
      <stop
         style="stop-color:#870000;stop-opacity:1;"
         offset="0"
         id="stop3773" />
      <stop
         style="stop-color:#3e4547;stop-opacity:0;"
         offset="1"
         id="stop3775" />
    </linearGradient>
  </defs>
  <sodipodi:namedview
     id="base"
     pagecolor="#ffffff"
     bordercolor="#666666"
     borderopacity="1.0"
     inkscape:pageopacity="0.0"
     inkscape:pageshadow="2"
     inkscape:zoom="0.7"
     inkscape:cx="-25.703212"
     inkscape:cy="163.28538"
     inkscape:document-units="px"
     inkscape:current-layer="layer2"
     showgrid="false"
     inkscape:window-width="1600"
     inkscape:window-height="847"
     inkscape:window-x="0"
     inkscape:window-y="31"
     inkscape:window-maximized="1"
     fit-margin-top="0"
     fit-margin-left="0"
     fit-margin-right="0"
     fit-margin-bottom="0" />
  <metadata
     id="metadata7">
    <rdf:RDF>
      <cc:Work
         rdf:about="">
        <dc:format>image/svg+xml</dc:format>
        <dc:type
           rdf:resource="http://purl.org/dc/dcmitype/StillImage" />
        <dc:title />
      </cc:Work>
    </rdf:RDF>
  </metadata>
  <g
     inkscape:label="Layer 1"
     inkscape:groupmode="layer"
     id="layer1"
     transform="translate(-76.552866,-108.15626)"
     style="display:inline">
    <path
       style="fill:none;stroke:#000000;stroke-width:0.76618236px;stroke-linecap:butt;stroke-linejoin:miter;stroke-opacity:1"
       d="m 111.28528,112.06346 25.17457,155.42556 392.94208,0 25.17456,-155.42556 z"
       id="path3012"
       inkscape:connector-curvature="0" />
    <path
       style="fill:#00ccff;fill-opacity:0;fill-rule:nonzero;stroke:#0b0b0b;stroke-width:0.7349878;stroke-linecap:butt;stroke-miterlimit:4;stroke-opacity:0.00465118;stroke-dasharray:none"
       d="m 136.79436,266.34838 c 0,-0.23142 -5.54114,-34.61881 -12.31365,-76.41644 -6.77251,-41.79763 -12.31365,-76.33276 -12.31365,-76.74475 0,-0.63268 34.32399,-0.74907 220.89311,-0.74907 l 220.8931,0 -0.27688,1.505 c -0.15228,0.82775 -5.77923,35.55222 -12.50433,77.1655 l -12.22745,75.66051 -196.07514,0 c -107.84131,0 -196.07511,-0.18934 -196.07511,-0.42075 z"
       id="path3019"
       inkscape:connector-curvature="0" />
    <path
       style="fill:#c10000;fill-opacity:1;fill-rule:nonzero;stroke:#0b0b0b;stroke-width:0.73476887;stroke-linecap:butt;stroke-miterlimit:4;stroke-opacity:0.00465118;stroke-dasharray:none"
       d="m 136.79436,266.33702 c 0,-0.23767 -5.54114,-34.63088 -12.31365,-76.42938 -6.77251,-41.7985 -12.31365,-76.32852 -12.31365,-76.73339 0,-0.61544 36.21523,-0.73613 220.89311,-0.73613 l 220.8931,0 -0.27775,1.505 c -0.15276,0.82775 -5.78072,35.55222 -12.50656,77.1655 l -12.2288,75.66051 -196.07291,0 c -107.84009,0 -196.07289,-0.19445 -196.07289,-0.43211 z"
       id="path3791"
       inkscape:connector-curvature="0"
       inkscape:export-filename="/home/sydney/Contrib/TSC/Pipes/Gray/gray-2.png"
       inkscape:export-xdpi="90"
       inkscape:export-ydpi="90" />
    <path
       style="fill:none;stroke:#000000;stroke-width:5.74636745;stroke-linecap:round;stroke-linejoin:round;stroke-miterlimit:4;stroke-opacity:0.98139535;stroke-dasharray:none"
       d="m 110.42605,111.13292 444.25363,0.38699 -24.76675,155.56617 -393.17221,0 z"
       id="path3827"
       inkscape:connector-curvature="0" />
    <path
       style="fill:url(#linearGradient3829);fill-opacity:1;stroke:none"
       d="m 388.27806,114.22876 162.9188,0.19349 -23.7993,149.56797 -136.41063,0 z"
       id="path3813"
       inkscape:connector-curvature="0" />
    <path
       inkscape:export-ydpi="90"
       inkscape:export-xdpi="90"
       inkscape:export-filename="/home/sydney/Contrib/TSC/Pipes/Gray/gray-2.png"
       inkscape:connector-curvature="0"
       id="path3826"
       d="m 133.51072,263.95861 c 0,-0.23116 -5.54114,-33.68174 -12.31365,-74.33466 -6.7725,-40.6529 -12.31364,-74.23655 -12.31364,-74.63033 0,-0.59857 36.21522,-0.71596 220.8931,-0.71596 l 220.89311,0 -0.27776,1.46376 c -0.15276,0.80507 -5.78071,34.57783 -12.50655,75.0506 l -12.2288,73.58686 -196.07291,0 c -107.84009,0 -196.0729,-0.18913 -196.0729,-0.42027 z"
       style="fill:url(#radialGradient3836);fill-opacity:1;fill-rule:nonzero;stroke:#0b0b0b;stroke-width:0.72462988;stroke-linecap:butt;stroke-miterlimit:4;stroke-opacity:0.00465118;stroke-dasharray:none" />
    <path
       style="fill:#c10000;fill-opacity:1;fill-rule:nonzero;stroke:#0b0b0b;stroke-width:0.7436589;stroke-linecap:butt;stroke-miterlimit:4;stroke-opacity:0;stroke-dasharray:none;display:inline"
       d="m 139.58,400.7954 0,-131.16684 192.35821,0 192.3582,0 0,131.16684 0,131.16681 -192.3582,0 -192.35821,0 0,-131.16681 z"
       id="path3997"
       inkscape:connector-curvature="0" />
    <path
       style="fill:none;stroke:#000000;stroke-width:5.82231474;stroke-linecap:round;stroke-linejoin:miter;stroke-miterlimit:4;stroke-opacity:1;stroke-dasharray:none;display:inline"
       d="m 139.44802,532.2451 0.0943,-262.59966 z"
       id="path4116"
       inkscape:connector-curvature="0" />
    <path
       inkscape:connector-curvature="0"
       id="path4118"
       d="m 525.59436,531.44653 0.0943,-262.54152 z"
       style="fill:none;stroke:#000000;stroke-width:5.82229471;stroke-linecap:round;stroke-linejoin:miter;stroke-miterlimit:4;stroke-opacity:1;stroke-dasharray:none;display:inline" />
    <rect
       style="fill:url(#linearGradient3777);fill-opacity:1;fill-rule:nonzero;stroke:none;display:inline"
       id="rect3001"
       width="137.38765"
       height="262.4758"
       x="385.44427"
       y="269.46341"
       ry="0.81491733" />
    <path
       inkscape:connector-curvature="0"
       id="path3024"
       d="m 139.58,400.7954 0,-131.16684 192.35821,0 192.3582,0 0,131.16684 0,131.16681 -192.3582,0 -192.35821,0 0,-131.16681 z"
       style="fill:url(#radialGradient3800);fill-opacity:1;fill-rule:nonzero;stroke:#0b0b0b;stroke-width:0.7436589;stroke-linecap:butt;stroke-miterlimit:4;stroke-opacity:0;stroke-dasharray:none;display:inline" />
  </g>
  <g
     inkscape:groupmode="layer"
     id="layer2"
     inkscape:label="Layer"
     style="display:inline">
    <path
       sodipodi:type="arc"
       style="fill:#8f9697;fill-opacity:1;fill-rule:nonzero;stroke:#414646;stroke-width:69.58421326;stroke-linecap:round;stroke-linejoin:round;stroke-miterlimit:4;stroke-opacity:1;stroke-dasharray:none;display:inline"
       id="path3777-8"
       sodipodi:cx="-384.28571"
       sodipodi:cy="272.36218"
       sodipodi:rx="230"
       sodipodi:ry="228.57143"
       d="m -154.28571,272.36218 a 230,228.57143 0 1 1 -460,0 230,228.57143 0 1 1 460,0 z"
       transform="matrix(0.03931866,0.02544532,-0.02542517,0.03934984,362.29421,213.65886)"
       inkscape:export-filename="/home/sydney/Contrib/TSC/Pipes/second try done pipes/Red/red-2.png"
       inkscape:export-xdpi="90"
       inkscape:export-ydpi="90" />
    <rect
       style="fill:#414646;fill-opacity:1;fill-rule:nonzero;stroke:none;display:inline"
       id="rect3840-9"
       width="23.942219"
       height="6.5563154"
       x="390.242"
       y="-7.995523"
       ry="0.10739199"
       transform="matrix(0.83953286,0.54330891,-0.54270206,0.83992528,0,0)"
       inkscape:export-filename="/home/sydney/Contrib/TSC/Pipes/second try done pipes/Red/red-2.png"
       inkscape:export-xdpi="90"
       inkscape:export-ydpi="90" />
    <path
       style="fill:#414646;fill-opacity:1;stroke:#000000;stroke-width:0.04074293px;stroke-linecap:butt;stroke-linejoin:miter;stroke-opacity:0;display:inline"
       d="m 328.4631,210.82319 0.60602,-1.54454 0.55031,-1.04126 0.94435,-1.42365 0.97189,-1.08713 0.45093,-0.39461 z"
       id="path3864-7"
       inkscape:connector-curvature="0"
       inkscape:export-filename="/home/sydney/Contrib/TSC/Pipes/second try done pipes/Red/red-2.png"
       inkscape:export-xdpi="90"
       inkscape:export-ydpi="90" />
    <path
       inkscape:connector-curvature="0"
       id="path3866-8"
       d="m 328.4631,210.82319 0.60602,-1.54454 0.55031,-1.04126 0.94435,-1.42365 0.97189,-1.08713 0.45093,-0.39461 z"
       style="fill:#414646;fill-opacity:1;stroke:#000000;stroke-width:0.04074293px;stroke-linecap:butt;stroke-linejoin:miter;stroke-opacity:0;display:inline"
       inkscape:export-filename="/home/sydney/Contrib/TSC/Pipes/second try done pipes/Red/red-2.png"
       inkscape:export-xdpi="90"
       inkscape:export-ydpi="90" />
    <path
       style="fill:#414646;fill-opacity:1;stroke:#000000;stroke-width:0.04074293px;stroke-linecap:butt;stroke-linejoin:miter;stroke-opacity:0;display:inline"
       d="m 328.4631,210.82319 0.60602,-1.54454 0.55031,-1.04126 0.94435,-1.42365 0.97189,-1.08713 0.45093,-0.39461 z"
       id="path3879-2"
       inkscape:connector-curvature="0"
       inkscape:export-filename="/home/sydney/Contrib/TSC/Pipes/second try done pipes/Red/red-2.png"
       inkscape:export-xdpi="90"
       inkscape:export-ydpi="90" />
    <path
       style="fill:#414646;fill-opacity:1;stroke:#000000;stroke-width:0.04074293px;stroke-linecap:butt;stroke-linejoin:miter;stroke-opacity:0;display:inline"
       d="m 351.96325,218.26001 0.10364,0.0671 -0.30146,0.8836 -0.44265,0.98835 -0.65187,1.12262 -0.55088,0.79572 -0.51588,0.64676 -0.85767,0.8914 -0.25695,0.18916 -0.03,-0.10523 z"
       id="path3892-2"
       inkscape:connector-curvature="0"
       inkscape:export-filename="/home/sydney/Contrib/TSC/Pipes/second try done pipes/Red/red-2.png"
       inkscape:export-xdpi="90"
       inkscape:export-ydpi="90" />
    <path
       style="fill:#323636;fill-opacity:1;fill-rule:nonzero;stroke:none;display:inline"
       d="m 336.72661,226.27155 c -6.67731,-2.17149 -10.08674,-9.0186 -7.99717,-16.06054 0.46625,-1.57126 1.11026,-2.55312 2.68193,-4.08878 2.8256,-2.76084 5.50995,-3.769 9.43305,-3.54276 4.60502,0.26558 8.16538,2.55774 10.35118,6.66407 0.90939,1.70844 1.02584,2.35128 1.01392,5.59729 -0.0153,4.1675 -0.64713,5.84666 -3.13793,8.33944 -2.97852,2.98089 -8.46214,4.35402 -12.34498,3.09128 l 0,0 z m 6.55578,-3.16741 c 0.99219,-0.33835 1.89038,-0.75509 1.99601,-0.9261 0.1681,-0.27221 -13.2802,-9.26731 -13.85528,-9.26731 -0.51609,0 -0.14673,3.79474 0.51026,5.24248 2.00295,4.41359 6.79473,6.50396 11.34901,4.95093 z m 5.69572,-10.99965 c -1.53359,-5.14295 -7.51977,-7.92835 -12.33755,-5.74077 -0.93319,0.42375 -1.62748,0.83609 -1.54286,0.91634 0.0846,0.0803 3.27814,2.17651 7.09673,4.65834 l 6.94284,4.5124 0.12697,-1.48052 c 0.0698,-0.81428 -0.0589,-2.10388 -0.28613,-2.86579 z"
       id="path3834"
       inkscape:connector-curvature="0"
       inkscape:export-filename="/home/sydney/Contrib/TSC/Pipes/second try done pipes/Red/red-2.png"
       inkscape:export-xdpi="90"
       inkscape:export-ydpi="90" />
    <path
       style="fill:#292d2d;fill-opacity:1;fill-rule:nonzero;stroke:none;display:inline"
       d="m 337.10756,226.44234 c -6.37803,-2.14547 -9.93704,-7.78192 -8.88191,-14.06641 0.70629,-4.20662 2.66455,-6.76536 6.69999,-8.75455 7.90804,-3.89806 17.5918,2.14508 17.5918,10.97816 0,5.12619 -3.06773,9.58532 -7.84819,11.40774 -1.95708,0.74611 -5.95349,0.97604 -7.56169,0.43506 z m 6.31813,-3.44564 c 0.84233,-0.2963 1.60452,-0.61177 1.69374,-0.70105 0.0892,-0.0892 -0.14277,-0.40644 -0.51555,-0.70475 -0.97788,-0.78257 -10.52423,-7.11293 -12.10797,-8.02903 l -1.33876,-0.77438 0.16059,2.12502 c 0.19496,2.57987 1.02404,4.43459 2.73122,6.10989 2.38907,2.3445 6.10184,3.12624 9.37673,1.9743 z m 5.40241,-11.02703 c -1.73609,-5.31203 -7.81483,-7.8391 -12.7704,-5.30896 l -1.06716,0.54485 4.19504,2.72514 c 2.30727,1.49883 5.48373,3.57536 7.05881,4.61451 l 2.86378,1.88935 0.0833,-1.54914 c 0.0494,-0.91906 -0.0984,-2.10499 -0.36336,-2.91575 l 0,0 z"
       id="path3837"
       inkscape:connector-curvature="0"
       inkscape:export-filename="/home/sydney/Contrib/TSC/Pipes/second try done pipes/Red/red-2.png"
       inkscape:export-xdpi="90"
       inkscape:export-ydpi="90" />
    <path
       transform="matrix(0.03931866,0.02544532,-0.02542517,0.03934984,362.29421,213.65886)"
       d="m -154.28571,272.36218 a 230,228.57143 0 1 1 -460,0 230,228.57143 0 1 1 460,0 z"
       sodipodi:ry="228.57143"
       sodipodi:rx="230"
       sodipodi:cy="272.36218"
       sodipodi:cx="-384.28571"
       id="path3857"
       style="fill:#8f9697;fill-opacity:1;fill-rule:nonzero;stroke:#414646;stroke-width:69.58421326;stroke-linecap:round;stroke-linejoin:round;stroke-miterlimit:4;stroke-opacity:1;stroke-dasharray:none;display:inline"
       sodipodi:type="arc"
       inkscape:export-filename="/home/sydney/Contrib/TSC/Pipes/second try done pipes/Red/red-2.png"
       inkscape:export-xdpi="90"
       inkscape:export-ydpi="90" />
    <rect
       transform="matrix(0.83953286,0.54330891,-0.54270206,0.83992528,0,0)"
       ry="0.10739199"
       y="-7.995523"
       x="390.242"
       height="6.5563154"
       width="23.942219"
       id="rect3859"
       style="fill:#414646;fill-opacity:1;fill-rule:nonzero;stroke:none;display:inline"
       inkscape:export-filename="/home/sydney/Contrib/TSC/Pipes/second try done pipes/Red/red-2.png"
       inkscape:export-xdpi="90"
       inkscape:export-ydpi="90" />
    <path
       inkscape:connector-curvature="0"
       id="path3861"
       d="m 328.4631,210.82319 0.60602,-1.54454 0.55031,-1.04126 0.94435,-1.42365 0.97189,-1.08713 0.45093,-0.39461 z"
       style="fill:#414646;fill-opacity:1;stroke:#000000;stroke-width:0.04074293px;stroke-linecap:butt;stroke-linejoin:miter;stroke-opacity:0;display:inline"
       inkscape:export-filename="/home/sydney/Contrib/TSC/Pipes/second try done pipes/Red/red-2.png"
       inkscape:export-xdpi="90"
       inkscape:export-ydpi="90" />
    <path
       style="fill:#414646;fill-opacity:1;stroke:#000000;stroke-width:0.04074293px;stroke-linecap:butt;stroke-linejoin:miter;stroke-opacity:0;display:inline"
       d="m 328.4631,210.82319 0.60602,-1.54454 0.55031,-1.04126 0.94435,-1.42365 0.97189,-1.08713 0.45093,-0.39461 z"
       id="path3863"
       inkscape:connector-curvature="0"
       inkscape:export-filename="/home/sydney/Contrib/TSC/Pipes/second try done pipes/Red/red-2.png"
       inkscape:export-xdpi="90"
       inkscape:export-ydpi="90" />
    <path
       inkscape:connector-curvature="0"
       id="path3865"
       d="m 328.4631,210.82319 0.60602,-1.54454 0.55031,-1.04126 0.94435,-1.42365 0.97189,-1.08713 0.45093,-0.39461 z"
       style="fill:#414646;fill-opacity:1;stroke:#000000;stroke-width:0.04074293px;stroke-linecap:butt;stroke-linejoin:miter;stroke-opacity:0;display:inline"
       inkscape:export-filename="/home/sydney/Contrib/TSC/Pipes/second try done pipes/Red/red-2.png"
       inkscape:export-xdpi="90"
       inkscape:export-ydpi="90" />
    <path
       inkscape:connector-curvature="0"
       id="path3867"
       d="m 351.96325,218.26001 0.10364,0.0671 -0.30146,0.8836 -0.44265,0.98835 -0.65187,1.12262 -0.55088,0.79572 -0.51588,0.64676 -0.85767,0.8914 -0.25695,0.18916 -0.03,-0.10523 z"
       style="fill:#414646;fill-opacity:1;stroke:#000000;stroke-width:0.04074293px;stroke-linecap:butt;stroke-linejoin:miter;stroke-opacity:0;display:inline"
       inkscape:export-filename="/home/sydney/Contrib/TSC/Pipes/second try done pipes/Red/red-2.png"
       inkscape:export-xdpi="90"
       inkscape:export-ydpi="90" />
    <path
       inkscape:connector-curvature="0"
       id="path3927"
       d="m 336.72661,226.27155 c -6.67731,-2.17149 -10.08674,-9.0186 -7.99717,-16.06054 0.46625,-1.57126 1.11026,-2.55312 2.68193,-4.08878 2.8256,-2.76084 5.50995,-3.769 9.43305,-3.54276 4.60502,0.26558 8.16538,2.55774 10.35118,6.66407 0.90939,1.70844 1.02584,2.35128 1.01392,5.59729 -0.0153,4.1675 -0.64713,5.84666 -3.13793,8.33944 -2.97852,2.98089 -8.46214,4.35402 -12.34498,3.09128 l 0,0 z m 6.55578,-3.16741 c 0.99219,-0.33835 1.89038,-0.75509 1.99601,-0.9261 0.1681,-0.27221 -13.2802,-9.26731 -13.85528,-9.26731 -0.51609,0 -0.14673,3.79474 0.51026,5.24248 2.00295,4.41359 6.79473,6.50396 11.34901,4.95093 z m 5.69572,-10.99965 c -1.53359,-5.14295 -7.51977,-7.92835 -12.33755,-5.74077 -0.93319,0.42375 -1.62748,0.83609 -1.54286,0.91634 0.0846,0.0803 3.27814,2.17651 7.09673,4.65834 l 6.94284,4.5124 0.12697,-1.48052 c 0.0698,-0.81428 -0.0589,-2.10388 -0.28613,-2.86579 z"
       style="fill:#323636;fill-opacity:1;fill-rule:nonzero;stroke:none;display:inline"
       inkscape:export-filename="/home/sydney/Contrib/TSC/Pipes/second try done pipes/Red/red-2.png"
       inkscape:export-xdpi="90"
       inkscape:export-ydpi="90" />
    <path
       inkscape:connector-curvature="0"
       id="path3939"
       d="m 337.10756,226.44234 c -6.37803,-2.14547 -9.93704,-7.78192 -8.88191,-14.06641 0.70629,-4.20662 2.66455,-6.76536 6.69999,-8.75455 7.90804,-3.89806 17.5918,2.14508 17.5918,10.97816 0,5.12619 -3.06773,9.58532 -7.84819,11.40774 -1.95708,0.74611 -5.95349,0.97604 -7.56169,0.43506 z m 6.31813,-3.44564 c 0.84233,-0.2963 1.60452,-0.61177 1.69374,-0.70105 0.0892,-0.0892 -0.14277,-0.40644 -0.51555,-0.70475 -0.97788,-0.78257 -10.52423,-7.11293 -12.10797,-8.02903 l -1.33876,-0.77438 0.16059,2.12502 c 0.19496,2.57987 1.02404,4.43459 2.73122,6.10989 2.38907,2.3445 6.10184,3.12624 9.37673,1.9743 z m 5.40241,-11.02703 c -1.73609,-5.31203 -7.81483,-7.8391 -12.7704,-5.30896 l -1.06716,0.54485 4.19504,2.72514 c 2.30727,1.49883 5.48373,3.57536 7.05881,4.61451 l 2.86378,1.88935 0.0833,-1.54914 c 0.0494,-0.91906 -0.0984,-2.10499 -0.36336,-2.91575 l 0,0 z"
       style="fill:#292d2d;fill-opacity:1;fill-rule:nonzero;stroke:none;display:inline"
       inkscape:export-filename="/home/sydney/Contrib/TSC/Pipes/second try done pipes/Red/red-2.png"
       inkscape:export-xdpi="90"
       inkscape:export-ydpi="90" />
    <path
       sodipodi:type="arc"
       style="fill:#8f9697;fill-opacity:1;fill-rule:nonzero;stroke:#414646;stroke-width:69.58421326;stroke-linecap:round;stroke-linejoin:round;stroke-miterlimit:4;stroke-opacity:1;stroke-dasharray:none;display:inline"
       id="path3953"
       sodipodi:cx="-384.28571"
       sodipodi:cy="272.36218"
       sodipodi:rx="230"
       sodipodi:ry="228.57143"
       d="m -154.28571,272.36218 a 230,228.57143 0 1 1 -460,0 230,228.57143 0 1 1 460,0 z"
       transform="matrix(-0.03919043,0.02543601,0.02534223,0.03933543,149.88604,213.73045)"
       inkscape:export-filename="/home/sydney/Contrib/TSC/Pipes/second try done pipes/Red/red-2.png"
       inkscape:export-xdpi="90"
       inkscape:export-ydpi="90" />
    <rect
       style="fill:#414646;fill-opacity:1;fill-rule:nonzero;stroke:none;display:inline"
       id="rect3955"
       width="23.884617"
       height="6.5483289"
       x="-40.184975"
       y="270.33926"
       ry="0.10726117"
       transform="matrix(-0.83881287,0.54441985,0.5415917,0.84064168,0,0)"
       inkscape:export-filename="/home/sydney/Contrib/TSC/Pipes/second try done pipes/Red/red-2.png"
       inkscape:export-xdpi="90"
       inkscape:export-ydpi="90" />
    <path
       style="fill:#414646;fill-opacity:1;stroke:#000000;stroke-width:0.04066899px;stroke-linecap:butt;stroke-linejoin:miter;stroke-opacity:0;display:inline"
       d="m 183.60685,210.89582 -0.60406,-1.54394 -0.54852,-1.04089 -0.94127,-1.42314 -0.9687,-1.08674 -0.44946,-0.39446 z"
       id="path3957"
       inkscape:connector-curvature="0"
       inkscape:export-filename="/home/sydney/Contrib/TSC/Pipes/second try done pipes/Red/red-2.png"
       inkscape:export-xdpi="90"
       inkscape:export-ydpi="90" />
    <path
       inkscape:connector-curvature="0"
       id="path3959"
       d="m 183.60685,210.89582 -0.60406,-1.54394 -0.54852,-1.04089 -0.94127,-1.42314 -0.9687,-1.08674 -0.44946,-0.39446 z"
       style="fill:#414646;fill-opacity:1;stroke:#000000;stroke-width:0.04066899px;stroke-linecap:butt;stroke-linejoin:miter;stroke-opacity:0;display:inline"
       inkscape:export-filename="/home/sydney/Contrib/TSC/Pipes/second try done pipes/Red/red-2.png"
       inkscape:export-xdpi="90"
       inkscape:export-ydpi="90" />
    <path
       style="fill:#414646;fill-opacity:1;stroke:#000000;stroke-width:0.04066899px;stroke-linecap:butt;stroke-linejoin:miter;stroke-opacity:0;display:inline"
       d="m 183.60685,210.89582 -0.60406,-1.54394 -0.54852,-1.04089 -0.94127,-1.42314 -0.9687,-1.08674 -0.44946,-0.39446 z"
       id="path3961"
       inkscape:connector-curvature="0"
       inkscape:export-filename="/home/sydney/Contrib/TSC/Pipes/second try done pipes/Red/red-2.png"
       inkscape:export-xdpi="90"
       inkscape:export-ydpi="90" />
    <path
       style="fill:#414646;fill-opacity:1;stroke:#000000;stroke-width:0.04066899px;stroke-linecap:butt;stroke-linejoin:miter;stroke-opacity:0;display:inline"
       d="m 160.18332,218.32993 -0.10329,0.0671 0.30047,0.88326 0.44122,0.988 0.64974,1.12219 0.54908,0.79545 0.5142,0.64654 0.85486,0.89104 0.25613,0.18911 0.0299,-0.10519 z"
       id="path3963"
       inkscape:connector-curvature="0"
       inkscape:export-filename="/home/sydney/Contrib/TSC/Pipes/second try done pipes/Red/red-2.png"
       inkscape:export-xdpi="90"
       inkscape:export-ydpi="90" />
    <path
       style="fill:#323636;fill-opacity:1;fill-rule:nonzero;stroke:none;display:inline"
       d="m 175.37029,226.33855 c 6.65551,-2.17071 10.05384,-9.01531 7.9711,-16.05466 -0.46473,-1.5707 -1.10667,-2.55221 -2.67321,-4.08731 -2.81638,-2.75982 -5.49197,-3.76761 -9.40228,-3.54145 -4.58999,0.26548 -8.13875,2.55681 -10.31741,6.66165 -0.90644,1.70779 -1.02252,2.3504 -1.01063,5.59523 0.0152,4.16596 0.64502,5.84452 3.1277,8.33639 2.96881,2.97976 8.43454,4.35244 12.30473,3.09015 l 0,0 z m -6.53441,-3.16625 c -0.98896,-0.33823 -1.88423,-0.75482 -1.98949,-0.92577 -0.16756,-0.27209 13.23689,-9.26389 13.81007,-9.26389 0.51442,0 0.14626,3.79332 -0.50859,5.24051 -1.99641,4.412 -6.77257,6.50158 -11.31199,4.94915 z m -5.67715,-10.99563 c 1.52859,-5.14107 7.49525,-7.92543 12.29732,-5.73865 0.93016,0.42358 1.62218,0.83575 1.53783,0.91599 -0.0844,0.0803 -3.26744,2.17569 -7.07358,4.65664 l -6.92021,4.51076 -0.12655,-1.48001 c -0.0696,-0.81398 0.0588,-2.10311 0.28519,-2.86473 z"
       id="path4021"
       inkscape:connector-curvature="0"
       inkscape:export-filename="/home/sydney/Contrib/TSC/Pipes/second try done pipes/Red/red-2.png"
       inkscape:export-xdpi="90"
       inkscape:export-ydpi="90" />
    <path
       style="fill:#292d2d;fill-opacity:1;fill-rule:nonzero;stroke:none;display:inline"
       d="m 174.99058,226.50926 c 6.35722,-2.14468 9.90463,-7.77907 8.85293,-14.06127 -0.70397,-4.20507 -2.65584,-6.76289 -6.67813,-8.75132 -7.88225,-3.89663 -17.53445,2.14428 -17.53445,10.97412 0,5.12432 3.05776,9.58182 7.82261,11.40358 1.9507,0.74584 5.93407,0.97568 7.53704,0.43489 z m -6.29754,-3.44437 c -0.83958,-0.29618 -1.59929,-0.61152 -1.68821,-0.70081 -0.0889,-0.0893 0.14231,-0.40627 0.51388,-0.70448 0.97468,-0.78228 10.4899,-7.11031 12.06847,-8.02607 l 1.33442,-0.77411 -0.1601,2.12423 c -0.19431,2.57894 -1.02069,4.43298 -2.72229,6.10767 -2.38129,2.34363 -6.08196,3.12511 -9.34617,1.97358 z m -5.38477,-11.02301 c 1.73043,-5.31008 7.78932,-7.83623 12.72874,-5.30701 l 1.06368,0.54466 -4.18135,2.72415 c -2.29975,1.49828 -5.46585,3.57405 -7.0358,4.61281 l -2.85445,1.88865 -0.083,-1.54857 c -0.0493,-0.91873 0.0981,-2.10421 0.3622,-2.91469 l 0,0 z"
       id="path4033"
       inkscape:connector-curvature="0"
       inkscape:export-filename="/home/sydney/Contrib/TSC/Pipes/second try done pipes/Red/red-2.png"
       inkscape:export-xdpi="90"
       inkscape:export-ydpi="90" />
  </g>
  <g
     inkscape:groupmode="layer"
     id="layer3"
     inkscape:label="Layer#1"
     style="display:inline">
    <path
       sodipodi:type="arc"
       style="fill:#8f9697;fill-opacity:1;fill-rule:nonzero;stroke:#414646;stroke-width:69.58421326;stroke-linecap:round;stroke-linejoin:round;stroke-miterlimit:4;stroke-opacity:1;stroke-dasharray:none;display:inline"
       id="path3777"
       sodipodi:cx="-384.28571"
       sodipodi:cy="272.36218"
       sodipodi:rx="230"
       sodipodi:ry="228.57143"
       d="m -154.28571,272.36218 a 230,228.57143 0 1 1 -460,0 230,228.57143 0 1 1 460,0 z"
       transform="matrix(0.00927324,-0.04513093,0.03280086,0.01275912,415.62147,193.78294)"
       inkscape:export-filename="/home/sydney/Contrib/TSC/Pipes/second try done pipes/Red/red-2.png"
       inkscape:export-xdpi="90"
       inkscape:export-ydpi="90" />
    <rect
       style="fill:#414646;fill-opacity:1;fill-rule:nonzero;stroke:none;display:inline"
       id="rect3840"
       width="23.553595"
       height="4.9253726"
       x="-59.880219"
       y="459.62729"
       ry="0.080677256"
       transform="matrix(0.20126939,-0.97953593,0.93197367,0.36252596,0,0)"
       inkscape:export-filename="/home/sydney/Contrib/TSC/Pipes/second try done pipes/Red/red-2.png"
       inkscape:export-xdpi="90"
       inkscape:export-ydpi="90" />
    <path
       style="fill:#414646;fill-opacity:1;stroke:#000000;stroke-width:0.03477743px;stroke-linecap:butt;stroke-linejoin:miter;stroke-opacity:0;display:inline"
       d="m 420.89266,227.00577 -1.20357,-0.12558 -0.84173,-0.22038 -1.19196,-0.48502 -0.96389,-0.61048 -0.37088,-0.31554 z"
       id="path3864"
       inkscape:connector-curvature="0"
       inkscape:export-filename="/home/sydney/Contrib/TSC/Pipes/second try done pipes/Red/red-2.png"
       inkscape:export-xdpi="90"
       inkscape:export-ydpi="90" />
    <path
       inkscape:connector-curvature="0"
       id="path3866"
       d="m 420.89266,227.00577 -1.20357,-0.12558 -0.84173,-0.22038 -1.19196,-0.48502 -0.96389,-0.61048 -0.37088,-0.31554 z"
       style="fill:#414646;fill-opacity:1;stroke:#000000;stroke-width:0.03477743px;stroke-linecap:butt;stroke-linejoin:miter;stroke-opacity:0;display:inline"
       inkscape:export-filename="/home/sydney/Contrib/TSC/Pipes/second try done pipes/Red/red-2.png"
       inkscape:export-xdpi="90"
       inkscape:export-ydpi="90" />
    <path
       style="fill:#414646;fill-opacity:1;stroke:#000000;stroke-width:0.03477743px;stroke-linecap:butt;stroke-linejoin:miter;stroke-opacity:0;display:inline"
       d="m 420.89266,227.00577 -1.20357,-0.12558 -0.84173,-0.22038 -1.19196,-0.48502 -0.96389,-0.61048 -0.37088,-0.31554 z"
       id="path3879"
       inkscape:connector-curvature="0"
       inkscape:export-filename="/home/sydney/Contrib/TSC/Pipes/second try done pipes/Red/red-2.png"
       inkscape:export-xdpi="90"
       inkscape:export-ydpi="90" />
    <path
       style="fill:#414646;fill-opacity:1;stroke:#000000;stroke-width:0.03477743px;stroke-linecap:butt;stroke-linejoin:miter;stroke-opacity:0;display:inline"
       d="m 421.0321,202.31908 0.0245,-0.11898 0.67884,0.0285 0.78191,0.13288 0.92005,0.29368 0.67116,0.29315 0.5601,0.30352 0.80334,0.55873 0.18653,0.19033 -0.0667,0.0596 z"
       id="path3892"
       inkscape:connector-curvature="0"
       inkscape:export-filename="/home/sydney/Contrib/TSC/Pipes/second try done pipes/Red/red-2.png"
       inkscape:export-xdpi="90"
       inkscape:export-ydpi="90" />
    <path
       style="fill:#2a2e2e;fill-opacity:1;fill-rule:nonzero;stroke:none;display:inline"
       d="m 418.80802,226.60024 c -0.77218,-0.28667 -1.47838,-0.5289 -1.56933,-0.53827 -0.0909,-0.01 -0.65573,-0.58208 -1.25509,-1.27268 -2.92719,-3.37282 -3.63385,-5.34498 -3.63385,-10.14161 0,-2.91001 0.11231,-3.79119 0.68867,-5.40274 2.0926,-5.85127 7.52793,-8.60403 11.58979,-5.86974 1.82647,1.22951 3.66933,3.82783 4.52169,6.37527 0.93049,2.78095 0.84392,7.29007 -0.19413,10.1129 -1.61308,4.38655 -3.6279,6.19259 -7.90137,7.08263 -0.46332,0.0965 -1.4742,-0.0591 -2.24638,-0.34576 z m 4.81252,-3.6718 c 0.96157,-0.49451 2.6176,-2.68004 3.17994,-4.19659 0.77678,-2.09502 0.94909,-4.5557 0.46979,-6.70945 -0.40621,-1.82541 -1.67237,-4.52214 -2.1232,-4.52214 -0.2144,0 -3.3907,14.82776 -3.3907,15.82857 0,0.4396 0.39637,0.35448 1.86417,-0.40039 l 0,0 z m -4.90301,-9.36946 c 0.87685,-4.28381 1.55252,-7.84618 1.5015,-7.91637 -0.051,-0.0701 -0.64208,0.097 -1.31347,0.37138 -1.58627,0.64845 -3.64525,3.45004 -4.10664,5.58773 -0.49877,2.31092 -0.4115,4.73299 0.24196,6.71626 0.61181,1.85679 1.65153,3.61807 1.91969,3.25194 0.0895,-0.12221 0.8801,-3.72713 1.75696,-8.01094 l 0,0 z"
       id="path3836"
       inkscape:connector-curvature="0"
       inkscape:export-filename="/home/sydney/Contrib/TSC/Pipes/second try done pipes/Red/red-2.png"
       inkscape:export-xdpi="90"
       inkscape:export-ydpi="90" />
    <path
       transform="matrix(0.00927324,-0.04513093,0.03280086,0.01275912,415.62147,193.78294)"
       d="m -154.28571,272.36218 a 230,228.57143 0 1 1 -460,0 230,228.57143 0 1 1 460,0 z"
       sodipodi:ry="228.57143"
       sodipodi:rx="230"
       sodipodi:cy="272.36218"
       sodipodi:cx="-384.28571"
       id="path3845"
       style="fill:#8f9697;fill-opacity:1;fill-rule:nonzero;stroke:#414646;stroke-width:69.58421326;stroke-linecap:round;stroke-linejoin:round;stroke-miterlimit:4;stroke-opacity:1;stroke-dasharray:none;display:inline"
       sodipodi:type="arc"
       inkscape:export-filename="/home/sydney/Contrib/TSC/Pipes/second try done pipes/Red/red-2.png"
       inkscape:export-xdpi="90"
       inkscape:export-ydpi="90" />
    <rect
       transform="matrix(0.20126939,-0.97953593,0.93197367,0.36252596,0,0)"
       ry="0.080677256"
       y="459.62729"
       x="-59.880219"
       height="4.9253726"
       width="23.553595"
       id="rect3847"
       style="fill:#414646;fill-opacity:1;fill-rule:nonzero;stroke:none;display:inline"
       inkscape:export-filename="/home/sydney/Contrib/TSC/Pipes/second try done pipes/Red/red-2.png"
       inkscape:export-xdpi="90"
       inkscape:export-ydpi="90" />
    <path
       inkscape:connector-curvature="0"
       id="path3849"
       d="m 420.89266,227.00577 -1.20357,-0.12558 -0.84173,-0.22038 -1.19196,-0.48502 -0.96389,-0.61048 -0.37088,-0.31554 z"
       style="fill:#414646;fill-opacity:1;stroke:#000000;stroke-width:0.03477743px;stroke-linecap:butt;stroke-linejoin:miter;stroke-opacity:0;display:inline"
       inkscape:export-filename="/home/sydney/Contrib/TSC/Pipes/second try done pipes/Red/red-2.png"
       inkscape:export-xdpi="90"
       inkscape:export-ydpi="90" />
    <path
       style="fill:#414646;fill-opacity:1;stroke:#000000;stroke-width:0.03477743px;stroke-linecap:butt;stroke-linejoin:miter;stroke-opacity:0;display:inline"
       d="m 420.89266,227.00577 -1.20357,-0.12558 -0.84173,-0.22038 -1.19196,-0.48502 -0.96389,-0.61048 -0.37088,-0.31554 z"
       id="path3851"
       inkscape:connector-curvature="0"
       inkscape:export-filename="/home/sydney/Contrib/TSC/Pipes/second try done pipes/Red/red-2.png"
       inkscape:export-xdpi="90"
       inkscape:export-ydpi="90" />
    <path
       inkscape:connector-curvature="0"
       id="path3853"
       d="m 420.89266,227.00577 -1.20357,-0.12558 -0.84173,-0.22038 -1.19196,-0.48502 -0.96389,-0.61048 -0.37088,-0.31554 z"
       style="fill:#414646;fill-opacity:1;stroke:#000000;stroke-width:0.03477743px;stroke-linecap:butt;stroke-linejoin:miter;stroke-opacity:0;display:inline"
       inkscape:export-filename="/home/sydney/Contrib/TSC/Pipes/second try done pipes/Red/red-2.png"
       inkscape:export-xdpi="90"
       inkscape:export-ydpi="90" />
    <path
       inkscape:connector-curvature="0"
       id="path3855"
       d="m 421.0321,202.31908 0.0245,-0.11898 0.67884,0.0285 0.78191,0.13288 0.92005,0.29368 0.67116,0.29315 0.5601,0.30352 0.80334,0.55873 0.18653,0.19033 -0.0667,0.0596 z"
       style="fill:#414646;fill-opacity:1;stroke:#000000;stroke-width:0.03477743px;stroke-linecap:butt;stroke-linejoin:miter;stroke-opacity:0;display:inline"
       inkscape:export-filename="/home/sydney/Contrib/TSC/Pipes/second try done pipes/Red/red-2.png"
       inkscape:export-xdpi="90"
       inkscape:export-ydpi="90" />
    <path
       inkscape:connector-curvature="0"
       id="path3929"
       d="m 418.80802,226.60024 c -0.77218,-0.28667 -1.47838,-0.5289 -1.56933,-0.53827 -0.0909,-0.01 -0.65573,-0.58208 -1.25509,-1.27268 -2.92719,-3.37282 -3.63385,-5.34498 -3.63385,-10.14161 0,-2.91001 0.11231,-3.79119 0.68867,-5.40274 2.0926,-5.85127 7.52793,-8.60403 11.58979,-5.86974 1.82647,1.22951 3.66933,3.82783 4.52169,6.37527 0.93049,2.78095 0.84392,7.29007 -0.19413,10.1129 -1.61308,4.38655 -3.6279,6.19259 -7.90137,7.08263 -0.46332,0.0965 -1.4742,-0.0591 -2.24638,-0.34576 z m 4.81252,-3.6718 c 0.96157,-0.49451 2.6176,-2.68004 3.17994,-4.19659 0.77678,-2.09502 0.94909,-4.5557 0.46979,-6.70945 -0.40621,-1.82541 -1.67237,-4.52214 -2.1232,-4.52214 -0.2144,0 -3.3907,14.82776 -3.3907,15.82857 0,0.4396 0.39637,0.35448 1.86417,-0.40039 l 0,0 z m -4.90301,-9.36946 c 0.87685,-4.28381 1.55252,-7.84618 1.5015,-7.91637 -0.051,-0.0701 -0.64208,0.097 -1.31347,0.37138 -1.58627,0.64845 -3.64525,3.45004 -4.10664,5.58773 -0.49877,2.31092 -0.4115,4.73299 0.24196,6.71626 0.61181,1.85679 1.65153,3.61807 1.91969,3.25194 0.0895,-0.12221 0.8801,-3.72713 1.75696,-8.01094 l 0,0 z"
       style="fill:#2a2e2e;fill-opacity:1;fill-rule:nonzero;stroke:none;display:inline"
       inkscape:export-filename="/home/sydney/Contrib/TSC/Pipes/second try done pipes/Red/red-2.png"
       inkscape:export-xdpi="90"
       inkscape:export-ydpi="90" />
    <path
       sodipodi:type="arc"
       style="fill:#8f9697;fill-opacity:1;fill-rule:nonzero;stroke:#414646;stroke-width:69.58421326;stroke-linecap:round;stroke-linejoin:round;stroke-miterlimit:4;stroke-opacity:1;stroke-dasharray:none;display:inline"
       id="path3941"
       sodipodi:cx="-384.28571"
       sodipodi:cy="272.36218"
       sodipodi:rx="230"
       sodipodi:ry="228.57143"
       d="m -154.28571,272.36218 a 230,228.57143 0 1 1 -460,0 230,228.57143 0 1 1 460,0 z"
       transform="matrix(-0.00924299,-0.04511441,-0.03269388,0.01275446,96.712588,193.86183)"
       inkscape:export-filename="/home/sydney/Contrib/TSC/Pipes/second try done pipes/Red/red-2.png"
       inkscape:export-xdpi="90"
       inkscape:export-ydpi="90" />
    <rect
       style="fill:#414646;fill-opacity:1;fill-rule:nonzero;stroke:none;display:inline"
       id="rect3943"
       width="23.542212"
       height="4.9111853"
       x="-248.41518"
       y="-49.55727"
       ry="0.080444865"
       transform="matrix(-0.20070994,-0.97965071,-0.93161756,0.36344012,0,0)"
       inkscape:export-filename="/home/sydney/Contrib/TSC/Pipes/second try done pipes/Red/red-2.png"
       inkscape:export-xdpi="90"
       inkscape:export-ydpi="90" />
    <path
       style="fill:#414646;fill-opacity:1;stroke:#000000;stroke-width:0.03471432px;stroke-linecap:butt;stroke-linejoin:miter;stroke-opacity:0;display:inline"
       d="m 91.458601,227.0725 1.19965,-0.12556 0.83898,-0.22029 1.18807,-0.48485 0.960737,-0.61023 0.36967,-0.31544 z"
       id="path3945"
       inkscape:connector-curvature="0"
       inkscape:export-filename="/home/sydney/Contrib/TSC/Pipes/second try done pipes/Red/red-2.png"
       inkscape:export-xdpi="90"
       inkscape:export-ydpi="90" />
    <path
       inkscape:connector-curvature="0"
       id="path3947"
       d="m 91.458601,227.0725 1.19965,-0.12556 0.83898,-0.22029 1.18807,-0.48485 0.960737,-0.61023 0.36967,-0.31544 z"
       style="fill:#414646;fill-opacity:1;stroke:#000000;stroke-width:0.03471432px;stroke-linecap:butt;stroke-linejoin:miter;stroke-opacity:0;display:inline"
       inkscape:export-filename="/home/sydney/Contrib/TSC/Pipes/second try done pipes/Red/red-2.png"
       inkscape:export-xdpi="90"
       inkscape:export-ydpi="90" />
    <path
       style="fill:#414646;fill-opacity:1;stroke:#000000;stroke-width:0.03471432px;stroke-linecap:butt;stroke-linejoin:miter;stroke-opacity:0;display:inline"
       d="m 91.458601,227.0725 1.19965,-0.12556 0.83898,-0.22029 1.18807,-0.48485 0.960737,-0.61023 0.36967,-0.31544 z"
       id="path3949"
       inkscape:connector-curvature="0"
       inkscape:export-filename="/home/sydney/Contrib/TSC/Pipes/second try done pipes/Red/red-2.png"
       inkscape:export-xdpi="90"
       inkscape:export-ydpi="90" />
    <path
       style="fill:#414646;fill-opacity:1;stroke:#000000;stroke-width:0.03471432px;stroke-linecap:butt;stroke-linejoin:miter;stroke-opacity:0;display:inline"
       d="m 91.319621,202.39484 -0.0244,-0.11893 -0.67663,0.0285 -0.77936,0.13281 -0.91705,0.29356 -0.66897,0.29307 -0.55827,0.30341 -0.80073,0.55852 -0.18593,0.19025 0.0664,0.0596 z"
       id="path3951"
       inkscape:connector-curvature="0"
       inkscape:export-filename="/home/sydney/Contrib/TSC/Pipes/second try done pipes/Red/red-2.png"
       inkscape:export-xdpi="90"
       inkscape:export-ydpi="90" />
    <path
       style="fill:#2a2e2e;fill-opacity:1;fill-rule:nonzero;stroke:none;display:inline"
       d="m 93.536441,226.66709 c 0.76967,-0.28656 1.473557,-0.52867 1.564197,-0.53805 0.0906,-0.01 0.65361,-0.58186 1.25101,-1.2722 2.91766,-3.3716 3.62199,-5.34305 3.62199,-10.13791 0,-2.90894 -0.11193,-3.7898 -0.68641,-5.40077 -2.08578,-5.84914 -7.503397,-8.6009 -11.551997,-5.86759 -1.82051,1.22908 -3.65736,3.82643 -4.50693,6.37295 -0.92746,2.77992 -0.84117,7.28738 0.19348,10.10917 1.60785,4.38497 3.61607,6.19034 7.87562,7.08005 0.46179,0.0965 1.46938,-0.0591 2.23904,-0.34565 z m -4.79682,-3.67044 c -0.95844,-0.49434 -2.60907,-2.67905 -3.16956,-4.19506 -0.77425,-2.09424 -0.946,-4.55401 -0.46828,-6.70695 0.4049,-1.82475 1.66693,-4.52051 2.11629,-4.52051 0.21371,0 3.37963,14.82231 3.37963,15.82276 0,0.43946 -0.39507,0.35435 -1.85808,-0.40024 l 0,0 z m 4.88704,-9.36603 c -0.87402,-4.28224 -1.54748,-7.84328 -1.49664,-7.91348 0.0508,-0.0701 0.64,0.0969 1.3092,0.37127 1.581087,0.64821 3.633347,3.44875 4.093237,5.58569 0.49715,2.31006 0.41017,4.73124 -0.24117,6.71379 -0.60982,1.85609 -1.64614,3.61675 -1.91341,3.25074 -0.0892,-0.12216 -0.877237,-3.72576 -1.751217,-8.00801 l 0,0 z"
       id="path4023"
       inkscape:connector-curvature="0"
       inkscape:export-filename="/home/sydney/Contrib/TSC/Pipes/second try done pipes/Red/red-2.png"
       inkscape:export-xdpi="90"
       inkscape:export-ydpi="90" />
  </g>
</svg>
