<?xml version="1.0" encoding="UTF-8" standalone="no"?>
<!-- Created with Inkscape (http://www.inkscape.org/) -->

<svg
   xmlns:dc="http://purl.org/dc/elements/1.1/"
   xmlns:cc="http://creativecommons.org/ns#"
   xmlns:rdf="http://www.w3.org/1999/02/22-rdf-syntax-ns#"
   xmlns:svg="http://www.w3.org/2000/svg"
   xmlns="http://www.w3.org/2000/svg"
   xmlns:xlink="http://www.w3.org/1999/xlink"
   xmlns:sodipodi="http://sodipodi.sourceforge.net/DTD/sodipodi-0.dtd"
   xmlns:inkscape="http://www.inkscape.org/namespaces/inkscape"
   width="128"
   height="128"
   id="svg2985"
   version="1.1"
   inkscape:version="0.48.4 r9939"
   inkscape:export-filename="C:\Users\Clemens Hackenberg\Desktop\new.png"
   inkscape:export-xdpi="90"
   inkscape:export-ydpi="90"
   sodipodi:docname="white1_1.svg">
  <defs
     id="defs2987">
    <linearGradient
       id="linearGradient4218">
      <stop
         style="stop-color:#3ca3ff;stop-opacity:1;"
         offset="0"
         id="stop4220" />
      <stop
         style="stop-color:#3ca3ff;stop-opacity:0;"
         offset="1"
         id="stop4222" />
    </linearGradient>
    <linearGradient
       id="linearGradient4202">
      <stop
         style="stop-color:#a1d5fc;stop-opacity:0.89803922;"
         offset="0"
         id="stop4204" />
      <stop
         style="stop-color:#2f80ca;stop-opacity:0.98324025;"
         offset="1"
         id="stop4206" />
    </linearGradient>
    <linearGradient
       id="linearGradient4194">
      <stop
         style="stop-color:#dcf0fd;stop-opacity:1;"
         offset="0"
         id="stop4196" />
      <stop
         id="stop3765"
         offset="0.5"
         style="stop-color:#aae4fe;stop-opacity:1;" />
      <stop
         style="stop-color:#0ab9ff;stop-opacity:1;"
         offset="1"
         id="stop4198" />
    </linearGradient>
    <linearGradient
       inkscape:collect="always"
       xlink:href="#linearGradient4202"
       id="linearGradient4216"
       x1="14.142136"
       y1="-51.972347"
       x2="112.79734"
       y2="49.143921"
       gradientUnits="userSpaceOnUse" />
    <linearGradient
       inkscape:collect="always"
       xlink:href="#linearGradient4194"
       id="linearGradient4224"
       x1="-2.4273939"
       y1="-57.617252"
       x2="117.09247"
       y2="52.18457"
       gradientUnits="userSpaceOnUse"
       gradientTransform="matrix(1.0397557,0,0,1.0397557,-0.40734253,2.2180488)" />
    <filter
       inkscape:collect="always"
       id="filter4234"
       x="-0.15149473"
       width="1.3029895"
       y="-0.1514953"
       height="1.3029906">
      <feGaussianBlur
         inkscape:collect="always"
         stdDeviation="7.0041349"
         id="feGaussianBlur4236" />
    </filter>
  </defs>
  <sodipodi:namedview
     id="base"
     pagecolor="#ffffff"
     bordercolor="#666666"
     borderopacity="1.0"
     inkscape:pageopacity="0.0"
     inkscape:pageshadow="2"
     inkscape:zoom="1"
     inkscape:cx="-145.9793"
     inkscape:cy="43.704581"
     inkscape:current-layer="layer1"
     showgrid="true"
     inkscape:document-units="px"
     inkscape:grid-bbox="true"
     inkscape:window-width="1600"
     inkscape:window-height="838"
     inkscape:window-x="-8"
     inkscape:window-y="-8"
     inkscape:window-maximized="1" />
  <metadata
     id="metadata2990">
    <rdf:RDF>
      <cc:Work
         rdf:about="">
        <dc:format>image/svg+xml</dc:format>
        <dc:type
           rdf:resource="http://purl.org/dc/dcmitype/StillImage" />
        <dc:title></dc:title>
      </cc:Work>
    </rdf:RDF>
  </metadata>
  <g
     id="layer1"
     inkscape:label="Layer 1"
     inkscape:groupmode="layer"
     transform="translate(0,64)">
    <path
       style="fill:url(#linearGradient4216);fill-opacity:1"
       d="m 102.28003,-63.999996 -1.92981,0.06228 -0.684774,0.06228 -34.487608,0 c -0.672245,-7.02e-4 -1.049267,1.2e-4 -1.743054,0 l -0.373513,0 -38.471734,0 c -3.51213,0.06992 -6.282624,3.886978 -8.902034,6.041207 -4.024416,3.318783 -8.4601395,9.148237 -9.8358155,12.954343 -0.8529322,3.854914 -4.3684838,6.271616 -4.7934036,9.342075 l -0.87152791,1.370172 0,2.61578 L 0,-31.302736 l 0.18675599,7.41138 0,8.594709 c -0.001627,0.201156 0.001426,0.354584 0,0.560524 -0.003485,0.17848 0.003177,0.31859 0,0.498244 -8.3882e-4,0.14018 7.5938e-4,0.23131 0,0.373682 -0.13884232,4.825403 -0.12935609,10.0900384 0,15.3210018 -0.001765,0.227772 0.001392,0.511262 0,0.7473659 -0.0584896,1.2799859 -0.0634966,2.6622277 -0.062252,4.0482316 -0.016196,0.4979459 0.005222,1.0427359 0,1.5570138 -0.001968,0.0426 0.001811,0.08162 0,0.12456 0.007415,0.4214839 -0.012559,0.8219979 0,1.2456098 -0.009902,1.0604161 -0.008629,2.1490341 0.062252,3.3008661 0.0303671,4.014227 0.34419764,7.228813 0.93377991,9.653476 0.1776468,1.622426 0.4056824,2.893094 0.62252,3.67455 0.073766,0.265846 0.1712546,0.525152 0.249008,0.685086 0.077277,0.15896 0.1058148,0.261354 0.186756,0.311402 0.022826,0.0142 0.039606,0.04598 0.062252,0.06228 0.06157,0.254632 0.1239199,0.610376 0.1867558,0.809648 0.4286844,1.359484 0.7864678,2.505218 1.182788,3.736829 0.1251579,0.678956 0.3009335,1.342836 0.435764,1.992976 0.0042,0.02022 -0.0042,0.0421 0,0.06228 0.01524,0.205254 0.05115,0.41399 0.062252,0.622804 0.027652,0.520128 0.062252,1.023776 0.062252,1.557014 0,0.337328 0.053146,0.66034 0.062252,0.996488 0.2910937,10.745881 5.116401,20.783362 10.8940993,22.234135 0.864706,0.217128 1.655486,0.490894 2.365575,0.809648 0.02004,0.0182 0.04226,0.0443 0.06225,0.06228 3.169343,2.56877 5.039267,3.923668 8.902042,3.923668 1.38716,0.10116 3.226296,0.14238 5.415924,0.12456 0.0213,0.0015 0.0409,-0.0015 0.06226,0 0.321654,0.02224 0.603529,0.04404 0.933779,0.06228 1.011453,0.05996 2.040776,0.10246 3.112601,0.12456 0.02098,3.78e-4 0.04124,-3.64e-4 0.06226,0 1.052427,0.02098 2.156602,0.015 3.237103,0 1.821988,-0.02536 3.62562,-0.12292 5.415924,-0.249122 0.02036,-0.0015 0.0419,0.0015 0.06226,0 0.286132,-0.02066 0.588316,-0.03912 0.871527,-0.06228 0.06138,-0.005 0.12554,0.0052 0.18676,0 0.02114,-0.0018 0.04114,0.0018 0.06226,0 0.40275,-0.02576 0.788673,-0.0944 1.182789,-0.12456 0.0844,-0.0064 0.16506,0.0066 0.249008,0 0.413861,-0.014 0.848245,0.0164 1.24504,0 0.879505,-0.03622 1.512083,-0.13924 2.303324,-0.18684 0.542002,-0.02898 1.058253,-0.09006 1.556298,-0.12456 0.91404,-0.06892 1.919399,-0.10174 2.676838,-0.18684 0.660995,-0.07426 1.272301,-0.16342 1.805308,-0.249122 0.486043,-0.07154 0.870881,-0.16674 1.245039,-0.249122 1.901632,-0.43162 2.150159,-1.632093 3.984148,-2.42894 0.296023,-0.11316 0.591131,-0.18802 0.871527,-0.249122 0.366133,-0.05886 0.742089,-0.0984 1.120537,-0.12456 0.234513,0.0104 0.445755,0.014 0.684771,0.06228 2.799071,1.201487 5.444746,2.690572 8.155028,3.238582 0.06958,0.0118 0.11056,-0.0114 0.18676,0 0.297403,0.04076 0.806201,0.0869 1.182788,0.12456 0.905512,0.269338 2.71932,0.348642 5.042411,0.373682 0.18532,0.0088 0.429068,-0.0078 0.62252,0 0.09142,0.0048 0.15592,-0.0046 0.249007,0 4.409546,0.21371 8.721568,0.123066 13.072939,0.12456 0.687722,-0.004 1.328891,0.0076 1.992062,0 0.18874,-0.0015 0.314408,0.0018 0.498018,0 7.72495,-0.966508 12.33295,2.257367 16.37228,-3.487708 0.0278,-0.038 0.0334,-0.08594 0.0623,-0.12456 8.88964,-6.004649 11.33891,-14.705385 11.45437,-22.670099 0.003,-0.963762 0.001,-1.88999 0.0623,-2.802624 0.007,-0.102 0.0548,-0.210376 0.0623,-0.311402 0.12298,-0.835286 0.23358,-1.565526 0.37351,-2.304378 0.52209,-1.767909 1.17813,-3.795833 1.5563,-5.044719 0.0668,-0.08398 0.12194,-0.20904 0.18676,-0.249122 0.78656,-0.486346 1.30508,-7.270083 1.5563,-15.943808 7.6e-4,-0.0225 -7.6e-4,-0.03974 0,-0.06228 0.21054,-3.1815779 0.35982,-6.6787995 0.43576,-10.27628107 0.0974,-4.32658553 0.0947,-8.79160703 0,-13.01662493 -0.0176,-1.070003 -0.0311,-2.079587 -0.0623,-3.114023 -0.0144,-0.41342 -0.0458,-0.777252 -0.0623,-1.18333 -0.006,-0.14922 0.006,-0.287824 0,-0.435964 -6.7e-4,-0.02164 6.8e-4,-0.04066 0,-0.06228 -0.002,-0.04306 0.002,-0.08158 0,-0.12456 -0.0316,-1.03573 -0.0789,-2.016206 -0.1245,-2.989464 l 0,-7.411377 c 0.18297,-2.351208 0.27617,-3.882026 -1.12054,-5.667525 -0.11235,-1.577196 -0.43127,-2.884024 -1.43179,-3.923672 -0.008,-0.02616 -0.0541,-0.0362 -0.0623,-0.06228 -0.0256,-0.08202 -0.0361,-0.1677 -0.0623,-0.249122 -0.34958,-1.284826 -0.74267,-2.522763 -1.18279,-3.674549 -1.03547,-8.227058 -8.57171,-16.179635 -14.44246,-19.244674 -0.23802,-0.118796 -0.5516,-0.201021 -0.80927,-0.311402 -1.91978,-2.384964 -2.87857,-2.802623 -5.72729,-2.802623 l -0.0623,-0.06228 -0.43577,0 L 102.27989,-64 z"
       id="path3254"
       inkscape:connector-curvature="0"
       sodipodi:nodetypes="ccccccccccccccccccccccccccscccscccsssscccccccccccccccccccscccccccccccccccccccccccccccccccccccccccccccccc" />
    <path
       style="fill:url(#linearGradient4224);fill-opacity:1.0;filter:url(#filter4234)"
       d="m 98.910013,-55.791889 -1.672901,0.05404 -0.593612,0.05404 -29.896402,0 c -0.582752,-6.11e-4 -0.909583,9.9e-5 -1.511009,0 l -0.323788,0 -33.350134,0 -1.34912,0 -6.367813,5.236962 c -3.488664,2.876962 -7.333876,7.930358 -8.52642,11.229776 -1.192545,3.299416 -2.748716,5.99281 -3.507705,5.99281 -0.237444,0 -0.472979,0.808681 -0.647563,2.105585 l -0.755506,1.187772 0,2.267551 -0.161902,0.215956 0.161902,6.424731 0,7.450528 c -0.0022,0.174376 8.66e-4,0.30738 0,0.485904 -0.0033,0.154718 0.0022,0.276176 0,0.431914 -7.33e-4,0.121517 6.54e-4,0.200516 0,0.323935 -0.120359,4.1830146 -0.112148,8.7467891 0,13.28137466 -0.0022,0.19744914 8.66e-4,0.44319914 0,0.64787174 -0.05071,1.1095858 -0.05503,2.3078143 -0.05404,3.509305 -0.01409,0.431656 0.0045,0.9039201 0,1.3497346 -0.0022,0.036928 0.0022,0.070748 0,0.1079753 0.0055,0.3653739 -0.01109,0.7125682 0,1.0797863 -0.0088,0.919247 -0.0078,1.8629407 0.05404,2.8614334 0.02641,3.479828 0.298372,6.266469 0.809465,8.368345 0.154002,1.40644 0.351677,2.507948 0.539643,3.185371 0.06403,0.230455 0.148455,0.455241 0.215862,0.593883 0.06702,0.137798 0.09177,0.226561 0.161891,0.269947 0.01975,0.0123 0.03429,0.03985 0.05404,0.054 0.05337,0.220734 0.107409,0.529119 0.161902,0.701863 0.371605,1.178501 0.681761,2.171708 1.025327,3.239359 0.108519,0.588569 0.260867,1.16407 0.377752,1.727659 0.0033,0.01753 -0.0033,0.03649 0,0.05399 0.0132,0.17793 0.04439,0.358877 0.05404,0.539893 0.02397,0.450884 0.05404,0.887484 0.05404,1.349734 0,0.292421 0.04605,0.572434 0.05392,0.863834 0.252346,9.315321 4.435276,18.016549 9.443816,19.274183 0.749591,0.188224 1.435092,0.425539 2.050644,0.701865 0.01731,0.01577 0.03672,0.0384 0.05404,0.054 0.680386,0.611537 1.327861,1.109824 2.050666,1.511698 0.01997,0.03468 0.03817,0.07472 0.05404,0.107976 0.02874,0.07863 0.107965,0.14182 0.107965,0.215956 0.0055,0.0319 0,0.07811 0,0.107975 0,0.246019 0.803661,0.498331 2.104613,0.701864 l 0.485685,0.593886 1.133257,0 0.05392,0.161967 1.726873,0 c 1.202486,0.08769 2.796794,0.123426 4.694921,0.107975 0.01847,8.68e-4 0.03546,-0.0018 0.05397,0 0.278834,0.01924 0.523183,0.03815 0.809469,0.054 0.876802,0.05201 1.769094,0.08883 2.698231,0.107976 0.01819,3.2e-4 0.03575,-3.21e-4 0.05397,0 0.912321,0.01821 1.869502,0.01301 2.80616,0 1.579433,-0.02201 3.142954,-0.106555 4.694922,-0.215965 0.01765,-0.0018 0.03632,8.68e-4 0.05397,0 0.24804,-0.01795 0.509995,-0.0339 0.755503,-0.054 0.0532,-0.0044 0.10883,0.0044 0.161898,0 0.01833,-0.0018 0.03566,0.0018 0.05397,0 0.349134,-0.02238 0.68368,-0.08183 1.025328,-0.107976 0.07317,-0.0052 0.143087,0.0061 0.215859,0 0.358766,-0.01213 0.735322,0.01421 1.079292,0 0.762421,-0.03138 1.310786,-0.120703 1.996692,-0.161966 0.469847,-0.02514 0.917371,-0.07811 1.349114,-0.107975 0.792358,-0.05973 1.663876,-0.08819 2.32048,-0.161968 0.572999,-0.06441 1.102925,-0.141664 1.564974,-0.215955 0.421338,-0.06198 0.754944,-0.144542 1.079291,-0.215957 0.09432,-0.02176 0.237907,-0.03165 0.323788,-0.05401 0.404737,-0.105289 0.708286,-0.205838 0.917399,-0.323932 0.10044,-0.05816 0.218874,-0.100056 0.269823,-0.161967 0.05313,-0.06198 0.05397,-0.151166 0.05397,-0.215965 0,-0.118779 0.0093,-0.211734 0.05397,-0.323934 0.03106,-0.07767 0.11122,-0.142392 0.161898,-0.215954 0.592876,-0.35958 1.175566,-0.619737 1.672904,-0.809843 0.256614,-0.0981 0.512435,-0.162989 0.755504,-0.215955 0.31739,-0.05105 0.643297,-0.0853 0.971364,-0.107975 0.203293,0.0089 0.386413,0.01213 0.59361,0.054 0.79002,0.159919 1.674369,0.548054 2.698232,1.187763 0.204216,0.127587 0.502586,0.259421 0.809468,0.377923 0.01457,0.02124 0.04075,0.0326 0.05397,0.054 0.07388,0.119613 0.250807,0.211292 0.539646,0.323934 0.02451,0.0097 0.02787,0.04439 0.05397,0.05401 0.280119,0.103466 0.679108,0.174727 1.133258,0.269953 0.192152,0.04031 0.426473,0.06935 0.647576,0.107975 0.0047,0.02012 -0.0046,0.09003 0,0.107975 0.02968,0.11878 0.420593,0.22068 1.133257,0.323934 0.06032,0.01019 0.09584,-0.0099 0.161898,0 0.25781,0.03536 0.698874,0.07533 1.025328,0.107975 0.784964,0.233484 2.357307,0.302227 4.371133,0.323934 0.160649,0.0078 0.371948,-0.007 0.539646,0 0.07925,0.0044 0.135164,-0.0044 0.215858,0 0.01969,8.66e-4 0.03418,-8.68e-4 0.05397,0 0.04811,0.0026 0.113264,-0.0026 0.161896,0 0.347638,0.01214 0.701555,0.04507 1.079292,0.054 0.05359,0.0018 0.107687,-0.0018 0.161898,0 0.305952,0.007 0.537162,0.04907 0.863433,0.05401 0.02011,3.21e-4 0.03378,-3.12e-4 0.05397,0 1.153233,0.01734 2.45704,-1.82e-4 3.885452,0 0.127673,0.0018 0.248571,-8.67e-4 0.377751,0 0.354966,0.0026 0.66602,0 1.02533,0 0.0377,2.6e-5 0.07018,0 0.10793,0 0.616662,0.0052 1.148517,0 1.780833,0 0.354402,-3.56e-4 0.687715,7.63e-4 1.025327,0 0.266356,-8.67e-4 0.492984,0.0018 0.755506,0 0.596167,-0.0034 1.15198,0.0069 1.726866,0 0.163614,-0.0018 0.272552,0.0018 0.431719,0 l 8.580372,0 0.32379,-0.323933 c 2.96638,-0.182053 4.74914,-0.431677 4.47907,-0.701864 -0.2694,-0.26952 0.0831,-1.003901 0.80947,-1.997607 0.0241,-0.03294 0.0289,-0.07447 0.054,-0.107974 0.46406,-0.372904 1.04188,-0.738128 1.72687,-1.079789 5.34683,-2.666901 8.17271,-9.050837 8.20262,-18.572318 0.002,-0.835467 8.7e-4,-1.638388 0.0541,-2.429525 0.005,-0.08842 0.0475,-0.18237 0.0541,-0.269947 0.10664,-0.724088 0.20248,-1.357113 0.32378,-1.997605 0.45258,-1.532555 1.02129,-3.290508 1.34912,-4.373135 0.0579,-0.0728 0.10575,-0.181211 0.16189,-0.215957 0.68185,-0.421601 1.13135,-6.302245 1.34912,-13.821268 6.5e-4,-0.019507 -6.6e-4,-0.034453 0,-0.053993 0.1825,-2.7580262 0.31192,-5.7896755 0.37775,-8.90823766 0.0844,-3.75060444 0.0821,-7.62121394 0,-11.28377084 -0.0153,-0.927557 -0.0269,-1.80274 -0.0541,-2.699465 -0.0124,-0.358383 -0.0397,-0.673779 -0.0541,-1.025798 -0.005,-0.129355 0.005,-0.249507 0,-0.377925 -6e-4,-0.01877 5.9e-4,-0.03525 0,-0.05399 -0.002,-0.03733 0.002,-0.07071 0,-0.107975 -0.0275,-0.897847 -0.0683,-1.747796 -0.10797,-2.591488 l 0,-6.424729 0,-3.671274 -0.97136,-1.241754 c -0.11941,-0.894457 -0.23599,-1.611864 -0.37776,-2.105584 -0.11893,-0.457787 -0.24356,-0.726865 -0.37775,-0.809842 -0.17808,-0.110106 -0.32372,-0.278708 -0.48567,-0.485901 -0.006,-0.02271 -0.0469,-0.03138 -0.0541,-0.054 -0.0221,-0.07108 -0.0313,-0.145376 -0.0541,-0.215966 -0.30304,-1.113776 -0.6438,-2.186914 -1.02534,-3.185362 -0.0416,-0.367182 -0.10797,-0.762727 -0.10797,-1.133775 0,-5.168233 -5.58766,-12.143022 -12.41185,-15.548932 -0.20633,-0.102967 -0.47817,-0.174263 -0.70154,-0.269944 l -2.48246,-2.429516 -2.482373,0 -0.05401,-0.05404 -0.377758,0 -0.054,-0.05415 z"
       id="path3254-1"
       inkscape:connector-curvature="0" />
  </g>
</svg>
