<?xml version="1.0" encoding="UTF-8" standalone="no"?>
<!-- Created with Inkscape (http://www.inkscape.org/) -->

<svg
   xmlns:dc="http://purl.org/dc/elements/1.1/"
   xmlns:cc="http://creativecommons.org/ns#"
   xmlns:rdf="http://www.w3.org/1999/02/22-rdf-syntax-ns#"
   xmlns:svg="http://www.w3.org/2000/svg"
   xmlns="http://www.w3.org/2000/svg"
   xmlns:xlink="http://www.w3.org/1999/xlink"
   xmlns:sodipodi="http://sodipodi.sourceforge.net/DTD/sodipodi-0.dtd"
   xmlns:inkscape="http://www.inkscape.org/namespaces/inkscape"
   width="256"
   height="256"
   id="svg3499"
   version="1.1"
   inkscape:version="0.48.3.1 r9886"
   sodipodi:docname="stone_fire_berry_resized.svg">
  <defs
     id="defs3501">
    <filter
       color-interpolation-filters="sRGB"
       inkscape:menu-tooltip="Flexible bubbles effect with some displacement"
       inkscape:menu="Bumps"
       inkscape:label="stone"
       id="filter5275">
      <feGaussianBlur
         stdDeviation="0.01"
         in="SourceGraphic"
         result="result0"
         id="feGaussianBlur5277" />
      <feTurbulence
         type="fractalNoise"
         result="result1"
         numOctaves="10"
         seed="300"
         baseFrequency="0.12"
         id="feTurbulence5279" />
      <feGaussianBlur
         result="result8"
         stdDeviation="0.5"
         id="feGaussianBlur5281" />
      <feDisplacementMap
         xChannelSelector="R"
         in="result0"
         scale="3"
         result="result7"
         in2="result8"
         id="feDisplacementMap5283"
         yChannelSelector="A" />
      <feComposite
         in="result7"
         operator="in"
         result="result2"
         in2="result1"
         id="feComposite5285" />
      <feComposite
         result="result9"
         operator="arithmetic"
         in="result0"
         k3="3"
         in2="result2"
         id="feComposite5287"
         k1="0"
         k2="0"
         k4="0" />
      <feBlend
         mode="multiply"
         result="fbSourceGraphic"
         in2="result2"
         id="feBlend5289" />
      <feColorMatrix
         result="fbSourceGraphicAlpha"
         in="fbSourceGraphic"
         values="1 0 0 -1 0 1 0 1 -1 0 1 0 0 -1 0 -1.8 -0.5 0 5.7 -2.5 "
         id="feColorMatrix5291" />
      <feGaussianBlur
         result="result0"
         in="fbSourceGraphicAlpha"
         stdDeviation="0.5"
         id="feGaussianBlur5293" />
      <feSpecularLighting
         specularExponent="3"
         surfaceScale="5"
         result="result6"
         id="feSpecularLighting5295"
         specularConstant="0.5">
        <feDistantLight
           elevation="10"
           azimuth="225"
           id="feDistantLight5297" />
      </feSpecularLighting>
      <feComposite
         operator="in"
         result="result2"
         in="result6"
         in2="fbSourceGraphicAlpha"
         id="feComposite5299" />
      <feComposite
         k3="0.7"
         k2="1"
         operator="arithmetic"
         result="result4"
         in="fbSourceGraphic"
         in2="result2"
         id="feComposite5301"
         k1="0"
         k4="0" />
      <feColorMatrix
         type="saturate"
         id="feColorMatrix5303" />
    </filter>
    <radialGradient
       inkscape:collect="always"
       xlink:href="#linearGradient4825"
       id="radialGradient3421"
       gradientUnits="userSpaceOnUse"
       gradientTransform="matrix(0.32401847,-0.01399167,0.0150054,0.34749413,493.322,-313.88888)"
       cx="-2714.116"
       cy="691.35486"
       fx="-2714.116"
       fy="691.35486"
       r="305.33032" />
    <linearGradient
       inkscape:collect="always"
       id="linearGradient4825">
      <stop
         style="stop-color:#f3e08c;stop-opacity:1"
         offset="0"
         id="stop4827" />
      <stop
         id="stop4861"
         offset="0.13980709"
         style="stop-color:#ea9d74;stop-opacity:1" />
      <stop
         id="stop4851"
         offset="0.25677642"
         style="stop-color:#dbba41;stop-opacity:1;" />
      <stop
         style="stop-color:#da7758;stop-opacity:1"
         offset="0.37374577"
         id="stop4859" />
      <stop
         id="stop4849"
         offset="0.49539387"
         style="stop-color:#cca532;stop-opacity:1;" />
      <stop
         style="stop-color:#c24028;stop-opacity:1"
         offset="0.62172085"
         id="stop4857" />
      <stop
         style="stop-color:#ba8c20;stop-opacity:1;"
         offset="0.77612031"
         id="stop4853" />
      <stop
         id="stop4855"
         offset="0.89776844"
         style="stop-color:#86240c;stop-opacity:1" />
      <stop
         style="stop-color:#4e1308;stop-opacity:1"
         offset="1"
         id="stop4829" />
    </linearGradient>
    <radialGradient
       inkscape:collect="always"
       xlink:href="#linearGradient4841"
       id="radialGradient3423"
       gradientUnits="userSpaceOnUse"
       gradientTransform="matrix(0.42057006,-0.0212285,0.01341519,0.26577601,752.662,-294.29368)"
       cx="-2728.8723"
       cy="1084.8846"
       fx="-2728.8723"
       fy="1084.8846"
       r="241.31952" />
    <linearGradient
       inkscape:collect="always"
       id="linearGradient4841">
      <stop
         style="stop-color:#780000;stop-opacity:1"
         offset="0"
         id="stop6228" />
      <stop
         id="stop6230"
         offset="0.32739776"
         style="stop-color:#9f3515;stop-opacity:1" />
      <stop
         style="stop-color:#edd153;stop-opacity:1"
         offset="1"
         id="stop6232" />
    </linearGradient>
    <radialGradient
       inkscape:collect="always"
       xlink:href="#linearGradient4815"
       id="radialGradient3425"
       gradientUnits="userSpaceOnUse"
       gradientTransform="matrix(0.46517429,0.017764,-0.00943889,0.24716991,890.4344,-143.82078)"
       cx="-2718.259"
       cy="320.84341"
       fx="-2718.259"
       fy="320.84341"
       r="275.89166" />
    <linearGradient
       inkscape:collect="always"
       id="linearGradient4815">
      <stop
         style="stop-color:#550000;stop-opacity:1"
         offset="0"
         id="stop4817" />
      <stop
         id="stop4823"
         offset="0.32739776"
         style="stop-color:#70250f;stop-opacity:1;" />
      <stop
         style="stop-color:#edd153;stop-opacity:1"
         offset="1"
         id="stop4819" />
    </linearGradient>
    <radialGradient
       inkscape:collect="always"
       xlink:href="#linearGradient4873"
       id="radialGradient3427"
       gradientUnits="userSpaceOnUse"
       gradientTransform="matrix(0.38482931,0.01165602,-0.00724079,0.23905812,678.2288,-166.48288)"
       cx="-2790.8887"
       cy="634.3385"
       fx="-2790.8887"
       fy="634.3385"
       r="304.8316" />
    <linearGradient
       inkscape:collect="always"
       id="linearGradient4873">
      <stop
         style="stop-color:#eff18b;stop-opacity:1"
         offset="0"
         id="stop4875" />
      <stop
         style="stop-color:#973b09;stop-opacity:1"
         offset="1"
         id="stop4879" />
    </linearGradient>
    <filter
       color-interpolation-filters="sRGB"
       inkscape:collect="always"
       id="filter4520"
       x="-0.28799999"
       width="1.576"
       y="-0.28799999"
       height="1.576">
      <feGaussianBlur
         inkscape:collect="always"
         stdDeviation="11.019552"
         id="feGaussianBlur4522" />
    </filter>
  </defs>
  <sodipodi:namedview
     id="base"
     pagecolor="#ffffff"
     bordercolor="#666666"
     borderopacity="1.0"
     inkscape:pageopacity="0.0"
     inkscape:pageshadow="2"
     inkscape:zoom="2.8284271"
     inkscape:cx="167.7852"
     inkscape:cy="120.39664"
     inkscape:current-layer="layer1"
     inkscape:document-units="px"
     showgrid="false"
     inkscape:window-width="1855"
     inkscape:window-height="1056"
     inkscape:window-x="65"
     inkscape:window-y="24"
     inkscape:window-maximized="1" />
  <metadata
     id="metadata3504">
    <rdf:RDF>
      <cc:Work
         rdf:about="">
        <dc:format>image/svg+xml</dc:format>
        <dc:type
           rdf:resource="http://purl.org/dc/dcmitype/StillImage" />
        <dc:title />
      </cc:Work>
    </rdf:RDF>
  </metadata>
  <g
     id="layer1"
     inkscape:label="Layer 1"
     inkscape:groupmode="layer"
     transform="translate(0,-512)">
    <g
       id="g3402"
       style="display:inline;filter:url(#filter5275)"
       transform="matrix(0.98978228,0,0,0.99065628,500.27123,697.24493)"
       inkscape:export-filename="/home/datahead/stone graphics/stone_fire_berry.png"
       inkscape:export-xdpi="90"
       inkscape:export-ydpi="90">
      <path
         style="opacity:0.8;fill:#ffd42a;fill-opacity:1;fill-rule:evenodd;stroke:#ff0000;stroke-width:2.90826941;stroke-linecap:butt;stroke-linejoin:miter;stroke-miterlimit:5;stroke-opacity:0.77777782;stroke-dasharray:none"
         d="m -343.657,-138.73378 c -2.9631,-0.069 -7.1436,-37.2379 -12.0978,-37.8792 0.9215,10.3754 -13.2875,28.3124 -15.9948,24.3822 -6.346,-9.2128 -10.9854,-2.1272 -2.0909,-26.8313 -14.8131,13.606 -14.7987,36.7291 -24.6284,41.4078 -8.1904,3.8984 -21.3878,-19.5166 -25.8798,-26.6407 0.399,12.7243 -9.9915,33.2311 -15.0749,35.6038 -4.4262,2.06592 -10.4563,-2.2786 -8.836,-10.3864 -4.4999,3.3986 -13.5484,25.92048 -17.7616,30.9691 -11.3318,13.57878 -19.9668,32.87672 -22.8259,59.42313 -4.3539,40.42572 20.9289,70.71786 46.3108,89.7985 12.691,9.54032 25.6464,16.63117 35.9804,21.49393 28.7985,14.73783 56.5001,4.94589 81.3236,-7.84816 27.0811,-14.16142 55.8009,-41.11047 61.8196,-86.49829 3.9091,-29.47873 -8.3541,-79.49012 -15.3304,-92.43495 -1.1009,8.59902 -5.4797,17.59921 -7.1885,10.19064 -4.0445,-17.5359 -18.0981,-40.9726 -21.0751,-43.2478 1.185,15.8411 2.4783,30.36291 -0.6215,28.5936 -3.0778,-1.7569 -18.0494,-18.5885 -22.0379,-33.5173 -7.1714,9.0631 -1.7624,21.5856 -6.0688,23.013 -9.0572,3.002 -3.3024,0.5159 -7.9221,0.4084 z"
         id="path4770"
         inkscape:connector-curvature="0"
         sodipodi:nodetypes="scscscscsssccscscscss" />
      <path
         style="fill:#ffd42a;fill-opacity:1;fill-rule:evenodd;stroke:#550000;stroke-width:9;stroke-linecap:butt;stroke-linejoin:miter;stroke-miterlimit:4;stroke-opacity:1;stroke-dasharray:none"
         d="m -343.9573,-125.87906 c -9.401,-0.21887 -19.1966,1.67297 -29.0156,6.08008 a 1.9007929,1.9007929 0 0 1 -1.3476,0.0781 c 0,0 -22.8798,-7.13712 -46.9395,-1.67773 -24.0597,5.45938 -49.3017,23.0308 -54.8008,74.08984 -3.716,34.50352 17.7184,60.45304 41.252,78.14453 11.7668,8.84575 24.0174,15.56505 33.7285,20.13477 4.8555,2.28486 9.0764,4.034 12.2773,5.24219 3.201,1.20818 5.5653,1.89565 6,1.97265 0.2261,0.04 2.534,0.0755 5.6133,-0.27344 3.0794,-0.34896 7.1719,-1.00672 11.9356,-2.08789 9.5273,-2.16233 21.7459,-6.01838 34.0625,-12.45898 24.6332,-12.88121 49.6094,-35.90896 55.0312,-76.79492 6.7298,-50.74938 -27.0595,-91.50072 -67.7969,-92.44922 z"
         id="path4774"
         inkscape:connector-curvature="0" />
      <path
         style="fill:url(#radialGradient3421);fill-opacity:1;fill-rule:evenodd;stroke:none"
         d="m -435.8753,26.80871 c 0,0 -26.8354,-22.7069 -32.7989,-40.59718 -5.9634,-17.89029 -5.734,-31.65203 -3.4403,-44.95507 2.2935,-13.30302 4.5872,-17.20219 4.5872,-17.20219 l -1.6056,22.47753 9.8626,-21.56008 -2.2936,21.33073 13.9912,-23.16563 -4.1286,25.91797 10.3213,-26.37669 0.6881,23.16562 13.5324,-24.5418 4.3579,21.56008 7.3396,-24.54179 c 0,0 4.1285,25.45924 5.0459,24.08307 0.9176,-1.37617 10.5507,-27.52351 10.5507,-27.52351 l 6.8809,31.8814 6.4222,-38.30355 8.0277,35.32183 5.5047,-34.86311 12.6149,31.19331 0.9175,-31.88139 17.8903,34.63374 -2.0643,-33.94566 13.5324,30.27586 0.4587,-34.17501 16.7435,32.79884 -4.358,-36.00992 16.0554,27.29415 -5.734,-25.45926 13.5325,22.01881 -1.3763,-18.80773 8.7158,21.56008 -4.1285,-18.80773 c 0,0 12.3855,19.95455 12.3855,38.07419 0,18.11964 -4.5872,34.63375 -6.6515,41.28526 -2.0643,6.65151 -5.2753,13.76176 -5.2753,13.76176 l 2.2937,-10.32133 -32.5695,25.22989 9.4038,-26.37669 -23.6244,25.00052 7.1103,-23.85372 -17.4316,22.01881 1.1469,-20.87199 -16.0554,22.24818 -5.9635,-26.83543 -8.0276,26.14733 -3.4405,-22.24816 -5.9634,24.54179 -15.826,-27.98224 0.9174,23.39498 -14.2205,-19.95453 1.8349,21.56007 -13.303,-22.24816 7.1102,30.73458 -18.3489,-15.82602 8.7157,18.11965 -20.1839,-11.0094 z"
         id="path4780"
         inkscape:connector-curvature="0" />
      <path
         style="fill:url(#radialGradient3423);fill-opacity:1;fill-rule:evenodd;stroke:none"
         d="m -380.9702,56.57134 c 30.5999,-7.24743 35.3997,-8.98663 53.5044,-19.86512 20.6871,-12.43022 25.9656,-18.08589 30.8311,-26.19508 4.8655,-8.10919 7.1361,-12.97471 7.1361,-12.97471 -10.6232,8.65802 -20.4534,20.22424 -32.7612,22.70573 6.7022,-12.79245 7.7168,-18.00159 9.0824,-23.67883 -7.4147,9.6776 -14.9896,19.21786 -26.5982,25.30068 5.5645,-8.55845 8.8032,-16.3416 10.7042,-23.67884 -5.3371,8.22936 -11.7227,15.61985 -20.1109,21.40826 l 4.2168,-22.057 -15.5696,22.70573 -4.8655,-24.32756 -8.758,27.24687 -3.2437,-23.67884 -5.5142,22.05701 c -6.2908,-9.12159 -11.361,-18.48734 -14.5966,-28.21999 -0.5137,10.8664 1.3941,20.11852 4.5412,28.54436 l -17.8402,-26.59815 3.2437,24.00321 c -7.7527,-5.58442 -10.9315,-13.45571 -15.2454,-20.75953 0.6335,10.88327 4.6044,20.4315 11.353,28.86871 -7.5978,-3.29349 -14.0202,-8.9376 -19.7864,-15.89401 2.094,5.29022 3.135,10.00598 11.6771,18.81332 l -24.6519,-12.9747 c 0,0 4.8368,4.56165 13.0073,12.43727 8.0946,7.8024 48.826,28.51335 50.2445,26.81121 z"
         id="path4782"
         inkscape:connector-curvature="0"
         sodipodi:nodetypes="csscccccccccccccccccccccsc" />
      <path
         style="fill:url(#radialGradient3425);fill-opacity:1;fill-rule:evenodd;stroke:none"
         d="m -467.298,-59.43162 c 0,0 -1.1468,-19.72519 11.9269,-38.30355 7.7474,-11.0095 33.7163,-21.33072 33.7163,-21.33072 l -16.0554,10.09195 20.4133,-8.48641 -13.3031,12.38558 19.4959,-12.38558 -5.2754,11.92685 16.0554,-11.23877 -9.8626,13.99113 18.5784,-12.38559 -3.8991,12.15622 10.5506,-12.38557 0.4587,12.8443 4.5872,-13.76176 4.1286,11.69749 1.6056,-11.46813 10.3212,10.32132 -5.5046,-11.69749 18.1196,6.88088 -11.4681,-8.25706 19.9546,8.02769 -10.092,-8.25705 24.3124,6.65151 -16.9728,-7.11023 c 12.0455,1.5519 20.3394,5.60486 30.0465,8.71577 l -20.1839,-10.32131 c 0,0 12.8443,2.52299 22.0188,7.3396 9.1745,4.81661 14.5117,9.17946 19.2664,16.05538 2.2554,3.26148 3.8992,11.23876 3.8992,11.23876 l -6.8808,-10.55067 2.0642,15.36729 c -5.4212,-11.90958 -10.6079,-18.19369 -15.5966,-19.72518 2.122,3.34407 2.5133,9.57273 3.4404,14.90856 -6.5597,-13.40104 -9.6272,-14.32986 -13.303,-17.43155 3.3961,8.49402 3.6719,18.7216 3.2111,29.35841 -0.7963,-11.09656 -6.5214,-19.89296 -13.7619,-27.98223 1.4052,9.98864 1.7469,20.40261 -1.1467,32.11076 -2.1594,-8.94514 -5.7171,-17.89028 -12.615,-26.83543 1.6329,10.09651 0.1272,19.66994 -0.6881,29.35841 -4.6239,-11.32967 -7.4779,-23.30297 -16.5141,-33.02821 0.9655,9.40387 1.3799,18.80773 -0.2294,28.2116 l -11.6974,-24.31243 -4.5873,28.44095 -7.569,-28.67032 -6.1928,30.27586 -7.3396,-25.22988 -10.3213,25.68861 -3.6698,-20.64263 c -6.5255,9.52313 -6.2631,13.49267 -8.4864,19.49581 -5.3939,-11.8591 -3.7736,-15.88011 -3.1391,-20.63109 -10.8638,7.06503 -13.4757,16.16925 -14.2924,24.07154 -0.095,-6.95734 -1.5612,-13.91467 0.688,-20.872 -4.4134,4.89307 -5.0794,9.78614 -6.6515,14.67921 -0.6917,-4.96953 -0.4248,-9.93905 2.7524,-14.90857 -7.8648,1.60009 -11.4976,9.74067 -14.6792,18.57837 -2.0145,-8.15109 0.3318,-12.37745 2.5229,-16.74347 -9.9815,9.01592 -8.7042,16.15541 -12.1562,24.08307 z"
         id="path4784"
         inkscape:connector-curvature="0"
         sodipodi:nodetypes="cscccccccccccccccccccccccccssccccccccccccccccccccccccccccc" />
      <path
         inkscape:connector-curvature="0"
         id="path4786"
         d="m -435.8753,26.80871 c 0,0 -26.8354,-22.7069 -32.7989,-40.59718 -5.9634,-17.89029 -5.734,-31.65203 -3.4403,-44.95507 2.2935,-13.30302 4.5872,-17.20219 4.5872,-17.20219 l -1.6056,22.47753 9.8626,-21.56008 -2.2936,21.33073 13.9912,-23.16563 -4.1286,25.91797 10.3213,-26.37669 0.6881,23.16562 13.5324,-24.5418 4.3579,21.56008 7.3396,-24.54179 c 0,0 4.1285,25.45924 5.0459,24.08307 0.9176,-1.37617 10.5507,-27.52351 10.5507,-27.52351 l 6.8809,31.8814 6.4222,-38.30355 8.0277,35.32183 5.5047,-34.86311 12.6149,31.19331 0.9175,-31.88139 17.8903,34.63374 -2.0643,-33.94566 13.5324,30.27586 0.4587,-34.17501 16.7435,32.79884 -4.358,-36.00992 16.0554,27.29415 -5.734,-25.45926 13.5325,22.01881 -1.3763,-18.80773 8.7158,21.56008 -4.1285,-18.80773 c 0,0 12.3855,19.95455 12.3855,38.07419 0,18.11964 -4.5872,34.63375 -6.6515,41.28526 -2.0643,6.65151 -5.2753,13.76176 -5.2753,13.76176 l 2.2937,-10.32133 -32.5695,25.22989 9.4038,-26.37669 -23.6244,25.00052 7.1103,-23.85372 -17.4316,22.01881 1.1469,-20.87199 -16.0554,22.24818 -5.9635,-26.83543 -8.0276,26.14733 -3.4405,-22.24816 -5.9634,24.54179 -15.826,-27.98224 0.9174,23.39498 -14.2205,-19.95453 1.8349,21.56007 -13.303,-22.24816 7.1102,30.73458 -18.3489,-15.82602 8.7157,18.11965 -20.1839,-11.0094 z"
         style="fill:url(#radialGradient3427);fill-opacity:1;fill-rule:evenodd;stroke:none" />
      <path
         style="fill:#800000;fill-opacity:1;fill-rule:evenodd;stroke:none"
         d="m -398.1922,-121.5065 -21.0839,1.9462 5.1898,0.32438 -5.5142,5.51424 12.6503,-5.51424 -4.5412,6.16298 13.2992,-5.18988 -1.2975,6.48735 15.2452,-5.18988 14.9209,-1.94621 7.1361,2.27057 -2.2706,-4.86551 12.3261,4.54115 -2.595,-4.21678 8.4335,1.62183 -0.9731,-2.9193 11.0285,2.27057 -5.1899,-3.24368 -11.3528,-0.32437 -29.5175,2.91932 z"
         id="path4776"
         inkscape:connector-curvature="0" />
      <ellipse
         transform="translate(2437.4772,872.17172)"
         sodipodi:ry="3.8924117"
         sodipodi:rx="13.299074"
         sodipodi:cy="-987.8396"
         sodipodi:cx="-2820.7178"
         style="fill:#550000;fill-opacity:1;fill-rule:nonzero;stroke:none"
         id="ellipse4778"
         cx="-2820.7178"
         cy="-987.8396"
         rx="13.299074"
         ry="3.8924117"
         d="m -2807.4187,-987.8396 c 0,2.14972 -5.9542,3.89241 -13.2991,3.89241 -7.3448,0 -13.299,-1.74269 -13.299,-3.89241 0,-2.14972 5.9542,-3.89241 13.299,-3.89241 7.3449,0 13.2991,1.74269 13.2991,3.89241 z" />
      <g
         transform="matrix(0.98895516,0.14821499,-0.14821499,0.98895516,2259.3915,1279.1188)"
         inkscape:transform-center-y="-28.335882"
         inkscape:transform-center-x="-4.126538"
         id="g4837">
        <path
           sodipodi:nodetypes="ccccccccccccsc"
           inkscape:connector-curvature="0"
           id="path4788"
           d="m -2820.0693,-989.13707 c -46.0603,-9.73103 -55.1425,-42.81653 -55.1425,-42.81653 l 24.6519,14.7587 -7.7848,-24.4898 20.1107,18.8133 4.5412,-25.9493 12.8567,25.7784 15.6877,-20.5886 -1.9462,27.8957 27.2469,-17.5159 -7.6227,17.8402 21.7327,-3.7302 c 0,0 -16.705,13.7857 -27.7335,20.273 -11.0285,6.48735 -26.5981,9.73103 -26.5981,9.73103 z"
           style="fill:#550000;fill-rule:evenodd;stroke:#800000;stroke-width:5.13772154;stroke-linecap:butt;stroke-linejoin:miter;stroke-opacity:1" />
        <path
           inkscape:transform-center-y="-27.697788"
           inkscape:transform-center-x="26.312914"
           inkscape:connector-curvature="0"
           id="path4790"
           d="m -2821.7459,-996.28359 c -13.5324,-9.17451 -19.4958,-20.87191 -19.4958,-20.87191 0,0 7.569,3.211 10.78,6.4221 3.2111,3.211 8.7158,14.44981 8.7158,14.44981 z"
           style="fill:#800000;fill-opacity:1;fill-rule:evenodd;stroke:none" />
        <path
           inkscape:transform-center-y="-18.197184"
           inkscape:transform-center-x="-31.494111"
           style="fill:#800000;fill-opacity:1;fill-rule:evenodd;stroke:none"
           d="m -2820.1629,-994.69082 c 12.076,-11.02118 24.8413,-14.09388 24.8413,-14.09388 0,0 -4.8868,6.6121 -8.758,8.98627 -3.871,2.37416 -16.0833,5.10761 -16.0833,5.10761 z"
           id="path4792"
           inkscape:connector-curvature="0" />
        <path
           inkscape:connector-curvature="0"
           id="path4794"
           d="m -2821.4349,-996.81181 c 1.1487,-16.30879 8.2768,-27.33529 8.2768,-27.33529 0,0 1.0189,8.1586 -0.1483,12.5471 -1.1672,4.3886 -8.1285,14.78819 -8.1285,14.78819 z"
           style="fill:#800000;fill-opacity:1;fill-rule:evenodd;stroke:none"
           inkscape:transform-center-x="-10.88845"
           inkscape:transform-center-y="-34.894247" />
        <path
           style="fill:#800000;fill-opacity:1;fill-rule:evenodd;stroke:none"
           d="m -2829.1711,-998.3249 c -15.873,-3.9172 -25.5201,-12.8237 -25.5201,-12.8237 0,0 8.2127,0.3895 12.3375,2.289 4.1248,1.8995 13.1826,10.5347 13.1826,10.5347 z"
           id="path4796"
           inkscape:connector-curvature="0"
           inkscape:transform-center-x="34.280077"
           inkscape:transform-center-y="-16.864601" />
      </g>
      <path
         style="opacity:0.8;fill:#ffd42a;fill-opacity:1;fill-rule:evenodd;stroke:#ff0000;stroke-width:3;stroke-linecap:butt;stroke-linejoin:miter;stroke-opacity:0.77647059"
         d="m -448.9207,-139.73188 c 4.6175,-8.0731 -0.5982,-14.9438 5,-22.8571 4.6443,-6.5649 6.4286,-15.3571 6.4286,-15.3571 0,0 6.5152,10.6071 2.8571,19.6428 -4.3903,10.8442 -14.2857,18.5714 -14.2857,18.5714 z"
         id="path4798"
         inkscape:connector-curvature="0"
         sodipodi:nodetypes="cscsc" />
      <path
         sodipodi:nodetypes="cscsc"
         inkscape:connector-curvature="0"
         id="path4800"
         d="m -304.9607,-150.73368 c -2.8269,-4.9424 0.3662,-9.1487 -3.0611,-13.9933 -2.8432,-4.0191 -3.9356,-9.4018 -3.9356,-9.4018 0,0 -3.9887,6.4938 -1.7492,12.0255 2.6878,6.639 8.7459,11.3696 8.7459,11.3696 z"
         style="opacity:0.8;fill:#ffd42a;fill-opacity:1;fill-rule:evenodd;stroke:#ff0000;stroke-width:1.83663189;stroke-linecap:butt;stroke-linejoin:miter;stroke-opacity:0.77647059" />
      <circle
         sodipodi:ry="45.914799"
         sodipodi:rx="45.914799"
         sodipodi:cy="-924.50635"
         sodipodi:cx="-2845.6423"
         transform="matrix(0.86180539,0,0,0.86180539,2044.2248,744.40992)"
         style="opacity:0.45;fill:#ffd42a;fill-opacity:1;stroke:none;filter:url(#filter4520)"
         id="circle4802"
         cx="-2845.6423"
         cy="-924.50635"
         r="45.914799"
         d="m -2799.7275,-924.50635 c 0,25.35805 -20.5568,45.9148 -45.9148,45.9148 -25.3581,0 -45.9148,-20.55675 -45.9148,-45.9148 0,-25.35804 20.5567,-45.9148 45.9148,-45.9148 25.358,0 45.9148,20.55676 45.9148,45.9148 z" />
    </g>
  </g>
</svg>
