<?xml version="1.0" encoding="UTF-8" standalone="no"?>
<!-- Created with Inkscape (http://www.inkscape.org/) -->

<svg
   xmlns:dc="http://purl.org/dc/elements/1.1/"
   xmlns:cc="http://creativecommons.org/ns#"
   xmlns:rdf="http://www.w3.org/1999/02/22-rdf-syntax-ns#"
   xmlns:svg="http://www.w3.org/2000/svg"
   xmlns="http://www.w3.org/2000/svg"
   xmlns:xlink="http://www.w3.org/1999/xlink"
   xmlns:sodipodi="http://sodipodi.sourceforge.net/DTD/sodipodi-0.dtd"
   xmlns:inkscape="http://www.inkscape.org/namespaces/inkscape"
   width="256"
   height="256"
   id="svg2"
   version="1.1"
   inkscape:version="0.48.5 r10040"
   sodipodi:docname="drawing.svg"
   inkscape:export-filename="/home/sydney/Contrib/TSC/Lemon/6.png"
   inkscape:export-xdpi="90"
   inkscape:export-ydpi="90">
  <defs
     id="defs4">
    <linearGradient
       id="linearGradient3837">
      <stop
         style="stop-color:#ddb107;stop-opacity:1;"
         offset="0"
         id="stop3839" />
      <stop
         style="stop-color:#eaea63;stop-opacity:1;"
         offset="1"
         id="stop3841" />
    </linearGradient>
    <linearGradient
       inkscape:collect="always"
       id="linearGradient4128">
      <stop
         style="stop-color:#ab0000;stop-opacity:1;"
         offset="0"
         id="stop4130" />
      <stop
         id="stop4136"
         offset="0.89826643"
         style="stop-color:#ab0000;stop-opacity:0.09803922;" />
      <stop
         style="stop-color:#ab0000;stop-opacity:0"
         offset="1"
         id="stop4132" />
    </linearGradient>
    <linearGradient
       id="linearGradient4118">
      <stop
         style="stop-color:#ab0000;stop-opacity:1;"
         offset="0"
         id="stop4120" />
      <stop
         style="stop-color:#ab0000;stop-opacity:0;"
         offset="1"
         id="stop4122" />
    </linearGradient>
    <linearGradient
       id="linearGradient4106">
      <stop
         id="stop4114"
         offset="0"
         style="stop-color:#ded90b;stop-opacity:1;" />
      <stop
         style="stop-color:#a0a000;stop-opacity:0;"
         offset="1"
         id="stop4110" />
    </linearGradient>
    <filter
       inkscape:collect="always"
       id="filter4869"
       x="-0.95588384"
       width="2.9117677"
       y="-0.3220925"
       height="1.644185">
      <feGaussianBlur
         inkscape:collect="always"
         stdDeviation="6.2376955"
         id="feGaussianBlur4871" />
    </filter>
    <filter
       inkscape:collect="always"
       id="filter4877"
       x="-0.21447972"
       width="1.4289594"
       y="-0.1466483"
       height="1.2932966">
      <feGaussianBlur
         inkscape:collect="always"
         stdDeviation="8.7494332"
         id="feGaussianBlur4879" />
    </filter>
    <filter
       inkscape:collect="always"
       id="filter4959"
       x="-2.916221"
       width="6.8324421"
       y="-0.98264338"
       height="2.9652868">
      <feGaussianBlur
         inkscape:collect="always"
         stdDeviation="19.030031"
         id="feGaussianBlur4961" />
    </filter>
    <filter
       inkscape:collect="always"
       id="filter4963"
       x="-2.0714406"
       width="5.1428812"
       y="-0.69798803"
       height="2.3959761">
      <feGaussianBlur
         inkscape:collect="always"
         stdDeviation="13.517349"
         id="feGaussianBlur4965" />
    </filter>
    <filter
       inkscape:collect="always"
       id="filter4967"
       x="-1.6556137"
       width="4.3112275"
       y="-0.55787194"
       height="2.1157439">
      <feGaussianBlur
         inkscape:collect="always"
         stdDeviation="10.803838"
         id="feGaussianBlur4969" />
    </filter>
    <filter
       inkscape:collect="always"
       id="filter4971"
       x="-1.6556137"
       width="4.3112275"
       y="-0.55787194"
       height="2.1157439">
      <feGaussianBlur
         inkscape:collect="always"
         stdDeviation="10.803838"
         id="feGaussianBlur4973" />
    </filter>
    <filter
       inkscape:collect="always"
       id="filter4975"
       x="-0.88954531"
       width="2.7790906"
       y="-0.29973922"
       height="1.5994784">
      <feGaussianBlur
         inkscape:collect="always"
         stdDeviation="5.8047982"
         id="feGaussianBlur4977" />
    </filter>
    <filter
       inkscape:collect="always"
       id="filter4979"
       x="-0.49849829"
       width="1.9969966"
       y="-0.16797288"
       height="1.3359458">
      <feGaussianBlur
         inkscape:collect="always"
         stdDeviation="3.25299"
         id="feGaussianBlur4981" />
    </filter>
    <filter
       inkscape:collect="always"
       id="filter4983"
       x="-0.49849829"
       width="1.9969966"
       y="-0.16797288"
       height="1.3359458">
      <feGaussianBlur
         inkscape:collect="always"
         stdDeviation="3.25299"
         id="feGaussianBlur4985" />
    </filter>
    <filter
       inkscape:collect="always"
       id="filter4987"
       x="-0.49849829"
       width="1.9969966"
       y="-0.16797288"
       height="1.3359458">
      <feGaussianBlur
         inkscape:collect="always"
         stdDeviation="3.25299"
         id="feGaussianBlur4989" />
    </filter>
    <filter
       inkscape:collect="always"
       id="filter4991"
       x="-0.4615718"
       width="1.9231436"
       y="-0.15553021"
       height="1.3110604">
      <feGaussianBlur
         inkscape:collect="always"
         stdDeviation="3.0120233"
         id="feGaussianBlur4993" />
    </filter>
    <filter
       inkscape:collect="always"
       id="filter4995"
       x="-0.45427407"
       width="1.9085481"
       y="-0.15307118"
       height="1.3061424">
      <feGaussianBlur
         inkscape:collect="always"
         stdDeviation="2.9644013"
         id="feGaussianBlur4997" />
    </filter>
    <filter
       inkscape:collect="always"
       id="filter4999"
       x="-0.45427407"
       width="1.9085481"
       y="-0.15307118"
       height="1.3061424">
      <feGaussianBlur
         inkscape:collect="always"
         stdDeviation="2.9644013"
         id="feGaussianBlur5001" />
    </filter>
    <filter
       inkscape:collect="always"
       id="filter5003"
       x="-0.46002245"
       width="1.9200449"
       y="-0.15500814"
       height="1.3100163">
      <feGaussianBlur
         inkscape:collect="always"
         stdDeviation="3.0019128"
         id="feGaussianBlur5005" />
    </filter>
    <radialGradient
       inkscape:collect="always"
       xlink:href="#linearGradient4106"
       id="radialGradient4112"
       cx="127.14285"
       cy="136.47116"
       fx="127.14285"
       fy="136.47116"
       r="48.361051"
       gradientTransform="matrix(0.01065713,-1.0988274,1.0829693,0.0055501,-22.00617,1079.5233)"
       gradientUnits="userSpaceOnUse" />
    <radialGradient
       inkscape:collect="always"
       xlink:href="#linearGradient4118"
       id="radialGradient4124"
       cx="130.32899"
       cy="130.05469"
       fx="130.32899"
       fy="130.05469"
       r="24.369929"
       gradientTransform="matrix(-0.99481911,-0.01233636,0.00226649,-0.25905328,252.09254,166.03996)"
       gradientUnits="userSpaceOnUse" />
    <radialGradient
       inkscape:collect="always"
       xlink:href="#linearGradient4128"
       id="radialGradient4134"
       cx="126.42502"
       cy="139.62384"
       fx="126.42502"
       fy="139.62384"
       r="12.860448"
       gradientTransform="matrix(-0.97137255,-0.00789583,0.00373275,-0.17407102,247.60886,158.83908)"
       gradientUnits="userSpaceOnUse" />
    <filter
       inkscape:collect="always"
       id="filter3886"
       x="-0.44325809"
       width="1.8865162"
       y="-0.30307314"
       height="1.6061463"
       inkscape:label="filter3886">
      <feGaussianBlur
         inkscape:collect="always"
         stdDeviation="18.082162"
         id="feGaussianBlur3888" />
    </filter>
    <filter
       id="filter3862"
       inkscape:label="Desaturate"
       x="0"
       y="0"
       width="1"
       height="1"
       inkscape:menu="Color"
       inkscape:menu-tooltip="Render in shades of gray by reducing saturation to zero"
       color-interpolation-filters="sRGB">
      <feTurbulence
         id="feTurbulence3876"
         baseFrequency="0.40000000000000002"
         numOctaves="1"
         seed="188"
         result="fbSourceGraphic" />
      <feColorMatrix
         result="fbSourceGraphicAlpha"
         in="fbSourceGraphic"
         values="0 0 0 -1 0 0 0 0 -1 0 0 0 0 -1 0 0 0 0 1 0"
         id="feColorMatrix3878" />
      <feColorMatrix
         id="feColorMatrix3880"
         type="saturate"
         values="0"
         in="fbSourceGraphic" />
    </filter>
    <radialGradient
       inkscape:collect="always"
       xlink:href="#linearGradient4106"
       id="radialGradient3866"
       gradientUnits="userSpaceOnUse"
       gradientTransform="matrix(-0.49064834,-1.3268762,1.0146468,-0.3751933,260.15687,1153.5592)"
       cx="127.14285"
       cy="136.47116"
       fx="127.14285"
       fy="136.47116"
       r="48.361051" />
    <linearGradient
       inkscape:collect="always"
       xlink:href="#linearGradient3837"
       id="linearGradient3845"
       x1="166.67517"
       y1="921.11713"
       x2="60.297142"
       y2="921.11713"
       gradientUnits="userSpaceOnUse" />
  </defs>
  <sodipodi:namedview
     id="base"
     pagecolor="#ffffff"
     bordercolor="#666666"
     borderopacity="1.0"
     inkscape:pageopacity="0.0"
     inkscape:pageshadow="2"
     inkscape:zoom="1.979899"
     inkscape:cx="142.121"
     inkscape:cy="113.62813"
     inkscape:document-units="px"
     inkscape:current-layer="layer3"
     showgrid="false"
     inkscape:window-width="529"
     inkscape:window-height="865"
     inkscape:window-x="1067"
     inkscape:window-y="16"
     inkscape:window-maximized="0" />
  <metadata
     id="metadata7">
    <rdf:RDF>
      <cc:Work
         rdf:about="">
        <dc:format>image/svg+xml</dc:format>
        <dc:type
           rdf:resource="http://purl.org/dc/dcmitype/StillImage" />
        <dc:title></dc:title>
      </cc:Work>
    </rdf:RDF>
  </metadata>
  <g
     inkscape:groupmode="layer"
     id="layer3"
     inkscape:label="glow"
     style="display:inline;opacity:1">
    <path
       style="fill:#fbfbfb;fill-opacity:0.84259247999999998;filter:url(#filter4877)"
       d="m 171.56268,130.30678 c -0.088,-0.45799 -0.085,-1.12073 0.01,-1.47275 0.092,-0.35203 0.1642,0.0227 0.1601,0.83271 0,0.81002 -0.079,1.09804 -0.1675,0.64004 z m -0.034,-2.29689 c -0.1618,0 -0.311,-0.62132 -0.3317,-1.38071 -0.05,-1.8473 -0.78689,-6.35349 -1.18889,-7.27173 -0.1773,-0.40501 -0.5192,-1.93705 -0.7599,-3.40455 -0.2406,-1.4675 -0.5645,-2.7467 -0.7198,-2.84269 -0.1553,-0.096 -0.2856,-1.04921 -0.2895,-2.11828 -0.01,-2.13923 -1.06289,-5.83361 -1.79169,-6.27372 -0.2549,-0.15393 -0.5811,-1.23088 -0.72489,-2.39323 -0.2223,-1.79802 -0.4539,-2.28064 -1.5521,-3.234442 -1.13129,-0.98255 -1.23859,-1.21864 -0.86819,-1.91065 0.25299,-0.47278 0.28459,-0.8748 0.079,-1.00201 -0.43849,-0.271 -0.87929,0.41773 -0.57869,0.90414 0.1328,0.21481 -0.2417,0.36819 -0.8988,0.36819 -0.8854,0 -1.12619,-0.15943 -1.12619,-0.74549 0,-0.45013 -0.3536,-0.8799 -0.8923,-1.08473 -0.5009,-0.19043 -0.945,-0.69868 -1.0125,-1.15866 -0.1713,-1.16694 -0.90989,-1.26441 -1.18789,-0.15676 -0.1293,0.51507 -0.4805,0.9365 -0.7804,0.9365 -0.657,0 -0.7031,0.43123 -0.1095,1.02479 0.2396,0.23964 0.3303,0.54102 0.2016,0.66976 -0.1287,0.12873 -0.5023,-0.0342 -0.8302,-0.36205 -0.73829,-0.73834 -1.27989,-0.76608 -1.27989,-0.0656 0,1.01734 -0.721,0.9633 -1.87609,-0.14061 -1.4715,-1.40623 -1.99839,-1.12668 -1.0157,0.53888 0.6564,1.11242 0.6799,1.30449 0.1832,1.49508 -0.6981,0.26791 -1.34149,-0.0898 -1.34149,-0.74584 0,-0.26818 -0.3313,-0.57426 -0.7363,-0.68018 -0.4786,-0.12515 -0.7364,-0.0113 -0.7364,0.32525 0,0.2848 -0.2485,0.51782 -0.5523,0.51782 -0.66659,0 -0.74059,-0.97415 -0.092,-1.21196 0.34929,-0.12809 0.35749,-0.27805 0.034,-0.62233 -0.333,-0.35457 -0.557,-0.25362 -1.0262,0.46249 -0.4481,0.68393 -0.893,0.90133 -1.75569,0.85795 -1.5169,-0.0763 -1.6812,-0.7284 -0.4671,-1.85361 l 0.98329,-0.91128 -1.30469,0.21174 c -0.9486,0.15392 -1.47569,0.0408 -1.93069,-0.41427 -0.3443,-0.3443 -0.9325,-0.54584 -1.3071,-0.44787 -0.3747,0.098 -0.78289,0.0135 -0.90719,-0.18759 -0.1243,-0.20113 -0.5676,-0.27636 -0.9852,-0.16716 -0.4175,0.10919 -0.9373,-0.0118 -1.15499,-0.26871 -0.8923,-1.05312 -4.21839,-3.547561 -4.73028,-3.547561 -0.3027,0 -0.6369,-0.33137 -0.7429,-0.73638 -0.1059,-0.40501 -0.3849,-0.73638 -0.62,-0.73638 -0.251,0 -0.3367,0.28609 -0.2075,0.69297 0.1768,0.55698 0,0.72557 -0.91189,0.85908 -1.2985,0.19058 -1.7372,-0.23121 -1.073,-1.0315 0.6714,-0.80906 -0.037,-1.37249 -1.1606,-0.9233 -0.48999,0.19584 -0.66339,0.36658 -0.38549,0.37941 0.40719,0.0188 0.41639,0.13051 0.047,0.57562 -0.5692,0.68587 -1.0662,0.69356 -2.42869,0.0376 -0.588,-0.28308 -1.442,-0.62562 -1.8976,-0.76121 -0.70549,-0.20991 -0.81479,-0.1198 -0.73639,0.60674 0.127,1.1759 -0.9154,1.1176 -1.2017,-0.0672 -0.1683,-0.69697 -0.4406,-0.90456 -1.12109,-0.85492 -1.7434,0.12716 -3.11699,0.6066 -3.92739,1.37083 -1.80549,1.70263 -2.26299,1.95486 -3.97048,2.1889 -1.3905,0.1906 -1.92459,0.10937 -2.45859,-0.37396 -0.6414,-0.58045 -0.7493,-0.56788 -1.80119,0.20978 -0.7569,0.55964 -1.2607,0.7127 -1.5574,0.47318 -0.2412,-0.19472 -1.28579,-0.46788 -2.32147,-0.60703 -1.53158,-0.20578 -1.92451,-0.14476 -2.10551,0.32696 -0.31285,0.815281 -0.98203,0.723121 -0.98203,-0.13525 0,-0.5782 -0.29978,-0.73689 -1.5648,-0.82842 -1.05128,-0.0761 -1.564788,-0.28439 -1.564788,-0.63482 0,-0.83459 -0.807507,-0.87069 -1.023236,-0.0457 -0.108059,0.41329 -0.479858,0.75144 -0.826176,0.75144 -0.473118,0 -0.585928,-0.22886 -0.453718,-0.92048 0.228169,-1.19351 -0.352279,-1.1878 -0.897487,0.009 -0.238289,0.52298 -0.838546,1.01707 -1.372824,1.13004 -0.522168,0.11042 -1.329965,0.35497 -1.795133,0.54346 -0.465168,0.18848 -1.175145,0.3427 -1.577763,0.3427 -0.810227,0 -2.49782,0.976841 -3.154337,1.825861 -0.337519,0.43648 -0.598488,0.46291 -1.288655,0.1305 -0.475988,-0.22926 -1.165905,-0.51352 -1.533094,-0.63171 -0.367228,-0.11818 -0.564537,-0.38173 -0.438508,-0.58567 0.12603,-0.20393 0.0568,-0.370791 -0.153759,-0.370791 -0.210599,0 -0.486858,0.414211 -0.613918,0.920471 -0.294368,1.17292 -0.808726,1.1758 -1.253085,0.007 -0.235789,-0.62015 -0.533467,-0.842001 -0.927096,-0.69095 -0.454898,0.17457 -0.530048,0.55436 -0.348818,1.76297 0.248409,1.65652 -0.411709,2.69866 -1.455674,2.29805 -0.708757,-0.27197 -1.473994,0.96688 -2.619869,4.241432 -1.917853,5.48069 -2.400951,8.22505 -2.5081,14.24792 -0.0906,5.09406 -0.0302,5.77668 0.563998,6.37088 0.442078,0.44207 0.665527,1.21446 0.665527,2.30062 0,0.89932 0.165689,1.73752 0.368188,1.86268 0.202509,0.12515 0.370659,1.33615 0.373719,2.6911 0.004,1.35495 0.244289,3.12628 0.536118,3.9363 0.291818,0.81001 0.537847,2.55426 0.546757,3.8761 0.01,1.47467 0.221539,2.6966 0.547678,3.16224 0.292339,0.41739 0.641747,2.0697 0.776397,3.67178 0.155959,1.85567 0.564388,3.60618 1.125285,4.82307 0.484278,1.05061 0.880487,2.29481 0.880487,2.7649 0,0.47009 0.342668,1.06871 0.761486,1.33027 0.592298,0.3699 0.710308,0.70861 0.531108,1.52443 -0.182219,0.82961 -0.004,1.3067 0.850557,2.28237 0.623777,0.71186 1.080365,1.65251 1.079665,2.22428 0,1.01839 0.651438,2.03136 3.234827,5.02049 0.817927,0.94639 1.876792,2.31098 2.35308,3.03243 0.774187,1.17274 1.768043,1.98982 3.762365,3.09313 0.352718,0.19512 0.727727,0.69922 0.833396,1.12023 0.14241,0.56736 0.852567,0.97818 2.744099,1.58739 1.403604,0.45206 2.754841,1.06633 3.002741,1.36505 0.24791,0.29872 0.90645,0.54312 1.46344,0.54312 0.55695,0 1.79948,0.34805 2.76115,0.77344 1.10382,0.48828 2.13399,0.69634 2.79398,0.56434 0.6369,-0.12739 1.2376,-0.017 1.5371,0.28255 0.2704,0.27041 0.89809,0.61663 1.39499,0.76939 1.2309,0.37847 1.82379,0.90054 1.82379,1.60614 0,1.96964 6.40388,9.41927 9.10077,10.58693 2.28259,0.98825 5.16308,0.51031 7.32517,-1.2154 1.94129,-1.54949 6.48427,-6.08966 7.32217,-7.31758 0.70219,-1.02928 0.93189,-1.90981 0.97769,-3.74863 0.025,-1.02374 0.6791,-1.11233 0.6791,-0.092 0,1.16781 1.91999,0.96772 3.42919,-0.35738 0.68519,-0.60156 1.97499,-1.41096 2.86628,-1.79866 0.8913,-0.3877 2.1072,-1.22099 2.70189,-1.85176 0.5948,-0.63077 1.3538,-1.14685 1.6866,-1.14685 1.74499,0 8.70546,-5.04915 10.27095,-7.45061 2.65489,-4.07266 3.67329,-5.53418 4.85208,-6.96276 3.47009,-4.20564 6.30288,-11.92363 7.14257,-19.46004 l 0.5128,-4.60236 -0.1423,4.41827 c -0.2505,7.77934 -2.74569,14.69631 -7.70347,21.35497 -1.05549,1.41753 -2.68918,3.66759 -3.63038,5.00014 -0.9413,1.33255 -2.12729,2.83875 -2.63569,3.3471 -0.7662,0.76616 -7.26717,5.21663 -9.96176,6.81959 -4.60858,2.74157 -7.15337,4.1631 -7.45287,4.1631 -0.3755,0 -2.38419,2.12833 -5.24958,5.56228 -3.76848,4.51603 -4.83298,5.46862 -6.74567,6.03664 -2.65219,0.78761 -5.28118,0.67914 -7.14067,-0.29462 -2.14469,-1.12313 -5.68658,-4.6647 -7.71197,-7.71131 -0.93179,-1.40172 -1.96249,-2.63827 -2.29029,-2.7479 -0.3278,-0.10963 -2.00439,-0.7405 -3.72568,-1.40194 -1.72124,-0.66145 -3.954,-1.48023 -4.96165,-1.81951 -1.00762,-0.33929 -2.768987,-1.18605 -3.914122,-1.88169 -1.145136,-0.69563 -2.295911,-1.26478 -2.55728,-1.26478 -0.434868,0 -1.996872,-1.41648 -6.475833,-5.87253 -1.909572,-1.89978 -5.420898,-6.79 -5.833566,-8.12437 -0.15556,-0.50312 -0.893547,-1.99172 -1.639944,-3.308 -0.746386,-1.31627 -1.620283,-3.05597 -1.941962,-3.86598 -0.807586,-2.03342 -2.866968,-9.54513 -2.866968,-10.45734 0,-0.41068 -0.227389,-1.45665 -0.505338,-2.32437 -0.673677,-2.10341 -1.574223,-7.6421 -2.052421,-12.62334 -0.708177,-7.37637 -0.428978,-12.89796 1.033206,-20.43449 0.368338,-1.89858 1.967041,-6.822212 3.772084,-11.617252 1.322595,-3.513391 3.808044,-8.219161 5.649687,-10.696711 0.617857,-0.831211 1.845172,-2.521061 2.727389,-3.755241 0.882206,-1.23418 2.37337,-2.84309 3.313686,-3.57535 0.940306,-0.73226 3.327416,-2.84212 5.304698,-4.688581 2.675319,-2.49832 3.840264,-3.88153 4.553694,-5.40676 0.55354,-1.18337 1.74286,-2.78182 2.81417,-3.782211 1.19599,-1.11682 2.45644,-2.87333 3.54637,-4.94204 1.45669,-2.76473 1.91499,-3.32209 3.30748,-4.022661 1.0426,-0.52453 1.7849,-1.213741 2.09079,-1.941341 0.4329,-1.02953 0.6434,-1.1379 2.40879,-1.2403 1.7882,-0.10372 1.956,-0.19332 2.2197,-1.18538 0.35599,-1.33868 0.87469,-1.67545 2.59149,-1.6826 1.40049,-0.006 2.51158,0.74462 2.51158,1.6963 0,0.60553 2.0901,1.6053 3.39389,1.62347 0.4621,0.006 1.1619,0.25498 1.55499,0.55229 0.393,0.29731 1.1386,0.54119 1.6568,0.54195 1.04169,0.001 2.63649,0.8856 4.12138,2.284602 1.0062,0.94793 2.19169,3.31549 2.97809,5.94773 0.6224,2.08293 3.11369,4.531281 4.94788,4.862691 2.07509,0.37493 2.54979,0.68743 6.33067,4.16744 7.65457,7.045371 11.24816,11.169021 15.11624,17.345932 5.11498,8.168091 8.40507,18.463243 9.23666,28.902843 0.4305,5.40405 0.4767,14.17527 0.075,14.17527 z M 161.14522,94.872878 c -0.2025,0 -0.36809,0.17547 -0.36809,0.38992 0,0.21446 0.16559,0.28752 0.36809,0.16237 0.2025,-0.12516 0.3682,-0.30062 0.3682,-0.38992 0,-0.0893 -0.1657,-0.16237 -0.3682,-0.16237 z m -8.77516,-2.20913 c -0.4793,0 -0.7982,0.43769 -0.5781,0.79374 0.2353,0.38079 0.885,0.0524 0.885,-0.44728 0,-0.19055 -0.1381,-0.34646 -0.3069,-0.34646 z m -12.18975,-1.472761 c -0.926,0 -1.29119,0.59433 -0.5418,0.881901 0.9192,0.35272 1.2565,0.26425 1.2565,-0.329611 0,-0.30376 -0.3217,-0.55229 -0.7147,-0.55229 z M 124.83887,58.429614 c -0.47129,-1.17783 -0.79099,-1.4898 -1.56489,-1.52719 -2.07649,-0.10033 -2.78669,-0.24094 -2.89759,-0.57369 -0.1143,-0.34292 -4.19468,-0.24321 -5.25458,0.1284 -0.3037,0.1065 -1.27199,0.24328 -2.15169,0.30395 -0.87969,0.0607 -1.78269,0.29355 -2.00659,0.5175 -0.224,0.22396 -0.7883,0.4072 -1.25409,0.4072 -0.4881,0 -0.8468,0.22261 -0.8468,0.52556 0,1.13519 3.56528,3.15633 5.56778,3.15633 0.66869,0 1.05959,0.192431 1.05959,0.521611 0,0.87127 0.8301,0.86538 2.12749,-0.0151 1.4247,-0.966791 3.20459,-0.957411 4.70368,0.0248 0.9495,0.62217 0.9649,0.61905 0.722,-0.14628 -0.2189,-0.689651 -0.1385,-0.754471 0.6807,-0.548861 1.78059,0.446901 2.09289,-0.33008 1.11499,-2.77424 z M 94.452393,88.613667 c -0.417749,0 -0.857547,1.05516 -0.562708,1.35003 0.11756,0.11753 0.466608,0.11666 0.775667,-0.002 0.581727,-0.22334 0.404048,-1.34819 -0.212959,-1.34819 z m 49.163307,9.524441 c -0.5644,0.25715 -1.0915,0.31097 -1.2146,0.124 -0.1196,-0.18168 -0.6731,-0.44184 -1.22999,-0.57813 -1.2312,-0.30132 -1.3066,-1.15911 -0.1841,-2.0955 1.15749,-0.96562 1.58959,-0.8846 2.12069,0.3977 0.2536,0.61231 0.6961,1.24475 0.98319,1.40543 0.3998,0.22378 0.2886,0.39849 -0.47519,0.7465 z m -4.63068,-0.0359 c -0.6827,-0.22757 -0.796,-1.02019 -0.1458,-1.02019 0.32069,0 0.58299,0.26233 0.58299,0.58296 0,0.32064 -0.1968,0.51738 -0.43719,0.43723 z m -3.40569,-3.2858 c -0.5063,-0.23066 -0.833,-0.56085 -0.7262,-0.73374 0.3251,-0.52607 0.8402,-0.35381 1.254,0.4194 0.3646,0.68133 0.3269,0.70378 -0.5278,0.31434 z m -0.5212,83.033912 c -0.3837,0.34729 -1.27479,0.59657 -2.10839,0.58985 l -1.44369,-0.0116 1.03299,-0.90884 c 1.0198,-0.8972 2.60339,-1.20995 2.98659,-0.58985 0.1085,0.17544 -0.1019,0.58965 -0.4675,0.92047 z m -2.26349,-83.529722 c -0.2025,-0.12516 -0.3682,-0.30062 -0.3682,-0.38992 0,-0.0893 0.1657,-0.16236 0.3682,-0.16236 0.2025,0 0.3682,0.17546 0.3682,0.38992 0,0.21445 -0.1657,0.28751 -0.3682,0.16236 z m -2.47359,-0.60781 c -0.3826,0.20479 -0.9096,0.24012 -1.17109,0.0785 -0.3318,-0.20509 -0.1737,-0.3695 0.52359,-0.54451 1.2229,-0.30694 1.5935,-0.0403 0.6475,0.46598 z m -4.49048,84.535492 c -0.1919,0.11855 -0.4458,0.0586 -0.5643,-0.13321 -0.1186,-0.19182 -0.059,-0.44575 0.1332,-0.5643 0.1918,-0.11855 0.4457,-0.0586 0.5643,0.13321 0.1185,0.19182 0.059,0.44575 -0.1332,0.5643 z m -1.3201,-85.952722 c -0.30379,0 -0.55229,-0.248531 -0.55229,-0.552281 0,-0.30376 0.2485,-0.55229 0.55229,-0.55229 0.3037,0 0.5522,0.24853 0.5522,0.55229 0,0.30375 -0.2485,0.552281 -0.5522,0.552281 z m -3.38978,-1.012521 c -0.1215,0.784201 -0.359,1.012521 -1.053,1.012521 -0.98569,0 -1.13589,-0.349241 -0.44639,-1.038711 0.24729,-0.24729 0.45439,-0.8189 0.46029,-1.27025 0.01,-0.47588 0.2405,-0.82065 0.5578,-0.82065 0.5968,0 0.7232,0.5562 0.4813,2.11709 z M 120.67079,178.82 c -0.1881,0 -0.6129,-0.27102 -0.9442,-0.60225 -0.69849,-0.69858 -0.20959,-1.46755 0.709,-1.11505 0.6121,0.23489 0.8151,1.7173 0.2352,1.7173 z m -5.73328,-2.20914 c -0.37919,0 -0.55969,-0.2413 -0.48209,-0.64433 0.1494,-0.77608 0.80279,-0.72715 0.96939,0.0726 0.069,0.33358 -0.1335,0.57173 -0.4873,0.57173 z m -1.16589,-30.43697 c -0.4342,0.43418 -0.7684,0.26382 -0.9662,-0.49243 -0.276,-1.05553 -1.35069,-0.53332 -1.61429,0.78439 -0.1164,0.58194 -0.3607,1.05807 -0.5429,1.05807 -0.1822,0 -0.4887,0.41421 -0.6812,0.92047 -0.45499,1.1969 -1.10459,1.18267 -1.10459,-0.0242 0,-2.19093 -1.50229,-3.14699 -2.27609,-1.44855 -0.69902,1.53418 -1.40576,1.14238 -1.40576,-0.77933 0,-1.56956 0.062,-1.68358 0.80928,-1.48817 0.44507,0.1164 1.03228,0.0265 1.30498,-0.19978 0.38049,-0.31582 0.62509,-0.22669 1.05249,0.3836 0.3063,0.43726 0.7759,0.79501 1.0436,0.79501 0.58639,0 1.48239,-2.00447 1.14209,-2.5551 -0.3553,-0.57484 -1.87859,-0.47482 -2.40359,0.15781 -0.5451,0.65676 -0.94819,0.47058 -1.21839,-0.5627 -0.1483,-0.56726 0.029,-0.84903 0.69199,-1.10119 1.0827,-0.41165 1.1508,-0.9397 0.1549,-1.20015 -0.78599,-0.20555 -1.05299,-1.86336 -0.36819,-2.28656 0.20249,-0.12515 0.36819,-0.71838 0.36819,-1.31828 0,-0.80615 -0.2402,-1.20016 -0.92049,-1.51013 -1.05715,-0.48167 -1.1365,-0.76815 -0.38528,-1.39159 0.42458,-0.35234 0.76398,-0.30901 1.64197,0.20958 1.0643,0.62874 1.1355,0.62766 1.86019,-0.0282 0.7992,-0.72322 1.5577,-0.48874 0.8166,0.25241 -0.6084,0.60834 -0.5429,1.81244 0.1524,2.80519 0.475,0.67813 0.8003,0.79308 1.69089,0.59747 0.9202,-0.2021 1.082,-0.13597 0.9767,0.39939 -0.069,0.35288 -0.4315,0.82505 -0.8048,1.04926 -0.55499,0.33343 -0.78109,0.25682 -1.24149,-0.42077 -0.3647,-0.53682 -0.9358,-0.82842 -1.62249,-0.82842 -0.9319,0 -1.0597,0.13313 -1.0597,1.10456 0,1.1498 0.086,1.19484 2.39329,1.25829 1.0004,0.0275 1.1045,0.14618 1.1045,1.25814 0,0.82859 0.26939,1.4463 0.82849,1.89996 0.7846,0.63673 1.1153,2.16951 0.5829,2.70194 z m -0.7395,2.94871 c -0.1333,0.13325 -0.4632,0.24227 -0.73329,0.24227 -0.5484,0 -0.672,-0.94914 -0.1644,-1.26288 0.40539,-0.25057 1.23059,0.68765 0.89769,1.02061 z m -0.4661,-20.74452 c -0.39299,0 -0.81699,-0.16568 -0.94219,-0.36819 -0.129,-0.20882 0.1803,-0.36819 0.7147,-0.36819 0.51819,0 0.94219,0.16569 0.94219,0.36819 0,0.20251 -0.3216,0.36819 -0.7147,0.36819 z m -1.03419,25.40323 c -0.6587,-0.004 -2.40109,-1.7477 -2.15109,-2.15222 0.3828,-0.61939 2.42719,0.64156 2.42719,1.49705 0,0.36135 -0.1242,0.65617 -0.2761,0.65517 z m -0.675,-61.146632 c -0.4289,-0.0177 -0.5162,-0.10491 -0.2225,-0.22244 0.2658,-0.10636 0.5834,-0.0933 0.7057,0.029 0.1224,0.12234 -0.095,0.20936 -0.4832,0.19338 z m -0.6137,35.369582 c -0.55679,0.003 -1.01249,-0.16005 -1.01249,-0.36256 0,-0.46554 0.75239,-0.46554 1.47279,0 0.4304,0.27813 0.3287,0.35816 -0.4603,0.36256 z m -3.17818,20.99242 c -0.2025,0 -0.4706,-0.16569 -0.5957,-0.36819 -0.12515,-0.20251 -0.0619,-0.36819 0.1406,-0.36819 0.2026,0 0.4706,0.16568 0.5958,0.36819 0.1251,0.2025 0.062,0.36819 -0.1407,0.36819 z m -7.407169,-12.51844 c -0.929336,-0.49738 -0.932906,-1.15525 -0.0122,-2.26039 l 0.724119,-0.86922 0.0121,1.76185 c 0.0114,1.64925 -0.035,1.73667 -0.724119,1.36776 z M 94.319063,95.179218 c -0.404998,0.0211 -1.057985,-0.20483 -1.451064,-0.50214 -0.623227,-0.47138 -0.635007,-0.54057 -0.092,-0.54057 0.342448,0 0.622637,0.15416 0.622637,0.34258 0,0.18842 0.372789,0.41438 0.828427,0.50214 0.709607,0.13668 0.722827,0.16507 0.092,0.19799 z"
       id="path3180-9"
       inkscape:connector-curvature="0" />
    <path
       inkscape:connector-curvature="0"
       id="path2983-4"
       d="m 171.56268,130.30678 c -0.088,-0.45799 -0.085,-1.12073 0.01,-1.47275 0.092,-0.35203 0.1642,0.0227 0.1601,0.83271 0,0.81002 -0.079,1.09804 -0.1675,0.64004 z m -0.034,-2.29689 c -0.1618,0 -0.311,-0.62132 -0.3317,-1.38071 -0.05,-1.8473 -0.78689,-6.35349 -1.18889,-7.27173 -0.1773,-0.40501 -0.5192,-1.93705 -0.7599,-3.40455 -0.2406,-1.4675 -0.5645,-2.7467 -0.7198,-2.84269 -0.1553,-0.096 -0.2856,-1.04921 -0.2895,-2.11828 -0.01,-2.13923 -1.06289,-5.83361 -1.79169,-6.27372 -0.2549,-0.15393 -0.5811,-1.23088 -0.72489,-2.39323 -0.2223,-1.79802 -0.4539,-2.28064 -1.5521,-3.234442 -1.13129,-0.98255 -1.23859,-1.21864 -0.86819,-1.91065 0.25299,-0.47278 0.28459,-0.8748 0.079,-1.00201 -0.43849,-0.271 -0.87929,0.41773 -0.57869,0.90414 0.1328,0.21481 -0.2417,0.36819 -0.8988,0.36819 -0.8854,0 -1.12619,-0.15943 -1.12619,-0.74549 0,-0.45013 -0.3536,-0.8799 -0.8923,-1.08473 -0.5009,-0.19043 -0.945,-0.69868 -1.0125,-1.15866 -0.1713,-1.16694 -0.90989,-1.26441 -1.18789,-0.15676 -0.1293,0.51507 -0.4805,0.9365 -0.7804,0.9365 -0.657,0 -0.7031,0.43123 -0.1095,1.02479 0.2396,0.23964 0.3303,0.54102 0.2016,0.66976 -0.1287,0.12873 -0.5023,-0.0342 -0.8302,-0.36205 -0.73829,-0.73834 -1.27989,-0.76608 -1.27989,-0.0656 0,1.01734 -0.721,0.9633 -1.87609,-0.14061 -1.4715,-1.40623 -1.99839,-1.12668 -1.0157,0.53888 0.6564,1.11242 0.6799,1.30449 0.1832,1.49508 -0.6981,0.26791 -1.34149,-0.0898 -1.34149,-0.74584 0,-0.26818 -0.3313,-0.57426 -0.7363,-0.68018 -0.4786,-0.12515 -0.7364,-0.0113 -0.7364,0.32525 0,0.2848 -0.2485,0.51782 -0.5523,0.51782 -0.66659,0 -0.74059,-0.97415 -0.092,-1.21196 0.34929,-0.12809 0.35749,-0.27805 0.034,-0.62233 -0.333,-0.35457 -0.557,-0.25362 -1.0262,0.46249 -0.4481,0.68393 -0.893,0.90133 -1.75569,0.85795 -1.5169,-0.0763 -1.6812,-0.7284 -0.4671,-1.85361 l 0.98329,-0.91128 -1.30469,0.21174 c -0.9486,0.15392 -1.47569,0.0408 -1.93069,-0.41427 -0.3443,-0.3443 -0.9325,-0.54584 -1.3071,-0.44787 -0.3747,0.098 -0.78289,0.0135 -0.90719,-0.18759 -0.1243,-0.20113 -0.5676,-0.27636 -0.9852,-0.16716 -0.4175,0.10919 -0.9373,-0.0118 -1.15499,-0.26871 -0.8923,-1.05312 -4.21839,-3.547561 -4.73028,-3.547561 -0.3027,0 -0.6369,-0.33137 -0.7429,-0.73638 -0.1059,-0.40501 -0.3849,-0.73638 -0.62,-0.73638 -0.251,0 -0.3367,0.28609 -0.2075,0.69297 0.1768,0.55698 0,0.72557 -0.91189,0.85908 -1.2985,0.19058 -1.7372,-0.23121 -1.073,-1.0315 0.6714,-0.80906 -0.037,-1.37249 -1.1606,-0.9233 -0.48999,0.19584 -0.66339,0.36658 -0.38549,0.37941 0.40719,0.0188 0.41639,0.13051 0.047,0.57562 -0.5692,0.68587 -1.0662,0.69356 -2.42869,0.0376 -0.588,-0.28308 -1.442,-0.62562 -1.8976,-0.76121 -0.70549,-0.20991 -0.81479,-0.1198 -0.73639,0.60674 0.127,1.1759 -0.9154,1.1176 -1.2017,-0.0672 -0.1683,-0.69697 -0.4406,-0.90456 -1.12109,-0.85492 -1.7434,0.12716 -3.11699,0.6066 -3.92739,1.37083 -1.80549,1.70263 -2.26299,1.95486 -3.97048,2.1889 -1.3905,0.1906 -1.92459,0.10937 -2.45859,-0.37396 -0.6414,-0.58045 -0.7493,-0.56788 -1.80119,0.20978 -0.7569,0.55964 -1.2607,0.7127 -1.5574,0.47318 -0.2412,-0.19472 -1.28579,-0.46788 -2.32147,-0.60703 -1.53158,-0.20578 -1.92451,-0.14476 -2.10551,0.32696 -0.31285,0.815281 -0.98203,0.723121 -0.98203,-0.13525 0,-0.5782 -0.29978,-0.73689 -1.5648,-0.82842 -1.05128,-0.0761 -1.564788,-0.28439 -1.564788,-0.63482 0,-0.83459 -0.807507,-0.87069 -1.023236,-0.0457 -0.108059,0.41329 -0.479858,0.75144 -0.826176,0.75144 -0.473118,0 -0.585928,-0.22886 -0.453718,-0.92048 0.228169,-1.19351 -0.352279,-1.1878 -0.897487,0.009 -0.238289,0.52298 -0.838546,1.01707 -1.372824,1.13004 -0.522168,0.11042 -1.329965,0.35497 -1.795133,0.54346 -0.465168,0.18848 -1.175145,0.3427 -1.577763,0.3427 -0.810227,0 -2.49782,0.976841 -3.154337,1.825861 -0.337519,0.43648 -0.598488,0.46291 -1.288655,0.1305 -0.475988,-0.22926 -1.165905,-0.51352 -1.533094,-0.63171 -0.367228,-0.11818 -0.564537,-0.38173 -0.438508,-0.58567 0.12603,-0.20393 0.0568,-0.370791 -0.153759,-0.370791 -0.210599,0 -0.486858,0.414211 -0.613918,0.920471 -0.294368,1.17292 -0.808726,1.1758 -1.253085,0.007 -0.235789,-0.62015 -0.533467,-0.842001 -0.927096,-0.69095 -0.454898,0.17457 -0.530048,0.55436 -0.348818,1.76297 0.248409,1.65652 -0.411709,2.69866 -1.455674,2.29805 -0.708757,-0.27197 -1.473994,0.96688 -2.619869,4.241432 -1.917853,5.48069 -2.400951,8.22505 -2.5081,14.24792 -0.0906,5.09406 -0.0302,5.77668 0.563998,6.37088 0.442078,0.44207 0.665527,1.21446 0.665527,2.30062 0,0.89932 0.165689,1.73752 0.368188,1.86268 0.202509,0.12515 0.370659,1.33615 0.373719,2.6911 0.004,1.35495 0.244289,3.12628 0.536118,3.9363 0.291818,0.81001 0.537847,2.55426 0.546757,3.8761 0.01,1.47467 0.221539,2.6966 0.547678,3.16224 0.292339,0.41739 0.641747,2.0697 0.776397,3.67178 0.155959,1.85567 0.564388,3.60618 1.125285,4.82307 0.484278,1.05061 0.880487,2.29481 0.880487,2.7649 0,0.47009 0.342668,1.06871 0.761486,1.33027 0.592298,0.3699 0.710308,0.70861 0.531108,1.52443 -0.182219,0.82961 -0.004,1.3067 0.850557,2.28237 0.623777,0.71186 1.080365,1.65251 1.079665,2.22428 0,1.01839 0.651438,2.03136 3.234827,5.02049 0.817927,0.94639 1.876792,2.31098 2.35308,3.03243 0.774187,1.17274 1.768043,1.98982 3.762365,3.09313 0.352718,0.19512 0.727727,0.69922 0.833396,1.12023 0.14241,0.56736 0.852567,0.97818 2.744099,1.58739 1.403604,0.45206 2.754841,1.06633 3.002741,1.36505 0.24791,0.29872 0.90645,0.54312 1.46344,0.54312 0.55695,0 1.79948,0.34805 2.76115,0.77344 1.10382,0.48828 2.13399,0.69634 2.79398,0.56434 0.6369,-0.12739 1.2376,-0.017 1.5371,0.28255 0.2704,0.27041 0.89809,0.61663 1.39499,0.76939 1.2309,0.37847 1.82379,0.90054 1.82379,1.60614 0,1.96964 6.40388,9.41927 9.10077,10.58693 2.28259,0.98825 5.16308,0.51031 7.32517,-1.2154 1.94129,-1.54949 6.48427,-6.08966 7.32217,-7.31758 0.70219,-1.02928 0.93189,-1.90981 0.97769,-3.74863 0.025,-1.02374 0.6791,-1.11233 0.6791,-0.092 0,1.16781 1.91999,0.96772 3.42919,-0.35738 0.68519,-0.60156 1.97499,-1.41096 2.86628,-1.79866 0.8913,-0.3877 2.1072,-1.22099 2.70189,-1.85176 0.5948,-0.63077 1.3538,-1.14685 1.6866,-1.14685 1.74499,0 8.70546,-5.04915 10.27095,-7.45061 2.65489,-4.07266 3.67329,-5.53418 4.85208,-6.96276 3.47009,-4.20564 6.30288,-11.92363 7.14257,-19.46004 l 0.5128,-4.60236 -0.1423,4.41827 c -0.2505,7.77934 -2.74569,14.69631 -7.70347,21.35497 -1.05549,1.41753 -2.68918,3.66759 -3.63038,5.00014 -0.9413,1.33255 -2.12729,2.83875 -2.63569,3.3471 -0.7662,0.76616 -7.26717,5.21663 -9.96176,6.81959 -4.60858,2.74157 -7.15337,4.1631 -7.45287,4.1631 -0.3755,0 -2.38419,2.12833 -5.24958,5.56228 -3.76848,4.51603 -4.83298,5.46862 -6.74567,6.03664 -2.65219,0.78761 -5.28118,0.67914 -7.14067,-0.29462 -2.14469,-1.12313 -5.68658,-4.6647 -7.71197,-7.71131 -0.93179,-1.40172 -1.96249,-2.63827 -2.29029,-2.7479 -0.3278,-0.10963 -2.00439,-0.7405 -3.72568,-1.40194 -1.72124,-0.66145 -3.954,-1.48023 -4.96165,-1.81951 -1.00762,-0.33929 -2.768987,-1.18605 -3.914122,-1.88169 -1.145136,-0.69563 -2.295911,-1.26478 -2.55728,-1.26478 -0.434868,0 -1.996872,-1.41648 -6.475833,-5.87253 -1.909572,-1.89978 -5.420898,-6.79 -5.833566,-8.12437 -0.15556,-0.50312 -0.893547,-1.99172 -1.639944,-3.308 -0.746386,-1.31627 -1.620283,-3.05597 -1.941962,-3.86598 -0.807586,-2.03342 -2.866968,-9.54513 -2.866968,-10.45734 0,-0.41068 -0.227389,-1.45665 -0.505338,-2.32437 -0.673677,-2.10341 -1.574223,-7.6421 -2.052421,-12.62334 -0.708177,-7.37637 -0.428978,-12.89796 1.033206,-20.43449 0.368338,-1.89858 1.967041,-6.822212 3.772084,-11.617252 1.322595,-3.513391 3.808044,-8.219161 5.649687,-10.696711 0.617857,-0.831211 1.845172,-2.521061 2.727389,-3.755241 0.882206,-1.23418 2.37337,-2.84309 3.313686,-3.57535 0.940306,-0.73226 3.327416,-2.84212 5.304698,-4.688581 2.675319,-2.49832 3.840264,-3.88153 4.553694,-5.40676 0.55354,-1.18337 1.74286,-2.78182 2.81417,-3.782211 1.19599,-1.11682 2.45644,-2.87333 3.54637,-4.94204 1.45669,-2.76473 1.91499,-3.32209 3.30748,-4.022661 1.0426,-0.52453 1.7849,-1.213741 2.09079,-1.941341 0.4329,-1.02953 0.6434,-1.1379 2.40879,-1.2403 1.7882,-0.10372 1.956,-0.19332 2.2197,-1.18538 0.35599,-1.33868 0.87469,-1.67545 2.59149,-1.6826 1.40049,-0.006 2.51158,0.74462 2.51158,1.6963 0,0.60553 2.0901,1.6053 3.39389,1.62347 0.4621,0.006 1.1619,0.25498 1.55499,0.55229 0.393,0.29731 1.1386,0.54119 1.6568,0.54195 1.04169,0.001 2.63649,0.8856 4.12138,2.284602 1.0062,0.94793 2.19169,3.31549 2.97809,5.94773 0.6224,2.08293 3.11369,4.531281 4.94788,4.862691 2.07509,0.37493 2.54979,0.68743 6.33067,4.16744 7.65457,7.045371 11.24816,11.169021 15.11624,17.345932 5.11498,8.168091 8.40507,18.463243 9.23666,28.902843 0.4305,5.40405 0.4767,14.17527 0.075,14.17527 z M 161.14522,94.872878 c -0.2025,0 -0.36809,0.17547 -0.36809,0.38992 0,0.21446 0.16559,0.28752 0.36809,0.16237 0.2025,-0.12516 0.3682,-0.30062 0.3682,-0.38992 0,-0.0893 -0.1657,-0.16237 -0.3682,-0.16237 z m -8.77516,-2.20913 c -0.4793,0 -0.7982,0.43769 -0.5781,0.79374 0.2353,0.38079 0.885,0.0524 0.885,-0.44728 0,-0.19055 -0.1381,-0.34646 -0.3069,-0.34646 z m -12.18975,-1.472761 c -0.926,0 -1.29119,0.59433 -0.5418,0.881901 0.9192,0.35272 1.2565,0.26425 1.2565,-0.329611 0,-0.30376 -0.3217,-0.55229 -0.7147,-0.55229 z M 124.83887,58.429614 c -0.47129,-1.17783 -0.79099,-1.4898 -1.56489,-1.52719 -2.07649,-0.10033 -2.78669,-0.24094 -2.89759,-0.57369 -0.1143,-0.34292 -4.19468,-0.24321 -5.25458,0.1284 -0.3037,0.1065 -1.27199,0.24328 -2.15169,0.30395 -0.87969,0.0607 -1.78269,0.29355 -2.00659,0.5175 -0.224,0.22396 -0.7883,0.4072 -1.25409,0.4072 -0.4881,0 -0.8468,0.22261 -0.8468,0.52556 0,1.13519 3.56528,3.15633 5.56778,3.15633 0.66869,0 1.05959,0.192431 1.05959,0.521611 0,0.87127 0.8301,0.86538 2.12749,-0.0151 1.4247,-0.966791 3.20459,-0.957411 4.70368,0.0248 0.9495,0.62217 0.9649,0.61905 0.722,-0.14628 -0.2189,-0.689651 -0.1385,-0.754471 0.6807,-0.548861 1.78059,0.446901 2.09289,-0.33008 1.11499,-2.77424 z M 94.452393,88.613667 c -0.417749,0 -0.857547,1.05516 -0.562708,1.35003 0.11756,0.11753 0.466608,0.11666 0.775667,-0.002 0.581727,-0.22334 0.404048,-1.34819 -0.212959,-1.34819 z m 49.163307,9.524441 c -0.5644,0.25715 -1.0915,0.31097 -1.2146,0.124 -0.1196,-0.18168 -0.6731,-0.44184 -1.22999,-0.57813 -1.2312,-0.30132 -1.3066,-1.15911 -0.1841,-2.0955 1.15749,-0.96562 1.58959,-0.8846 2.12069,0.3977 0.2536,0.61231 0.6961,1.24475 0.98319,1.40543 0.3998,0.22378 0.2886,0.39849 -0.47519,0.7465 z m -4.63068,-0.0359 c -0.6827,-0.22757 -0.796,-1.02019 -0.1458,-1.02019 0.32069,0 0.58299,0.26233 0.58299,0.58296 0,0.32064 -0.1968,0.51738 -0.43719,0.43723 z m -3.40569,-3.2858 c -0.5063,-0.23066 -0.833,-0.56085 -0.7262,-0.73374 0.3251,-0.52607 0.8402,-0.35381 1.254,0.4194 0.3646,0.68133 0.3269,0.70378 -0.5278,0.31434 z m -0.5212,83.033912 c -0.3837,0.34729 -1.27479,0.59657 -2.10839,0.58985 l -1.44369,-0.0116 1.03299,-0.90884 c 1.0198,-0.8972 2.60339,-1.20995 2.98659,-0.58985 0.1085,0.17544 -0.1019,0.58965 -0.4675,0.92047 z m -2.26349,-83.529722 c -0.2025,-0.12516 -0.3682,-0.30062 -0.3682,-0.38992 0,-0.0893 0.1657,-0.16236 0.3682,-0.16236 0.2025,0 0.3682,0.17546 0.3682,0.38992 0,0.21445 -0.1657,0.28751 -0.3682,0.16236 z m -2.47359,-0.60781 c -0.3826,0.20479 -0.9096,0.24012 -1.17109,0.0785 -0.3318,-0.20509 -0.1737,-0.3695 0.52359,-0.54451 1.2229,-0.30694 1.5935,-0.0403 0.6475,0.46598 z m -4.49048,84.535492 c -0.1919,0.11855 -0.4458,0.0586 -0.5643,-0.13321 -0.1186,-0.19182 -0.059,-0.44575 0.1332,-0.5643 0.1918,-0.11855 0.4457,-0.0586 0.5643,0.13321 0.1185,0.19182 0.059,0.44575 -0.1332,0.5643 z m -1.3201,-85.952722 c -0.30379,0 -0.55229,-0.248531 -0.55229,-0.552281 0,-0.30376 0.2485,-0.55229 0.55229,-0.55229 0.3037,0 0.5522,0.24853 0.5522,0.55229 0,0.30375 -0.2485,0.552281 -0.5522,0.552281 z m -3.38978,-1.012521 c -0.1215,0.784201 -0.359,1.012521 -1.053,1.012521 -0.98569,0 -1.13589,-0.349241 -0.44639,-1.038711 0.24729,-0.24729 0.45439,-0.8189 0.46029,-1.27025 0.01,-0.47588 0.2405,-0.82065 0.5578,-0.82065 0.5968,0 0.7232,0.5562 0.4813,2.11709 z M 120.67079,178.82 c -0.1881,0 -0.6129,-0.27102 -0.9442,-0.60225 -0.69849,-0.69858 -0.20959,-1.46755 0.709,-1.11505 0.6121,0.23489 0.8151,1.7173 0.2352,1.7173 z m -5.73328,-2.20914 c -0.37919,0 -0.55969,-0.2413 -0.48209,-0.64433 0.1494,-0.77608 0.80279,-0.72715 0.96939,0.0726 0.069,0.33358 -0.1335,0.57173 -0.4873,0.57173 z m -1.16589,-30.43697 c -0.4342,0.43418 -0.7684,0.26382 -0.9662,-0.49243 -0.276,-1.05553 -1.35069,-0.53332 -1.61429,0.78439 -0.1164,0.58194 -0.3607,1.05807 -0.5429,1.05807 -0.1822,0 -0.4887,0.41421 -0.6812,0.92047 -0.45499,1.1969 -1.10459,1.18267 -1.10459,-0.0242 0,-2.19093 -1.50229,-3.14699 -2.27609,-1.44855 -0.69902,1.53418 -1.40576,1.14238 -1.40576,-0.77933 0,-1.56956 0.062,-1.68358 0.80928,-1.48817 0.44507,0.1164 1.03228,0.0265 1.30498,-0.19978 0.38049,-0.31582 0.62509,-0.22669 1.05249,0.3836 0.3063,0.43726 0.7759,0.79501 1.0436,0.79501 0.58639,0 1.48239,-2.00447 1.14209,-2.5551 -0.3553,-0.57484 -1.87859,-0.47482 -2.40359,0.15781 -0.5451,0.65676 -0.94819,0.47058 -1.21839,-0.5627 -0.1483,-0.56726 0.029,-0.84903 0.69199,-1.10119 1.0827,-0.41165 1.1508,-0.9397 0.1549,-1.20015 -0.78599,-0.20555 -1.05299,-1.86336 -0.36819,-2.28656 0.20249,-0.12515 0.36819,-0.71838 0.36819,-1.31828 0,-0.80615 -0.2402,-1.20016 -0.92049,-1.51013 -1.05715,-0.48167 -1.1365,-0.76815 -0.38528,-1.39159 0.42458,-0.35234 0.76398,-0.30901 1.64197,0.20958 1.0643,0.62874 1.1355,0.62766 1.86019,-0.0282 0.7992,-0.72322 1.5577,-0.48874 0.8166,0.25241 -0.6084,0.60834 -0.5429,1.81244 0.1524,2.80519 0.475,0.67813 0.8003,0.79308 1.69089,0.59747 0.9202,-0.2021 1.082,-0.13597 0.9767,0.39939 -0.069,0.35288 -0.4315,0.82505 -0.8048,1.04926 -0.55499,0.33343 -0.78109,0.25682 -1.24149,-0.42077 -0.3647,-0.53682 -0.9358,-0.82842 -1.62249,-0.82842 -0.9319,0 -1.0597,0.13313 -1.0597,1.10456 0,1.1498 0.086,1.19484 2.39329,1.25829 1.0004,0.0275 1.1045,0.14618 1.1045,1.25814 0,0.82859 0.26939,1.4463 0.82849,1.89996 0.7846,0.63673 1.1153,2.16951 0.5829,2.70194 z m -0.7395,2.94871 c -0.1333,0.13325 -0.4632,0.24227 -0.73329,0.24227 -0.5484,0 -0.672,-0.94914 -0.1644,-1.26288 0.40539,-0.25057 1.23059,0.68765 0.89769,1.02061 z m -0.4661,-20.74452 c -0.39299,0 -0.81699,-0.16568 -0.94219,-0.36819 -0.129,-0.20882 0.1803,-0.36819 0.7147,-0.36819 0.51819,0 0.94219,0.16569 0.94219,0.36819 0,0.20251 -0.3216,0.36819 -0.7147,0.36819 z m -1.03419,25.40323 c -0.6587,-0.004 -2.40109,-1.7477 -2.15109,-2.15222 0.3828,-0.61939 2.42719,0.64156 2.42719,1.49705 0,0.36135 -0.1242,0.65617 -0.2761,0.65517 z m -0.675,-61.146632 c -0.4289,-0.0177 -0.5162,-0.10491 -0.2225,-0.22244 0.2658,-0.10636 0.5834,-0.0933 0.7057,0.029 0.1224,0.12234 -0.095,0.20936 -0.4832,0.19338 z m -0.6137,35.369582 c -0.55679,0.003 -1.01249,-0.16005 -1.01249,-0.36256 0,-0.46554 0.75239,-0.46554 1.47279,0 0.4304,0.27813 0.3287,0.35816 -0.4603,0.36256 z m -3.17818,20.99242 c -0.2025,0 -0.4706,-0.16569 -0.5957,-0.36819 -0.12515,-0.20251 -0.0619,-0.36819 0.1406,-0.36819 0.2026,0 0.4706,0.16568 0.5958,0.36819 0.1251,0.2025 0.062,0.36819 -0.1407,0.36819 z m -7.407169,-12.51844 c -0.929336,-0.49738 -0.932906,-1.15525 -0.0122,-2.26039 l 0.724119,-0.86922 0.0121,1.76185 c 0.0114,1.64925 -0.035,1.73667 -0.724119,1.36776 z M 94.319063,95.179218 c -0.404998,0.0211 -1.057985,-0.20483 -1.451064,-0.50214 -0.623227,-0.47138 -0.635007,-0.54057 -0.092,-0.54057 0.342448,0 0.622637,0.15416 0.622637,0.34258 0,0.18842 0.372789,0.41438 0.828427,0.50214 0.709607,0.13668 0.722827,0.16507 0.092,0.19799 z"
       style="fill:#fbfbfb;fill-opacity:0.84259247999999998;stroke:#ffffff;stroke-width:6.99998616999999967;stroke-linecap:round;stroke-linejoin:round;stroke-miterlimit:4;stroke-opacity:1;stroke-dasharray:none;stroke-dashoffset:0;filter:url(#filter3886)" />
    <path
       sodipodi:type="arc"
       style="fill:#fbfbfb;fill-opacity:0.84259247999999998;stroke:none;filter:url(#filter4869)"
       id="path2985-8"
       sodipodi:cx="113.38963"
       sodipodi:cy="75.182693"
       sodipodi:rx="7.8286819"
       sodipodi:ry="23.233509"
       d="M 115.53507,52.838661 A 7.8286819,23.233509 0 1 1 115.4939,52.8042"
       transform="matrix(1.9674851,0,0,1.0000001,-104.65646,0.35985332)"
       sodipodi:start="4.9899894"
       sodipodi:end="11.26771"
       sodipodi:open="true" />
    <path
       sodipodi:open="true"
       sodipodi:end="11.26771"
       sodipodi:start="4.9899894"
       transform="matrix(6.014815,0,0,1.4047889,-559.16232,2.0621835)"
       d="M 115.53507,52.838661 A 7.8286819,23.233509 0 1 1 115.4939,52.8042"
       sodipodi:ry="23.233509"
       sodipodi:rx="7.8286819"
       sodipodi:cy="75.182693"
       sodipodi:cx="113.38963"
       id="path2987-5"
       style="opacity:0.71721310999999999;fill:#fbfbfb;fill-opacity:0.84259247999999998;stroke:none;filter:url(#filter5003)"
       sodipodi:type="arc" />
    <path
       sodipodi:type="arc"
       style="opacity:0.71721310999999999;fill:#fbfbfb;fill-opacity:0.84259247999999998;stroke:none;filter:url(#filter4999)"
       id="path2989-5"
       sodipodi:cx="113.38963"
       sodipodi:cy="75.182693"
       sodipodi:rx="7.8286819"
       sodipodi:ry="23.233509"
       d="M 115.53507,52.838661 A 7.8286819,23.233509 0 1 1 115.4939,52.8042"
       transform="matrix(6.1680008,0,0,1.4047889,-576.3426,10.395944)"
       sodipodi:start="4.9899894"
       sodipodi:end="11.26771"
       sodipodi:open="true" />
    <path
       sodipodi:open="true"
       sodipodi:end="11.26771"
       sodipodi:start="4.9899894"
       transform="matrix(6.1680008,0,0,1.4047889,-576.09006,22.265241)"
       d="M 115.53507,52.838661 A 7.8286819,23.233509 0 1 1 115.4939,52.8042"
       sodipodi:ry="23.233509"
       sodipodi:rx="7.8286819"
       sodipodi:cy="75.182693"
       sodipodi:cx="113.38963"
       id="path2991-4"
       style="opacity:0.71721310999999999;fill:#fbfbfb;fill-opacity:0.84259247999999998;stroke:none;filter:url(#filter4995)"
       sodipodi:type="arc" />
    <path
       sodipodi:type="arc"
       style="opacity:0.71721310999999999;fill:#fbfbfb;fill-opacity:0.84259247999999998;stroke:none;filter:url(#filter4991)"
       id="path2993-6"
       sodipodi:cx="113.38963"
       sodipodi:cy="75.182693"
       sodipodi:rx="7.8286819"
       sodipodi:ry="23.233509"
       d="M 115.53507,52.838661 A 7.8286819,23.233509 0 1 1 115.4939,52.8042"
       transform="matrix(5.974503,0,0,1.4047889,-553.3918,30.851541)"
       sodipodi:start="4.9899894"
       sodipodi:end="11.26771"
       sodipodi:open="true" />
    <path
       sodipodi:open="true"
       sodipodi:end="11.26771"
       sodipodi:start="4.9899894"
       transform="matrix(5.1924492,0,0,1.385772,-466.79844,42.067132)"
       d="M 115.53507,52.838661 A 7.8286819,23.233509 0 1 1 115.4939,52.8042"
       sodipodi:ry="23.233509"
       sodipodi:rx="7.8286819"
       sodipodi:cy="75.182693"
       sodipodi:cx="113.38963"
       id="path2995-3"
       style="opacity:0.71721310999999999;fill:#fbfbfb;fill-opacity:0.84259247999999998;stroke:none;filter:url(#filter4987)"
       sodipodi:type="arc" />
    <path
       sodipodi:type="arc"
       style="opacity:0.71721310999999999;fill:#fbfbfb;fill-opacity:0.84259247999999998;stroke:none;filter:url(#filter4983)"
       id="path2997-5"
       sodipodi:cx="113.38963"
       sodipodi:cy="75.182693"
       sodipodi:rx="7.8286819"
       sodipodi:ry="23.233509"
       d="M 115.53507,52.838661 A 7.8286819,23.233509 0 1 1 115.4939,52.8042"
       transform="matrix(5.1924492,0,0,1.385772,-460.10621,36.258751)"
       sodipodi:start="4.9899894"
       sodipodi:end="11.26771"
       sodipodi:open="true" />
    <path
       sodipodi:open="true"
       sodipodi:end="11.26771"
       sodipodi:start="4.9899894"
       transform="matrix(5.1924492,0,0,1.385772,-462.63158,39.920551)"
       d="M 115.53507,52.838661 A 7.8286819,23.233509 0 1 1 115.4939,52.8042"
       sodipodi:ry="23.233509"
       sodipodi:rx="7.8286819"
       sodipodi:cy="75.182693"
       sodipodi:cx="113.38963"
       id="path2999-5"
       style="opacity:0.71721310999999999;fill:#fbfbfb;fill-opacity:0.84259247999999998;stroke:none;filter:url(#filter4979)"
       sodipodi:type="arc" />
    <path
       sodipodi:type="arc"
       style="opacity:0.71721310999999999;fill:#fbfbfb;fill-opacity:0.84259247999999998;stroke:none;filter:url(#filter4975)"
       id="path3001-3"
       sodipodi:cx="113.38963"
       sodipodi:cy="75.182693"
       sodipodi:rx="7.8286819"
       sodipodi:ry="23.233509"
       d="M 115.53507,52.838661 A 7.8286819,23.233509 0 1 1 115.4939,52.8042"
       transform="matrix(3.0236609,0,0,0.74734675,-215.38765,105.28114)"
       sodipodi:start="4.9899894"
       sodipodi:end="11.26771"
       sodipodi:open="true" />
    <path
       sodipodi:open="true"
       sodipodi:end="11.26771"
       sodipodi:start="4.9899894"
       transform="matrix(1.5482398,0,0,0.42134235,-49.542277,143.30184)"
       d="M 115.53507,52.838661 A 7.8286819,23.233509 0 1 1 115.4939,52.8042"
       sodipodi:ry="23.233509"
       sodipodi:rx="7.8286819"
       sodipodi:cy="75.182693"
       sodipodi:cx="113.38963"
       id="path3003-6"
       style="opacity:0.71721310999999999;fill:#fbfbfb;fill-opacity:0.84259247999999998;stroke:none;filter:url(#filter4971)"
       sodipodi:type="arc" />
    <path
       sodipodi:type="arc"
       style="opacity:0.71721310999999999;fill:#fbfbfb;fill-opacity:0.84259247999999998;stroke:none;filter:url(#filter4967)"
       id="path3005-7"
       sodipodi:cx="113.38963"
       sodipodi:cy="75.182693"
       sodipodi:rx="7.8286819"
       sodipodi:ry="23.233509"
       d="M 115.53507,52.838661 A 7.8286819,23.233509 0 1 1 115.4939,52.8042"
       transform="matrix(1.5482398,0,0,0.42134235,-51.815108,144.18572)"
       sodipodi:start="4.9899894"
       sodipodi:end="11.26771"
       sodipodi:open="true" />
    <path
       sodipodi:open="true"
       sodipodi:end="11.26771"
       sodipodi:start="4.9899894"
       transform="matrix(1.1612442,0,0,0.35885819,-7.1761985,153.11347)"
       d="M 115.53507,52.838661 A 7.8286819,23.233509 0 1 1 115.4939,52.8042"
       sodipodi:ry="23.233509"
       sodipodi:rx="7.8286819"
       sodipodi:cy="75.182693"
       sodipodi:cx="113.38963"
       id="path3007-4"
       style="opacity:0.71721310999999999;fill:#fbfbfb;fill-opacity:0.84259247999999998;stroke:none;filter:url(#filter4963)"
       sodipodi:type="arc" />
    <path
       sodipodi:open="true"
       sodipodi:end="11.26771"
       sodipodi:start="4.9899894"
       transform="matrix(0.80907499,0,0,0.25987334,31.367162,39.093291)"
       d="M 115.53507,52.838661 A 7.8286819,23.233509 0 1 1 115.4939,52.8042"
       sodipodi:ry="23.233509"
       sodipodi:rx="7.8286819"
       sodipodi:cy="75.182693"
       sodipodi:cx="113.38963"
       id="path3777-1"
       style="opacity:0.71721310999999999;fill:#fbfbfb;fill-opacity:0.84259247999999998;stroke:none;filter:url(#filter4959)"
       sodipodi:type="arc" />
  </g>
  <g
     inkscape:label="Layer 1"
     inkscape:groupmode="layer"
     id="layer1"
     transform="translate(0,-796.36218)"
     style="display:inline">
    <path
       style="fill:#000000"
       d="m 171.56734,926.30909 c -0.088,-0.45799 -0.085,-1.12073 0.01,-1.47275 0.092,-0.35203 0.1642,0.0227 0.1601,0.83271 0,0.81002 -0.079,1.09804 -0.1675,0.64004 z m -0.034,-2.29689 c -0.1618,0 -0.311,-0.62132 -0.3317,-1.38071 -0.05,-1.8473 -0.7869,-6.35349 -1.1889,-7.27173 -0.1773,-0.40501 -0.5192,-1.93705 -0.7599,-3.40455 -0.2406,-1.4675 -0.5645,-2.7467 -0.7198,-2.84269 -0.1553,-0.096 -0.2856,-1.04921 -0.2895,-2.11828 -0.01,-2.13923 -1.0629,-5.83361 -1.7917,-6.27372 -0.2549,-0.15393 -0.5811,-1.23088 -0.7249,-2.39323 -0.2223,-1.79802 -0.4539,-2.28064 -1.5521,-3.23444 -1.1313,-0.98255 -1.2386,-1.21864 -0.8682,-1.91065 0.253,-0.47278 0.2846,-0.8748 0.079,-1.00201 -0.4385,-0.271 -0.8793,0.41773 -0.5787,0.90414 0.1328,0.21481 -0.2417,0.36819 -0.8988,0.36819 -0.8854,0 -1.1262,-0.15943 -1.1262,-0.74549 0,-0.45013 -0.3536,-0.8799 -0.8923,-1.08473 -0.5009,-0.19043 -0.945,-0.69868 -1.0125,-1.15866 -0.1713,-1.16694 -0.9099,-1.26441 -1.1879,-0.15676 -0.1293,0.51507 -0.4805,0.9365 -0.7804,0.9365 -0.657,0 -0.7031,0.43123 -0.1095,1.02479 0.2396,0.23964 0.3303,0.54102 0.2016,0.66976 -0.1287,0.12873 -0.5023,-0.0342 -0.8302,-0.36205 -0.7383,-0.73834 -1.2799,-0.76608 -1.2799,-0.0656 0,1.01734 -0.721,0.9633 -1.8761,-0.14061 -1.4715,-1.40623 -1.9984,-1.12668 -1.0157,0.53888 0.6564,1.11242 0.6799,1.30449 0.1832,1.49508 -0.6981,0.26791 -1.3415,-0.0898 -1.3415,-0.74584 0,-0.26818 -0.3313,-0.57426 -0.7363,-0.68018 -0.4786,-0.12515 -0.7364,-0.0113 -0.7364,0.32525 0,0.2848 -0.2485,0.51782 -0.5523,0.51782 -0.6666,0 -0.7406,-0.97415 -0.092,-1.21196 0.3493,-0.12809 0.3575,-0.27805 0.034,-0.62233 -0.333,-0.35457 -0.557,-0.25362 -1.0262,0.46249 -0.4481,0.68393 -0.893,0.90133 -1.7557,0.85795 -1.5169,-0.0763 -1.6812,-0.7284 -0.4671,-1.85361 l 0.9833,-0.91128 -1.3047,0.21174 c -0.9486,0.15392 -1.4757,0.0408 -1.9307,-0.41427 -0.3443,-0.3443 -0.9325,-0.54584 -1.3071,-0.44787 -0.3747,0.098 -0.7829,0.0135 -0.9072,-0.18759 -0.1243,-0.20113 -0.5676,-0.27636 -0.9852,-0.16716 -0.4175,0.10919 -0.9373,-0.0118 -1.155,-0.26871 -0.8923,-1.05312 -4.2184,-3.54756 -4.7303,-3.54756 -0.3027,0 -0.6369,-0.33137 -0.7429,-0.73638 -0.1059,-0.40501 -0.3849,-0.73638 -0.62,-0.73638 -0.251,0 -0.3367,0.28609 -0.2075,0.69297 0.1768,0.55698 0,0.72557 -0.9119,0.85908 -1.2985,0.19058 -1.7372,-0.23121 -1.073,-1.0315 0.6714,-0.80906 -0.037,-1.37249 -1.1606,-0.9233 -0.49,0.19584 -0.6634,0.36658 -0.3855,0.37941 0.4072,0.0188 0.4164,0.13051 0.047,0.57562 -0.5692,0.68587 -1.0662,0.69356 -2.4287,0.0376 -0.588,-0.28308 -1.442,-0.62562 -1.8976,-0.76121 -0.7055,-0.20991 -0.8148,-0.1198 -0.7364,0.60674 0.127,1.1759 -0.9154,1.1176 -1.2017,-0.0672 -0.1683,-0.69697 -0.4406,-0.90456 -1.1211,-0.85492 -1.7434,0.12716 -3.117,0.6066 -3.9274,1.37083 -1.8055,1.70263 -2.263,1.95486 -3.9705,2.1889 -1.3905,0.1906 -1.9246,0.10937 -2.4586,-0.37396 -0.6414,-0.58045 -0.7493,-0.56788 -1.8012,0.20978 -0.7569,0.55964 -1.2607,0.7127 -1.5574,0.47318 -0.2412,-0.19472 -1.2858,-0.46788 -2.32148,-0.60703 -1.53159,-0.20578 -1.92452,-0.14476 -2.10552,0.32696 -0.31285,0.81528 -0.98204,0.72312 -0.98204,-0.13525 0,-0.5782 -0.29978,-0.73689 -1.5648,-0.82842 -1.051288,-0.0761 -1.564798,-0.28439 -1.564798,-0.63482 0,-0.83459 -0.80751,-0.87069 -1.02324,-0.0457 -0.10806,0.41329 -0.47986,0.75144 -0.82618,0.75144 -0.47312,0 -0.58593,-0.22886 -0.45372,-0.92048 0.22817,-1.19351 -0.35228,-1.1878 -0.89749,0.009 -0.23829,0.52298 -0.83855,1.01707 -1.37283,1.13004 -0.52217,0.11042 -1.32997,0.35497 -1.79514,0.54346 -0.46517,0.18848 -1.17515,0.3427 -1.57777,0.3427 -0.81023,0 -2.49783,0.97684 -3.15435,1.82586 -0.33752,0.43648 -0.59849,0.46291 -1.28866,0.1305 -0.47599,-0.22926 -1.16591,-0.51352 -1.5331,-0.63171 -0.36723,-0.11818 -0.56454,-0.38173 -0.43851,-0.58567 0.12603,-0.20393 0.0568,-0.37079 -0.15376,-0.37079 -0.2106,0 -0.48686,0.41421 -0.61392,0.92047 -0.29437,1.17292 -0.80873,1.1758 -1.25309,0.007 -0.23579,-0.62015 -0.53347,-0.842 -0.9271,-0.69095 -0.4549,0.17457 -0.53005,0.55436 -0.34882,1.76297 0.24841,1.65652 -0.41171,2.69866 -1.45568,2.29805 -0.70876,-0.27197 -1.474,0.96688 -2.61988,4.24143 -1.91786,5.48069 -2.40096,8.22505 -2.50811,14.24792 -0.0906,5.09406 -0.0302,5.77668 0.564,6.37088 0.44208,0.44207 0.66553,1.21446 0.66553,2.30062 0,0.89932 0.16569,1.73752 0.36819,1.86268 0.20251,0.12515 0.37066,1.33615 0.37372,2.6911 0.004,1.35495 0.24429,3.12628 0.53612,3.9363 0.29182,0.81001 0.53785,2.55426 0.54676,3.8761 0.01,1.47467 0.22154,2.6966 0.54768,3.16224 0.29234,0.41739 0.64175,2.0697 0.7764,3.67178 0.15596,1.85567 0.56439,3.60618 1.12529,4.82307 0.48428,1.05061 0.88049,2.29481 0.88049,2.7649 0,0.47009 0.34267,1.06871 0.76149,1.33027 0.5923,0.3699 0.71031,0.70861 0.53111,1.52443 -0.18222,0.82961 -0.004,1.3067 0.85056,2.28237 0.62378,0.71186 1.08037,1.65251 1.07967,2.22428 0,1.01839 0.65144,2.03136 3.23484,5.02049 0.81793,0.94639 1.8768,2.31098 2.35309,3.03243 0.77419,1.17274 1.76805,1.98982 3.76238,3.09312 0.35272,0.19512 0.72773,0.69922 0.8334,1.12023 0.14241,0.56736 0.85257,0.97818 2.74411,1.58739 1.40361,0.45206 2.754858,1.06633 3.002758,1.36505 0.24791,0.29872 0.90645,0.54312 1.46344,0.54312 0.55696,0 1.79949,0.34805 2.76116,0.77344 1.10383,0.48828 2.134,0.69634 2.794,0.56434 0.6369,-0.12739 1.2376,-0.017 1.5371,0.28255 0.2704,0.27041 0.8981,0.61663 1.395,0.76939 1.2309,0.37847 1.8238,0.90054 1.8238,1.60614 0,1.96964 6.4039,9.41927 9.1008,10.58693 2.2826,0.98825 5.1631,0.51031 7.3252,-1.2154 1.9413,-1.54949 6.4843,-6.08966 7.3222,-7.31758 0.7022,-1.02928 0.9319,-1.90981 0.9777,-3.74863 0.025,-1.02374 0.6791,-1.11233 0.6791,-0.092 0,1.16781 1.92,0.96772 3.4292,-0.35738 0.6852,-0.60156 1.975,-1.41096 2.8663,-1.79866 0.8913,-0.3877 2.1072,-1.22099 2.7019,-1.85176 0.5948,-0.63077 1.3538,-1.14685 1.6866,-1.14685 1.745,0 8.7055,-5.04914 10.271,-7.4506 2.6549,-4.07266 3.6733,-5.53418 4.8521,-6.96276 3.4701,-4.20564 6.3029,-11.92363 7.1426,-19.46004 l 0.5128,-4.60236 -0.1423,4.41827 c -0.2505,7.77934 -2.7457,14.69631 -7.7035,21.35497 -1.0555,1.41753 -2.6892,3.66759 -3.6304,5.00014 -0.9413,1.33255 -2.1273,2.83875 -2.6357,3.3471 -0.7662,0.76616 -7.2672,5.21662 -9.9618,6.81958 -4.6086,2.74157 -7.1534,4.1631 -7.4529,4.1631 -0.3755,0 -2.3842,2.12833 -5.2496,5.56228 -3.7685,4.51603 -4.833,5.46862 -6.7457,6.03664 -2.6522,0.78761 -5.2812,0.67914 -7.1407,-0.29462 -2.1447,-1.12313 -5.6866,-4.6647 -7.712,-7.71131 -0.9318,-1.40172 -1.9625,-2.63827 -2.2903,-2.7479 -0.3278,-0.10963 -2.0044,-0.7405 -3.7257,-1.40194 -1.72124,-0.66145 -3.95401,-1.48023 -4.96167,-1.81951 -1.00762,-0.33929 -2.768998,-1.18605 -3.914138,-1.88169 -1.14514,-0.69563 -2.29592,-1.26478 -2.55729,-1.26478 -0.43487,0 -1.99688,-1.41648 -6.47586,-5.87252 -1.90958,-1.89978 -5.42092,-6.79 -5.83359,-8.12437 -0.15556,-0.50312 -0.89355,-1.99172 -1.63995,-3.308 -0.74639,-1.31627 -1.62029,-3.05597 -1.94197,-3.86598 -0.80759,-2.03342 -2.86698,-9.54513 -2.86698,-10.45734 0,-0.41068 -0.22739,-1.45665 -0.50534,-2.32437 -0.67368,-2.10341 -1.57423,-7.6421 -2.05243,-12.62334 -0.70818,-7.37637 -0.42898,-12.89796 1.03321,-20.43449 0.36834,-1.89858 1.96705,-6.82221 3.7721,-11.61725 1.3226,-3.51339 3.80806,-8.21916 5.64971,-10.69671 0.61786,-0.83121 1.84518,-2.52106 2.7274,-3.75524 0.88221,-1.23418 2.37338,-2.84309 3.3137,-3.57535 0.94031,-0.73226 3.32743,-2.84212 5.30472,-4.68858 2.67533,-2.49832 3.84028,-3.88153 4.553718,-5.40676 0.55354,-1.18337 1.74286,-2.78182 2.81418,-3.78221 1.19599,-1.11682 2.45645,-2.87333 3.54638,-4.94204 1.4567,-2.76473 1.915,-3.32209 3.3075,-4.02266 1.0426,-0.52453 1.7849,-1.21374 2.0908,-1.94134 0.4329,-1.02953 0.6434,-1.1379 2.4088,-1.2403 1.7882,-0.10372 1.956,-0.19332 2.2197,-1.18538 0.356,-1.33868 0.8747,-1.67545 2.5915,-1.6826 1.4005,-0.006 2.5116,0.74462 2.5116,1.6963 0,0.60553 2.0901,1.6053 3.3939,1.62347 0.4621,0.006 1.1619,0.25498 1.555,0.55229 0.393,0.29731 1.1386,0.54119 1.6568,0.54195 1.0417,0.001 2.6365,0.8856 4.1214,2.2846 1.0062,0.94793 2.1917,3.31549 2.9781,5.94773 0.6224,2.08293 3.1137,4.53128 4.9479,4.86269 2.0751,0.37493 2.5498,0.68743 6.3307,4.16744 7.6546,7.04537 11.2482,11.16902 15.1163,17.34593 5.115,8.16809 8.4051,18.46324 9.2367,28.90284 0.4305,5.40405 0.4767,14.17527 0.075,14.17527 z m -10.3835,-33.13701 c -0.2025,0 -0.3681,0.17547 -0.3681,0.38992 0,0.21446 0.1656,0.28752 0.3681,0.16237 0.2025,-0.12516 0.3682,-0.30062 0.3682,-0.38992 0,-0.0893 -0.1657,-0.16237 -0.3682,-0.16237 z m -8.7752,-2.20913 c -0.4793,0 -0.7982,0.43769 -0.5781,0.79374 0.2353,0.38079 0.885,0.0524 0.885,-0.44728 0,-0.19055 -0.1381,-0.34646 -0.3069,-0.34646 z m -12.1898,-1.47276 c -0.926,0 -1.2912,0.59433 -0.5418,0.8819 0.9192,0.35272 1.2565,0.26425 1.2565,-0.32961 0,-0.30376 -0.3217,-0.55229 -0.7147,-0.55229 z m -15.3415,-32.76137 c -0.4713,-1.17783 -0.791,-1.4898 -1.5649,-1.52719 -2.0765,-0.10033 -2.7867,-0.24094 -2.8976,-0.57369 -0.1143,-0.34292 -4.1947,-0.24321 -5.2546,0.1284 -0.3037,0.1065 -1.272,0.24328 -2.1517,0.30395 -0.8797,0.0607 -1.7827,0.29355 -2.0066,0.5175 -0.224,0.22396 -0.7883,0.4072 -1.2541,0.4072 -0.4881,0 -0.8468,0.22261 -0.8468,0.52556 0,1.13519 3.5653,3.15633 5.5678,3.15633 0.6687,0 1.0596,0.19243 1.0596,0.52161 0,0.87127 0.8301,0.86538 2.1275,-0.0151 1.4247,-0.96679 3.2046,-0.95741 4.7037,0.0248 0.9495,0.62217 0.9649,0.61905 0.722,-0.14628 -0.2189,-0.68965 -0.1385,-0.75447 0.6807,-0.54886 1.7806,0.4469 2.0929,-0.33008 1.115,-2.77424 z m -30.386608,30.18405 c -0.41775,0 -0.85755,1.05516 -0.56271,1.35003 0.11756,0.11753 0.46661,0.11666 0.77567,-0.002 0.58173,-0.22334 0.40405,-1.34819 -0.21296,-1.34819 z m 49.163508,9.52444 c -0.5644,0.25715 -1.0915,0.31097 -1.2146,0.124 -0.1196,-0.18168 -0.6731,-0.44184 -1.23,-0.57813 -1.2312,-0.30132 -1.3066,-1.15911 -0.1841,-2.0955 1.1575,-0.96562 1.5896,-0.8846 2.1207,0.3977 0.2536,0.61231 0.6961,1.24475 0.9832,1.40543 0.3998,0.22378 0.2886,0.39849 -0.4752,0.7465 z m -4.6307,-0.0359 c -0.6827,-0.22757 -0.796,-1.02019 -0.1458,-1.02019 0.3207,0 0.583,0.26233 0.583,0.58296 0,0.32064 -0.1968,0.51738 -0.4372,0.43723 z m -3.4057,-3.2858 c -0.5063,-0.23066 -0.833,-0.56085 -0.7262,-0.73374 0.3251,-0.52607 0.8402,-0.35381 1.254,0.4194 0.3646,0.68133 0.3269,0.70378 -0.5278,0.31434 z m -0.5212,83.0339 c -0.3837,0.34729 -1.2748,0.59657 -2.1084,0.58985 l -1.4437,-0.0116 1.033,-0.90884 c 1.0198,-0.8972 2.6034,-1.20995 2.9866,-0.58985 0.1085,0.17544 -0.1019,0.58965 -0.4675,0.92047 z m -2.2635,-83.52971 c -0.2025,-0.12516 -0.3682,-0.30062 -0.3682,-0.38992 0,-0.0893 0.1657,-0.16236 0.3682,-0.16236 0.2025,0 0.3682,0.17546 0.3682,0.38992 0,0.21445 -0.1657,0.28751 -0.3682,0.16236 z m -2.4736,-0.60781 c -0.3826,0.20479 -0.9096,0.24012 -1.1711,0.0785 -0.3318,-0.20509 -0.1737,-0.3695 0.5236,-0.54451 1.2229,-0.30694 1.5935,-0.0403 0.6475,0.46598 z m -4.4905,84.53548 c -0.1919,0.11855 -0.4458,0.0586 -0.5643,-0.13321 -0.1186,-0.19182 -0.059,-0.44575 0.1332,-0.5643 0.1918,-0.11855 0.4457,-0.0586 0.5643,0.13321 0.1185,0.19182 0.059,0.44575 -0.1332,0.5643 z m -1.3201,-85.95271 c -0.3038,0 -0.5523,-0.24853 -0.5523,-0.55228 0,-0.30376 0.2485,-0.55229 0.5523,-0.55229 0.3037,0 0.5522,0.24853 0.5522,0.55229 0,0.30375 -0.2485,0.55228 -0.5522,0.55228 z m -3.3898,-1.01252 c -0.1215,0.7842 -0.359,1.01252 -1.053,1.01252 -0.9857,0 -1.1359,-0.34924 -0.4464,-1.03871 0.2473,-0.24729 0.4544,-0.8189 0.4603,-1.27025 0.01,-0.47588 0.2405,-0.82065 0.5578,-0.82065 0.5968,0 0.7232,0.5562 0.4813,2.11709 z m -0.4499,87.53695 c -0.1881,0 -0.6129,-0.27102 -0.9442,-0.60225 -0.6985,-0.69858 -0.2096,-1.46755 0.709,-1.11505 0.6121,0.23489 0.8151,1.7173 0.2352,1.7173 z m -5.7333,-2.20914 c -0.3792,0 -0.5597,-0.2413 -0.4821,-0.64433 0.1494,-0.77608 0.8028,-0.72715 0.9694,0.0726 0.069,0.33358 -0.1335,0.57173 -0.4873,0.57173 z m -1.1659,-30.43696 c -0.4342,0.43418 -0.7684,0.26382 -0.9662,-0.49243 -0.276,-1.05553 -1.3507,-0.53332 -1.6143,0.78439 -0.1164,0.58194 -0.3607,1.05807 -0.5429,1.05807 -0.1822,0 -0.4887,0.41421 -0.6812,0.92047 -0.455,1.1969 -1.1046,1.18267 -1.1046,-0.0242 0,-2.19093 -1.5023,-3.14699 -2.2761,-1.44855 -0.69902,1.53418 -1.40576,1.14238 -1.40576,-0.77933 0,-1.56956 0.062,-1.68358 0.80928,-1.48817 0.44507,0.1164 1.03228,0.0265 1.30498,-0.19978 0.3805,-0.31582 0.6251,-0.22669 1.0525,0.3836 0.3063,0.43726 0.7759,0.79501 1.0436,0.79501 0.5864,0 1.4824,-2.00447 1.1421,-2.5551 -0.3553,-0.57484 -1.8786,-0.47482 -2.4036,0.15781 -0.5451,0.65676 -0.9482,0.47058 -1.2184,-0.5627 -0.1483,-0.56726 0.029,-0.84903 0.692,-1.10119 1.0827,-0.41165 1.1508,-0.9397 0.1549,-1.20015 -0.786,-0.20555 -1.053,-1.86336 -0.3682,-2.28656 0.2025,-0.12515 0.3682,-0.71838 0.3682,-1.31828 0,-0.80615 -0.2402,-1.20016 -0.9205,-1.51013 -1.05715,-0.48167 -1.1365,-0.76815 -0.38528,-1.39159 0.42458,-0.35234 0.76398,-0.30901 1.64198,0.20958 1.0643,0.62874 1.1355,0.62766 1.8602,-0.0282 0.7992,-0.72322 1.5577,-0.48874 0.8166,0.25241 -0.6084,0.60834 -0.5429,1.81244 0.1524,2.80519 0.475,0.67813 0.8003,0.79308 1.6909,0.59747 0.9202,-0.2021 1.082,-0.13597 0.9767,0.39939 -0.069,0.35288 -0.4315,0.82505 -0.8048,1.04926 -0.555,0.33343 -0.7811,0.25682 -1.2415,-0.42077 -0.3647,-0.53682 -0.9358,-0.82842 -1.6225,-0.82842 -0.9319,0 -1.0597,0.13313 -1.0597,1.10456 0,1.1498 0.086,1.19484 2.3933,1.25829 1.0004,0.0275 1.1045,0.14618 1.1045,1.25814 0,0.82859 0.2694,1.4463 0.8285,1.89996 0.7846,0.63673 1.1153,2.16951 0.5829,2.70194 z m -0.7395,2.94871 c -0.1333,0.13325 -0.4632,0.24227 -0.7333,0.24227 -0.5484,0 -0.672,-0.94914 -0.1644,-1.26288 0.4054,-0.25057 1.2306,0.68765 0.8977,1.02061 z m -0.4661,-20.74452 c -0.393,0 -0.817,-0.16568 -0.9422,-0.36819 -0.129,-0.20882 0.1803,-0.36819 0.7147,-0.36819 0.5182,0 0.9422,0.16569 0.9422,0.36819 0,0.20251 -0.3216,0.36819 -0.7147,0.36819 z m -1.0342,25.40323 c -0.6587,-0.004 -2.4011,-1.7477 -2.1511,-2.15222 0.3828,-0.61939 2.4272,0.64156 2.4272,1.49705 0,0.36135 -0.1242,0.65617 -0.2761,0.65517 z m -0.675,-61.14663 c -0.4289,-0.0177 -0.5162,-0.10491 -0.2225,-0.22244 0.2658,-0.10636 0.5834,-0.0933 0.7057,0.029 0.1224,0.12234 -0.095,0.20936 -0.4832,0.19338 z m -0.6137,35.36958 c -0.5568,0.003 -1.0125,-0.16005 -1.0125,-0.36256 0,-0.46554 0.7524,-0.46554 1.4728,0 0.4304,0.27813 0.3287,0.35816 -0.4603,0.36256 z m -3.1782,20.99242 c -0.2025,0 -0.4706,-0.16569 -0.5957,-0.36819 -0.12515,-0.20251 -0.0619,-0.36819 0.1406,-0.36819 0.2026,0 0.4706,0.16568 0.5958,0.36819 0.1251,0.2025 0.062,0.36819 -0.1407,0.36819 z m -7.407198,-12.51844 c -0.92934,-0.49738 -0.93291,-1.15525 -0.0122,-2.26039 l 0.724118,-0.86922 0.0121,1.76185 c 0.0114,1.64925 -0.035,1.73667 -0.724118,1.36776 z m -5.33874,-41.29902 c -0.405,0.0211 -1.05799,-0.20483 -1.45107,-0.50214 -0.62323,-0.47138 -0.63501,-0.54057 -0.092,-0.54057 0.34245,0 0.62264,0.15416 0.62264,0.34258 0,0.18842 0.37279,0.41438 0.82843,0.50214 0.70961,0.13668 0.72283,0.16507 0.092,0.19799 z"
       id="path3180"
       inkscape:connector-curvature="0" />
    <path
       style="fill:#eff9f0;fill-opacity:1;stroke:none"
       d="m 119.70308,846.03852 4.54568,2.03882 5.80838,2.03882 2.0203,3.82278 1.51523,4.07764 3.78808,3.56794 3.78807,1.27427 6.06091,5.60675 6.06092,6.11646 5.80837,8.15528 5.30331,5.09704 4.29314,8.66499 1.26269,5.09705 0,4.07764 1.51523,4.07764 -0.50507,5.60675 -0.50508,2.80338 1.01015,3.56794 0,4.58734 -1.01015,3.82278 0.25254,4.84221 -1.76777,6.62616 -2.77792,7.90042 -5.05076,7.64559 -5.80838,6.3713 -9.34391,5.35191 -8.33376,5.09704 -2.27284,4.07764 -1.96758,1.80594 -1.42857,1.80209 -1.60715,1.98228 -3.57143,1.44167 -4.46428,0 -2.67857,-1.26146 -3.92857,-3.42395 -4.46429,-5.94686 -7.07802,-2.38874 -6.944798,-3.18565 -4.798225,-3.44051 -5.177031,-4.96963 -3.788072,-6.49873 -1.767767,-5.98904 -1.010153,-2.4211 -2.777919,-5.98902 -0.757615,-5.60676 -2.146574,-6.37132 -0.252538,-3.4405 0.126269,-8.28271 -0.126269,-5.09705 0.883883,-6.49874 0.126269,-3.82279 1.136422,-4.84219 2.525381,-4.96963 3.030458,-4.45991 2.904189,-2.67595 1.641497,-3.05823 4.798225,-6.2439 5.303301,-4.84219 4.924497,-4.84219 3.03045,-5.09706 2.14658,-4.45992 2.52538,-3.31308 3.283,-2.29366 3.53553,-2.16626 z"
       id="path3837"
       inkscape:connector-curvature="0" />
    <path
       inkscape:connector-curvature="0"
       id="path2983"
       d="m 171.56734,926.30909 c -0.088,-0.45799 -0.085,-1.12073 0.01,-1.47275 0.092,-0.35203 0.1642,0.0227 0.1601,0.83271 0,0.81002 -0.079,1.09804 -0.1675,0.64004 z m -0.034,-2.29689 c -0.1618,0 -0.311,-0.62132 -0.3317,-1.38071 -0.05,-1.8473 -0.7869,-6.35349 -1.1889,-7.27173 -0.1773,-0.40501 -0.5192,-1.93705 -0.7599,-3.40455 -0.2406,-1.4675 -0.5645,-2.7467 -0.7198,-2.84269 -0.1553,-0.096 -0.2856,-1.04921 -0.2895,-2.11828 -0.01,-2.13923 -1.0629,-5.83361 -1.7917,-6.27372 -0.2549,-0.15393 -0.5811,-1.23088 -0.7249,-2.39323 -0.2223,-1.79802 -0.4539,-2.28064 -1.5521,-3.23444 -1.1313,-0.98255 -1.2386,-1.21864 -0.8682,-1.91065 0.253,-0.47278 0.2846,-0.8748 0.079,-1.00201 -0.4385,-0.271 -0.8793,0.41773 -0.5787,0.90414 0.1328,0.21481 -0.2417,0.36819 -0.8988,0.36819 -0.8854,0 -1.1262,-0.15943 -1.1262,-0.74549 0,-0.45013 -0.3536,-0.8799 -0.8923,-1.08473 -0.5009,-0.19043 -0.945,-0.69868 -1.0125,-1.15866 -0.1713,-1.16694 -0.9099,-1.26441 -1.1879,-0.15676 -0.1293,0.51507 -0.4805,0.9365 -0.7804,0.9365 -0.657,0 -0.7031,0.43123 -0.1095,1.02479 0.2396,0.23964 0.3303,0.54102 0.2016,0.66976 -0.1287,0.12873 -0.5023,-0.0342 -0.8302,-0.36205 -0.7383,-0.73834 -1.2799,-0.76608 -1.2799,-0.0656 0,1.01734 -0.721,0.9633 -1.8761,-0.14061 -1.4715,-1.40623 -1.9984,-1.12668 -1.0157,0.53888 0.6564,1.11242 0.6799,1.30449 0.1832,1.49508 -0.6981,0.26791 -1.3415,-0.0898 -1.3415,-0.74584 0,-0.26818 -0.3313,-0.57426 -0.7363,-0.68018 -0.4786,-0.12515 -0.7364,-0.0113 -0.7364,0.32525 0,0.2848 -0.2485,0.51782 -0.5523,0.51782 -0.6666,0 -0.7406,-0.97415 -0.092,-1.21196 0.3493,-0.12809 0.3575,-0.27805 0.034,-0.62233 -0.333,-0.35457 -0.557,-0.25362 -1.0262,0.46249 -0.4481,0.68393 -0.893,0.90133 -1.7557,0.85795 -1.5169,-0.0763 -1.6812,-0.7284 -0.4671,-1.85361 l 0.9833,-0.91128 -1.3047,0.21174 c -0.9486,0.15392 -1.4757,0.0408 -1.9307,-0.41427 -0.3443,-0.3443 -0.9325,-0.54584 -1.3071,-0.44787 -0.3747,0.098 -0.7829,0.0135 -0.9072,-0.18759 -0.1243,-0.20113 -0.5676,-0.27636 -0.9852,-0.16716 -0.4175,0.10919 -0.9373,-0.0118 -1.155,-0.26871 -0.8923,-1.05312 -4.2184,-3.54756 -4.7303,-3.54756 -0.3027,0 -0.6369,-0.33137 -0.7429,-0.73638 -0.1059,-0.40501 -0.3849,-0.73638 -0.62,-0.73638 -0.251,0 -0.3367,0.28609 -0.2075,0.69297 0.1768,0.55698 0,0.72557 -0.9119,0.85908 -1.2985,0.19058 -1.7372,-0.23121 -1.073,-1.0315 0.6714,-0.80906 -0.037,-1.37249 -1.1606,-0.9233 -0.49,0.19584 -0.6634,0.36658 -0.3855,0.37941 0.4072,0.0188 0.4164,0.13051 0.047,0.57562 -0.5692,0.68587 -1.0662,0.69356 -2.4287,0.0376 -0.588,-0.28308 -1.442,-0.62562 -1.8976,-0.76121 -0.7055,-0.20991 -0.8148,-0.1198 -0.7364,0.60674 0.127,1.1759 -0.9154,1.1176 -1.2017,-0.0672 -0.1683,-0.69697 -0.4406,-0.90456 -1.1211,-0.85492 -1.7434,0.12716 -3.117,0.6066 -3.9274,1.37083 -1.8055,1.70263 -2.263,1.95486 -3.9705,2.1889 -1.3905,0.1906 -1.9246,0.10937 -2.4586,-0.37396 -0.6414,-0.58045 -0.7493,-0.56788 -1.8012,0.20978 -0.7569,0.55964 -1.2607,0.7127 -1.5574,0.47318 -0.2412,-0.19472 -1.2858,-0.46788 -2.32148,-0.60703 -1.53159,-0.20578 -1.92452,-0.14476 -2.10552,0.32696 -0.31285,0.81528 -0.98204,0.72312 -0.98204,-0.13525 0,-0.5782 -0.29978,-0.73689 -1.5648,-0.82842 -1.051288,-0.0761 -1.564798,-0.28439 -1.564798,-0.63482 0,-0.83459 -0.80751,-0.87069 -1.02324,-0.0457 -0.10806,0.41329 -0.47986,0.75144 -0.82618,0.75144 -0.47312,0 -0.58593,-0.22886 -0.45372,-0.92048 0.22817,-1.19351 -0.35228,-1.1878 -0.89749,0.009 -0.23829,0.52298 -0.83855,1.01707 -1.37283,1.13004 -0.52217,0.11042 -1.32997,0.35497 -1.79514,0.54346 -0.46517,0.18848 -1.17515,0.3427 -1.57777,0.3427 -0.81023,0 -2.49783,0.97684 -3.15435,1.82586 -0.33752,0.43648 -0.59849,0.46291 -1.28866,0.1305 -0.47599,-0.22926 -1.16591,-0.51352 -1.5331,-0.63171 -0.36723,-0.11818 -0.56454,-0.38173 -0.43851,-0.58567 0.12603,-0.20393 0.0568,-0.37079 -0.15376,-0.37079 -0.2106,0 -0.48686,0.41421 -0.61392,0.92047 -0.29437,1.17292 -0.80873,1.1758 -1.25309,0.007 -0.23579,-0.62015 -0.53347,-0.842 -0.9271,-0.69095 -0.4549,0.17457 -0.53005,0.55436 -0.34882,1.76297 0.24841,1.65652 -0.41171,2.69866 -1.45568,2.29805 -0.70876,-0.27197 -1.474,0.96688 -2.61988,4.24143 -1.91786,5.48069 -2.40096,8.22505 -2.50811,14.24792 -0.0906,5.09406 -0.0302,5.77668 0.564,6.37088 0.44208,0.44207 0.66553,1.21446 0.66553,2.30062 0,0.89932 0.16569,1.73752 0.36819,1.86268 0.20251,0.12515 0.37066,1.33615 0.37372,2.6911 0.004,1.35495 0.24429,3.12628 0.53612,3.9363 0.29182,0.81001 0.53785,2.55426 0.54676,3.8761 0.01,1.47467 0.22154,2.6966 0.54768,3.16224 0.29234,0.41739 0.64175,2.0697 0.7764,3.67178 0.15596,1.85567 0.56439,3.60618 1.12529,4.82307 0.48428,1.05061 0.88049,2.29481 0.88049,2.7649 0,0.47009 0.34267,1.06871 0.76149,1.33027 0.5923,0.3699 0.71031,0.70861 0.53111,1.52443 -0.18222,0.82961 -0.004,1.3067 0.85056,2.28237 0.62378,0.71186 1.08037,1.65251 1.07967,2.22428 0,1.01839 0.65144,2.03136 3.23484,5.02049 0.81793,0.94639 1.8768,2.31098 2.35309,3.03243 0.77419,1.17274 1.76805,1.98982 3.76238,3.09312 0.35272,0.19512 0.72773,0.69922 0.8334,1.12023 0.14241,0.56736 0.85257,0.97818 2.74411,1.58739 1.40361,0.45206 2.754858,1.06633 3.002758,1.36505 0.24791,0.29872 0.90645,0.54312 1.46344,0.54312 0.55696,0 1.79949,0.34805 2.76116,0.77344 1.10383,0.48828 2.134,0.69634 2.794,0.56434 0.6369,-0.12739 1.2376,-0.017 1.5371,0.28255 0.2704,0.27041 0.8981,0.61663 1.395,0.76939 1.2309,0.37847 1.8238,0.90054 1.8238,1.60614 0,1.96964 6.4039,9.41927 9.1008,10.58693 2.2826,0.98825 5.1631,0.51031 7.3252,-1.2154 1.9413,-1.54949 6.4843,-6.08966 7.3222,-7.31758 0.7022,-1.02928 0.9319,-1.90981 0.9777,-3.74863 0.025,-1.02374 0.6791,-1.11233 0.6791,-0.092 0,1.16781 1.92,0.96772 3.4292,-0.35738 0.6852,-0.60156 1.975,-1.41096 2.8663,-1.79866 0.8913,-0.3877 2.1072,-1.22099 2.7019,-1.85176 0.5948,-0.63077 1.3538,-1.14685 1.6866,-1.14685 1.745,0 8.7055,-5.04914 10.271,-7.4506 2.6549,-4.07266 3.6733,-5.53418 4.8521,-6.96276 3.4701,-4.20564 6.3029,-11.92363 7.1426,-19.46004 l 0.5128,-4.60236 -0.1423,4.41827 c -0.2505,7.77934 -2.7457,14.69631 -7.7035,21.35497 -1.0555,1.41753 -2.6892,3.66759 -3.6304,5.00014 -0.9413,1.33255 -2.1273,2.83875 -2.6357,3.3471 -0.7662,0.76616 -7.2672,5.21662 -9.9618,6.81958 -4.6086,2.74157 -7.1534,4.1631 -7.4529,4.1631 -0.3755,0 -2.3842,2.12833 -5.2496,5.56228 -3.7685,4.51603 -4.833,5.46862 -6.7457,6.03664 -2.6522,0.78761 -5.2812,0.67914 -7.1407,-0.29462 -2.1447,-1.12313 -5.6866,-4.6647 -7.712,-7.71131 -0.9318,-1.40172 -1.9625,-2.63827 -2.2903,-2.7479 -0.3278,-0.10963 -2.0044,-0.7405 -3.7257,-1.40194 -1.72124,-0.66145 -3.95401,-1.48023 -4.96167,-1.81951 -1.00762,-0.33929 -2.768998,-1.18605 -3.914138,-1.88169 -1.14514,-0.69563 -2.29592,-1.26478 -2.55729,-1.26478 -0.43487,0 -1.99688,-1.41648 -6.47586,-5.87252 -1.90958,-1.89978 -5.42092,-6.79 -5.83359,-8.12437 -0.15556,-0.50312 -0.89355,-1.99172 -1.63995,-3.308 -0.74639,-1.31627 -1.62029,-3.05597 -1.94197,-3.86598 -0.80759,-2.03342 -2.86698,-9.54513 -2.86698,-10.45734 0,-0.41068 -0.22739,-1.45665 -0.50534,-2.32437 -0.67368,-2.10341 -1.57423,-7.6421 -2.05243,-12.62334 -0.70818,-7.37637 -0.42898,-12.89796 1.03321,-20.43449 0.36834,-1.89858 1.96705,-6.82221 3.7721,-11.61725 1.3226,-3.51339 3.80806,-8.21916 5.64971,-10.69671 0.61786,-0.83121 1.84518,-2.52106 2.7274,-3.75524 0.88221,-1.23418 2.37338,-2.84309 3.3137,-3.57535 0.94031,-0.73226 3.32743,-2.84212 5.30472,-4.68858 2.67533,-2.49832 3.84028,-3.88153 4.553718,-5.40676 0.55354,-1.18337 1.74286,-2.78182 2.81418,-3.78221 1.19599,-1.11682 2.45645,-2.87333 3.54638,-4.94204 1.4567,-2.76473 1.915,-3.32209 3.3075,-4.02266 1.0426,-0.52453 1.7849,-1.21374 2.0908,-1.94134 0.4329,-1.02953 0.6434,-1.1379 2.4088,-1.2403 1.7882,-0.10372 1.956,-0.19332 2.2197,-1.18538 0.356,-1.33868 0.8747,-1.67545 2.5915,-1.6826 1.4005,-0.006 2.5116,0.74462 2.5116,1.6963 0,0.60553 2.0901,1.6053 3.3939,1.62347 0.4621,0.006 1.1619,0.25498 1.555,0.55229 0.393,0.29731 1.1386,0.54119 1.6568,0.54195 1.0417,0.001 2.6365,0.8856 4.1214,2.2846 1.0062,0.94793 2.1917,3.31549 2.9781,5.94773 0.6224,2.08293 3.1137,4.53128 4.9479,4.86269 2.0751,0.37493 2.5498,0.68743 6.3307,4.16744 7.6546,7.04537 11.2482,11.16902 15.1163,17.34593 5.115,8.16809 8.4051,18.46324 9.2367,28.90284 0.4305,5.40405 0.4767,14.17527 0.075,14.17527 z m -10.3835,-33.13701 c -0.2025,0 -0.3681,0.17547 -0.3681,0.38992 0,0.21446 0.1656,0.28752 0.3681,0.16237 0.2025,-0.12516 0.3682,-0.30062 0.3682,-0.38992 0,-0.0893 -0.1657,-0.16237 -0.3682,-0.16237 z m -8.7752,-2.20913 c -0.4793,0 -0.7982,0.43769 -0.5781,0.79374 0.2353,0.38079 0.885,0.0524 0.885,-0.44728 0,-0.19055 -0.1381,-0.34646 -0.3069,-0.34646 z m -12.1898,-1.47276 c -0.926,0 -1.2912,0.59433 -0.5418,0.8819 0.9192,0.35272 1.2565,0.26425 1.2565,-0.32961 0,-0.30376 -0.3217,-0.55229 -0.7147,-0.55229 z m -15.3415,-32.76137 c -0.4713,-1.17783 -0.791,-1.4898 -1.5649,-1.52719 -2.0765,-0.10033 -2.7867,-0.24094 -2.8976,-0.57369 -0.1143,-0.34292 -4.1947,-0.24321 -5.2546,0.1284 -0.3037,0.1065 -1.272,0.24328 -2.1517,0.30395 -0.8797,0.0607 -1.7827,0.29355 -2.0066,0.5175 -0.224,0.22396 -0.7883,0.4072 -1.2541,0.4072 -0.4881,0 -0.8468,0.22261 -0.8468,0.52556 0,1.13519 3.5653,3.15633 5.5678,3.15633 0.6687,0 1.0596,0.19243 1.0596,0.52161 0,0.87127 0.8301,0.86538 2.1275,-0.0151 1.4247,-0.96679 3.2046,-0.95741 4.7037,0.0248 0.9495,0.62217 0.9649,0.61905 0.722,-0.14628 -0.2189,-0.68965 -0.1385,-0.75447 0.6807,-0.54886 1.7806,0.4469 2.0929,-0.33008 1.115,-2.77424 z m -30.386608,30.18405 c -0.41775,0 -0.85755,1.05516 -0.56271,1.35003 0.11756,0.11753 0.46661,0.11666 0.77567,-0.002 0.58173,-0.22334 0.40405,-1.34819 -0.21296,-1.34819 z m 49.163508,9.52444 c -0.5644,0.25715 -1.0915,0.31097 -1.2146,0.124 -0.1196,-0.18168 -0.6731,-0.44184 -1.23,-0.57813 -1.2312,-0.30132 -1.3066,-1.15911 -0.1841,-2.0955 1.1575,-0.96562 1.5896,-0.8846 2.1207,0.3977 0.2536,0.61231 0.6961,1.24475 0.9832,1.40543 0.3998,0.22378 0.2886,0.39849 -0.4752,0.7465 z m -4.6307,-0.0359 c -0.6827,-0.22757 -0.796,-1.02019 -0.1458,-1.02019 0.3207,0 0.583,0.26233 0.583,0.58296 0,0.32064 -0.1968,0.51738 -0.4372,0.43723 z m -3.4057,-3.2858 c -0.5063,-0.23066 -0.833,-0.56085 -0.7262,-0.73374 0.3251,-0.52607 0.8402,-0.35381 1.254,0.4194 0.3646,0.68133 0.3269,0.70378 -0.5278,0.31434 z m -0.5212,83.0339 c -0.3837,0.34729 -1.2748,0.59657 -2.1084,0.58985 l -1.4437,-0.0116 1.033,-0.90884 c 1.0198,-0.8972 2.6034,-1.20995 2.9866,-0.58985 0.1085,0.17544 -0.1019,0.58965 -0.4675,0.92047 z m -2.2635,-83.52971 c -0.2025,-0.12516 -0.3682,-0.30062 -0.3682,-0.38992 0,-0.0893 0.1657,-0.16236 0.3682,-0.16236 0.2025,0 0.3682,0.17546 0.3682,0.38992 0,0.21445 -0.1657,0.28751 -0.3682,0.16236 z m -2.4736,-0.60781 c -0.3826,0.20479 -0.9096,0.24012 -1.1711,0.0785 -0.3318,-0.20509 -0.1737,-0.3695 0.5236,-0.54451 1.2229,-0.30694 1.5935,-0.0403 0.6475,0.46598 z m -4.4905,84.53548 c -0.1919,0.11855 -0.4458,0.0586 -0.5643,-0.13321 -0.1186,-0.19182 -0.059,-0.44575 0.1332,-0.5643 0.1918,-0.11855 0.4457,-0.0586 0.5643,0.13321 0.1185,0.19182 0.059,0.44575 -0.1332,0.5643 z m -1.3201,-85.95271 c -0.3038,0 -0.5523,-0.24853 -0.5523,-0.55228 0,-0.30376 0.2485,-0.55229 0.5523,-0.55229 0.3037,0 0.5522,0.24853 0.5522,0.55229 0,0.30375 -0.2485,0.55228 -0.5522,0.55228 z m -3.3898,-1.01252 c -0.1215,0.7842 -0.359,1.01252 -1.053,1.01252 -0.9857,0 -1.1359,-0.34924 -0.4464,-1.03871 0.2473,-0.24729 0.4544,-0.8189 0.4603,-1.27025 0.01,-0.47588 0.2405,-0.82065 0.5578,-0.82065 0.5968,0 0.7232,0.5562 0.4813,2.11709 z m -0.4499,87.53695 c -0.1881,0 -0.6129,-0.27102 -0.9442,-0.60225 -0.6985,-0.69858 -0.2096,-1.46755 0.709,-1.11505 0.6121,0.23489 0.8151,1.7173 0.2352,1.7173 z m -5.7333,-2.20914 c -0.3792,0 -0.5597,-0.2413 -0.4821,-0.64433 0.1494,-0.77608 0.8028,-0.72715 0.9694,0.0726 0.069,0.33358 -0.1335,0.57173 -0.4873,0.57173 z m -1.1659,-30.43696 c -0.4342,0.43418 -0.7684,0.26382 -0.9662,-0.49243 -0.276,-1.05553 -1.3507,-0.53332 -1.6143,0.78439 -0.1164,0.58194 -0.3607,1.05807 -0.5429,1.05807 -0.1822,0 -0.4887,0.41421 -0.6812,0.92047 -0.455,1.1969 -1.1046,1.18267 -1.1046,-0.0242 0,-2.19093 -1.5023,-3.14699 -2.2761,-1.44855 -0.69902,1.53418 -1.40576,1.14238 -1.40576,-0.77933 0,-1.56956 0.062,-1.68358 0.80928,-1.48817 0.44507,0.1164 1.03228,0.0265 1.30498,-0.19978 0.3805,-0.31582 0.6251,-0.22669 1.0525,0.3836 0.3063,0.43726 0.7759,0.79501 1.0436,0.79501 0.5864,0 1.4824,-2.00447 1.1421,-2.5551 -0.3553,-0.57484 -1.8786,-0.47482 -2.4036,0.15781 -0.5451,0.65676 -0.9482,0.47058 -1.2184,-0.5627 -0.1483,-0.56726 0.029,-0.84903 0.692,-1.10119 1.0827,-0.41165 1.1508,-0.9397 0.1549,-1.20015 -0.786,-0.20555 -1.053,-1.86336 -0.3682,-2.28656 0.2025,-0.12515 0.3682,-0.71838 0.3682,-1.31828 0,-0.80615 -0.2402,-1.20016 -0.9205,-1.51013 -1.05715,-0.48167 -1.1365,-0.76815 -0.38528,-1.39159 0.42458,-0.35234 0.76398,-0.30901 1.64198,0.20958 1.0643,0.62874 1.1355,0.62766 1.8602,-0.0282 0.7992,-0.72322 1.5577,-0.48874 0.8166,0.25241 -0.6084,0.60834 -0.5429,1.81244 0.1524,2.80519 0.475,0.67813 0.8003,0.79308 1.6909,0.59747 0.9202,-0.2021 1.082,-0.13597 0.9767,0.39939 -0.069,0.35288 -0.4315,0.82505 -0.8048,1.04926 -0.555,0.33343 -0.7811,0.25682 -1.2415,-0.42077 -0.3647,-0.53682 -0.9358,-0.82842 -1.6225,-0.82842 -0.9319,0 -1.0597,0.13313 -1.0597,1.10456 0,1.1498 0.086,1.19484 2.3933,1.25829 1.0004,0.0275 1.1045,0.14618 1.1045,1.25814 0,0.82859 0.2694,1.4463 0.8285,1.89996 0.7846,0.63673 1.1153,2.16951 0.5829,2.70194 z m -0.7395,2.94871 c -0.1333,0.13325 -0.4632,0.24227 -0.7333,0.24227 -0.5484,0 -0.672,-0.94914 -0.1644,-1.26288 0.4054,-0.25057 1.2306,0.68765 0.8977,1.02061 z m -0.4661,-20.74452 c -0.393,0 -0.817,-0.16568 -0.9422,-0.36819 -0.129,-0.20882 0.1803,-0.36819 0.7147,-0.36819 0.5182,0 0.9422,0.16569 0.9422,0.36819 0,0.20251 -0.3216,0.36819 -0.7147,0.36819 z m -1.0342,25.40323 c -0.6587,-0.004 -2.4011,-1.7477 -2.1511,-2.15222 0.3828,-0.61939 2.4272,0.64156 2.4272,1.49705 0,0.36135 -0.1242,0.65617 -0.2761,0.65517 z m -0.675,-61.14663 c -0.4289,-0.0177 -0.5162,-0.10491 -0.2225,-0.22244 0.2658,-0.10636 0.5834,-0.0933 0.7057,0.029 0.1224,0.12234 -0.095,0.20936 -0.4832,0.19338 z m -0.6137,35.36958 c -0.5568,0.003 -1.0125,-0.16005 -1.0125,-0.36256 0,-0.46554 0.7524,-0.46554 1.4728,0 0.4304,0.27813 0.3287,0.35816 -0.4603,0.36256 z m -3.1782,20.99242 c -0.2025,0 -0.4706,-0.16569 -0.5957,-0.36819 -0.12515,-0.20251 -0.0619,-0.36819 0.1406,-0.36819 0.2026,0 0.4706,0.16568 0.5958,0.36819 0.1251,0.2025 0.062,0.36819 -0.1407,0.36819 z m -7.407198,-12.51844 c -0.92934,-0.49738 -0.93291,-1.15525 -0.0122,-2.26039 l 0.724118,-0.86922 0.0121,1.76185 c 0.0114,1.64925 -0.035,1.73667 -0.724118,1.36776 z m -5.33874,-41.29902 c -0.405,0.0211 -1.05799,-0.20483 -1.45107,-0.50214 -0.62323,-0.47138 -0.63501,-0.54057 -0.092,-0.54057 0.34245,0 0.62264,0.15416 0.62264,0.34258 0,0.18842 0.37279,0.41438 0.82843,0.50214 0.70961,0.13668 0.72283,0.16507 0.092,0.19799 z"
       style="fill:#ffff00;stroke:#857901;stroke-width:7;stroke-linecap:round;stroke-linejoin:round;stroke-miterlimit:4;stroke-opacity:1;stroke-dasharray:none;stroke-dashoffset:0" />
    <path
       sodipodi:type="arc"
       style="fill:#ffff00;fill-opacity:1;stroke:none"
       id="path2985"
       sodipodi:cx="113.38963"
       sodipodi:cy="75.182693"
       sodipodi:rx="7.8286819"
       sodipodi:ry="23.233509"
       d="M 115.53507,52.838661 A 7.8286819,23.233509 0 1 1 115.4939,52.8042"
       transform="matrix(1.9674932,0,0,1,-104.65294,796.36218)"
       sodipodi:start="4.9899894"
       sodipodi:end="11.26771"
       sodipodi:open="true" />
    <path
       sodipodi:open="true"
       sodipodi:end="11.26771"
       sodipodi:start="4.9899894"
       transform="matrix(6.0148398,0,0,1.4047888,-559.16067,798.06451)"
       d="M 115.53507,52.838661 A 7.8286819,23.233509 0 1 1 115.4939,52.8042"
       sodipodi:ry="23.233509"
       sodipodi:rx="7.8286819"
       sodipodi:cy="75.182693"
       sodipodi:cx="113.38963"
       id="path2987"
       style="fill:#ffff00;fill-opacity:1;stroke:none"
       sodipodi:type="arc" />
    <path
       sodipodi:type="arc"
       style="fill:#ffff00;fill-opacity:1;stroke:none"
       id="path2989"
       sodipodi:cx="113.38963"
       sodipodi:cy="75.182693"
       sodipodi:rx="7.8286819"
       sodipodi:ry="23.233509"
       d="M 115.53507,52.838661 A 7.8286819,23.233509 0 1 1 115.4939,52.8042"
       transform="matrix(6.1680262,0,0,1.4047888,-576.34102,806.39827)"
       sodipodi:start="4.9899894"
       sodipodi:end="11.26771"
       sodipodi:open="true" />
    <path
       sodipodi:open="true"
       sodipodi:end="11.26771"
       sodipodi:start="4.9899894"
       transform="matrix(6.1680262,0,0,1.4047888,-576.08848,818.26756)"
       d="M 115.53507,52.838661 A 7.8286819,23.233509 0 1 1 115.4939,52.8042"
       sodipodi:ry="23.233509"
       sodipodi:rx="7.8286819"
       sodipodi:cy="75.182693"
       sodipodi:cx="113.38963"
       id="path2991"
       style="fill:#ffff00;fill-opacity:1;stroke:none"
       sodipodi:type="arc" />
    <path
       sodipodi:type="arc"
       style="fill:#ffff00;fill-opacity:1;stroke:none"
       id="path2993"
       sodipodi:cx="113.38963"
       sodipodi:cy="75.182693"
       sodipodi:rx="7.8286819"
       sodipodi:ry="23.233509"
       d="M 115.53507,52.838661 A 7.8286819,23.233509 0 1 1 115.4939,52.8042"
       transform="matrix(5.9745276,0,0,1.4047888,-553.39013,826.85386)"
       sodipodi:start="4.9899894"
       sodipodi:end="11.26771"
       sodipodi:open="true" />
    <path
       sodipodi:open="true"
       sodipodi:end="11.26771"
       sodipodi:start="4.9899894"
       transform="matrix(5.1924706,0,0,1.3857719,-466.79641,838.06945)"
       d="M 115.53507,52.838661 A 7.8286819,23.233509 0 1 1 115.4939,52.8042"
       sodipodi:ry="23.233509"
       sodipodi:rx="7.8286819"
       sodipodi:cy="75.182693"
       sodipodi:cx="113.38963"
       id="path2995"
       style="fill:#ffff00;fill-opacity:1;stroke:none"
       sodipodi:type="arc" />
    <path
       sodipodi:type="arc"
       style="fill:#ffff00;fill-opacity:1;stroke:none"
       id="path2997"
       sodipodi:cx="113.38963"
       sodipodi:cy="75.182693"
       sodipodi:rx="7.8286819"
       sodipodi:ry="23.233509"
       d="M 115.53507,52.838661 A 7.8286819,23.233509 0 1 1 115.4939,52.8042"
       transform="matrix(5.1924706,0,0,1.3857719,-460.10415,832.26107)"
       sodipodi:start="4.9899894"
       sodipodi:end="11.26771"
       sodipodi:open="true" />
    <path
       sodipodi:open="true"
       sodipodi:end="11.26771"
       sodipodi:start="4.9899894"
       transform="matrix(5.1924706,0,0,1.3857719,-462.62953,835.92287)"
       d="M 115.53507,52.838661 A 7.8286819,23.233509 0 1 1 115.4939,52.8042"
       sodipodi:ry="23.233509"
       sodipodi:rx="7.8286819"
       sodipodi:cy="75.182693"
       sodipodi:cx="113.38963"
       id="path2999"
       style="fill:#ffff00;fill-opacity:1;stroke:none"
       sodipodi:type="arc" />
    <path
       sodipodi:type="arc"
       style="fill:#ffff00;fill-opacity:1;stroke:none"
       id="path3001"
       sodipodi:cx="113.38963"
       sodipodi:cy="75.182693"
       sodipodi:rx="7.8286819"
       sodipodi:ry="23.233509"
       d="M 115.53507,52.838661 A 7.8286819,23.233509 0 1 1 115.4939,52.8042"
       transform="matrix(3.0236733,0,0,0.74734668,-215.38458,901.28345)"
       sodipodi:start="4.9899894"
       sodipodi:end="11.26771"
       sodipodi:open="true" />
    <path
       sodipodi:open="true"
       sodipodi:end="11.26771"
       sodipodi:start="4.9899894"
       transform="matrix(1.5482462,0,0,0.42134231,-49.538533,939.30415)"
       d="M 115.53507,52.838661 A 7.8286819,23.233509 0 1 1 115.4939,52.8042"
       sodipodi:ry="23.233509"
       sodipodi:rx="7.8286819"
       sodipodi:cy="75.182693"
       sodipodi:cx="113.38963"
       id="path3003"
       style="fill:#ffff00;fill-opacity:1;stroke:none"
       sodipodi:type="arc" />
    <path
       sodipodi:type="arc"
       style="fill:#ffff00;fill-opacity:1;stroke:none"
       id="path3005"
       sodipodi:cx="113.38963"
       sodipodi:cy="75.182693"
       sodipodi:rx="7.8286819"
       sodipodi:ry="23.233509"
       d="M 115.53507,52.838661 A 7.8286819,23.233509 0 1 1 115.4939,52.8042"
       transform="matrix(1.5482462,0,0,0.42134231,-51.811376,940.18803)"
       sodipodi:start="4.9899894"
       sodipodi:end="11.26771"
       sodipodi:open="true" />
    <path
       sodipodi:open="true"
       sodipodi:end="11.26771"
       sodipodi:start="4.9899894"
       transform="matrix(1.161249,0,0,0.35885815,-7.1722812,949.11578)"
       d="M 115.53507,52.838661 A 7.8286819,23.233509 0 1 1 115.4939,52.8042"
       sodipodi:ry="23.233509"
       sodipodi:rx="7.8286819"
       sodipodi:cy="75.182693"
       sodipodi:cx="113.38963"
       id="path3007"
       style="fill:#ffff00;fill-opacity:1;stroke:none"
       sodipodi:type="arc" />
    <path
       sodipodi:open="true"
       sodipodi:end="11.26771"
       sodipodi:start="4.9899894"
       transform="matrix(0.80907832,0,0,0.25987331,31.371245,835.09561)"
       d="M 115.53507,52.838661 A 7.8286819,23.233509 0 1 1 115.4939,52.8042"
       sodipodi:ry="23.233509"
       sodipodi:rx="7.8286819"
       sodipodi:cy="75.182693"
       sodipodi:cx="113.38963"
       id="path3777"
       style="fill:#ffff00;fill-opacity:1;stroke:none"
       sodipodi:type="arc" />
    <path
       inkscape:connector-curvature="0"
       id="path3835"
       d="m 119.70308,846.03852 4.54568,2.03882 5.80838,2.03882 2.0203,3.82278 1.51523,4.07764 3.78808,3.56794 3.78807,1.27427 6.06091,5.60675 6.06092,6.11646 5.80837,8.15528 5.30331,5.09704 4.29314,8.66499 1.26269,5.09705 0,4.07764 1.51523,4.07764 -0.50507,5.60675 -0.50508,2.80338 1.01015,3.56794 0,4.58734 -1.01015,3.82278 0.25254,4.84221 -1.76777,6.62616 -2.77792,7.90042 -5.05076,7.64559 -5.80838,6.3713 -9.34391,5.35191 -8.33376,5.09704 -2.27284,4.07764 -1.96758,1.80594 -1.42857,1.80209 -1.60715,1.98228 -3.57143,1.44167 -4.46428,0 -2.67857,-1.26146 -3.92857,-3.42395 -4.46429,-5.94686 -7.07802,-2.38874 -6.944798,-3.18565 -4.798225,-3.44051 -5.177031,-4.96963 -3.788072,-6.49873 -1.767767,-5.98904 -1.010153,-2.4211 -2.777919,-5.98902 -0.757615,-5.60676 -2.146574,-6.37132 -0.252538,-3.4405 0.126269,-8.28271 -0.126269,-5.09705 0.883883,-6.49874 0.126269,-3.82279 1.136422,-4.84219 2.525381,-4.96963 3.030458,-4.45991 2.904189,-2.67595 1.641497,-3.05823 4.798225,-6.2439 5.303301,-4.84219 4.924497,-4.84219 3.03045,-5.09706 2.14658,-4.45992 2.52538,-3.31308 3.283,-2.29366 3.53553,-2.16626 z"
       style="fill:url(#linearGradient3845);fill-opacity:1;stroke:none" />
  </g>
  <g
     inkscape:groupmode="layer"
     id="layer4"
     inkscape:label="Eyes"
     style="display:inline">
    <path
       id="path4202"
       d="m 106.10378,84.173662 c -1.64082,0.01299 -3.35516,1.324852 -4.75391,4.214273 -3.040359,6.280543 -1.756469,15.988055 2.4926,18.964225 4.19537,2.93854 8.20754,-2.42586 8.24866,-11.023917 0.0357,-7.4641 -2.85489,-12.179365 -5.98735,-12.154581 z m 32.89189,0 c -1.64082,0.01299 -3.35516,1.324852 -4.7539,4.214273 -3.04037,6.280543 -1.75648,15.988055 2.49259,18.964225 4.19537,2.93854 8.20755,-2.42586 8.24866,-11.023917 0.0357,-7.4641 -2.85488,-12.179365 -5.98735,-12.154581 z M 57.562543,121.30551 c -0.112552,0.013 -0.309422,0.0571 -0.462543,0.077 0.01299,0.0125 0.03848,0.0132 0.05139,0.0256 0.144758,-0.022 0.231272,-0.0268 0.385452,-0.0514 0.01083,-0.0155 0.01489,-0.0359 0.02566,-0.0514 z m 78.632177,4.36845 c -3.11204,-0.0151 -6.82937,-0.003 -11.2038,0.0256 -28.627379,0.18701 -26.304819,0.11158 -27.752529,1.02787 -2.98537,1.88953 4.502709,7.5673 13.105359,9.94466 2.02761,0.56035 6.81993,1.29548 10.66417,1.6189 3.84423,0.32341 7.17454,0.63034 7.40067,0.69381 0.98797,0.27721 14.48757,-3.31417 17.08836,-4.54833 3.17141,-1.50493 5.81525,-6.25866 4.41986,-7.94031 -0.43158,-0.5201 -4.38594,-0.77685 -13.72209,-0.82229 z"
       style="fill:#3f3f3f;fill-opacity:1"
       inkscape:connector-curvature="0" />
    <path
       inkscape:connector-curvature="0"
       style="fill:#000000"
       d="m 105.33187,82.662699 c -1.64082,0.01299 -3.35516,1.324852 -4.75391,4.214273 -3.040359,6.280543 -1.756469,15.988068 2.4926,18.964238 4.19537,2.93854 8.20754,-2.42586 8.24866,-11.02393 0.0357,-7.4641 -2.85489,-12.179365 -5.98735,-12.154581 z m 32.89189,0 c -1.64082,0.01299 -3.35516,1.324852 -4.7539,4.214273 -3.04037,6.280543 -1.75648,15.988068 2.49259,18.964238 4.19537,2.93854 8.20755,-2.42586 8.24866,-11.02393 0.0357,-7.4641 -2.85488,-12.179365 -5.98735,-12.154581 z M 56.790633,119.79456 c -0.112552,0.013 -0.309422,0.0571 -0.462543,0.077 0.01299,0.0125 0.03848,0.0132 0.05139,0.0256 0.144758,-0.022 0.231272,-0.0268 0.385452,-0.0514 0.01083,-0.0155 0.01489,-0.0359 0.02566,-0.0514 z m 78.632177,4.36845 c -3.11204,-0.0151 -6.82937,-0.003 -11.2038,0.0256 -28.627379,0.18701 -26.304819,0.11158 -27.752529,1.02787 -2.98537,1.88953 4.502709,7.5673 13.105359,9.94466 2.02761,0.56035 6.81993,1.29548 10.66417,1.6189 3.84423,0.32341 7.17454,0.63034 7.40067,0.69381 0.98797,0.27721 14.48757,-3.31417 17.08836,-4.54833 3.17141,-1.50493 5.81525,-6.25866 4.41986,-7.94031 -0.43158,-0.5201 -4.38594,-0.77685 -13.72209,-0.82229 z"
       id="path2987-3" />
  </g>
</svg>
