<?xml version="1.0" encoding="UTF-8" standalone="no"?>
<!-- Created with Inkscape (http://www.inkscape.org/) -->

<svg
   xmlns:dc="http://purl.org/dc/elements/1.1/"
   xmlns:cc="http://creativecommons.org/ns#"
   xmlns:rdf="http://www.w3.org/1999/02/22-rdf-syntax-ns#"
   xmlns:svg="http://www.w3.org/2000/svg"
   xmlns="http://www.w3.org/2000/svg"
   xmlns:xlink="http://www.w3.org/1999/xlink"
   xmlns:sodipodi="http://sodipodi.sourceforge.net/DTD/sodipodi-0.dtd"
   xmlns:inkscape="http://www.inkscape.org/namespaces/inkscape"
   width="210mm"
   height="297mm"
   id="svg2"
   version="1.1"
   inkscape:version="0.48.0 r9654"
   sodipodi:docname="tumbleweed.svg">
  <defs
     id="defs4">
    <linearGradient
       id="linearGradient3927">
      <stop
         style="stop-color:#b6ad8c;stop-opacity:1;"
         offset="0"
         id="stop3929" />
      <stop
         style="stop-color:#8d876d;stop-opacity:1;"
         offset="1"
         id="stop3931" />
    </linearGradient>
    <linearGradient
       id="linearGradient4064">
      <stop
         style="stop-color:#8f896d;stop-opacity:1;"
         offset="0"
         id="stop4066" />
      <stop
         style="stop-color:#484537;stop-opacity:1;"
         offset="1"
         id="stop4068" />
    </linearGradient>
    <linearGradient
       id="linearGradient4056">
      <stop
         style="stop-color:#8a843f;stop-opacity:1;"
         offset="0"
         id="stop4058" />
      <stop
         style="stop-color:#c8c082;stop-opacity:1;"
         offset="1"
         id="stop4060" />
    </linearGradient>
    <inkscape:perspective
       sodipodi:type="inkscape:persp3d"
       inkscape:vp_x="0 : 526.18109 : 1"
       inkscape:vp_y="0 : 1000 : 0"
       inkscape:vp_z="744.09448 : 526.18109 : 1"
       inkscape:persp3d-origin="372.04724 : 350.78739 : 1"
       id="perspective3959" />
    <linearGradient
       id="linearGradient3939">
      <stop
         style="stop-color:#a0787b;stop-opacity:1;"
         offset="0"
         id="stop3941" />
      <stop
         style="stop-color:#342828;stop-opacity:1;"
         offset="1"
         id="stop3943" />
    </linearGradient>
    <filter
       id="filter4132"
       inkscape:label="Diffuse light"
       inkscape:menu="ABCs"
       inkscape:menu-tooltip="Basic diffuse bevel to use for building textures"
       color-interpolation-filters="sRGB">
      <feGaussianBlur
         id="feGaussianBlur4134"
         stdDeviation="2"
         in="SourceGraphic"
         result="result0" />
      <feDiffuseLighting
         id="feDiffuseLighting4136"
         diffuseConstant="1.3000000000000003"
         surfaceScale="2"
         result="result5">
        <feDistantLight
           id="feDistantLight4138"
           elevation="24"
           azimuth="201" />
      </feDiffuseLighting>
      <feComposite
         id="feComposite4140"
         in2="SourceGraphic"
         k1="1.1000000000000001"
         in="result5"
         result="result4"
         operator="arithmetic"
         k2="0"
         k3="0.59999999999999998" />
    </filter>
    <radialGradient
       inkscape:collect="always"
       xlink:href="#linearGradient4056"
       id="radialGradient4357"
       gradientUnits="userSpaceOnUse"
       gradientTransform="matrix(1,0,0,0.96627441,-10.232023,24.664004)"
       cx="263.04426"
       cy="731.31424"
       fx="263.04426"
       fy="731.31424"
       r="386.65475" />
    <radialGradient
       inkscape:collect="always"
       xlink:href="#linearGradient4056"
       id="radialGradient3153"
       gradientUnits="userSpaceOnUse"
       gradientTransform="matrix(1,0,0,0.83839365,-686.47061,-444.40129)"
       cx="939.28284"
       cy="1402.3431"
       fx="939.28284"
       fy="1402.3431"
       r="302.91507" />
    <radialGradient
       inkscape:collect="always"
       xlink:href="#linearGradient4056"
       id="radialGradient3925"
       gradientUnits="userSpaceOnUse"
       gradientTransform="matrix(1,0,0,0.83839365,-686.47061,-444.40129)"
       cx="939.28284"
       cy="1402.3431"
       fx="939.28284"
       fy="1402.3431"
       r="302.91507" />
    <radialGradient
       inkscape:collect="always"
       xlink:href="#linearGradient3927"
       id="radialGradient3933"
       cx="252.81223"
       cy="731.31424"
       fx="252.81223"
       fy="731.31424"
       r="294.32844"
       gradientTransform="matrix(1,0,0,0.96811643,0,23.316908)"
       gradientUnits="userSpaceOnUse" />
    <radialGradient
       inkscape:collect="always"
       xlink:href="#linearGradient3927"
       id="radialGradient3935"
       cx="837.17815"
       cy="902.76955"
       fx="837.17815"
       fy="902.76955"
       r="266.21236"
       gradientTransform="matrix(1,0,0,1.158612,0,-143.19011)"
       gradientUnits="userSpaceOnUse" />
    <radialGradient
       inkscape:collect="always"
       xlink:href="#linearGradient4056"
       id="radialGradient3953"
       gradientUnits="userSpaceOnUse"
       gradientTransform="matrix(1,0,0,0.96627441,-10.232023,24.664004)"
       cx="263.04426"
       cy="731.31424"
       fx="263.04426"
       fy="731.31424"
       r="386.65475" />
    <radialGradient
       inkscape:collect="always"
       xlink:href="#linearGradient3927"
       id="radialGradient3955"
       gradientUnits="userSpaceOnUse"
       gradientTransform="matrix(1,0,0,0.96811643,0,23.316908)"
       cx="252.81223"
       cy="731.31424"
       fx="252.81223"
       fy="731.31424"
       r="294.32844" />
    <radialGradient
       inkscape:collect="always"
       xlink:href="#linearGradient4056"
       id="radialGradient3957"
       gradientUnits="userSpaceOnUse"
       gradientTransform="matrix(1,0,0,0.83839365,-686.47061,-444.40129)"
       cx="939.28284"
       cy="1402.3431"
       fx="939.28284"
       fy="1402.3431"
       r="302.91507" />
    <radialGradient
       inkscape:collect="always"
       xlink:href="#linearGradient3927"
       id="radialGradient3959"
       gradientUnits="userSpaceOnUse"
       gradientTransform="matrix(1,0,0,1.158612,0,-143.19011)"
       cx="837.17815"
       cy="902.76955"
       fx="837.17815"
       fy="902.76955"
       r="266.21236" />
    <radialGradient
       inkscape:collect="always"
       xlink:href="#linearGradient4056"
       id="radialGradient3961"
       gradientUnits="userSpaceOnUse"
       gradientTransform="matrix(1,0,0,0.83839365,-686.47061,-444.40129)"
       cx="939.28284"
       cy="1402.3431"
       fx="939.28284"
       fy="1402.3431"
       r="302.91507" />
    <radialGradient
       inkscape:collect="always"
       xlink:href="#linearGradient4056"
       id="radialGradient3987"
       gradientUnits="userSpaceOnUse"
       gradientTransform="matrix(1,0,0,0.96627441,-10.232023,24.664004)"
       cx="263.04426"
       cy="731.31424"
       fx="263.04426"
       fy="731.31424"
       r="386.65475" />
    <radialGradient
       inkscape:collect="always"
       xlink:href="#linearGradient3927"
       id="radialGradient3989"
       gradientUnits="userSpaceOnUse"
       gradientTransform="matrix(1,0,0,0.96811643,0,23.316908)"
       cx="252.81223"
       cy="731.31424"
       fx="252.81223"
       fy="731.31424"
       r="294.32844" />
    <radialGradient
       inkscape:collect="always"
       xlink:href="#linearGradient4056"
       id="radialGradient3991"
       gradientUnits="userSpaceOnUse"
       gradientTransform="matrix(1,0,0,0.83839365,-686.47061,-444.40129)"
       cx="939.28284"
       cy="1402.3431"
       fx="939.28284"
       fy="1402.3431"
       r="302.91507" />
    <radialGradient
       inkscape:collect="always"
       xlink:href="#linearGradient3927"
       id="radialGradient3993"
       gradientUnits="userSpaceOnUse"
       gradientTransform="matrix(1,0,0,1.158612,0,-143.19011)"
       cx="837.17815"
       cy="902.76955"
       fx="837.17815"
       fy="902.76955"
       r="266.21236" />
    <radialGradient
       inkscape:collect="always"
       xlink:href="#linearGradient4056"
       id="radialGradient3995"
       gradientUnits="userSpaceOnUse"
       gradientTransform="matrix(1,0,0,0.83839365,-686.47061,-444.40129)"
       cx="939.28284"
       cy="1402.3431"
       fx="939.28284"
       fy="1402.3431"
       r="302.91507" />
  </defs>
  <sodipodi:namedview
     id="base"
     pagecolor="#ffffff"
     bordercolor="#666666"
     borderopacity="1.0"
     inkscape:pageopacity="0.0"
     inkscape:pageshadow="2"
     inkscape:zoom="0.74246212"
     inkscape:cx="222.94957"
     inkscape:cy="269.41333"
     inkscape:document-units="px"
     inkscape:current-layer="layer1"
     showgrid="false"
     inkscape:window-width="1280"
     inkscape:window-height="962"
     inkscape:window-x="-8"
     inkscape:window-y="-8"
     inkscape:window-maximized="1" />
  <metadata
     id="metadata7">
    <rdf:RDF>
      <cc:Work
         rdf:about="">
        <dc:format>image/svg+xml</dc:format>
        <dc:type
           rdf:resource="http://purl.org/dc/dcmitype/StillImage" />
        <dc:title />
      </cc:Work>
    </rdf:RDF>
  </metadata>
  <g
     inkscape:label="Ebene 1"
     inkscape:groupmode="layer"
     id="layer1">
    <g
       id="g3973"
       style="filter:url(#filter4132)"
       transform="matrix(0.8674463,0,0,0.93377622,229.4828,-121.1712)"
       inkscape:export-filename="C:\Users\Auer\Documents\tumbleweed.png"
       inkscape:export-xdpi="90"
       inkscape:export-ydpi="90">
      <path
         transform="translate(490.2607,123.91205)"
         d="m -130.00663,786.32535 c 4.86743,-2.77431 -84.63827,-111.9656 -79.52497,-114.22572 5.11331,-2.26012 38.54838,134.314 43.79601,132.41756 5.24763,-1.89645 -57.90564,-126.90058 -52.475,-128.22854 5.43064,-1.32795 4.7235,136.9199 10.23863,135.99405 5.51512,-0.92584 -31.91217,-136.78368 -26.33351,-137.02852 5.57866,-0.24484 -14.52238,141.5387 -8.97497,141.80562 5.54741,0.26691 -9.70602,-143.3027 -4.19896,-142.60187 5.50706,0.70082 -42.71173,132.88655 -37.24657,134.08143 5.46515,1.19488 19.00388,-137.16731 24.27802,-135.4449 5.27414,1.72241 -65.39295,123.37861 -60.28609,125.54903 5.10686,2.17042 42.56659,-135.6044 47.51083,-133.05187 4.94424,2.55253 -87.77063,109.43503 -83.11106,112.53641 4.65956,3.10139 68.38162,-119.13735 72.67399,-115.60591 4.29236,3.53143 -105.65867,89.63353 -101.65339,93.55134 4.00528,3.91781 87.27234,-108.4393 90.93592,-104.22593 3.66358,4.21337 -121.24032,71.27109 -118.05571,75.86213 3.18462,4.59105 109.27628,-92.20056 112.05595,-87.37751 2.77968,4.82306 -133.22516,47.31669 -130.96115,52.37837 2.26402,5.06168 120.45886,-69.6889 122.36391,-64.43265 1.90505,5.25626 -135.65668,22.04696 -134.34847,27.45001 1.30821,5.40305 132.00221,-47.27328 132.87765,-41.76832 0.87543,5.50497 -141.13171,-3.46968 -140.78642,2.1111 0.3453,5.58079 140.48727,-23.26051 140.3927,-17.66351 -0.0946,5.59699 -139.56352,-27.06308 -140.22737,-21.50601 -0.66386,5.55707 139.27227,2.93682 138.05173,8.38215 -1.22054,5.44533 -125.58839,-51.62392 -127.21471,-46.31942 -1.62633,5.3045 134.01926,30.79223 131.81001,35.93803 -2.20926,5.14581 -115.02884,-80.0605 -117.59863,-75.13793 -2.56979,4.92258 127.52716,56.2254 124.46458,60.87178 -3.06258,4.64637 -97.37475,-95.03376 -100.85115,-90.67812 -3.47639,4.35564 115.14222,75.85292 111.18699,79.80955 -3.95522,3.95662 -80.2799,-113.52667 -84.53723,-109.93796 -4.25733,3.5887 101.23386,97.92433 96.68703,101.18732 -4.54682,3.26299 -62.76611,-124.36121 -67.61697,-121.6176 -4.85086,2.74361 83.07735,113.03717 78.0374,115.42914 -5.03994,2.39197 -34.47504,-137.05992 -39.72714,-135.22794 -5.2521,1.83198 57.86931,131.13614 52.47018,132.50974 -5.39913,1.37361 -8.55289,-140.00448 -14.04515,-139.06433 -5.49226,0.94016 32.86529,135.40972 27.31101,135.78052 -5.55428,0.3708 17.3126,-139.63217 11.72675,-139.79725 -5.58586,-0.16508 6.98893,141.68759 1.452,140.99832 -5.53693,-0.68928 40.49191,-132.84751 35.05496,-134.12192 -5.43696,-1.2744 -14.21024,138.86551 -19.51008,137.12191 -5.29984,-1.74359 65.57524,-123.32714 60.45672,-125.582 -5.11852,-2.25485 -45.3984,131.87103 -50.33978,129.25244 -4.94137,-2.6186 85.9065,-109.46434 81.25888,-112.49934 -4.64763,-3.03499 -67.34954,123.05319 -71.64987,119.47529 -4.30034,-3.57791 109.359013,-87.92669 105.387567,-91.8673 -3.971446,-3.94061 -87.349347,106.61535 -91.013087,102.43487 -3.66374,-4.18049 116.256091,-68.74314 113.117051,-73.339 -3.13904,-4.59586 -106.168631,88.82771 -108.994391,84.05693 -2.82576,-4.77077 131.415398,-46.39757 129.181232,-51.4739 -2.234165,-5.07634 -121.531342,71.91299 -123.315682,66.63554 -1.78435,-5.27745 138.600589,-23.48208 137.332706,-28.91332 -1.267883,-5.43124 -130.437686,46.97438 -131.253016,41.44058 -0.81534,-5.53381 136.407154,3.35914 136.105127,-2.22515 -0.302026,-5.58429 -138.668207,19.0166 -138.540437,13.45927 0.12777,-5.55733 137.839236,32.66431 138.447454,27.0965 0.608217,-5.56782 -137.380034,-9.05266 -136.271884,-14.4915 1.10814,-5.43884 128.027243,54.82175 129.791261,49.51254 1.764018,-5.30922 -138.407931,-29.16426 -136.243501,-34.294 2.16443,-5.12975 114.643469,78.21867 117.350837,73.37984 2.707367,-4.83882 -127.184657,-56.83651 -124.139547,-61.4898 3.04512,-4.6533 102.053864,94.90587 105.541928,90.56408 3.488064,-4.3418 -115.188398,-77.67083 -111.264158,-81.60061 3.92424,-3.92978 80.29467,113.19334 84.532411,109.53314 4.237738,-3.66019 -101.174451,-93.76165 -96.687111,-97.02015 4.48735,-3.2585 60.25032,124.02758 65.11774,121.25327 z"
         inkscape:randomized="-0.011"
         inkscape:rounded="-0.04"
         inkscape:flatsided="false"
         sodipodi:arg2="1.1401285"
         sodipodi:arg1="1.0477287"
         sodipodi:r2="74.124496"
         sodipodi:r1="213.00143"
         sodipodi:cy="602.50757"
         sodipodi:cx="-238.396"
         sodipodi:sides="34"
         id="path3951"
         style="fill:#5e5e46;fill-opacity:1;stroke:#484537;stroke-width:1.39999998;stroke-miterlimit:4;stroke-opacity:1;stroke-dasharray:none"
         sodipodi:type="star" />
      <path
         transform="matrix(0.61510653,-0.29956747,0.30604439,0.60208883,-142.79564,425.51421)"
         inkscape:connector-curvature="0"
         id="path4000"
         d="m 537.56371,641.28244 c -45.6134,33.9927 -44.877,50.0149 -65.4562,52.9326 -7.8006,1.106 -43.5347,-13.2185 -35.3178,-20.2656 13.3289,-11.4314 27.9028,-23.1979 37.1693,-25.329 66.0685,-15.1939 7.7743,-7.3134 10.07,-9.7346 18.6797,-19.7009 -28.6264,12.334 -53.6,26.6169 35.7771,-49.9653 87.8987,-53.5429 87.8987,-53.5429 -14.5039,-1.7163 -26.0409,-4.5051 -55.6182,13.1096 -4.2919,2.5561 16.3884,-66.8326 -14.0695,9.022 -3.7039,9.2246 -17.6058,12.4721 -28.3804,20.8957 -13.7849,10.7772 25.6043,-155.3632 19.1558,-143.8896 -8.3171,14.7984 -17.3716,48.2482 -27.6884,86.3126 -2.0749,7.6554 -40.4295,-88.3761 -6.4159,23.4316 4.0849,13.4274 2.7638,29.0565 -0.8624,44.7108 1.101,0.383 2.2701,0.7065 3.358,1.1061 3.9158,1.4384 7.7477,2.9556 11.4901,4.5994 -1.1852,0.4549 -2.1001,0.6917 -2.6252,0.6242 -60.3127,-7.7632 -134.51469,-19.7451 -135.15888,-28.2148 -9.19091,-120.843 -10.15487,-13.2248 -15.69968,-21.2712 -62.68643,-90.9675 0.0727,16.553 -6.76971,14.2649 -14.8242,-4.957 -28.22715,-13.8746 -40.79109,-22.7898 -5.99614,-4.2548 -13.47567,-119.6563 -17.48492,-12.3206 -0.27876,7.4635 -12.22725,-7.8306 -18.20493,-10.4174 -4.39062,-3.227 12.85208,-73.6779 8.80903,-81.8997 -9.31386,11.1282 -10.73279,40.6033 -16.65215,57.3304 -2.54893,7.2028 -88.633807,-110.2232 -10.86772,9.402 3.61889,5.5668 -11.72773,7.4273 -20.86329,8.5288 -13.62205,1.6423 -30.03845,9.5095 -37.52131,0.8312 -93.222207,-108.1139 -10.394657,-1.1606 -15.254587,-2.0705 -67.38238,-12.6139 -91.6458203,-65.7388 -91.6458203,-65.7388 3.51983,14.1746 4.96144,25.9599 31.8917003,47.4042 3.90776,3.1117 -68.28598,8.2997 13.43776,9.987 9.93837,0.2052 17.85433,12.0513 29.54195,19.154 14.95318,9.0871 -154.383919,30.9721 -141.3718,32.9501 16.78266,2.551 51.30464,-0.824 90.55897,-4.6241 7.89461,-0.7641 -68.41859,69.0501 24.15562,-2.2794 27.01341,-20.8142 77.324477,-17.024 106.646467,-16.0289 5.9011,0.2002 -64.329467,93.9963 7.676,12.8583 9.3523,-10.5384 23.42198,-7.0085 33.94204,2.6893 4.26762,3.934 -63.91741,5.9834 9.20019,17.0596 16.26715,2.4643 17.74913,8.8493 12.74982,17.0191 -2.9255,4.7807 -82.23873,1.1722 -13.7801,15.7711 14.02256,2.9903 -25.05759,16.6217 -26.19723,29.6646 12.51249,-5.7027 48.62576,-21.8762 69.92058,-39.2943 7.70333,-6.3012 7.94046,1.5267 17.64917,-0.5375 12.08688,-2.5699 -6.28055,62.8943 15.55749,16.6179 0.7531,-1.5959 7.69702,-2.6236 17.47239,-3.1083 0.58731,2.2964 1.24959,4.5786 2.13405,6.7287 7.45781,6.3985 18.19149,88.1706 12.78902,91.4805 -43.63187,26.7332 19.45867,1.3371 18.21627,13.6317 -0.998,9.8753 6.8173,9.2623 1.3898,17.6042 -15.0033,23.0601 -27.18151,60.7183 -31.49203,73.7761 12.84209,-2.549 22.17863,-42.89 26.67373,-29.275 21.945,66.4691 9.7519,-11.954 14.1868,-15.3813 7.5787,-5.8568 14.0605,-5.0669 18.2763,10.8365 18.9491,71.4829 13.5823,3.4725 17.9563,7.2877 10.7826,9.405 15.8118,22.9657 6.351,33.4071 -72.84086,80.38871 12.8085,0.3963 13.6481,6.2407 2.4554,17.089 6.5117,41.2703 5.9427,64.23851 1.1617,-0.096 2.3819,-0.093 3.5351,-0.2081 5.5147,-0.5513 10.9349,-1.3236 16.2314,-2.3074 0.7133,-0.1325 1.3856,-0.3563 2.0945,-0.4965 -0.071,-0.2318 -0.1832,-0.4091 -0.2538,-0.642 -0.1123,-0.3721 0.7014,-0.1618 1.8597,0.2869 3.9906,-0.8267 7.9461,-1.6538 11.7858,-2.7249 0.1159,-0.033 0.2192,-0.067 0.3351,-0.099 -5.7928,-4.0568 -9.9828,-7.1153 -17.6669,-12.40391 -9.4395,-6.4963 -3.4442,-23.6809 -3.2905,-37.4008 0.1031,-9.2011 0.2859,-24.6073 6.2127,-21.6141 127.361,64.31891 1.3482,-8.5364 8.2317,-11.8523 15.9856,-7.7004 45.0856,-12.34 55.1367,-22.807 -8.6121,-3.1267 -76.766,21.6698 -80.4506,17.6555 -3.2205,-5.6614 -19.7194,-15.8633 -12.3303,-16.9507 106.2659,-15.6388 -9.2774,-10.565 -14.158,-16.0639 -10.2265,-11.5216 -20.5419,-23.873 -27.0791,-38.0714 -3.0174,-6.5535 110.7068,44.1743 13.4711,-8.2653 -8.6008,-4.6385 98.2436,-17.291 -22.8829,-13.3077 -6.7345,0.2215 -20.5519,-45.2608 -33.14482,-93.6028 25.08652,-0.1045 56.79492,2.1436 61.12282,6.199 11.2377,3.2494 25.3608,0.9694 30.6664,9.1017 63.8364,97.8435 49.9807,68.4967 35.2126,37.959 -1.7891,-3.6993 50.1654,16.6738 -5.2654,-10.9242 -11.2915,-5.6219 -8.0236,-23.7931 -6.2452,-23.2053 15.8046,5.2231 28.992,10.3949 41.508,16.0232 4.6638,2.0973 95.7892,158.8424 13.8168,6.5058 -9.7121,-18.0489 48.2602,31.2167 92.1298,48.4494 -3.5954,-3.4459 -47.8405,-36.2794 -47.8405,-36.2794 64.4504,-33.8151 -1.6544,-4.8042 -4.9589,-7.2637 -6.2961,-4.6862 -17.0493,-9.1289 -18.5541,-10.3463 -21.0201,-16.2271 17.9482,-34.1832 34.6449,-67.4562 z"
         style="fill:#aca793;stroke:#000000;stroke-width:1px;stroke-linecap:butt;stroke-linejoin:miter;stroke-opacity:1" />
      <path
         transform="matrix(0.65398065,0.2060876,-0.2105434,0.64014024,238.63321,213.28234)"
         inkscape:connector-curvature="0"
         id="path3137"
         d="m 204.48673,420.46875 c -6.25998,31.78844 -5.58937,65.22371 -14.0532,96.30622 -18.51501,14.42744 -63.57762,-13.75278 -68.7943,-1.25836 25.69627,17.2927 64.03864,16.38363 68.84992,54.66574 8.76237,16.16602 11.20934,24.42731 -9.82667,17.08756 -12.5523,6.43153 32.88816,8.3562 27.71852,26.69619 11.91679,31.33846 -42.55677,-6.1648 -54.60348,-16.62317 -30.70683,-25.57038 -49.56099,-65.64337 -47.13454,-105.78043 -14.502723,36.76953 10.61335,72.97818 24.94576,105.39905 C 103.04615,595.92717 75.323327,579.89479 47.79117,570.73452 37.054878,568.28918 -8.3968809,545.24722 -2.8858162,554.08842 66.789269,600.67897 149.47442,628.2347 210.91158,686.78108 c 10.08958,9.8338 23.36191,29.16989 0.39325,17.09295 C 163.50698,688.33173 115.97594,671.03675 70.947644,648.6565 56.248119,632.10851 57.781081,605.57102 41.330477,588.75 c -4.173311,26.55584 30.352803,81.92297 -19.547071,77.78086 -17.5630063,2.54884 -77.540534,8.21393 -67.92823,9.50431 69.895984,1.90611 139.972251,7.51012 207.629484,26.21619 16.45172,1.4559 57.52443,22.10571 57.06611,26.22492 -17.33578,-1.75636 -53.02671,-19.45834 -57.05968,-14.2926 12.43162,10.98244 58.77742,21.14398 19.73215,20.37813 -47.23518,11.06936 63.08127,-2.05234 14.72096,15.9077 -23.69652,11.11706 -46.62775,36.60818 -68.08197,6.88339 -11.20008,-9.72764 -57.631048,-42.00772 -30.652613,-13.18774 26.622313,14.60514 57.014843,57.79756 5.686593,54.90751 -56.869735,12.1556 -115.826492,14.07181 -171.79627,29.98765 47.293014,2.52528 95.3801,-4.52159 142.696398,1.23577 -1.259288,16.74675 -39.024861,36.55454 -47.167186,59.0029 2.754278,19.21975 -34.7037754,15.72852 -7.267425,18.98226 -4.120172,29.66018 1.111285,-8.63425 20.801565,-1.37532 24.36682,-1.5433 53.986945,-32.91759 70.833148,-29.81281 -7.20519,47.11119 -26.947379,91.51451 -37.259044,137.73228 35.071864,-58.31153 54.777154,-124.65083 89.093084,-183.54415 19.16611,7.66278 44.65321,41.79916 12.1875,47.40625 20.35469,-4.23198 27.6519,-0.47517 14.7981,19.05097 -4.9287,37.47067 -43.25179,35.73184 -68.17685,53.11992 5.15769,14.97667 76.62564,-30.55138 72.912,16.76164 3.18282,21.90978 6.60335,65.52787 10.1245,74.28607 2.49836,-57.98644 4.32895,-116.45363 18.1235,-173.12485 36.16988,-9.81481 54.21358,30.84651 65.59953,57.72876 14.37956,37.27901 11.34175,81.45979 -10.31828,115.33379 30.55958,-25.0723 26.2344,-68.92951 29.49294,-104.23056 24.43136,14.79688 40.84736,42.29571 60.44138,63.69886 8.18915,7.3623 36.6817,49.6132 36.17004,39.2088 C 365.98856,965.91052 307.16245,901.59842 281.981,820.55234 c -14.61324,-34.53376 10.10767,-50.70556 32.02264,-20.60269 5.99359,13.19887 16.14662,24.30988 8.51434,3.92535 28.98158,21.89019 50.4022,52.32114 74.40921,79.39896 28.90911,36.05482 51.84857,76.29986 76.40329,115.31979 -10.00236,-30.81737 -26.86635,-59.69916 -34.59736,-90.97277 9.17011,-21.60768 62.25476,-18.90656 60.73792,-32.36502 -32.21544,-1.83901 -66.22596,16.58905 -89.67572,-16.49389 -26.58348,-20.59273 -52.40276,-42.18458 -77.18359,-64.91832 39.70559,8.9002 -61.01627,-27.3381 -15.18137,-42.79878 46.40657,-3.29321 86.79223,25.78589 125.63623,47.14511 44.30314,25.60607 84.87652,57.97962 131.45794,79.38329 -34.06274,-32.89644 -74.99665,-59.08503 -106.95849,-94.43827 13.53987,-12.72433 58.9595,-1.55027 81.40369,-16.52221 14.07756,-6.80799 31.04544,-25.01613 5.85869,-8.80808 -50.99482,22.85493 -114.88854,7.43906 -152.90931,-32.30576 -25.98981,-41.69153 32.68469,-44.96919 59.55235,-53.61939 21.93817,2.87176 38.16367,23.92043 61.60902,25.83909 -14.25458,-22.79184 -76.62511,-41.99725 -36.21496,-71.56953 16.28439,-18.16986 33.13791,-35.85234 48.77746,-54.58672 -41.97912,32.86883 -82.98528,67.58885 -129.875,93.4375 7.48012,-27.94185 -6.17377,-11.06642 -10.1875,5.71875 -30.9072,17.49703 -62.16415,35.03756 -98.03849,39.59338 -34.32403,8.6673 18.33797,-21.06657 29.38097,-28.24418 11.09695,-5.44112 28.28217,-17.57774 6.13561,-9.72769 -16.3942,8.5282 -58.4925,30.10579 -33.12503,-2.36754 19.60265,-32.01903 49.39308,-56.37723 75.38596,-83.14437 33.78692,-31.51622 72.19897,-57.39183 109.26098,-84.7971 -29.71209,12.39243 -57.19026,30.57671 -87.39041,41.30625 -24.85548,-18.22955 -39.97324,-59.98051 -11.96702,-83.51028 8.0128,-11.2287 34.16305,-59.34005 7.50811,-24.68874 -28.03602,31.1474 -51.19036,68.04684 -84.2577,93.94693 -5.41775,-32.08038 0.89724,-73.53343 -25.05144,-99.47652 -9.74105,-9.57801 14.85004,29.48611 12.14845,41.52425 7.05955,43.78162 -9.42696,90.69696 -40.77899,121.58662 -42.58192,26.90769 -38.01947,-35.00946 -43.51324,-61.84766 -4.05204,-36.66581 -4.87452,-73.58912 -6.79151,-110.40335 z M 360.20548,499.125 c 12.85552,30.30746 8.40861,59.05048 -14.62694,83.23187 -20.77747,30.99966 -42.81268,61.17716 -66.46681,90.04938 0.80585,-50.56521 33.18604,-93.4846 57.21122,-135.78963 7.83777,-12.57515 15.85252,-25.03878 23.88253,-37.49162 z M 225.36173,609.0625 c 18.19843,-0.60647 12.82683,16.8278 2.42006,10.52457 l -0.8302,-3.5815 -1.58986,-6.94307 z m 23.875,10.28125 c -0.42164,18.65054 6.98139,58.15482 2.72605,65.07071 -10.71908,-23.17288 -32.67059,-45.79593 -2.72605,-65.07071 z m 137.125,76.3125 c -2.8757,38.01613 -43.34688,22.8552 -69.59699,29.26176 6.61809,-6.88323 48.84024,-21.1542 69.59699,-29.26176 z M 233.08048,768.75 c -0.95055,31.30332 -18.65352,68.31569 -31.90625,97.5 -9.21631,-24.91959 -28.91922,-53.87136 3.74243,-69.19847 9.19716,-9.61707 18.0786,-19.58506 28.16382,-28.30153 z m 20.8125,11.28125 c -6.74752,22.72448 6.97337,59.82503 -14.66405,71.9036 -25.87482,15.38602 -3.30708,-31.64629 0.13368,-45.05308 2.46347,-12.06857 10.61748,40.62149 9.49578,9.41556 0.8244,-12.14148 -5.508,-27.12032 5.03459,-36.26608 z M 119.17423,833.75 C 100.33711,869.22434 65.816411,896.58489 25.924227,903.6875 43.972693,867.3339 79.842524,842.03958 119.17423,833.75 z"
         style="fill:url(#radialGradient3987);fill-opacity:1;stroke:#000000;stroke-width:1px;stroke-linecap:butt;stroke-linejoin:miter;stroke-opacity:1" />
      <path
         transform="matrix(0.47683875,0.47880621,-0.49303972,0.47386928,455.0438,248.19177)"
         sodipodi:nodetypes="csssssscssscsssssssssssscsssssccssssssssssccssc"
         inkscape:connector-curvature="0"
         id="path4022"
         d="m 482.63413,981.47584 c -29.3574,-36.8734 -54.8885,-108.5383 -55.5124,-88.0519 -5.2651,172.91116 -5.725,-8.4011 -8.7132,-12.5509 -8.0194,-11.1362 -16.8262,-22.206 -27.8955,-34.6372 -1.2456,-1.3989 -13.1721,12.6875 -6.2096,23.2054 34.1795,51.6334 -0.6016,8 -0.9039,12.098 -2.4963,33.8294 -5.2039,66.1597 -11.5074,-50.4966 -0.5238,-9.6959 -13.8809,-14.7882 -21.9841,-23.2252 -2.8456,-9.4056 -73.3225,-52.2148 -78.5309,-48.6071 -42.0651,29.1364 6.6151,-18.3352 -5.1355,-22.159 -9.4385,-3.0715 -5.7289,-9.9793 -15.5516,-8.379 -27.1531,4.4235 -66.5242,0.3496 -80.211,-0.9749 7.5138,-10.7218 48.186,-2.9526 37.5421,-12.559 -51.9639,-46.8984 14.8726,-4.1034 19.7979,-6.7784 8.4167,-4.5713 10.3325,-10.8157 -2.518,-21.0898 -57.7604,-46.1803 2.2948,-13.8335 0.5687,-19.3752 -4.2548,-13.6606 -14.6587,-23.7592 -28.0295,-19.3155 -102.944796,34.2131 4.8132,-11.8529 -0.1957,-14.9794 -24.8882,-15.5352 -66.5588,-44.0089 -100.362496,-39.507 -115.844199,15.4278 -14.84438,-6.8056 -22.06171,-10.0946 -35.887059,-16.3543 -67.4590495,-30.7169 -80.7124195,-41.3241 -10.2757495,-8.2242 147.2910255,57.5663 138.8925255,42.2158 -6.5644,-11.9982 -7.5112,-26.2171 -16.0129,-31.3683 -69.909835,-42.3582 -4.7944,-10.7064 -6.6204,-15.356 -12.583996,-32.0428 -7.9457,-42.9798 -3.8997,-57.0133 0,0 -5.5661,58.1295 46.4593,102.7708 3.7523,3.2198 -14.4258,-130.8319 12.1795,9.4219 2.1356,11.2582 20.2869,12.6658 32.9024,18.0609 8.4605,3.6182 22.6549,9.6973 22.3076,3.0668 -7.4631,-142.4852 8.3126,2.2457 14.124,-2.7148 13.4956,-11.5196 29.4719,-36.3033 43.1045,-41.2768 -0.6141,9.1414 -50.7921,61.4865 -48.6057,66.4776 3.8807,5.231 6.5836,24.4573 10.56,18.1351 57.1857,-90.922 5.9008,12.7414 8.9629,19.4258 6.416,14.0059 13.5549,28.4313 23.9086,40.1415 4.779,5.4052 4.256,-119.108 13.0049,-8.9803 0.7738,9.7412 55.4672,-82.9284 2.9502,26.2938 -3.6808,7.6552 54.544,55.1432 102.8763,92.0471 6.1096,4.665 108.0054,-4.6785 74.8231,5.1476 -3.1991,0.9473 51.233,23.3147 -13.5709,3.4061 -9.0891,-2.7922 -27.6065,0.088 -44.8669,3.3144 -10.6406,1.9891 13.1445,32.2722 20.4515,35.2184 19.2771,7.7725 26.6576,-6.4564 83.1597,-13.0599 -31.1066,20.4514 -73.8275,16.4907 -63.7494,41.0589 0.6935,1.8071 7.7775,11.0345 10.8834,18.2426 1.6301,3.783 73.3789,11.7372 0.6571,8.7602 0,0 21.8562,50.583 23.2446,55.3655 z"
         style="fill:url(#radialGradient3989);fill-opacity:1;stroke:#000000;stroke-width:1px;stroke-linecap:butt;stroke-linejoin:miter;stroke-opacity:1" />
      <path
         transform="matrix(0.5435472,-0.41131605,0.42020907,0.53204393,-154.32003,463.23748)"
         inkscape:connector-curvature="0"
         style="fill:url(#radialGradient3991);fill-opacity:1;stroke:#484537;stroke-width:1px;stroke-linecap:butt;stroke-linejoin:miter;stroke-opacity:1"
         d="m -36.892442,702.87047 c 51.2947,24.5956 53.6504,40.4607 74.4068,39.3702 7.8677,-0.4134 40.183903,-21.3367 30.766103,-26.6737 -15.2769,-8.6575 -31.840103,-17.4047 -41.343403,-17.7157 -67.756701,-2.217 -9.0345,-5.6835 -11.7526,-7.6184 -22.1169004,-15.745 30.4628,6.6041 57.715303,15.8227 -44.710503,-42.1606 -96.548403,-35.6573 -96.548403,-35.6573 13.9038996,-4.4709 24.6901996,-9.4244 57.1008,2.1794 4.703,1.6838 -28.9238004,-62.4388 15.5407,6.1507 5.407303,8.3411 19.674103,8.8571 31.866403,15.0536 15.5988,7.9279 -54.977403,-147.5493 -46.444603,-137.5284 11.0053,12.9248 26.317903,44.0117 43.755903,79.3848 3.507,7.114 22.696399,-94.4975 10.7983,21.7623 -1.4289,13.9621 2.8704,29.0462 9.4367,43.712 -1.0069,0.5875 -2.0921,1.1296 -3.0829,1.7308 -3.5665,2.1639 -7.0355,4.389 -10.3924,6.7213 1.2505,0.2187 2.194,0.2753 2.6962,0.1081 57.697599,-19.2065 128.214959,-45.2217 127.219859,-53.6574 -14.1981,-120.3575 7.42478,-14.9294 11.32031,-23.8913 44.04079,-101.3167 3.10904,16.2586 9.38433,12.6985 13.59561,-7.7129 25.0355,-19.0395 35.65247,-30.2025 5.06694,-5.3276 -9.76516,-120.0161 14.79198,-15.4505 1.70753,7.2709 10.49495,-10.0339 15.86424,-13.721 3.68881,-4.0105 -26.76849,-69.8359 -24.38043,-78.6813 11.27842,9.1314 18.33401,37.7847 27.3569,53.0629 3.88533,6.5788 65.80517,-125.199 12.47167,7.1387 -2.4819,6.1584 12.9362,5.0357 22.1132,4.3614 13.6838,-1.0055 31.3059,3.561 36.982,-6.3933 70.7133,-124.0105 9.978,-3.1361 14.5726,-4.9628 63.7034,-25.3252 77.3078,-82.1221 77.3078,-82.1221 -0.7308,14.5868 0.1188,26.4295 -22.1896,52.6484 -3.2371,3.8046 68.6084,-4.9748 -11.2686,12.3828 -9.7138,2.1108 -15.2063,15.2572 -25.3115,24.4731 -12.9287,11.7908 157.4584,0.733 145.0687,5.1741 -15.9799,5.728 -50.5071,9.0487 -89.7602,12.8614 -7.8944,0.7669 80.4106,54.6183 -24.1435,2.4041 -30.5093,-15.2363 -79.1548,-1.8503 -107.7393,4.7599 -5.7527,1.3302 81.1907,79.8853 -5.0625,14.0936 -11.2028,-8.5453 -24.33213,-2.3779 -32.79294,9.1605 -3.43228,4.6806 63.87614,-6.4087 -5.75109,18.5094 -15.49063,5.5438 -15.71822,12.0946 -9.24238,19.1517 3.78953,4.1295 80.93181,-14.6503 16.55349,12.8296 -13.18677,5.6288 27.78432,11.4977 31.40872,24.0787 -13.3751,-3.1925 -51.92298,-12.1261 -76.16763,-25.1283 -8.77047,-4.7037 -7.49919,3.0239 -17.42362,2.8635 -12.35545,-0.1998 18.24751,60.5158 -12.07481,19.2974 -1.0457,-1.4216 -8.0577,-1.0959 -17.74408,0.3065 -0.13514,2.3666 -0.34662,4.7334 -0.8015,7.0134 -6.08949,7.7122 -0.91221,90.0231 5.02557,92.2333 47.95526,17.8521 -18.83926,5.0509 -15.25781,16.8777 2.87673,9.4995 -4.91065,10.3996 2.01844,17.5432 19.15435,19.7479 38.34099,54.3647 45.08001,66.351 -13.09258,-0.034 -30.00595,-37.8297 -31.80147,-23.6047 -8.76529,69.447 -11.8669,-9.8576 -16.87763,-12.369 -8.5628,-4.2916 -14.7721,-2.2711 -15.8538,14.146 -4.862,73.7918 -12.6621,6.0175 -16.2215,10.6019 -8.7748,11.3015 -11.1048,25.5758 0.1858,34.0049 86.929,64.89599 -12.4937,2.8499 -12.1948,8.7468 0.8737,17.2423 1.539,41.7524 6.5103,64.18339 -1.1586,0.1289 -2.3553,0.3665 -3.5092,0.4749 -5.5179,0.5186 -10.9855,0.802 -16.3723,0.8542 -0.7255,0.01 -1.4283,-0.083 -2.151,-0.085 0.026,-0.2412 0.1013,-0.4367 0.1258,-0.6788 0.039,-0.3867 -0.7194,-0.024 -1.77,0.6388 -4.075,-0.045 -8.1158,-0.096 -12.0897,-0.4097 -0.12,-0.01 -0.228,-0.024 -0.3478,-0.033 4.9054,-5.0942 8.4297,-8.9007 14.9546,-15.5671 8.0154,-8.18889 -1.1699,-23.90149 -3.9568,-37.33619 -1.869,-9.0099 -5.0084,-24.0939 -10.2497,-20.0178 -112.6304024,87.59069 -2.9632,-8.1183 -10.3555,-10.0499 -17.167199,-4.4855 -46.616499,-3.4477 -58.491399,-11.7886 7.8509,-4.723 79.499199,6.517 82.343899,1.8695 2.0728,-6.1747 16.3042,-19.3565 8.8438,-19.004 -107.290802,5.0697 7.0747,-12.1506 10.8079,-18.4847 7.8223,-13.2718 15.5724,-27.375 19.2598,-42.5649 1.7021,-7.0112 -100.156899,64.6216 -14.8082,-5.5231 7.5495,-6.2045 -99.735399,1.9068 19.8998,-17.4563 6.6516,-1.0765 11.473,-48.3662 14.5433,-98.2271 -24.6393,4.7174 -55.3249,13.0158 -58.7931,17.8272 -10.404,5.348 -24.702,5.824 -28.3463,14.8241 -43.848299,108.2856 -35.889199,76.8235 -27.263399,44.0173 1.045,-3.9742 -46.027203,26.0015 3.0684,-11.7324 10.001,-7.6866 3.3027,-24.8913 1.6703,-23.9729 -14.5066,8.1624 -26.4546,15.7716 -37.656003,23.6997 -4.174,2.9543 -63.486,174.2872 -12.3094,9.0392 6.0633,-19.5786 -41.3634004,39.9075 -81.104801,65.2478 2.8664,-4.0725 39.9788006,-44.7951 39.9788006,-44.7951 -69.7465996,-20.8021 0.7006,-5.0326 3.471,-8.0812 5.27839996,-5.8085 14.9776,-12.2345 16.2205004,-13.7183 17.5107,-19.9634 -24.1815,-30.0979 -46.9599,-59.5431 z"
         id="path4024" />
      <path
         transform="matrix(0.65022887,0.17865128,-0.17219126,0.66325495,-128.79934,-35.741701)"
         style="fill:url(#radialGradient3993);fill-opacity:1;stroke:#000000;stroke-width:1px;stroke-linecap:butt;stroke-linejoin:miter;stroke-opacity:1"
         d="m 603.1019,1154.6857 c 34.36743,-32.2551 103.72208,-63.5221 83.25267,-62.4801 -172.76754,8.7952 7.90842,-6.3884 11.80176,-9.7038 10.44815,-8.8973 20.76612,-18.574 32.25728,-30.6164 1.29305,-1.3552 -13.71539,-12.0982 -23.63305,-4.3045 -48.68694,38.26 -8.02239,0.05 -12.13154,0.082 -33.92026,0.2595 -66.36368,0.1865 49.39535,-15.5704 9.62123,-1.3095 13.61201,-15.0361 21.36303,-23.7977 9.14336,-3.6001 46.08736,-77.321 42.06856,-82.2192 -32.45639,-39.5598 18.81192,5.1042 21.6687,-6.9181 2.29478,-9.6568 9.48107,-6.5205 7.08827,-16.1807 -6.61413,-26.7042 -5.75111,-66.2761 -5.54261,-80.0253 11.29669,6.6182 6.85634,47.7871 15.5665,36.3982 42.52326,-55.6011 5.2977,14.4901 8.36388,19.1819 5.2398,8.0176 11.61918,9.4199 20.81575,-4.2225 41.3366,-61.3201 13.97413,1.1638 19.35722,-1.0067 13.27002,-5.3502 22.49019,-16.5399 16.97529,-29.5056 -42.46066,-99.8261 12.2047,3.8346 14.91402,-1.4116 13.46265,-26.0677 38.45807,-69.9132 31.22563,-103.2396 -24.78511,-114.2085 5.57742,-15.348 8.26955,-22.8086 13.38567,-37.0968 25.13669,-69.7309 34.63244,-83.802 7.3624,-10.9097 -45.41387,151.4798 -30.79617,141.8623 11.42542,-7.5171 25.52052,-9.6156 29.96412,-18.5075 36.54065,-73.1191 10.28165,-5.6481 14.76765,-7.8457 30.9149,-15.1449 42.1926,-11.4102 56.5082,-8.5172 0,0 -58.3895,-0.8268 -98.65808,54.6523 -2.90443,4.0014 129.22808,-25.0036 -8.40163,12.9046 -11.04751,3.0428 -10.97629,21.2485 -15.32899,34.2604 -2.91905,8.7265 -7.8254,23.3677 -1.24491,22.4831 141.40841,-19.0105 -1.56315,8.4675 3.85283,13.8568 12.57763,12.5155 38.57693,26.4261 44.64123,39.6098 -9.1611,0.1304 -65.40847,-45.6307 -70.20549,-43.0462 -4.89861,4.2928 -23.84191,8.5482 -17.21765,11.998 95.26599,49.6126 -12.22004,6.9161 -18.63361,10.5109 -13.43868,7.5324 -27.23657,15.8193 -38.06725,27.0899 -4.99917,5.2021 119.06028,-5.4316 10.00686,12.2325 -9.64618,1.5624 87.15917,48.54894 -25.96738,5.07604 -7.92883,-3.04704 -50.53122,58.8422 -83.38783,110.01196 -4.15346,6.4683 13.43466,107.2686 0.94619,74.994 -1.20401,-3.1117 -19.07683,52.9573 -4.49711,-13.2494 2.04485,-9.2859 -2.32945,-27.5082 -6.9473,-44.4496 -2.84674,-10.4439 -31.09809,15.7221 -33.44112,23.2442 -6.18122,19.8447 8.60005,26.0452 19.77059,81.8243 -22.91009,-29.3428 -22.43205,-72.2442 -46.10062,-60.2042 -1.74479,0.8381 -10.36647,8.6481 -17.29839,12.329 -3.63819,1.932 -5.73904,74.0899 -8.67797,1.3665 0,0 -48.64089,25.8921 -53.29487,27.6643 z"
         id="path4016"
         inkscape:connector-curvature="0"
         sodipodi:nodetypes="csssssscssscsssssssssssscsssssccssssssssssccssc" />
      <path
         id="path3923"
         d="m -36.892442,702.87047 c 51.2947,24.5956 53.6504,40.4607 74.4068,39.3702 7.8677,-0.4134 40.183903,-21.3367 30.766103,-26.6737 -15.2769,-8.6575 -31.840103,-17.4047 -41.343403,-17.7157 -67.756701,-2.217 -9.0345,-5.6835 -11.7526,-7.6184 -22.1169004,-15.745 30.4628,6.6041 57.715303,15.8227 -44.710503,-42.1606 -96.548403,-35.6573 -96.548403,-35.6573 13.9038996,-4.4709 24.6901996,-9.4244 57.1008,2.1794 4.703,1.6838 -28.9238004,-62.4388 15.5407,6.1507 5.407303,8.3411 19.674103,8.8571 31.866403,15.0536 15.5988,7.9279 -54.977403,-147.5493 -46.444603,-137.5284 11.0053,12.9248 26.317903,44.0117 43.755903,79.3848 3.507,7.114 22.696399,-94.4975 10.7983,21.7623 -1.4289,13.9621 2.8704,29.0462 9.4367,43.712 -1.0069,0.5875 -2.0921,1.1296 -3.0829,1.7308 -3.5665,2.1639 -7.0355,4.389 -10.3924,6.7213 1.2505,0.2187 2.194,0.2753 2.6962,0.1081 57.697599,-19.2065 128.214959,-45.2217 127.219859,-53.6574 -14.1981,-120.3575 7.42478,-14.9294 11.32031,-23.8913 44.04079,-101.3167 3.10904,16.2586 9.38433,12.6985 13.59561,-7.7129 25.0355,-19.0395 35.65247,-30.2025 5.06694,-5.3276 -9.76516,-120.0161 14.79198,-15.4505 1.70753,7.2709 10.49495,-10.0339 15.86424,-13.721 3.68881,-4.0105 -26.76849,-69.8359 -24.38043,-78.6813 11.27842,9.1314 18.33401,37.7847 27.3569,53.0629 3.88533,6.5788 65.80517,-125.199 12.47167,7.1387 -2.4819,6.1584 12.9362,5.0357 22.1132,4.3614 13.6838,-1.0055 31.3059,3.561 36.982,-6.3933 70.7133,-124.0105 9.978,-3.1361 14.5726,-4.9628 63.7034,-25.3252 77.3078,-82.1221 77.3078,-82.1221 -0.7308,14.5868 0.1188,26.4295 -22.1896,52.6484 -3.2371,3.8046 68.6084,-4.9748 -11.2686,12.3828 -9.7138,2.1108 -15.2063,15.2572 -25.3115,24.4731 -12.9287,11.7908 157.4584,0.733 145.0687,5.1741 -15.9799,5.728 -50.5071,9.0487 -89.7602,12.8614 -7.8944,0.7669 80.4106,54.6183 -24.1435,2.4041 -30.5093,-15.2363 -79.1548,-1.8503 -107.7393,4.7599 -5.7527,1.3302 81.1907,79.8853 -5.0625,14.0936 -11.2028,-8.5453 -24.33213,-2.3779 -32.79294,9.1605 -3.43228,4.6806 63.87614,-6.4087 -5.75109,18.5094 -15.49063,5.5438 -15.71822,12.0946 -9.24238,19.1517 3.78953,4.1295 80.93181,-14.6503 16.55349,12.8296 -13.18677,5.6288 27.78432,11.4977 31.40872,24.0787 -13.3751,-3.1925 -51.92298,-12.1261 -76.16763,-25.1283 -8.77047,-4.7037 -7.49919,3.0239 -17.42362,2.8635 -12.35545,-0.1998 18.24751,60.5158 -12.07481,19.2974 -1.0457,-1.4216 -8.0577,-1.0959 -17.74408,0.3065 -0.13514,2.3666 -0.34662,4.7334 -0.8015,7.0134 -6.08949,7.7122 -0.91221,90.0231 5.02557,92.2333 47.95526,17.8521 -18.83926,5.0509 -15.25781,16.8777 2.87673,9.4995 -4.91065,10.3996 2.01844,17.5432 19.15435,19.7479 38.34099,54.3647 45.08001,66.351 -13.09258,-0.034 -30.00595,-37.8297 -31.80147,-23.6047 -8.76529,69.447 -11.8669,-9.8576 -16.87763,-12.369 -8.5628,-4.2916 -14.7721,-2.2711 -15.8538,14.146 -4.862,73.7918 -12.6621,6.0175 -16.2215,10.6019 -8.7748,11.3015 -11.1048,25.5758 0.1858,34.0049 86.929,64.89599 -12.4937,2.8499 -12.1948,8.7468 0.8737,17.2423 1.539,41.7524 6.5103,64.18339 -1.1586,0.1289 -2.3553,0.3665 -3.5092,0.4749 -5.5179,0.5186 -10.9855,0.802 -16.3723,0.8542 -0.7255,0.01 -1.4283,-0.083 -2.151,-0.085 0.026,-0.2412 0.1013,-0.4367 0.1258,-0.6788 0.039,-0.3867 -0.7194,-0.024 -1.77,0.6388 -4.075,-0.045 -8.1158,-0.096 -12.0897,-0.4097 -0.12,-0.01 -0.228,-0.024 -0.3478,-0.033 4.9054,-5.0942 8.4297,-8.9007 14.9546,-15.5671 8.0154,-8.18889 -1.1699,-23.90149 -3.9568,-37.33619 -1.869,-9.0099 -5.0084,-24.0939 -10.2497,-20.0178 -112.6304024,87.59069 -2.9632,-8.1183 -10.3555,-10.0499 -17.167199,-4.4855 -46.616499,-3.4477 -58.491399,-11.7886 7.8509,-4.723 79.499199,6.517 82.343899,1.8695 2.0728,-6.1747 16.3042,-19.3565 8.8438,-19.004 -107.290802,5.0697 7.0747,-12.1506 10.8079,-18.4847 7.8223,-13.2718 15.5724,-27.375 19.2598,-42.5649 1.7021,-7.0112 -100.156899,64.6216 -14.8082,-5.5231 7.5495,-6.2045 -99.735399,1.9068 19.8998,-17.4563 6.6516,-1.0765 11.473,-48.3662 14.5433,-98.2271 -24.6393,4.7174 -55.3249,13.0158 -58.7931,17.8272 -10.404,5.348 -24.702,5.824 -28.3463,14.8241 -43.848299,108.2856 -35.889199,76.8235 -27.263399,44.0173 1.045,-3.9742 -46.027203,26.0015 3.0684,-11.7324 10.001,-7.6866 3.3027,-24.8913 1.6703,-23.9729 -14.5066,8.1624 -26.4546,15.7716 -37.656003,23.6997 -4.174,2.9543 -63.486,174.2872 -12.3094,9.0392 6.0633,-19.5786 -41.3634004,39.9075 -81.104801,65.2478 2.8664,-4.0725 39.9788006,-44.7951 39.9788006,-44.7951 -69.7465996,-20.8021 0.7006,-5.0326 3.471,-8.0812 5.27839996,-5.8085 14.9776,-12.2345 16.2205004,-13.7183 17.5107,-19.9634 -24.1815,-30.0979 -46.9599,-59.5431 z"
         style="fill:url(#radialGradient3995);fill-opacity:1;stroke:#484537;stroke-width:1px;stroke-linecap:butt;stroke-linejoin:miter;stroke-opacity:1"
         inkscape:connector-curvature="0"
         transform="matrix(0.49412794,0.46953385,-0.45673906,0.50103477,443.72605,296.78683)" />
      <path
         style="fill:#aca793;stroke:#000000;stroke-width:1px;stroke-linecap:butt;stroke-linejoin:miter;stroke-opacity:1"
         d="m 537.56371,641.28244 c -45.6134,33.9927 -44.877,50.0149 -65.4562,52.9326 -7.8006,1.106 -43.5347,-13.2185 -35.3178,-20.2656 13.3289,-11.4314 27.9028,-23.1979 37.1693,-25.329 66.0685,-15.1939 7.7743,-7.3134 10.07,-9.7346 18.6797,-19.7009 -28.6264,12.334 -53.6,26.6169 35.7771,-49.9653 87.8987,-53.5429 87.8987,-53.5429 -14.5039,-1.7163 -26.0409,-4.5051 -55.6182,13.1096 -4.2919,2.5561 16.3884,-66.8326 -14.0695,9.022 -3.7039,9.2246 -17.6058,12.4721 -28.3804,20.8957 -13.7849,10.7772 25.6043,-155.3632 19.1558,-143.8896 -8.3171,14.7984 -17.3716,48.2482 -27.6884,86.3126 -2.0749,7.6554 -40.4295,-88.3761 -6.4159,23.4316 4.0849,13.4274 2.7638,29.0565 -0.8624,44.7108 1.101,0.383 2.2701,0.7065 3.358,1.1061 3.9158,1.4384 7.7477,2.9556 11.4901,4.5994 -1.1852,0.4549 -2.1001,0.6917 -2.6252,0.6242 -60.3127,-7.7632 -134.51469,-19.7451 -135.15888,-28.2148 -9.19091,-120.843 -10.15487,-13.2248 -15.69968,-21.2712 -62.68643,-90.9675 0.0727,16.553 -6.76971,14.2649 -14.8242,-4.957 -28.22715,-13.8746 -40.79109,-22.7898 -5.99614,-4.2548 -13.47567,-119.6563 -17.48492,-12.3206 -0.27876,7.4635 -12.22725,-7.8306 -18.20493,-10.4174 -4.39062,-3.227 12.85208,-73.6779 8.80903,-81.8997 -9.31386,11.1282 -10.73279,40.6033 -16.65215,57.3304 -2.54893,7.2028 -88.633807,-110.2232 -10.86772,9.402 3.61889,5.5668 -11.72773,7.4273 -20.86329,8.5288 -13.62205,1.6423 -30.03845,9.5095 -37.52131,0.8312 -93.222207,-108.1139 -10.394657,-1.1606 -15.254587,-2.0705 -67.38238,-12.6139 -91.6458203,-65.7388 -91.6458203,-65.7388 3.51983,14.1746 4.96144,25.9599 31.8917003,47.4042 3.90776,3.1117 -68.28598,8.2997 13.43776,9.987 9.93837,0.2052 17.85433,12.0513 29.54195,19.154 14.95318,9.0871 -154.383919,30.9721 -141.3718,32.9501 16.78266,2.551 51.30464,-0.824 90.55897,-4.6241 7.89461,-0.7641 -68.41859,69.0501 24.15562,-2.2794 27.01341,-20.8142 77.324477,-17.024 106.646467,-16.0289 5.9011,0.2002 -64.329467,93.9963 7.676,12.8583 9.3523,-10.5384 23.42198,-7.0085 33.94204,2.6893 4.26762,3.934 -63.91741,5.9834 9.20019,17.0596 16.26715,2.4643 17.74913,8.8493 12.74982,17.0191 -2.9255,4.7807 -82.23873,1.1722 -13.7801,15.7711 14.02256,2.9903 -25.05759,16.6217 -26.19723,29.6646 12.51249,-5.7027 48.62576,-21.8762 69.92058,-39.2943 7.70333,-6.3012 7.94046,1.5267 17.64917,-0.5375 12.08688,-2.5699 -6.28055,62.8943 15.55749,16.6179 0.7531,-1.5959 7.69702,-2.6236 17.47239,-3.1083 0.58731,2.2964 1.24959,4.5786 2.13405,6.7287 7.45781,6.3985 18.19149,88.1706 12.78902,91.4805 -43.63187,26.7332 19.45867,1.3371 18.21627,13.6317 -0.998,9.8753 6.8173,9.2623 1.3898,17.6042 -15.0033,23.0601 -27.18151,60.7183 -31.49203,73.7761 12.84209,-2.549 22.17863,-42.89 26.67373,-29.275 21.945,66.4691 9.7519,-11.954 14.1868,-15.3813 7.5787,-5.8568 14.0605,-5.0669 18.2763,10.8365 18.9491,71.4829 13.5823,3.4725 17.9563,7.2877 10.7826,9.405 15.8118,22.9657 6.351,33.4071 -72.84086,80.38871 12.8085,0.3963 13.6481,6.2407 2.4554,17.089 6.5117,41.2703 5.9427,64.23851 1.1617,-0.096 2.3819,-0.093 3.5351,-0.2081 5.5147,-0.5513 10.9349,-1.3236 16.2314,-2.3074 0.7133,-0.1325 1.3856,-0.3563 2.0945,-0.4965 -0.071,-0.2318 -0.1832,-0.4091 -0.2538,-0.642 -0.1123,-0.3721 0.7014,-0.1618 1.8597,0.2869 3.9906,-0.8267 7.9461,-1.6538 11.7858,-2.7249 0.1159,-0.033 0.2192,-0.067 0.3351,-0.099 -5.7928,-4.0568 -9.9828,-7.1153 -17.6669,-12.40391 -9.4395,-6.4963 -3.4442,-23.6809 -3.2905,-37.4008 0.1031,-9.2011 0.2859,-24.6073 6.2127,-21.6141 127.361,64.31891 1.3482,-8.5364 8.2317,-11.8523 15.9856,-7.7004 45.0856,-12.34 55.1367,-22.807 -8.6121,-3.1267 -76.766,21.6698 -80.4506,17.6555 -3.2205,-5.6614 -19.7194,-15.8633 -12.3303,-16.9507 106.2659,-15.6388 -9.2774,-10.565 -14.158,-16.0639 -10.2265,-11.5216 -20.5419,-23.873 -27.0791,-38.0714 -3.0174,-6.5535 110.7068,44.1743 13.4711,-8.2653 -8.6008,-4.6385 98.2436,-17.291 -22.8829,-13.3077 -6.7345,0.2215 -20.5519,-45.2608 -33.14482,-93.6028 25.08652,-0.1045 56.79492,2.1436 61.12282,6.199 11.2377,3.2494 25.3608,0.9694 30.6664,9.1017 63.8364,97.8435 49.9807,68.4967 35.2126,37.959 -1.7891,-3.6993 50.1654,16.6738 -5.2654,-10.9242 -11.2915,-5.6219 -8.0236,-23.7931 -6.2452,-23.2053 15.8046,5.2231 28.992,10.3949 41.508,16.0232 4.6638,2.0973 95.7892,158.8424 13.8168,6.5058 -9.7121,-18.0489 48.2602,31.2167 92.1298,48.4494 -3.5954,-3.4459 -47.8405,-36.2794 -47.8405,-36.2794 64.4504,-33.8151 -1.6544,-4.8042 -4.9589,-7.2637 -6.2961,-4.6862 -17.0493,-9.1289 -18.5541,-10.3463 -21.0201,-16.2271 17.9482,-34.1832 34.6449,-67.4562 z"
         id="path3937"
         inkscape:connector-curvature="0"
         transform="matrix(-0.68265356,0.04561614,-0.05652215,-0.67303742,497.60396,1146.8711)" />
      <path
         transform="matrix(-0.68703654,0,0,0.67249656,457.35713,213.43689)"
         inkscape:connector-curvature="0"
         id="path4009"
         d="m 299.45256,991.01035 c 0.13436,-0.0339 0.13671,-0.29068 -0.009,-0.78374 -4.80944,-16.28004 -22.46978,-46.09279 -42.56318,-80.02789 -4.04106,-6.8249 91.50029,32.64324 -12.3644,-20.92941 -11.87483,-6.12491 -21.74914,-17.15743 -30.17203,-29.86272 4.80593,-17.95297 9.25371,-29.8158 12.64705,-29.91849 121.13657,-3.66671 13.70295,-9.55357 21.99403,-14.72541 93.73335,-58.46985 -16.56764,-0.67004 -13.96968,-7.40089 5.62834,-14.58264 15.14833,-27.56454 24.62763,-39.70854 4.52396,-5.79572 120.14656,-8.00116 13.10568,-16.90446 -7.44301,-0.61906 8.38037,-11.85717 11.23731,-17.71057 3.424,-4.23878 73.01462,16.20096 81.41231,12.53732 -10.69158,-9.81199 -40.0427,-12.58731 -56.48225,-19.26384 -7.07896,-2.87498 114.11186,-83.52717 -8.93749,-11.30114 -5.72614,3.36108 -6.87161,-12.02594 -7.55509,-21.20234 -1.019,-13.68289 -8.10024,-30.45382 0.91046,-37.53294 7.33522,-5.76288 11.33901,-9.07267 16.86427,-13.48684 -0.11765,-0.025 -0.22828,-0.0596 -0.34615,-0.0846 -3.89955,-0.82654 -7.91162,-1.39889 -11.94638,-1.97213 -1.12775,0.52103 -1.92442,0.79059 -1.83579,0.4122 0.0556,-0.23701 0.15371,-0.44077 0.21034,-0.67658 -0.7164,-0.0952 -1.39095,-0.26751 -2.1112,-0.35475 -3.3652,-0.4076 -6.76578,-0.70639 -10.2137,-0.93399 -3.36638,-3.31402 -5.83457,-6.8081 -5.81745,-10.98788 0.47701,-116.82553 -4.09319,-84.69356 -8.54842,-51.06613 -0.5397,4.0736 -32.75164,-41.49905 -1.62613,12.03085 6.34037,10.90421 -6.38698,24.27253 -7.54934,22.80375 -10.32928,-13.0527 -18.46101,-24.61497 -25.82063,-36.19775 -2.74238,-4.31616 7.32164,-185.35092 -7.96911,-13.03678 -1.81171,20.41564 -23.13897,-52.59574 -50.30693,-91.11088 1.10847,4.85505 19.96724,56.59713 19.96724,56.59713 -72.42639,-7.19216 -1.23288,4.92034 0.17496,8.79169 2.68219,7.37603 9.20623,17.01844 9.79378,18.86268 8.6353,25.11167 -33.78611,18.66667 -66.02708,37.27834 56.79001,-3.31347 64.99012,-17.09668 83.78382,-8.21854 7.12373,3.36528 29.12496,34.97778 18.38682,36.34599 -17.41857,2.21967 -36.07531,4.03472 -44.98722,0.71968 -63.53924,-23.63575 -10.48482,1.83634 -13.73358,2.59641 -33.69649,7.88385 68.56456,4.47411 74.39316,9.48593 5.52921,4.75416 11.19208,9.74998 16.86235,14.76846 0.69919,19.7977 -1.37475,39.77693 -2.54884,54.50098 -0.46928,5.88581 -90.96274,-68.55194 -13.19519,7.08131 10.10066,9.82347 5.91947,23.68871 -4.24826,33.75534 -4.12456,4.08375 -3.06026,-64.12382 -17.46163,8.41215 -3.20405,16.13775 -9.6216,17.31397 -17.55472,11.94705 -4.64229,-3.14071 2.56618,-82.16525 -15.14153,-14.44415 -3.62717,13.87139 -15.4737,-25.81849 -28.45099,-27.55214 5.12575,12.75969 19.64709,49.60179 36.07536,71.66938 5.94299,7.98277 -1.88745,7.8626 -0.26852,17.65531 2.0157,12.19166 -62.55493,-9.17277 -17.32332,14.75441 2.5307,1.33864 2.77443,18.88546 1.64329,38.34002 -0.52243,0.20467 -1.04268,0.43466 -1.56515,0.63387 -0.67807,0.25802 -1.34997,0.421 -2.02851,0.6698 1.08743,4.29285 1.94829,8.49846 2.60224,12.6009 -1.69575,19.1088 -4.5322,36.83894 -7.63899,39.86509 -1.29199,3.80762 -1.94423,7.90603 -2.58779,11.9484 2.74239,0.0261 5.47528,0.0817 8.23719,0.0395 -6.95422,28.70403 -21.37123,45.7487 -21.37123,45.7487 11.34272,-9.20059 21.37414,-15.50865 29.36906,-48.9926 1.16011,-4.85877 36.50356,58.31579 3.36315,-16.40581 -0.73799,-1.66292 -1.09431,-3.43319 -1.17562,-5.29499 2.26023,-10.97332 4.55527,-21.4681 6.81789,-31.00343 9.04418,-2.70416 85.82851,117.03251 88.97329,116.24016 z"
         style="fill:#aca793;stroke:#000000;stroke-width:1px;stroke-linecap:butt;stroke-linejoin:miter;stroke-opacity:1" />
      <path
         transform="matrix(-0.21638521,-0.65207105,0.63827105,-0.21180578,-159.38401,1057.3162)"
         inkscape:connector-curvature="0"
         id="path3998"
         d="m 166.24973,581.95504 c 0.63507,4.9394 14.4375,58.25 14.4375,58.25 -71.39516,-14.1436 -1.71545,4.7921 -0.6875,8.7812 1.95829,7.6004 7.53048,17.7951 7.9375,19.6876 6.17319,25.8275 -35.42683,15.3343 -69.3125,30.75 56.84485,2.179 66.30643,-10.743 84.15625,-0.094 6.76598,4.0367 25.63255,37.6426 14.8125,37.9688 -17.55143,0.5293 -36.32432,0.5342 -44.875,-3.625 -60.96349,-29.6534 -10.59935,0.8066 -13.90625,1.25 -34.29978,4.5971 67.80697,11.0745 73.125,16.625 5.37897,5.6139 10.872,11.5228 16.375,17.4374 -20.24853,-3.8792 -100.18993,-36.9418 -14.78125,10.2188 6.5382,3.6102 -12.4982,7.3904 -17.5,11.5625 -4.8586,2.4668 -59.99465,-44.657 -69.15625,-44.75 5.7411,13.3276 31.38745,27.8691 43.65625,40.6875 5.283,5.5197 -138.298566,29.5264 3.53125,13.9688 6.6001,-0.7241 1.34965,13.7847 -1.78125,22.4374 -4.6686,12.9022 -5.0691,31.1024 -16.1875,33.875 -9.05104,2.2573 -14.05857,3.6392 -20.90625,5.4063 0.0971,0.071 0.18391,0.1478 0.28125,0.2187 3.22002,2.3498 6.64672,4.5136 10.09375,6.6876 1.24222,-0.014 2.07944,0.066 1.84375,0.375 -0.14773,0.1934 -0.3206,0.3392 -0.46875,0.5312 0.61473,0.38 1.15974,0.8132 1.78125,1.1875 4.6148,2.7792 9.43526,5.3932 14.40625,7.8437 1.03948,0.5126 2.16452,0.9401 3.21875,1.4376 7.52366,-21.7084 19.83141,-42.9208 28.125,-58.0626 2.8364,-5.1785 54.9521,99.7691 14.9375,-1.0624 -5.1972,-13.0964 4.291,-24.0372 17.6875,-29.0626 5.4344,-2.0386 -23.4441,59.763 19.375,-0.5312 9.5264,-13.4142 15.86345,-11.8617 20.90625,-3.7188 2.9509,4.7653 -35.95975,73.9231 7.90625,19.375 8.9852,-11.173 3.5555,29.8897 14.6875,36.7813 0.5436,-13.74 2.36745,-53.2986 -3.59375,-80.1563 -2.1566,-9.7155 4.93925,-6.402 7.46875,-16 3.149,-11.9491 53.32615,33.9645 21.84375,-6.375 -3.8982,-4.9945 34.8341,-77.8115 44.0625,-81.1874 2.7368,-2.9458 5.00882,-6.4186 7.25,-9.8438 -3.40194,-1.5645 -6.76729,-3.1571 -10.3125,-4.5625 -0.68881,-0.2731 -1.431,-0.4831 -2.125,-0.75 -29.76585,42.5449 -60.60388,83.2269 -67.0625,80.5625 -29.88099,-12.327 -44.88126,-17.8244 -51.15625,-19.2812 5.66131,-66.0966 -0.85418,-39.1441 -7.4375,-10.8126 -0.93009,4.0027 -28.56785,-44.5009 -2.75,11.7813 5.25917,11.4648 -8.70347,23.574 -9.71875,22 -9.02231,-13.988 -16.01046,-26.2928 -22.21875,-38.5313 -2.31336,-4.5605 25.1817,-183.78617 -6.65625,-13.75 -3.77216,20.1458 -17.98569,-54.5756 -41.3125,-95.5312 z m 89.8125,128.4688 c 8.66618,6.7131 30.19149,19.4293 25.34375,20.0937 -11.84291,1.6231 -20.79531,2.9554 -27.625,4.0937 0.87405,-8.9537 1.66842,-17.2239 2.28125,-24.1874 z m -2.875,30.1874 c 16.97039,0.3441 40.21621,0.1167 37.9375,2.375 -8.56525,8.489 -18.83536,15.1493 -29.34375,21.0626 -5.20422,-5.281 -9.89245,-10.3565 -9.28125,-16.4063 0.25636,-2.5377 0.44945,-4.6329 0.6875,-7.0313 z"
         style="fill:#aca793;stroke:#000000;stroke-width:1px;stroke-linecap:butt;stroke-linejoin:miter;stroke-opacity:1" />
      <path
         transform="matrix(0.68703654,0,0,0.67249656,70.91541,233.63994)"
         inkscape:connector-curvature="0"
         id="path3986"
         d="m 299.20286,559.93296 c 9.8075,56.0348 24.4131,62.5932 17.75,82.2813 -2.5257,7.4628 -31.4087,32.9164 -34,22.4063 -4.2035,-17.0491 -8.11435,-35.3605 -5.84375,-44.5938 16.1893,-65.8316 -3.0597,-10.2036 -4.1875,-13.3438 -11.698,-32.5694 3.4349,68.6037 -0.875,74.9688 -3.91292,5.779 -8.1109,11.7372 -12.25,17.6875 -0.12889,-0.048 -0.23879,-0.145 -0.375,-0.1875 -0.11006,0.3874 -0.20611,0.796 -0.3125,1.1875 -0.24729,0.3561 -0.50336,0.7065 -0.74999,1.0625 l 0.46875,0 c -0.1517,0.5773 -0.29065,1.1681 -0.4375,1.75 -4.6204,-5.1246 -9.20702,-10.2481 -13.59375,-15.25 -5.06854,-5.7793 -2.66497,-108.0846 -10.21875,-74.3125 -0.72822,3.256 -26.72512,-49.5237 -2.46875,13.7813 3.4021,8.8789 1.76787,27.5605 -0.28125,45 -1.26301,10.7509 -33.09644,-10.9408 -36.53125,-18.0313 -9.06161,-18.7059 4.64866,-27.024 7.40625,-83.8437 -18.29543,32.4214 -11.43001,74.7641 -36.625,66.375 -1.84994,-0.5697 -11.53554,-7.0152 -18.9375,-9.625 -3.88492,-1.3697 -16.71308,-72.415 -8.8125,-0.063 0,0 -51.915639,-18.3765 -56.781259,-19.4374 38.778949,26.7898 111.990659,47.426 91.593759,49.4374 -172.15638384,16.9763 8.78237,5.1435 13.125,7.8438 11.65434,7.2458 23.28429,15.2677 36.4375,25.4688 1.48012,1.1478 -11.78426,13.9834 -22.75,7.75 -53.83191,-30.6002 -7.93188,1.1704 -12,1.75 -33.58223,4.784 -65.65906,9.6827 51.15625,8.0624 5.86713,-0.081 10.42933,4.6598 15.0625,10.0626 -2.03643,5.2396 -4.85752,9.272 -9.65625,10.4687 -138.51297,34.5419 -5.71765,8.7581 -8.71875,12.6875 -41.6091,54.481 -99.9375,52.2188 -99.9375,52.2188 14.24087,3.2409 25.4126,7.2616 56.6875,-7.125 4.5382,-2.0879 -23.3747,64.7378 14.9375,-7.4688 4.6591,-8.781 18.80095,-10.5448 30.40625,-17.7812 14.8478,-9.2584 -41.84495,151.7897 -34.21875,141.0624 9.83599,-13.8351 22.37025,-46.1783 36.65625,-82.9374 2.8732,-7.3931 30.80619,92.185 8.8125,-22.5938 -5.91005,-30.8424 15.44981,-69.3713 29.90624,-95.4375 0.3646,-0.1286 0.72435,-0.2366 1.125,-0.2813 116.10877,-12.9302 83.69775,-13.7762 49.78125,-14.3437 -4.1087,-0.069 37.4801,-37.2805 -12.125,-0.2187 -10.1047,7.5496 -24.85695,-3.5518 -23.53125,-4.875 11.78137,-11.7587 22.3381,-21.2038 33,-29.8438 3.973,-3.2195 184.96185,-13.9874 12.03125,-9.4062 -20.4887,0.5425 49.6065,-29.0298 84.75,-60.4376 -4.6958,1.6584 -53.96875,26.375 -53.96875,26.375 -1.1653,-72.7732 -5.0033,-0.6864 -8.6875,1.1563 -7.0196,3.5109 -15.82905,11.111 -17.59375,11.9063 -23.955,11.4594 -22.437,-31.42 -44.625,-61.3126 z"
         style="fill:#c8c4b7;fill-opacity:1;stroke:#000000;stroke-width:1px;stroke-linecap:butt;stroke-linejoin:miter;stroke-opacity:1" />
      <path
         transform="matrix(0.42690045,0.52691536,-0.53830774,0.41786581,562.67798,282.60378)"
         inkscape:connector-curvature="0"
         style="fill:#c8c4b7;fill-opacity:1;stroke:#000000;stroke-width:1px;stroke-linecap:butt;stroke-linejoin:miter;stroke-opacity:1"
         d="m 206.42161,902.69553 c -9.8075,-56.0348 -24.4131,-62.5932 -17.75,-82.2813 2.5257,-7.4628 31.4087,-32.9164 34,-22.4063 4.2035,17.0491 8.11435,35.3605 5.84375,44.5938 -16.1893,65.8316 3.0597,10.2036 4.1875,13.3438 11.698,32.5694 -3.4349,-68.6037 0.875,-74.9688 3.91293,-5.779 8.11091,-11.7372 12.25,-17.6875 0.12889,0.048 0.23879,0.145 0.375,0.1875 0.11006,-0.3874 0.20612,-0.796 0.3125,-1.1875 0.2473,-0.3561 0.50337,-0.7065 0.75,-1.0625 l -0.46875,0 c 0.1517,-0.5773 0.29065,-1.1681 0.4375,-1.75 4.6204,5.1246 9.20702,10.2481 13.59375,15.25 5.06854,5.7793 2.66497,108.0846 10.21875,74.3125 0.72822,-3.256 26.72512,49.5237 2.46875,-13.7813 -3.4021,-8.8789 -1.76787,-27.5605 0.28125,-45 1.26302,-10.7509 33.09644,10.9408 36.53125,18.0313 9.06161,18.7059 -4.64866,27.024 -7.40625,83.8437 18.29543,-32.4214 11.43001,-74.7641 36.625,-66.375 1.84994,0.5697 11.53554,7.0152 18.9375,9.625 3.88492,1.3697 16.71307,72.415 8.8125,0.063 0,0 51.91563,18.3765 56.78125,19.4374 -38.77895,-26.7898 -111.99065,-47.426 -91.59375,-49.4374 172.15637,-16.9763 -8.78237,-5.1435 -13.125,-7.8438 -11.65434,-7.2458 -23.28429,-15.2677 -36.4375,-25.4688 -1.48012,-1.1478 11.78426,-13.9834 22.75,-7.75 53.83191,30.6002 7.93188,-1.1704 12,-1.75 33.58223,-4.784 65.65905,-9.6827 -51.15625,-8.0624 -5.86713,0.081 -10.42933,-4.6598 -15.0625,-10.0626 2.03643,-5.2396 4.85753,-9.272 9.65625,-10.4687 138.51296,-34.5419 5.71765,-8.7581 8.71875,-12.6875 41.6091,-54.481 99.9375,-52.2188 99.9375,-52.2188 -14.24087,-3.2409 -25.4126,-7.2616 -56.6875,7.125 -4.5382,2.0879 23.3747,-64.7378 -14.9375,7.4688 -4.6591,8.781 -18.80095,10.5448 -30.40625,17.7812 -14.8478,9.2584 41.84495,-151.7897 34.21875,-141.0624 -9.83599,13.8351 -22.37025,46.1783 -36.65625,82.9374 -2.8732,7.3931 -30.8062,-92.185 -8.8125,22.5938 5.91006,30.8424 -15.44982,69.3713 -29.90625,95.4375 -0.36459,0.1286 -0.72434,0.2366 -1.125,0.2813 -116.10877,12.9302 -83.69775,13.7762 -49.78125,14.3437 4.1087,0.069 -37.4801,37.2805 12.125,0.2187 10.1047,-7.5496 24.85695,3.5518 23.53125,4.875 -11.78137,11.7587 -22.3381,21.2038 -33,29.8438 -3.973,3.2195 -184.9618528,13.9874 -12.03125,9.4062 20.4887,-0.5425 -49.6065,29.0298 -84.750002,60.4376 4.6958,-1.6584 53.968752,-26.375 53.968752,-26.375 1.1653,72.7732 5.0033,0.6864 8.6875,-1.1563 7.0196,-3.5109 15.82905,-11.111 17.59375,-11.9063 23.955,-11.4594 22.437,31.42 44.625,61.3126 z"
         id="path4020" />
    </g>
  </g>
</svg>
