<?xml version="1.0" encoding="UTF-8" standalone="no"?>
<!-- Created with Inkscape (http://www.inkscape.org/) -->

<svg
   xmlns:dc="http://purl.org/dc/elements/1.1/"
   xmlns:cc="http://creativecommons.org/ns#"
   xmlns:rdf="http://www.w3.org/1999/02/22-rdf-syntax-ns#"
   xmlns:svg="http://www.w3.org/2000/svg"
   xmlns="http://www.w3.org/2000/svg"
   xmlns:xlink="http://www.w3.org/1999/xlink"
   xmlns:sodipodi="http://sodipodi.sourceforge.net/DTD/sodipodi-0.dtd"
   xmlns:inkscape="http://www.inkscape.org/namespaces/inkscape"
   width="2048"
   height="2048"
   id="svg2"
   version="1.1"
   inkscape:version="0.48.5 r10040"
   sodipodi:docname="autumn_tree_MRV.svg"
   inkscape:export-filename="/home/quintus/repos/privat/projekte/c++/SMC/smc/data/pixmaps/ground/jungle_1/tree/3.png"
   inkscape:export-xdpi="90"
   inkscape:export-ydpi="90">
  <defs
     id="defs4">
    <linearGradient
       inkscape:collect="always"
       id="linearGradient3865">
      <stop
         style="stop-color:#000000;stop-opacity:1;"
         offset="0"
         id="stop3867" />
      <stop
         style="stop-color:#000000;stop-opacity:0;"
         offset="1"
         id="stop3869" />
    </linearGradient>
    <linearGradient
       inkscape:collect="always"
       id="linearGradient3831">
      <stop
         style="stop-color:#000000;stop-opacity:1"
         offset="0"
         id="stop3833" />
      <stop
         style="stop-color:#6f3c00;stop-opacity:0;"
         offset="1"
         id="stop3835" />
    </linearGradient>
    <linearGradient
       inkscape:collect="always"
       id="linearGradient3741">
      <stop
         style="stop-color:#000000;stop-opacity:1;"
         offset="0"
         id="stop3743" />
      <stop
         style="stop-color:#000000;stop-opacity:0;"
         offset="1"
         id="stop3745" />
    </linearGradient>
    <linearGradient
       inkscape:collect="always"
       id="linearGradient3687">
      <stop
         style="stop-color:#000000;stop-opacity:1;"
         offset="0"
         id="stop3689" />
      <stop
         style="stop-color:#000000;stop-opacity:0;"
         offset="1"
         id="stop3691" />
    </linearGradient>
    <linearGradient
       inkscape:collect="always"
       id="linearGradient3677">
      <stop
         style="stop-color:#000000;stop-opacity:1;"
         offset="0"
         id="stop3679" />
      <stop
         style="stop-color:#000000;stop-opacity:0;"
         offset="1"
         id="stop3681" />
    </linearGradient>
    <linearGradient
       inkscape:collect="always"
       id="linearGradient3667">
      <stop
         style="stop-color:#000000;stop-opacity:1;"
         offset="0"
         id="stop3669" />
      <stop
         style="stop-color:#000000;stop-opacity:0;"
         offset="1"
         id="stop3671" />
    </linearGradient>
    <inkscape:perspective
       sodipodi:type="inkscape:persp3d"
       inkscape:vp_x="0 : 526.18109 : 1"
       inkscape:vp_y="0 : 1000 : 0"
       inkscape:vp_z="744.09448 : 526.18109 : 1"
       inkscape:persp3d-origin="372.04724 : 350.78739 : 1"
       id="perspective10" />
    <filter
       id="filter3592"
       inkscape:label="trunck"
       inkscape:menu="ABCs"
       inkscape:menu-tooltip="Basic diffuse bevel to use for building textures"
       color-interpolation-filters="sRGB">
      <feGaussianBlur
         id="feGaussianBlur3594"
         stdDeviation="37.700000000000003"
         in="SourceGraphic"
         result="result0" />
      <feDiffuseLighting
         id="feDiffuseLighting3596"
         diffuseConstant="1"
         surfaceScale="25"
         result="result5">
        <feDistantLight
           id="feDistantLight3598"
           elevation="25"
           azimuth="235" />
      </feDiffuseLighting>
      <feComposite
         id="feComposite3600"
         in2="SourceGraphic"
         k1="1.3"
         in="result5"
         result="result4"
         operator="arithmetic"
         k2="0"
         k3="0.6"
         k4="0" />
    </filter>
    <filter
       id="filter3664"
       inkscape:label="leaves"
       color-interpolation-filters="sRGB">
      <feTurbulence
         id="feTurbulence3666"
         baseFrequency="0.05321100917431193"
         numOctaves="1"
         seed="201" />
      <feColorMatrix
         id="feColorMatrix3672"
         values="1 1 0 2 0 0.4 0 0 0.8 0 0 0 0 0 0 0 0 0 0.9 0 " />
    </filter>
    <clipPath
       clipPathUnits="userSpaceOnUse"
       id="clipPath3668">
      <path
         id="path3670"
         d="m 2279.9667,68.922841 c -73.7792,-13.76104 -138.399,-1.65588 -210.3249,3.13918 -19.988,1.33253 -75.8639,-9.06848 -94.1754,3.13918 -22.2215,14.81436 -39.1023,21.5475 -65.9227,28.252609 -34.8838,8.72093 -44.0749,51.96211 -69.062,56.50521 -57.3845,10.43355 -120.9377,3.13918 -178.9331,3.13918 -0.277,0 -81.0537,5.8765 -103.5929,-3.13918 -39.1131,-15.64523 -138.8446,-116.666064 -144.4022,-156.9589238 -6.3124,-45.7643102 -8.172,-92.9800072 -15.6959,-138.1238562 -9.8286,-58.97118 -67.6783,-97.22517 -87.897,-144.40221 -10.6207,-24.78156 -2.6252,-49.76779 -6.2784,-75.34028 -1.0915,-7.64071 -18.3919,-49.32194 -15.6959,-53.36604 13.6036,-20.4054 41.5228,-30.25033 56.5052,-50.22685 22.4002,-29.86689 33.3102,-64.0915 53.3661,-94.17536 2.3081,-3.46224 64.8936,-32.44683 69.0619,-34.53096 55.2786,-27.63929 95.9878,-79.38569 150.6806,-106.73207 5.6155,-2.80776 12.5726,0.44732 18.835,0 25.1365,-1.79546 50.3059,-3.38977 75.3403,-6.27836 53.7217,-6.19865 107.6568,-13.23402 160.0981,-21.97424 12.9714,-2.1619 25.1068,-9.51104 37.6702,-12.55672 48.1387,-11.66999 82.8796,-10.36329 119.2887,-37.67014 6.2389,-4.67914 4.5311,-10.80937 9.4176,-15.69589 32.4361,-32.43616 91.5827,-69.98335 138.1238,-81.61864 49.9051,-12.47626 96.864,39.62683 144.4022,43.94849 174.1046,15.82769 286.3819,12.67495 452.0418,65.92275 8.5937,2.76229 107.3927,146.82002 113.0104,160.09811 11.6752,27.59598 11.7755,58.77635 18.835,87.89699 0.4315,10.89071 10.0573,18.25454 12.5568,28.25261 4.5116,18.04651 0.7808,33.74063 12.5567,50.22686 23.8981,33.45738 53.5913,60.09497 72.2011,97.31453 12.9629,25.92567 -26.8356,61.97709 -31.3918,84.75782 -3.5414,17.70701 5.6023,60.48949 -6.2783,75.34028 -15.6332,19.5415 -167.8746,80.025232 -200.9075,91.036177 -37.7829,12.594321 -79.3902,15.637762 -116.1496,31.391786 -17.4717,7.487886 -34.8812,26.770582 -53.366,31.391784 -40.6631,10.165773 -90.8131,17.6895242 -128.7063,34.530964 -35.7144,15.873033 -134.4276,70.54043 -185.2116,56.50521 z"
         style="fill:#a84e00;fill-opacity:1;stroke:#000000;stroke-width:1px;stroke-linecap:butt;stroke-linejoin:miter;stroke-opacity:1" />
    </clipPath>
    <filter
       id="filter3680"
       inkscape:label="bark"
       color-interpolation-filters="sRGB">
      <feTurbulence
         id="feTurbulence3682"
         baseFrequency="0.29908256880733947 0.0055045871559633031" />
      <feColorMatrix
         id="feColorMatrix3684"
         values="0 0 0 1 0 0 0 0 0.5 0 0 0 0 0.5 0 0 0 0 2 0 "
         type="luminanceToAlpha" />
    </filter>
    <clipPath
       clipPathUnits="userSpaceOnUse"
       id="clipPath3686">
      <path
         sodipodi:nodetypes="cccccccccccc"
         id="path3688"
         d="m -756.52334,1136.9988 c 29.25771,-1.7335 65.46757,-12.5987 79.21991,-38.7214 11.29674,-13.6723 2.81841,-39.415 14.88742,-52.6196 7.45628,-22.5286 -6.90916,-47.20159 4.43203,-68.99574 5.92277,-23.38757 -9.85778,-46.18074 -4.06154,-69.57488 -0.73624,-35.13005 -8.66433,-70.86208 0.16283,-105.58939 -0.34307,-22.71555 -23.42307,-39.20784 -45.00678,-37.81259 -23.25088,-2.14569 -49.8745,-1.68759 -68.55405,14.13282 -16.80258,20.19043 -11.43811,48.12275 -10.63061,72.23404 3.34597,41.36092 17.26051,81.4414 17.29812,123.10408 -2.75622,33.32066 -7.66525,67.52986 1.80776,100.27746 3.50338,21.1848 6.79496,42.4047 10.44491,63.5652 z"
         style="fill:#755b23;fill-opacity:1;stroke:#000000;stroke-width:1px;stroke-linecap:butt;stroke-linejoin:miter;stroke-opacity:1" />
    </clipPath>
    <clipPath
       clipPathUnits="userSpaceOnUse"
       id="clipPath3694">
      <path
         sodipodi:nodetypes="cccccccccsccccscccc"
         id="path3696"
         d="m -1002.0817,1528.1071 c 24.88405,-16.0004 38.95935,-25.9076 72.20115,-28.2527 34.31226,0 31.95021,22.5328 40.80932,31.3919 41.97406,10.9386 8.58455,-51.3222 47.08767,-43.9486 42.22962,-12.8162 49.2659,50.4508 72.20111,47.0878 16.43861,-5.4796 4.43752,-32.041 28.2526,-43.9486 -0.18345,-38.6288 43.65477,36.2468 65.92275,40.8094 19.31137,0 1.31825,-34.531 31.39178,-34.531 33.06223,0.2322 43.04917,66.3477 87.897,25.1134 9.38421,-18.7684 -26.84711,-36.8425 -34.53096,-47.0877 -13.66003,-18.2134 -34.52381,-43.9413 -50.22686,-59.6444 -33.0284,-93.688 -52.6633,-186.9766 -43.9485,-291.9436 25.05688,-74.6906 7.54134,-148.37493 12.55672,-222.88165 14.91939,-76.20384 -18.50139,-122.25424 -6.27836,-188.3507 38.33499,-165.0068 -113.50916,-201.94758 -186.15504,-126.35132 -28.48084,29.63753 4.48486,90.82661 13.50024,142.04721 -23.86642,132.86534 9.28337,226.30376 -9.41755,335.89206 -25.6752,253.7554 -64.74887,247.6332 -109.87122,370.4231 -0.5635,21.2215 -57.50165,89.5795 -31.39185,94.1754 z"
         style="fill:#755b23;fill-opacity:1;stroke:#000000;stroke-width:2;stroke-linecap:butt;stroke-linejoin:miter;stroke-miterlimit:4;stroke-opacity:1;stroke-dasharray:none" />
    </clipPath>
    <clipPath
       clipPathUnits="userSpaceOnUse"
       id="clipPath3744">
      <path
         style="fill:#755b23;fill-opacity:1;stroke:#000000;stroke-width:1.62550724;stroke-linecap:butt;stroke-linejoin:miter;stroke-miterlimit:4;stroke-opacity:1;stroke-dasharray:none"
         d="m -1606.0964,1490.8439 c -10.0905,0.8807 -45.9752,13.4275 -51.5755,0.621 -4.5304,-58.8062 7.3991,-123.6737 25.8571,-167.2092 17.4943,-12.7987 16.2842,-56.473 29.0488,-73.1146 9.1734,15.6412 -12.2942,104.9245 -6.8822,132.2751 -12.1369,35.0834 37.4463,99.2962 3.5518,107.4277 z"
         id="path3746"
         sodipodi:nodetypes="cccccc" />
    </clipPath>
    <clipPath
       clipPathUnits="userSpaceOnUse"
       id="clipPath3748">
      <path
         sodipodi:nodetypes="ccccccccccccc"
         id="path3750"
         d="m -1050.9071,1545.7366 c 12.2754,7.1848 -8.3504,8.5636 -6.5368,-1.4161 -25.0476,-10.0838 -33.6642,11.6239 -60.8104,-72.2581 -5.392,-21.5727 -3.2084,-35.2185 -3.9209,-56.7765 8.0223,-59.1398 11.7441,-119.0569 7.3786,-178.6571 -0.685,-19.9686 15.7234,-33.5773 33.2073,-38.9262 14.7266,-3.5113 22.0161,-21.6951 35.0458,-24.0307 13.6014,7.0616 8.4564,26.0671 14.0866,38.1053 3.3533,20.7718 -7.45,41.1206 -2.8377,61.9205 4.2981,30.901 14.0499,62.0896 7.2601,93.4224 -4.3736,17.7521 4.2227,34.4552 3.4767,51.9617 -1.5998,36.2005 -12.5974,71.1105 -21.0464,106.1198 -1.7908,6.839 -3.5748,13.6798 -5.3029,20.535 z"
         style="fill:#755b23;fill-opacity:1;stroke:#000000;stroke-width:1px;stroke-linecap:butt;stroke-linejoin:miter;stroke-opacity:1" />
    </clipPath>
    <clipPath
       clipPathUnits="userSpaceOnUse"
       id="clipPath3752">
      <path
         sodipodi:nodetypes="cccccc"
         id="path3754"
         d="m -593.92448,1457.1955 c 13.07176,6.9126 58.54604,41.9618 67.23057,31.0174 12.23464,-62.7128 3.64374,-141.8427 -15.75955,-201.096 -21.45091,-24.5156 -15.17568,-72.3581 -30.04182,-98.3648 -13.65168,11.9948 4.75954,123.877 -5.24319,151.1012 12.06419,46.14 -59.53814,88.3719 -16.18601,117.3422 z"
         style="fill:#755b23;fill-opacity:1;stroke:#000000;stroke-width:2;stroke-linecap:butt;stroke-linejoin:miter;stroke-miterlimit:4;stroke-opacity:1;stroke-dasharray:none" />
    </clipPath>
    <filter
       id="filter2864"
       inkscape:label="Blur content"
       inkscape:menu="Blurs"
       inkscape:menu-tooltip="Blur the contents of objects, preserving the outline"
       color-interpolation-filters="sRGB">
      <feColorMatrix
         id="feColorMatrix2866"
         values="1 0 0 0 0 0 1 0 0 0 0 0 1 0 0 0 0 0 1 0 "
         result="result7" />
      <feGaussianBlur
         id="feGaussianBlur2868"
         result="result6"
         stdDeviation="5" />
      <feComposite
         id="feComposite2870"
         in2="result7"
         operator="atop"
         in="result6"
         result="result91" />
      <feComposite
         id="feComposite2872"
         in2="result91"
         operator="in" />
    </filter>
    <filter
       id="filter2876"
       inkscape:label="Leaves"
       inkscape:menu="Scatter"
       inkscape:menu-tooltip="Leaves on the ground in Fall, or living foliage"
       color-interpolation-filters="sRGB">
      <feTurbulence
         id="feTurbulence2878"
         baseFrequency="0.09"
         numOctaves="5"
         type="fractalNoise"
         result="result6" />
      <feColorMatrix
         id="feColorMatrix2880"
         values="1 0 0 0 0 0 1 0 0 0 0 0 1 0 0 0 0 0 4.9 -2.9 "
         result="result5"
         in="result6" />
      <feComposite
         id="feComposite2882"
         in2="result5"
         operator="in"
         in="SourceGraphic" />
      <feMorphology
         id="feMorphology2884"
         result="result3"
         radius="6"
         operator="dilate" />
      <feTurbulence
         id="feTurbulence2886"
         baseFrequency="0.2"
         numOctaves="1"
         type="fractalNoise"
         result="result91" />
      <feDisplacementMap
         id="feDisplacementMap2888"
         in2="result91"
         result="result4"
         scale="15"
         yChannelSelector="G"
         xChannelSelector="R"
         in="result3" />
      <feComposite
         id="feComposite2890"
         in2="result4"
         operator="arithmetic"
         result="result2"
         k1="0.5"
         k3="1"
         k2="0"
         k4="0" />
      <feConvolveMatrix
         id="feConvolveMatrix2892"
         order="3 3"
         kernelMatrix="1 0 0 0 2 0 0 0 -1 "
         targetX="0"
         targetY="0"
         divisor="1.5"
         edgeMode="duplicate"
         in="result2" />
    </filter>
    <linearGradient
       inkscape:collect="always"
       xlink:href="#linearGradient3667"
       id="linearGradient3673"
       x1="747.52655"
       y1="1022.6331"
       x2="878.48029"
       y2="1124.0604"
       gradientUnits="userSpaceOnUse" />
    <linearGradient
       inkscape:collect="always"
       xlink:href="#linearGradient3677"
       id="linearGradient3683"
       x1="1273.6807"
       y1="943.39294"
       x2="1255.6631"
       y2="1076.5164"
       gradientUnits="userSpaceOnUse" />
    <linearGradient
       inkscape:collect="always"
       xlink:href="#linearGradient3687"
       id="linearGradient3693"
       x1="1039.6301"
       y1="989.35236"
       x2="1068.1565"
       y2="1122.4757"
       gradientUnits="userSpaceOnUse" />
    <filter
       id="filter3697"
       inkscape:label="inside tree"
       inkscape:menu="ABCs"
       inkscape:menu-tooltip="Basic diffuse bevel to use for building textures"
       color-interpolation-filters="sRGB">
      <feGaussianBlur
         id="feGaussianBlur3699"
         stdDeviation="16.15188340807175"
         in="SourceGraphic"
         result="result0" />
      <feDiffuseLighting
         id="feDiffuseLighting3701"
         diffuseConstant="1"
         surfaceScale="160.71428571428578"
         result="result5">
        <feDistantLight
           id="feDistantLight3703"
           elevation="16"
           azimuth="32" />
      </feDiffuseLighting>
      <feComposite
         id="feComposite3705"
         in2="SourceGraphic"
         k1="0.80000000000000004"
         in="result5"
         result="result4"
         operator="arithmetic"
         k2="-0.10000000000000001"
         k3="0.6" />
    </filter>
    <clipPath
       clipPathUnits="userSpaceOnUse"
       id="clipPath3711">
      <path
         sodipodi:nodetypes="csssssss"
         id="path3713"
         d="m 2460.2447,51.66594 c -43.6398,13.85594 -108.3492,51.82681 -97.2935,95.53388 10.1268,40.03443 99.1339,0.85248 120.4587,36.3938 15.2208,25.36815 -35.942,62.46307 -18.5322,86.43542 28.9163,39.81591 102.5577,37.63718 148.2569,18.1969 38.5485,-16.39844 74.0281,-58.83241 74.1283,-100.08309 0.1136,-46.71417 -42.9191,-89.18081 -83.3944,-113.73078 -41.2567,-25.02397 -97.4827,-37.39619 -143.6238,-22.74613 z"
         style="fill:#843d00;fill-opacity:1;stroke:#000000;stroke-width:1.44842601;stroke-linecap:butt;stroke-linejoin:miter;stroke-miterlimit:4;stroke-opacity:1;stroke-dasharray:none;filter:url(#filter3697)" />
    </clipPath>
    <clipPath
       clipPathUnits="userSpaceOnUse"
       id="clipPath3731">
      <path
         sodipodi:nodetypes="ccccc"
         id="path3733"
         d="m 1494.3032,-54.495732 253.6488,16.27942 -45.8605,-33.341179 -155.9253,-11.11373 -51.863,28.175489 z"
         style="fill:#79582a;fill-opacity:1;stroke:#000000;stroke-width:0.91953516px;stroke-linecap:butt;stroke-linejoin:miter;stroke-opacity:1;filter:url(#filter3592)"
         transform="matrix(-0.10270775,-0.99471158,0.99471158,-0.10270775,1826.4495,1448.9175)" />
    </clipPath>
    <clipPath
       clipPathUnits="userSpaceOnUse"
       id="clipPath3735">
      <path
         sodipodi:nodetypes="cccc"
         id="path3737"
         d="m 1564.0747,-345.70811 110.9361,-129.95376 c -10.3441,47.12639 -33.172,94.35014 -28.5264,148.97138 -50.5585,2.07428 -63.1361,-13.27068 -82.4097,-19.01762 z"
         style="fill:#674c24;fill-opacity:1;stroke:#000000;stroke-width:1px;stroke-linecap:butt;stroke-linejoin:miter;stroke-opacity:1;filter:url(#filter3592)"
         transform="matrix(0.9712781,-0.23794716,0.23794716,0.9712781,148.08674,376.93129)" />
    </clipPath>
    <linearGradient
       inkscape:collect="always"
       xlink:href="#linearGradient3741"
       id="linearGradient3747"
       x1="2662.4673"
       y1="558.28613"
       x2="2770.2339"
       y2="688.23993"
       gradientUnits="userSpaceOnUse"
       gradientTransform="translate(-2174.1757,-1009.4923)" />
    <clipPath
       clipPathUnits="userSpaceOnUse"
       id="clipPath3769">
      <path
         sodipodi:nodetypes="cccccc"
         id="path3771"
         d="m 2223.1536,-315.20628 c -50.0183,-25.54862 -120.6418,31.58979 -147.9224,80.68495 -25.4424,45.78714 -21.9775,114.62224 8.965,156.88738 19.8347,27.09271 61.0824,41.78624 94.1325,35.85998 31.2677,-5.60665 60.4552,-33.05293 71.7199,-62.75496 25.1048,-66.19501 36.1523,-178.47374 -26.895,-210.67735 z"
         style="fill:#874900;fill-opacity:1;stroke:#000000;stroke-width:2;stroke-linecap:butt;stroke-linejoin:miter;stroke-miterlimit:4;stroke-opacity:1;stroke-dasharray:none;filter:url(#filter3697)" />
    </clipPath>
    <clipPath
       clipPathUnits="userSpaceOnUse"
       id="clipPath3799">
      <path
         sodipodi:nodetypes="cccc"
         id="path3801"
         d="m 2581.6375,173.66578 -17.93,-143.439893 76.2024,116.544913 c -16.2092,12.17993 -25.4764,31.30184 -58.2724,26.89498 z"
         style="fill:#534225;fill-opacity:1;stroke:#000000;stroke-width:1px;stroke-linecap:butt;stroke-linejoin:miter;stroke-opacity:1;filter:url(#filter3592)"
         transform="matrix(0.96218847,0.27238458,-0.27238458,0.96218847,125.89718,-704.51892)" />
    </clipPath>
    <clipPath
       clipPathUnits="userSpaceOnUse"
       id="clipPath3807">
      <path
         sodipodi:nodetypes="cccc"
         id="path3809"
         d="m 2680.2524,-121.37128 -85.1674,-49.30746 80.6849,0 c 3.867,15.55712 6.0664,28.29943 4.4825,49.30746 z"
         style="fill:#534225;fill-opacity:1;stroke:#000000;stroke-width:1px;stroke-linecap:butt;stroke-linejoin:miter;stroke-opacity:1;filter:url(#filter3592)"
         transform="matrix(0.07158461,0.99743453,-0.99743453,0.07158461,3066.4031,-1871.18)" />
    </clipPath>
    <clipPath
       clipPathUnits="userSpaceOnUse"
       id="clipPath3811">
      <path
         sodipodi:nodetypes="cccc"
         id="path3813"
         d="m 2499.9581,-397.22012 71.72,-49.30746 -53.79,-44.82497 c -5.9767,30.43143 -11.9533,58.223 -17.93,94.13243 z"
         style="fill:#534225;fill-opacity:1;stroke:#000000;stroke-width:1px;stroke-linecap:butt;stroke-linejoin:miter;stroke-opacity:1;filter:url(#filter3592)"
         transform="matrix(-0.14524809,-0.98939526,0.98939526,-0.14524809,3369.7568,1969.3633)" />
    </clipPath>
    <linearGradient
       inkscape:collect="always"
       xlink:href="#linearGradient3831"
       id="linearGradient3837"
       x1="2928.7139"
       y1="637.52631"
       x2="3026.9717"
       y2="786.49768"
       gradientUnits="userSpaceOnUse"
       gradientTransform="translate(-3016.8851,-1260.5121)" />
    <clipPath
       clipPathUnits="userSpaceOnUse"
       id="clipPath3851">
      <path
         sodipodi:nodetypes="ccccc"
         id="path3853"
         d="m 2415.7586,-64.799404 c 8.0748,52.56748 105.2711,19.00472 158.4542,18.68524 64.3586,-0.38661 187.2863,39.3103 191.4653,-24.91368 4.731,-72.706966 -138.6528,-61.982516 -211.2721,-56.055946 -50.4971,4.12114 -146.3397,12.20678 -138.6474,62.284386 z"
         style="fill:#875400;fill-opacity:1;stroke:#000000;stroke-width:0.71529561px;stroke-linecap:butt;stroke-linejoin:miter;stroke-opacity:1;filter:url(#filter3697)" />
    </clipPath>
    <linearGradient
       inkscape:collect="always"
       xlink:href="#linearGradient3865"
       id="linearGradient3871"
       x1="3384.7905"
       y1="1474.4911"
       x2="3420.5027"
       y2="1556.9009"
       gradientUnits="userSpaceOnUse"
       gradientTransform="translate(-3605.9489,-1583.2518)" />
    <filter
       id="filter3140"
       inkscape:label="tree lighing"
       inkscape:menu="ABCs"
       inkscape:menu-tooltip="Basic diffuse bevel to use for building textures"
       color-interpolation-filters="sRGB">
      <feGaussianBlur
         id="feGaussianBlur3142"
         stdDeviation="91.929058295964126"
         in="SourceGraphic"
         result="result0" />
      <feDiffuseLighting
         id="feDiffuseLighting3144"
         diffuseConstant="1"
         surfaceScale="98.214285714285779"
         result="result5">
        <feDistantLight
           id="feDistantLight3146"
           elevation="25"
           azimuth="235" />
      </feDiffuseLighting>
      <feComposite
         id="feComposite3148"
         in2="SourceGraphic"
         k1="0.90000000000000002"
         in="result5"
         result="result4"
         operator="arithmetic"
         k2="2.7755575615628914e-017"
         k3="0.69999999999999996"
         k4="0" />
      <feGaussianBlur
         stdDeviation="10.513151260504202"
         id="feGaussianBlur3150" />
    </filter>
    <clipPath
       clipPathUnits="userSpaceOnUse"
       id="clipPath3160">
      <path
         id="path3162"
         d="m 2734.7082,113.74781 c -109.5977,-9.49512 -220.1201,-3.18828 -328.8268,12.66721 -76.3264,74.06353 -183.0516,95.13247 -284.6954,86.45436 -131.451,14.35504 -258.505,-95.99687 -261.1247,-228.620486 16.6604,-110.199874 -87.8505,-170.850954 -106.365,-269.761594 -23.3695,-109.20178 79.7364,-188.27815 151.9412,-251.91786 89.0609,-67.7675 185.0437,-133.53303 303.7494,-124.38443 99.9616,-17.88113 218.2873,-15.22123 295.655,-90.51961 72.6841,-93.07153 199.6051,-71.24759 291.3514,-25.97303 104.1919,12.52193 210.1982,7.76063 313.1187,32.41887 112.9473,0.90644 179.0133,90.74953 224.2315,184.1424 16.1291,108.93593 82.8573,196.05541 116.9582,297.64912 -10.6013,79.30306 -44.5698,170.605768 -133.2814,190.595344 -141.6927,39.546457 -278.6743,93.778442 -417.7057,141.75047 -54.1212,16.670808 -106.1734,55.575826 -165.0064,45.499236 z"
         style="fill:#a84e00;fill-opacity:1;stroke:#000000;stroke-width:1px;stroke-linecap:butt;stroke-linejoin:miter;stroke-opacity:1;filter:url(#filter3140)" />
    </clipPath>
    <linearGradient
       inkscape:collect="always"
       xlink:href="#linearGradient3667"
       id="linearGradient3113"
       gradientUnits="userSpaceOnUse"
       x1="747.52655"
       y1="1022.6331"
       x2="878.48029"
       y2="1124.0604" />
    <linearGradient
       inkscape:collect="always"
       xlink:href="#linearGradient3687"
       id="linearGradient3115"
       gradientUnits="userSpaceOnUse"
       x1="1039.6301"
       y1="989.35236"
       x2="1068.1565"
       y2="1122.4757" />
    <linearGradient
       inkscape:collect="always"
       xlink:href="#linearGradient3677"
       id="linearGradient3117"
       gradientUnits="userSpaceOnUse"
       x1="1273.6807"
       y1="943.39294"
       x2="1255.6631"
       y2="1076.5164" />
  </defs>
  <sodipodi:namedview
     id="base"
     pagecolor="#aa4400"
     bordercolor="#666666"
     borderopacity="1.0"
     inkscape:pageopacity="0"
     inkscape:pageshadow="2"
     inkscape:zoom="0.20217527"
     inkscape:cx="261.4206"
     inkscape:cy="1324.7855"
     inkscape:document-units="px"
     inkscape:current-layer="layer1"
     showgrid="false"
     showguides="true"
     inkscape:guide-bbox="true"
     inkscape:window-width="1916"
     inkscape:window-height="1037"
     inkscape:window-x="0"
     inkscape:window-y="20"
     inkscape:window-maximized="0"
     inkscape:snap-to-guides="false"
     inkscape:snap-grids="false"
     inkscape:snap-nodes="false"
     inkscape:snap-global="false" />
  <metadata
     id="metadata7">
    <rdf:RDF>
      <cc:Work
         rdf:about="">
        <dc:format>image/svg+xml</dc:format>
        <dc:type
           rdf:resource="http://purl.org/dc/dcmitype/StillImage" />
        <dc:title />
      </cc:Work>
    </rdf:RDF>
  </metadata>
  <g
     inkscape:label="Layer 1"
     inkscape:groupmode="layer"
     id="layer1"
     transform="translate(784.60173,919.84232)">
    <g
       id="g3092"
       transform="translate(0,96.000004)">
      <path
         sodipodi:nodetypes="cccccccccsccccscccc"
         id="path2818"
         d="m 50.226855,1020.9704 c 24.883968,-16.0004 38.959278,-25.90756 72.201105,-28.25261 34.31226,0 31.95021,22.53271 40.80932,31.39181 41.97406,10.9386 8.58455,-51.32211 47.08767,-43.94852 42.22962,-12.81627 49.2659,50.45072 72.20111,47.08772 16.43861,-5.4796 4.43752,-32.041 28.2526,-43.94854 -0.18345,-38.62877 43.65477,36.24674 65.92275,40.80934 19.31137,0 1.31825,-34.53099 31.39178,-34.53099 33.06223,0.23225 43.04917,66.34769 87.897,25.11339 9.38421,-18.76839 -26.84711,-36.8425 -34.53096,-47.08763 -13.66003,-18.21338 -34.52381,-43.94134 -50.22686,-59.64439 -33.0284,-93.68802 -52.6633,-186.97658 -43.9485,-291.9436 25.05688,-74.69061 7.54134,-148.37494 12.55672,-222.88166 C 394.75998,316.93088 361.3392,270.88048 373.56223,204.78402 411.89722,39.777221 260.05307,2.8364411 187.40719,78.432701 c -28.48084,29.637529 4.48486,90.826609 13.50024,142.047209 -23.86642,132.86534 9.28337,226.30376 -9.41755,335.89208 -25.6752,253.75531 -64.74887,247.63316 -109.871241,370.42306 -0.563436,21.22152 -57.501619,89.57945 -31.391784,94.17535 z"
         style="fill:#755b23;fill-opacity:1;stroke:#000000;stroke-width:2;stroke-linecap:butt;stroke-linejoin:miter;stroke-miterlimit:4;stroke-opacity:1;stroke-dasharray:none;filter:url(#filter3592)"
         inkscape:connector-curvature="0" />
      <rect
         transform="translate(1053.9693,-506.15425)"
         clip-path="url(#clipPath3694)"
         y="475.49426"
         x="-1071.3262"
         height="1128.3789"
         width="602.22479"
         id="rect3692"
         style="fill:#a84f00;fill-opacity:1;fill-rule:nonzero;stroke:none;filter:url(#filter3680)" />
      <g
         transform="translate(0,-344)"
         id="g2926">
        <path
           style="fill:#755b23;fill-opacity:1;stroke:#000000;stroke-width:1px;stroke-linecap:butt;stroke-linejoin:miter;stroke-opacity:1;filter:url(#filter3592)"
           d="m 216.60332,684.35113 c 15.27788,-25.01201 27.0264,-60.94508 13.42813,-87.14827 -4.77739,-17.07995 -30.75358,-24.81335 -34.70612,-42.26042 C 181.0841,535.96036 152.62566,533.67129 141.20505,511.91865 125.38315,493.70533 97.66038,493.65123 81.760859,475.53805 52.49641,456.08929 18.632374,442.20189 -4.8423175,415.13081 -23.689175,402.4458 -50.40523,411.98176 -61.580259,430.49992 c -15.03404,17.86574 -29.855456,39.98706 -27.528654,64.355 6.986319,25.32137 32.982863,36.86137 53.240822,49.96179 35.87013748,20.86277 76.721794,32.3171 110.951169,56.06851 25.785202,21.28342 51.071112,44.84172 83.366602,55.75706 19.39402,9.2164 38.6959,18.62672 58.15364,27.70885 z"
           id="path2846"
           sodipodi:nodetypes="cccccccccccc"
           inkscape:connector-curvature="0" />
        <rect
           style="fill:#a84f00;fill-opacity:1;fill-rule:nonzero;stroke:none;filter:url(#filter3680)"
           id="rect3678"
           width="323.29959"
           height="532.49347"
           x="-874.81067"
           y="659.3313"
           clip-path="url(#clipPath3686)"
           transform="matrix(0.56589423,-0.82447785,0.82447785,0.56589423,-293.30153,-584.73953)" />
      </g>
      <g
         transform="translate(0,-532)"
         id="g2930">
        <path
           style="fill:#755b23;fill-opacity:1;stroke:#000000;stroke-width:1px;stroke-linecap:butt;stroke-linejoin:miter;stroke-opacity:1;filter:url(#filter3592)"
           d="m 370.42306,838.12427 c 6.19374,12.80403 -11.7049,2.46177 -4.64043,-4.81683 -15.18704,-22.32526 -34.43363,-9.09501 -10.26169,-93.88201 7.53656,-20.92018 16.95017,-31.03749 28.3651,-49.33918 39.60076,-44.65036 76.06271,-92.3415 105.63127,-144.27346 10.5525,-16.96648 31.75988,-19.13043 49.2601,-13.83535 14.18671,5.28568 30.36854,-5.75691 42.49108,-0.4398 7.36363,13.4402 -7.49468,26.3597 -9.52315,39.49367 -8.78381,19.11964 -29.08972,30.00334 -36.84348,49.84748 -13.6405,28.05846 -22.9117,59.39332 -46.00171,81.6351 -13.51951,12.30807 -15.68267,30.96842 -26.05251,45.09292 -21.49052,29.1752 -50.06766,52.04447 -76.58328,76.41564 -5.29634,4.68268 -10.58804,9.37079 -15.8413,14.10182 z"
           id="path2844"
           sodipodi:nodetypes="ccccccccccccc"
           inkscape:connector-curvature="0" />
        <rect
           y="1172.8071"
           x="-1191.771"
           height="361.33484"
           width="240.88988"
           id="rect3740"
           style="fill:#a84f00;fill-opacity:1;fill-rule:nonzero;stroke:none;filter:url(#filter3680)"
           clip-path="url(#clipPath3748)"
           transform="matrix(0.8280831,0.56060536,-0.56060536,0.8280831,2105.5978,146.76606)" />
      </g>
      <g
         id="g2934">
        <path
           sodipodi:nodetypes="cccccc"
           transform="matrix(-0.51035559,0,0,0.43939071,379.72051,131.91771)"
           id="path3625"
           d="m 316.09316,663.16705 c 7.12409,21.51591 15.88253,107.43304 43.24619,106.09847 107.43755,-49.4557 211.39706,-138.62636 272.18374,-219.84761 7.49538,-48.55818 85.43517,-89.69421 103.76315,-132.41678 -35.42674,-3.1423 -174.1762,129.91539 -226.98645,146.15804 -51.33897,59.85407 -207.02826,22.5699 -192.20663,100.00788 z"
           style="fill:#755b23;fill-opacity:1;stroke:#000000;stroke-width:3.4326303;stroke-linecap:butt;stroke-linejoin:miter;stroke-miterlimit:4;stroke-opacity:1;stroke-dasharray:none;filter:url(#filter3592)"
           inkscape:connector-curvature="0" />
        <rect
           style="fill:#a84f00;fill-opacity:1;fill-rule:nonzero;stroke:none;filter:url(#filter3680)"
           id="rect3722"
           width="240.88988"
           height="361.33484"
           x="-1730.6038"
           y="1179.1462"
           clip-path="url(#clipPath3744)"
           transform="matrix(0.43233989,-0.90171071,0.90171071,0.43233989,-432.60046,-1671.605)" />
      </g>
      <path
         transform="translate(-784.60173,-919.84232)"
         sodipodi:nodetypes="cccccccc"
         id="path3665"
         d="m 725.83928,1093.9492 31.69604,34.8657 82.4097,38.0352 82.4097,-72.9009 -9.50881,-19.0176 -41.20485,-12.6784 -31.69604,-44.3745 -114.10574,76.0705 z"
         style="fill:url(#linearGradient3113);fill-opacity:1;stroke:none"
         inkscape:connector-curvature="0" />
      <path
         transform="translate(-784.60173,-919.84232)"
         sodipodi:nodetypes="ccccc"
         id="path3685"
         d="m 954.05076,1008.3699 25.35683,123.6146 196.51541,-6.3392 -19.0176,-142.6322 -202.85464,25.3568 z"
         style="fill:url(#linearGradient3115);fill-opacity:1;stroke:none"
         inkscape:connector-curvature="0" />
      <path
         transform="translate(-784.60173,-919.84232)"
         id="path3675"
         d="m 1175.923,1062.2532 69.7313,-69.73128 107.7665,-34.86565 -79.2401,142.63213 -98.2577,-38.0352 z"
         style="fill:url(#linearGradient3117);fill-opacity:1;stroke:none"
         inkscape:connector-curvature="0" />
      <path
         id="path3646"
         d="m 370.42306,113.74781 c -109.5977,-9.49512 -220.12015,-3.18828 -328.826877,12.66721 -76.326366,74.06353 -183.051553,95.13247 -284.695363,86.45436 -131.45097,14.35504 -258.50504,-95.99687 -261.12466,-228.620486 16.66035,-110.199874 -87.85054,-170.850954 -106.36507,-269.761594 -23.3695,-109.20178 79.73643,-188.27815 151.94122,-251.91786 89.0609,-67.7675 185.04367,-133.53303 303.74937,-124.38443 99.961672,-17.88113 218.287312,-15.22123 295.65508,-90.51961 72.68404,-93.07153 199.60503,-71.24759 291.35137,-25.97303 104.19186,12.52193 210.19823,7.76063 313.11865,32.41887 112.94731,0.90644 179.01336,90.74953 224.23155,184.1424 16.12912,108.93593 82.85727,196.05541 116.95817,297.64912 -10.6013,79.30306 -44.5698,170.605768 -133.28137,190.595344 C 811.44237,-33.955439 674.46084,20.276546 535.42938,68.248574 481.30823,84.919382 429.25602,123.8244 370.42306,113.74781 z"
         style="fill:#a84e00;fill-opacity:1;stroke:#000000;stroke-width:1px;stroke-linecap:butt;stroke-linejoin:miter;stroke-opacity:1;filter:url(#filter3140)"
         inkscape:connector-curvature="0" />
      <rect
         transform="translate(-2371.2314,0)"
         clip-path="url(#clipPath3160)"
         y="-929.46295"
         x="1708.2847"
         height="1286.0129"
         width="1914.1807"
         id="rect3154"
         style="fill:#000000;fill-opacity:1;fill-rule:nonzero;stroke:#999999;stroke-width:1;stroke-linecap:round;stroke-linejoin:round;stroke-miterlimit:4;stroke-opacity:1;stroke-dasharray:none;filter:url(#filter3664)" />
      <g
         id="g2938">
        <path
           style="fill:#755b23;fill-opacity:1;stroke:#000000;stroke-width:3.4326303;stroke-linecap:butt;stroke-linejoin:miter;stroke-miterlimit:4;stroke-opacity:1;stroke-dasharray:none;filter:url(#filter3592)"
           d="m 316.09316,663.16705 c 7.12409,21.51591 15.88253,107.43304 43.24619,106.09847 107.43755,-49.4557 211.39706,-138.62636 272.18374,-219.84761 7.49538,-48.55818 85.43517,-89.69421 103.76315,-132.41678 -35.42674,-3.1423 -174.1762,129.91539 -226.98645,146.15804 -51.33897,59.85407 -207.02826,22.5699 -192.20663,100.00788 z"
           id="path3602"
           transform="matrix(0.50954746,0,0,0.66622559,176.8258,133.93311)"
           sodipodi:nodetypes="cccccc"
           inkscape:connector-curvature="0" />
        <rect
           y="1147.4502"
           x="-690.97363"
           height="361.33484"
           width="240.88988"
           id="rect3742"
           style="fill:#a84f00;fill-opacity:1;fill-rule:nonzero;stroke:none;filter:url(#filter3680)"
           clip-path="url(#clipPath3752)"
           transform="matrix(0.698675,0.72877763,-0.75901879,0.67083809,1855.5686,31.198466)" />
      </g>
    </g>
  </g>
</svg>
