<?xml version="1.0" encoding="UTF-8" standalone="no"?>
<!-- Created with Inkscape (http://www.inkscape.org/) -->

<svg
   xmlns:dc="http://purl.org/dc/elements/1.1/"
   xmlns:cc="http://creativecommons.org/ns#"
   xmlns:rdf="http://www.w3.org/1999/02/22-rdf-syntax-ns#"
   xmlns:svg="http://www.w3.org/2000/svg"
   xmlns="http://www.w3.org/2000/svg"
   xmlns:xlink="http://www.w3.org/1999/xlink"
   xmlns:sodipodi="http://sodipodi.sourceforge.net/DTD/sodipodi-0.dtd"
   xmlns:inkscape="http://www.inkscape.org/namespaces/inkscape"
   width="744.09448819"
   height="1052.3622047"
   id="svg2"
   sodipodi:version="0.32"
   inkscape:version="0.47 r22583"
   sodipodi:docname="candle.svg"
   inkscape:output_extension="org.inkscape.output.svg.inkscape"
   version="1.1">
  <sodipodi:namedview
     id="base"
     pagecolor="#ffffff"
     bordercolor="#666666"
     borderopacity="1.0"
     gridtolerance="10000"
     guidetolerance="10"
     objecttolerance="10"
     inkscape:pageopacity="0.0"
     inkscape:pageshadow="2"
     inkscape:zoom="0.98994949"
     inkscape:cx="549.39212"
     inkscape:cy="674.7226"
     inkscape:document-units="px"
     inkscape:current-layer="layer1"
     showgrid="false"
     inkscape:window-width="778"
     inkscape:window-height="675"
     inkscape:window-x="131"
     inkscape:window-y="7"
     inkscape:window-maximized="0"
     inkscape:snap-global="false" />
  <defs
     id="defs4">
    <linearGradient
       inkscape:collect="always"
       id="linearGradient3719">
      <stop
         style="stop-color:#fce500;stop-opacity:1"
         offset="0"
         id="stop3721" />
      <stop
         style="stop-color:#f30000;stop-opacity:1"
         offset="1"
         id="stop3723" />
    </linearGradient>
    <inkscape:path-effect
       effect="skeletal"
       id="path-effect3699"
       is_visible="true"
       pattern="M 0,5 C 0,2.24 2.24,0 5,0 7.76,0 10,2.24 10,5 10,7.76 7.76,10 5,10 2.24,10 0,7.76 0,5 z"
       copytype="single_stretched"
       prop_scale="1"
       scale_y_rel="false"
       spacing="0"
       normal_offset="0"
       tang_offset="0"
       prop_units="false"
       vertical_pattern="false"
       fuse_tolerance="0" />
    <linearGradient
       inkscape:collect="always"
       id="linearGradient3695">
      <stop
         style="stop-color:#e1cd00;stop-opacity:1"
         offset="0"
         id="stop3697" />
      <stop
         style="stop-color:#cab800;stop-opacity:1"
         offset="1"
         id="stop3699" />
    </linearGradient>
    <linearGradient
       inkscape:collect="always"
       id="linearGradient3681">
      <stop
         style="stop-color:#bba900;stop-opacity:1;"
         offset="0"
         id="stop3683" />
      <stop
         style="stop-color:#9a8b00;stop-opacity:1"
         offset="1"
         id="stop3685" />
    </linearGradient>
    <linearGradient
       inkscape:collect="always"
       id="linearGradient3673">
      <stop
         style="stop-color:#827600;stop-opacity:1;"
         offset="0"
         id="stop3675" />
      <stop
         style="stop-color:#595100;stop-opacity:1"
         offset="1"
         id="stop3677" />
    </linearGradient>
    <linearGradient
       inkscape:collect="always"
       id="linearGradient3650">
      <stop
         style="stop-color:#ffe897;stop-opacity:1;"
         offset="0"
         id="stop3652" />
      <stop
         style="stop-color:#f9c200;stop-opacity:1"
         offset="1"
         id="stop3654" />
    </linearGradient>
    <linearGradient
       inkscape:collect="always"
       id="linearGradient3642">
      <stop
         style="stop-color:#ca9d00;stop-opacity:1;"
         offset="0"
         id="stop3644" />
      <stop
         style="stop-color:#b28a00;stop-opacity:1"
         offset="1"
         id="stop3646" />
    </linearGradient>
    <linearGradient
       inkscape:collect="always"
       id="linearGradient3634">
      <stop
         style="stop-color:#ffd647;stop-opacity:1;"
         offset="0"
         id="stop3636" />
      <stop
         style="stop-color:#f3bd00;stop-opacity:1"
         offset="1"
         id="stop3638" />
    </linearGradient>
    <linearGradient
       inkscape:collect="always"
       id="linearGradient3626">
      <stop
         style="stop-color:#eab500;stop-opacity:1"
         offset="0"
         id="stop3628" />
      <stop
         style="stop-color:#ca9c00;stop-opacity:1"
         offset="1"
         id="stop3630" />
    </linearGradient>
    <inkscape:perspective
       id="perspective10"
       inkscape:persp3d-origin="372.04724 : 350.78739 : 1"
       inkscape:vp_z="744.09448 : 526.18109 : 1"
       inkscape:vp_y="0 : 1000 : 0"
       inkscape:vp_x="0 : 526.18109 : 1"
       sodipodi:type="inkscape:persp3d" />
    <linearGradient
       inkscape:collect="always"
       xlink:href="#linearGradient3626"
       id="linearGradient3632"
       x1="310.32449"
       y1="449.14789"
       x2="369.82779"
       y2="449.14789"
       gradientUnits="userSpaceOnUse" />
    <linearGradient
       inkscape:collect="always"
       xlink:href="#linearGradient3634"
       id="linearGradient3640"
       x1="303.92059"
       y1="257.47635"
       x2="348.8129"
       y2="257.47635"
       gradientUnits="userSpaceOnUse" />
    <linearGradient
       inkscape:collect="always"
       xlink:href="#linearGradient3642"
       id="linearGradient3648"
       x1="301.39523"
       y1="229.31549"
       x2="357.71616"
       y2="229.31549"
       gradientUnits="userSpaceOnUse" />
    <linearGradient
       inkscape:collect="always"
       xlink:href="#linearGradient3650"
       id="linearGradient3656"
       x1="285.65866"
       y1="236.5211"
       x2="377.80449"
       y2="236.5211"
       gradientUnits="userSpaceOnUse" />
    <filter
       id="filter3658"
       inkscape:label="Diffuse light"
       inkscape:menu="ABCs"
       inkscape:menu-tooltip="Basic diffuse bevel to use for building textures"
       color-interpolation-filters="sRGB">
      <feGaussianBlur
         id="feGaussianBlur3660"
         stdDeviation="26.133513513513513"
         in="SourceGraphic"
         result="result0" />
      <feDiffuseLighting
         id="feDiffuseLighting3662"
         diffuseConstant="1"
         surfaceScale="10"
         result="result5">
        <feDistantLight
           id="feDistantLight3664"
           elevation="25"
           azimuth="235" />
      </feDiffuseLighting>
      <feComposite
         id="feComposite3666"
         in2="SourceGraphic"
         k1="1"
         in="result5"
         result="result4"
         operator="arithmetic"
         k2="0"
         k3="0.6" />
    </filter>
    <linearGradient
       inkscape:collect="always"
       xlink:href="#linearGradient3673"
       id="linearGradient3679"
       x1="300.21426"
       y1="693.79077"
       x2="364.07144"
       y2="693.79077"
       gradientUnits="userSpaceOnUse" />
    <linearGradient
       inkscape:collect="always"
       xlink:href="#linearGradient3681"
       id="linearGradient3687"
       x1="296.44287"
       y1="664.70782"
       x2="377.84283"
       y2="664.70782"
       gradientUnits="userSpaceOnUse" />
    <linearGradient
       inkscape:collect="always"
       xlink:href="#linearGradient3695"
       id="linearGradient3717"
       gradientUnits="userSpaceOnUse"
       gradientTransform="translate(3.0493736,2.7345908)"
       x1="250.28397"
       y1="677.95276"
       x2="270.55734"
       y2="677.95276" />
    <linearGradient
       inkscape:collect="always"
       xlink:href="#linearGradient3695"
       id="linearGradient3723"
       gradientUnits="userSpaceOnUse"
       gradientTransform="translate(3.0493736,2.7345908)"
       x1="250.28397"
       y1="677.95276"
       x2="270.55734"
       y2="677.95276" />
    <filter
       inkscape:collect="always"
       id="filter3687"
       x="-0.37308545"
       width="1.7461709"
       y="-0.63424531"
       height="2.2684906">
      <feGaussianBlur
         inkscape:collect="always"
         stdDeviation="2.6695188"
         id="feGaussianBlur3689" />
    </filter>
    <radialGradient
       inkscape:collect="always"
       xlink:href="#linearGradient3719"
       id="radialGradient3725"
       cx="321.4061"
       cy="296.65704"
       fx="321.4061"
       fy="296.65704"
       r="6.9223238"
       gradientTransform="matrix(1,0,0,1.6803231,0,-200.81045)"
       gradientUnits="userSpaceOnUse" />
    <filter
       id="filter3727"
       inkscape:label="Diffuse light"
       inkscape:menu="ABCs"
       inkscape:menu-tooltip="Basic diffuse bevel to use for building textures"
       color-interpolation-filters="sRGB">
      <feGaussianBlur
         id="feGaussianBlur3729"
         stdDeviation="8.3018536585365847"
         in="SourceGraphic"
         result="result0" />
      <feDiffuseLighting
         id="feDiffuseLighting3731"
         diffuseConstant="1"
         surfaceScale="5"
         result="result5">
        <feDistantLight
           id="feDistantLight3733"
           elevation="25"
           azimuth="235" />
      </feDiffuseLighting>
      <feComposite
         id="feComposite3735"
         in2="SourceGraphic"
         k1="1.2000000000000002"
         in="result5"
         result="result4"
         operator="arithmetic"
         k2="0"
         k3="0.69999999999999996" />
      <feGaussianBlur
         stdDeviation="1"
         id="feGaussianBlur3737" />
    </filter>
  </defs>
  <metadata
     id="metadata7">
    <rdf:RDF>
      <cc:Work
         rdf:about="">
        <dc:format>image/svg+xml</dc:format>
        <dc:type
           rdf:resource="http://purl.org/dc/dcmitype/StillImage" />
      </cc:Work>
    </rdf:RDF>
  </metadata>
  <g
     id="layer1"
     inkscape:groupmode="layer"
     inkscape:label="Layer 1">
    <path
       style="fill:url(#linearGradient3632);fill-opacity:1;fill-rule:evenodd;stroke:#000000;stroke-width:2px;stroke-linecap:butt;stroke-linejoin:miter;stroke-opacity:1;filter:url(#filter3658)"
       d="m 271.42857,238.07647 0,421.42857 c 0,32.80799 119.55485,31.64819 122.14286,0.71428 -0.2381,-148.29975 -0.47619,-279.52395 -0.71429,-419.28571 -3.69614,5.84353 -25.16413,12.97224 -17.80015,10.5411 0.2668,-0.0881 5.5226,8.0964 5.02834,11.46598 -0.48419,3.30086 -7.16952,6.91509 -9.45072,3.89749 -1.21008,-1.6007 1.67143,-11.69277 1.1015,-12.50091 -3.7361,-5.29766 -18.48069,0.8859 -25.76024,3.82262 -6.83597,2.75777 -14.66062,-0.40152 -21.17612,-1.12752 -7.0832,-0.78926 -15.18469,-4.80662 -17.03776,-2.4102 -6.28651,8.1298 -13.87903,-1.04169 -15.00316,8.19354 -1.72876,4.98511 -1.62594,8.76809 -1.1455,11.54926 1.35077,7.81944 -0.44978,14.83256 1.61766,19.36487 6.51415,14.28059 -22.93897,15.04544 -11.99036,-6.54221 1.85299,-3.65359 4.09434,-11.63711 5.87257,-17.43919 1.37283,-4.47929 0.29458,-5.56897 0.59507,-12.16493 0.41473,-3.24991 0.84674,-8.87741 -6.31392,-9.38338 -5.33046,-0.37664 -8.86577,-6.76535 -9.96578,-10.12366 z"
       id="path3173"
       sodipodi:nodetypes="ccccssssssscsssscsc"
       transform="matrix(0.5,0,0,0.5,166.25,219.4737)" />
    <path
       style="fill:none;stroke:#000000;stroke-width:1px;stroke-linecap:butt;stroke-linejoin:miter;stroke-opacity:1"
       d="m 301.96429,338.69051 c 6.78734,-6.1917 2.82424,-5.04948 3.97447,-6.10933 2.73013,-2.51562 5.95143,-5.3392 8.61161,-6.01342 2.84842,-0.72192 8.73536,-2.9698 14.57219,-0.65609 5.13116,2.03398 7.92712,2.40475 14.48522,1.9618 3.91929,-0.26472 7.99347,-1.02682 11.1006,3.23127 2.4016,3.29122 6.84119,5.99367 8.37066,8.7618"
       id="path3179"
       sodipodi:nodetypes="csssssc" />
    <path
       style="opacity:0.98999999;fill:url(#linearGradient3640);fill-opacity:1;fill-rule:evenodd;stroke:#000000;stroke-width:0.50507629;stroke-linecap:butt;stroke-linejoin:miter;stroke-miterlimit:4;stroke-opacity:1;stroke-dasharray:none;filter:url(#filter3658)"
       d="m 283.01888,302.07852 c -4.0794,-2.48751 -4.33817,-6.38148 -0.98743,-14.85925 1.22554,-3.10075 3.17075,-8.70606 4.3227,-12.45626 l 2.09445,-6.81852 -0.15581,-8.44988 c -0.15411,-8.35717 -0.17039,-8.46442 -1.48343,-9.77616 -0.865,-0.86413 -2.4372,-1.58263 -4.51192,-2.06193 -1.75137,-0.40462 -3.83296,-1.19753 -4.62576,-1.76205 -1.65152,-1.17599 -4.93954,-5.83714 -4.93954,-7.00238 0,-0.42989 1.26311,-2.02391 2.80691,-3.54228 3.54531,-3.48691 4.95034,-5.71231 4.63802,-7.34612 -0.19788,-1.03512 0.29819,-1.74634 2.79253,-4.00358 4.02111,-3.6389 9.90405,-7.669 12.59413,-8.62761 6.75327,-2.4065 12.27111,-3.43471 18.58467,-3.46309 6.12597,-0.0276 6.50093,0.035 12.6269,2.10795 10.49387,3.55091 12.04938,3.75297 27.52666,3.57569 13.40432,-0.15354 13.67414,-0.1364 15.80949,1.00369 2.94778,1.57383 22.38894,21.06357 22.00614,22.06113 -0.50118,1.30604 -5.30933,4.4049 -11.13475,7.17635 -3.10419,1.47682 -5.87501,2.68513 -6.15737,2.68513 -1.09645,0 -1.13328,1.13618 -0.069,2.12773 1.45245,1.35318 4.54673,7.82235 4.54673,9.50581 0,2.35157 -3.79602,5.2473 -6.47326,4.93803 -1.29301,-0.14938 -1.35356,-0.2845 -1.31496,-2.93451 0.0223,-1.52785 0.2239,-4.5137 0.4481,-6.63521 l 0.40763,-3.8573 -1.43689,-0.94092 c -1.09864,-0.71942 -2.33372,-0.93181 -5.24633,-0.90218 -4.19846,0.0427 -8.12752,1.07886 -16.68887,4.40106 -4.72904,1.8351 -5.76817,2.05702 -9.59645,2.04951 -4.32527,-0.008 -15.65238,-1.87917 -22.47589,-3.71192 -1.94455,-0.5223 -4.59008,-1.09882 -5.87896,-1.28117 -2.1679,-0.30671 -2.48946,-0.20226 -4.29315,1.3945 -2.53063,2.24029 -4.18099,2.81903 -8.64036,3.02992 -2.39602,0.11332 -3.92346,0.43637 -4.42245,0.93536 -1.12156,1.12156 -2.84512,7.83713 -2.90701,11.32673 -0.12596,7.10213 1.05235,22.25463 1.92026,24.69358 1.17581,3.30423 0.61063,5.65693 -1.73818,7.23551 -2.17632,1.46265 -5.7168,1.54491 -7.94758,0.18464 l -10e-6,0 z"
       id="path3283"
       transform="matrix(0.5,0,0,0.5,166.25,219.4737)" />
    <path
       style="fill:none;stroke:#000000;stroke-width:1px;stroke-linecap:butt;stroke-linejoin:miter;stroke-opacity:1"
       d="m 329.89471,329.72448 c -0.9052,0.40068 -3.1633,-1.39115 -4.29315,-1.76776 -0.95591,-0.31864 -2.46029,-0.50509 -3.53553,-0.50509 -1.10376,0 -2.33159,1.78736 -3.03046,2.02031 -1.47686,0.49229 -2.83164,1.02806 -4.29314,1.51523 -1.52846,0.50949 -2.86739,1.64942 -3.78808,3.03046 -0.82136,1.23203 -1.34732,2.02099 -2.02031,3.03046 -0.79752,1.19629 -1.21035,1.67222 -0.75761,3.03046 0.47431,1.42291 1.9107,1.26269 3.283,1.26269 1.08512,0 2.0629,-1.01016 3.53553,-1.01016 1.68844,0 3.07363,1.3922 3.53553,2.77792 0.43339,1.30015 2.90498,0.75762 4.04061,0.75762 1.98278,0 3.43661,1.01015 5.30331,1.01015 2.57279,0 4.9792,0.25254 7.57614,0.25254 2.67683,0 4.92931,-0.63296 6.81853,-1.26269 1.98871,-0.66291 3.26997,-1.17417 5.05076,-1.76777 1.47404,-0.49135 3.01488,-0.62745 4.54569,-1.01015 2.08702,-0.52176 3.03046,0.87311 3.03046,-1.76777 0,-0.33672 0,-0.67343 0,-1.01015 0,-1.57833 -1.05111,-2.88941 -2.02031,-3.53553 -1.41059,-0.9404 -2.62051,-2.08373 -4.0406,-3.03046 -1.27092,-0.84728 -3.53964,-0.50645 -5.05077,-1.01015 -2.36552,-0.78851 -5.30491,-0.75762 -7.82868,-0.75762 -0.4209,0 -0.8418,0 -1.26269,0 -1.97718,0 -2.59902,1.06699 -4.79823,-0.25254 z"
       id="path3287" />
    <path
       style="fill:none;stroke:#000000;stroke-width:1px;stroke-linecap:butt;stroke-linejoin:miter;stroke-opacity:1"
       d="m 354.64345,339.57347 c 0.45799,1.37395 -2.3305,-1.72203 -3.53554,-2.52538 -1.40239,-0.93493 -2.00555,-1.38527 -3.53553,-1.76777 -1.35069,-0.33767 -2.51027,-1.51523 -4.29315,-1.51523 -1.93612,0 -3.87225,0 -5.80838,0 -1.57739,0 -3.09422,-0.50508 -4.79822,-0.50508 -1.47094,0 -2.95987,0.0808 -4.29315,-0.25254 -1.58966,-0.39741 -3.22085,-1.89469 -4.54569,-2.77792 -5e-4,-4.1e-4 -2.30989,2.92272 -3.03045,3.28301 -1.62451,0.81225 -1.56037,1.26269 -3.78808,1.26269 -1.34587,0 -2.85587,-0.14238 -4.04061,0.25253 -0.26368,0.0879 -1.18104,2.65544 -1.26269,2.77792 -0.73143,1.09716 -1.0325,2.03521 -1.76776,2.52538 -0.47636,0.31758 -0.72996,0.57082 -1.01016,0.75762"
       id="path3291" />
    <path
       style="opacity:0.98999999;fill:url(#linearGradient3656);fill-opacity:1;fill-rule:evenodd;stroke:#000000;stroke-width:0.50507629;stroke-linecap:butt;stroke-linejoin:miter;stroke-miterlimit:4;stroke-opacity:1;stroke-dasharray:none;filter:url(#filter3658)"
       d="m 324.50246,250.03561 c -2.50013,-0.20713 -6.07107,-0.75416 -7.93542,-1.21562 -1.86437,-0.46147 -4.92268,-0.80578 -6.79627,-0.76516 -2.99396,0.0649 -3.50098,-0.062 -4.18641,-1.04767 -3.9454,-5.67384 -6.42329,-6.77794 -11.48342,-5.11682 -1.76399,0.57908 -4.04051,1.05287 -5.05892,1.05287 l -1.85165,0 1.26519,-1.38896 c 1.74537,-1.91612 2.78671,-3.67867 4.016,-6.7974 0.57736,-1.46479 1.31563,-2.83238 1.64058,-3.03909 0.32495,-0.20671 2.75002,-0.38154 5.38905,-0.38851 3.97447,-0.0105 5.24078,-0.21874 7.37606,-1.21299 2.28624,-1.06454 7.77433,-6.00323 7.7757,-6.99729 0.001,-0.75552 1.056,-0.34495 3.40862,1.32659 5.21841,3.70769 6.57616,3.93024 29.16932,4.78114 8.54283,0.32174 9.28946,0.43032 12.37437,1.79954 1.80565,0.80143 4.41942,1.95529 5.80838,2.56413 2.44525,1.07185 10.85914,7.61032 10.85914,8.43868 0,0.225 -1.13883,0.40908 -2.53073,0.40908 -3.39368,0 -10.19419,1.55927 -16.66218,3.82043 -10.54293,3.6857 -11.26467,3.83034 -19.9505,3.99782 -4.44467,0.0857 -10.12678,-0.0136 -12.62691,-0.22077 l 0,0 z"
       id="path3295"
       transform="matrix(0.5,0,0,0.5,166.25,219.4737)" />
    <path
       style="opacity:0.98999999;fill:url(#linearGradient3648);fill-opacity:1;fill-rule:evenodd;stroke:#000000;stroke-width:0.50507629;stroke-linecap:butt;stroke-linejoin:miter;stroke-miterlimit:4;stroke-opacity:1;stroke-dasharray:none;filter:url(#filter3658)"
       d="m 284.65547,241.13413 c -0.16862,-0.4394 -0.30657,-1.33639 -0.30657,-1.9933 0,-1.59349 6.65974,-11.48984 8.86293,-13.1703 0.95953,-0.73187 4.34861,-2.30042 7.53128,-3.48568 3.93648,-1.46597 6.47979,-2.75455 7.95448,-4.03015 2.13236,-1.84449 2.22151,-1.87046 5.45081,-1.58828 2.3849,0.20839 4.22515,0.77615 6.72707,2.07543 1.89424,0.98371 4.39437,2.04005 5.55584,2.34742 1.18773,0.31434 6.9738,0.59148 13.22344,0.6334 8.55399,0.0574 11.80923,0.26546 14.14214,0.90398 1.66675,0.45619 4.39416,0.98241 6.06091,1.16939 1.66675,0.18697 3.78402,0.7775 4.70504,1.31228 3.33317,1.93539 9.79007,7.16903 10.7091,8.68025 0.89652,1.4742 1.83138,5.262 1.40416,5.68922 -0.11112,0.11113 -1.89827,-1.21107 -3.97142,-2.93822 -3.88816,-3.23924 -5.44633,-4.12386 -12.3418,-7.00678 -3.94079,-1.64759 -4.2777,-1.69825 -13.63706,-2.05028 -12.4704,-0.46905 -21.96579,-1.1461 -23.23351,-1.65663 -0.55558,-0.22375 -2.68194,-1.53074 -4.72523,-2.90443 l -3.71507,-2.49762 -3.1556,3.45728 c -4.2016,4.60327 -6.51346,5.73012 -11.75607,5.73012 -6.9489,0 -7.04037,0.0472 -9.20483,4.74657 -2.77336,6.02143 -5.42673,8.8 -6.28004,6.57633 z"
       id="path3305"
       transform="matrix(0.5,0,0,0.5,166.25,219.4737)" />
    <path
       style="fill:url(#linearGradient3687);fill-opacity:1;fill-rule:evenodd;stroke:#000000;stroke-width:4;stroke-linecap:round;stroke-linejoin:round;stroke-miterlimit:4;stroke-opacity:1;stroke-dashoffset:0;filter:url(#filter3658)"
       d="m 270.00001,647.3622 c 39.47396,10.20205 89.28873,8.35002 124.99997,-2.14286 5.54,0 10,5.57501 10,12.50002 l 0,2.14285 c 0,6.92501 -4.46,12.50002 -10,12.50002 -34.05092,12.92548 -85.24316,17.52275 -124.99997,2.14286 -5.54,0 -10,-5.57501 -10,-12.50002 l 0,-2.14285 c 0,-6.92501 4.46,-12.50002 10,-12.50002 z"
       id="rect3668"
       sodipodi:nodetypes="ccccccccc"
       transform="matrix(0.5,0,0,0.5,166.25,219.4737)" />
    <path
       style="fill:url(#linearGradient3679);fill-opacity:1;stroke:#000000;stroke-width:2px;stroke-linecap:round;stroke-linejoin:round;stroke-opacity:1;filter:url(#filter3658)"
       d="m 271.42857,675.93361 c 4.52381,12.61905 8.48385,37.78975 13.57143,37.85714 35.41118,13.31991 55.55741,11.40949 90.83612,-1.10005 4.27803,-0.0985 11.34735,-25.93329 17.02102,-38.89994 -34.9666,9.89694 -69.74795,20.10261 -121.42857,2.14285 z"
       id="path3671"
       sodipodi:nodetypes="ccccc"
       transform="matrix(0.5,0,0,0.5,166.25,219.4737)" />
    <path
       style="fill:#f3efdf;fill-opacity:1;stroke:#000000;stroke-width:1px;stroke-linecap:butt;stroke-linejoin:miter;stroke-opacity:1;filter:url(#filter3658)"
       d="m 327.87441,338.06839 c 1.34686,3.57646 7.23942,3.64514 7.07106,0 -0.42561,-12.96362 -0.78463,-25.92725 -9.09137,-38.89087 -0.8418,-3.70389 -6.73435,-2.69374 -7.07107,0 5.93531,10.05877 8.53637,23.45179 9.09138,38.89087 z"
       id="path2862"
       sodipodi:nodetypes="ccccc" />
    <path
       sodipodi:type="arc"
       style="fill:#000000;fill-opacity:1;fill-rule:nonzero;stroke:none;filter:url(#filter3687)"
       id="path3636"
       sodipodi:cx="311.63205"
       sodipodi:cy="159.38733"
       sodipodi:rx="8.586297"
       sodipodi:ry="5.0507627"
       d="m 320.21835,159.38733 a 8.586297,5.0507627 0 1 1 -17.1726,0 8.586297,5.0507627 0 1 1 17.1726,0 z"
       transform="matrix(0.41578212,0,0,0.49621836,192.2526,219.83406)" />
    <path
       style="fill:none;stroke:#000000;stroke-width:1px;stroke-linecap:butt;stroke-linejoin:miter;stroke-opacity:1"
       d="m 327.88116,336.16403 c 2.29723,0.50668 5.33771,-1.07934 6.98441,-2.02031"
       id="path3701"
       sodipodi:nodetypes="cc" />
    <path
       style="fill:none;stroke:#000000;stroke-width:1px;stroke-linecap:butt;stroke-linejoin:miter;stroke-opacity:1"
       d="m 327.16687,328.52661 c 1.95226,-0.50065 5.07283,-1.25232 6.68855,-2.46411"
       id="path3703"
       sodipodi:nodetypes="cc" />
    <path
       style="fill:none;stroke:#000000;stroke-width:1px;stroke-linecap:butt;stroke-linejoin:miter;stroke-opacity:1"
       d="m 326.45259,322.02189 c 1.11897,-0.60191 4.88523,-0.69679 6.89775,-4.04061"
       id="path3705"
       sodipodi:nodetypes="cc" />
    <path
       style="fill:none;stroke:#000000;stroke-width:1px;stroke-linecap:butt;stroke-linejoin:miter;stroke-opacity:1"
       d="m 325.5037,315.83842 c 3.73585,-1.33473 5.34895,-1.50913 6.33141,-3.41298"
       id="path3707"
       sodipodi:nodetypes="cc" />
    <path
       style="fill:none;stroke:#000000;stroke-width:1px;stroke-linecap:butt;stroke-linejoin:miter;stroke-opacity:1"
       d="m 324.13641,309.90006 c 1.36117,-0.0547 3.00647,-0.99158 5.38252,-3.32632"
       id="path3709"
       sodipodi:nodetypes="cc" />
    <path
       style="fill:none;stroke:#000000;stroke-width:1px;stroke-linecap:butt;stroke-linejoin:miter;stroke-opacity:1"
       d="m 321.82024,305.14516 c 0.99081,-0.41035 3.56226,-0.40256 5.61712,-2.9079"
       id="path3711"
       sodipodi:nodetypes="cc" />
    <path
       style="fill:none;stroke:#000000;stroke-width:1px;stroke-linecap:butt;stroke-linejoin:miter;stroke-opacity:1"
       d="m 328.21429,332.00504 c 2.61307,0.48216 5.07751,-0.3156 5.71428,-1.78572"
       id="path3713"
       sodipodi:nodetypes="cc" />
    <path
       style="fill:url(#radialGradient3725);stroke:#000000;stroke-width:0.50000000000000000;stroke-linecap:butt;stroke-linejoin:miter;stroke-opacity:1;fill-opacity:1;stroke-miterlimit:4;stroke-dasharray:none;filter:url(#filter3727)"
       d="m 323.21429,305.93361 c -8.32641,2.602 -10.29701,-3.45853 -9.64286,-10 0.14978,-1.49785 0.40353,-4.73563 1.07143,-6.07143 0.46045,-0.92091 2.73004,5.76626 2.85714,3.57143 0.54411,-9.39598 -1.666,-14.52315 5.35714,-7.5 4.27536,4.27536 8.21509,14.71381 0.35715,20 z"
       id="path3717"
       sodipodi:nodetypes="cssssc" />
  </g>
</svg>
