<?xml version="1.0" encoding="UTF-8" standalone="no"?>
<!-- Created with Inkscape (http://www.inkscape.org/) -->
<svg
   xmlns:dc="http://purl.org/dc/elements/1.1/"
   xmlns:cc="http://creativecommons.org/ns#"
   xmlns:rdf="http://www.w3.org/1999/02/22-rdf-syntax-ns#"
   xmlns:svg="http://www.w3.org/2000/svg"
   xmlns="http://www.w3.org/2000/svg"
   xmlns:xlink="http://www.w3.org/1999/xlink"
   xmlns:sodipodi="http://sodipodi.sourceforge.net/DTD/sodipodi-0.dtd"
   xmlns:inkscape="http://www.inkscape.org/namespaces/inkscape"
   width="256"
   height="256"
   id="svg2"
   sodipodi:version="0.32"
   inkscape:version="0.46"
   version="1.0"
   sodipodi:docname="cave_top_left_ammonite.svg"
   inkscape:output_extension="org.inkscape.output.svg.inkscape">
  <defs
     id="defs4">
    <radialGradient
       inkscape:collect="always"
       xlink:href="#linearGradient3206"
       id="radialGradient3729"
       gradientUnits="userSpaceOnUse"
       gradientTransform="matrix(1,0,0,0.9916254,0,0.6359256)"
       cx="-199.61379"
       cy="75.935236"
       fx="-199.61379"
       fy="75.935236"
       r="38.068785" />
    <linearGradient
       id="linearGradient3206">
      <stop
         style="stop-color:#454564;stop-opacity:1;"
         offset="0"
         id="stop3208" />
      <stop
         style="stop-color:#5696dc;stop-opacity:1;"
         offset="1"
         id="stop3210" />
    </linearGradient>
    <linearGradient
       id="linearGradient3194">
      <stop
         style="stop-color:#c8c8c8;stop-opacity:1;"
         offset="0"
         id="stop3196" />
      <stop
         style="stop-color:#969696;stop-opacity:1;"
         offset="1"
         id="stop3198" />
    </linearGradient>
    <linearGradient
       id="linearGradient3184">
      <stop
         style="stop-color:#646464;stop-opacity:1;"
         offset="0"
         id="stop3186" />
      <stop
         style="stop-color:#282828;stop-opacity:1;"
         offset="1"
         id="stop3188" />
    </linearGradient>
    <linearGradient
       id="linearGradient3165">
      <stop
         style="stop-color:#681c20;stop-opacity:1;"
         offset="0"
         id="stop3168" />
      <stop
         style="stop-color:#904440;stop-opacity:1;"
         offset="1"
         id="stop3170" />
    </linearGradient>
    <linearGradient
       id="linearGradient3183">
      <stop
         style="stop-color:#646464;stop-opacity:1;"
         offset="0"
         id="stop3185" />
      <stop
         style="stop-color:#464646;stop-opacity:1;"
         offset="1"
         id="stop3187" />
    </linearGradient>
    <linearGradient
       id="linearGradient3163">
      <stop
         style="stop-color:#80807f;stop-opacity:1;"
         offset="0"
         id="stop3165" />
      <stop
         style="stop-color:#aaaaaa;stop-opacity:1;"
         offset="1"
         id="stop3167" />
    </linearGradient>
    <inkscape:perspective
       sodipodi:type="inkscape:persp3d"
       inkscape:vp_x="0 : 526.18109 : 1"
       inkscape:vp_y="0 : 1000 : 0"
       inkscape:vp_z="744.09448 : 526.18109 : 1"
       inkscape:persp3d-origin="372.04724 : 350.78739 : 1"
       id="perspective10" />
    <radialGradient
       inkscape:collect="always"
       xlink:href="#linearGradient3163"
       id="radialGradient3179"
       cx="-387.89859"
       cy="113.56849"
       fx="-387.89859"
       fy="113.56849"
       r="38.885796"
       gradientTransform="matrix(1,0,0,0.7142484,0,32.452374)"
       gradientUnits="userSpaceOnUse" />
    <radialGradient
       inkscape:collect="always"
       xlink:href="#linearGradient3184"
       id="radialGradient3190"
       cx="-231.21355"
       cy="72.619738"
       fx="-231.21355"
       fy="72.619738"
       r="23.978572"
       gradientTransform="matrix(1,0,0,0.9867044,0,0.9655247)"
       gradientUnits="userSpaceOnUse" />
    <radialGradient
       inkscape:collect="always"
       xlink:href="#linearGradient3206"
       id="radialGradient3212"
       cx="-199.61379"
       cy="75.935236"
       fx="-199.61379"
       fy="75.935236"
       r="38.068785"
       gradientTransform="matrix(1,0,0,0.9916254,0,0.6359256)"
       gradientUnits="userSpaceOnUse" />
    <radialGradient
       inkscape:collect="always"
       xlink:href="#linearGradient3184"
       id="radialGradient3232"
       gradientUnits="userSpaceOnUse"
       gradientTransform="matrix(1,0,0,0.9867044,0,0.9655247)"
       cx="-231.21355"
       cy="72.619738"
       fx="-231.21355"
       fy="72.619738"
       r="23.978572" />
    <radialGradient
       inkscape:collect="always"
       xlink:href="#linearGradient3206"
       id="radialGradient3234"
       gradientUnits="userSpaceOnUse"
       gradientTransform="matrix(1,0,0,0.9916254,0,0.6359256)"
       cx="-199.61379"
       cy="75.935236"
       fx="-199.61379"
       fy="75.935236"
       r="38.068785" />
    <radialGradient
       inkscape:collect="always"
       xlink:href="#linearGradient3184"
       id="radialGradient3242"
       gradientUnits="userSpaceOnUse"
       gradientTransform="matrix(1,0,0,0.9867044,0,0.9655247)"
       cx="-231.21355"
       cy="72.619738"
       fx="-231.21355"
       fy="72.619738"
       r="23.978572" />
    <radialGradient
       inkscape:collect="always"
       xlink:href="#linearGradient3184"
       id="radialGradient3252"
       gradientUnits="userSpaceOnUse"
       gradientTransform="matrix(1,0,0,0.9867044,0,0.9655247)"
       cx="-231.21355"
       cy="72.619738"
       fx="-231.21355"
       fy="72.619738"
       r="23.978572" />
    <radialGradient
       inkscape:collect="always"
       xlink:href="#linearGradient3206"
       id="radialGradient3254"
       gradientUnits="userSpaceOnUse"
       gradientTransform="matrix(1,0,0,0.9916254,0,0.6359256)"
       cx="-199.61379"
       cy="75.935236"
       fx="-199.61379"
       fy="75.935236"
       r="38.068785" />
    <radialGradient
       inkscape:collect="always"
       xlink:href="#linearGradient3184"
       id="radialGradient3272"
       gradientUnits="userSpaceOnUse"
       gradientTransform="matrix(1,0,0,0.9867044,0,0.9655247)"
       cx="-231.21355"
       cy="72.619738"
       fx="-231.21355"
       fy="72.619738"
       r="23.978572" />
    <radialGradient
       inkscape:collect="always"
       xlink:href="#linearGradient3184"
       id="radialGradient3282"
       gradientUnits="userSpaceOnUse"
       gradientTransform="matrix(1,0,0,0.9867044,0,0.9655247)"
       cx="-231.21355"
       cy="72.619738"
       fx="-231.21355"
       fy="72.619738"
       r="23.978572" />
    <radialGradient
       inkscape:collect="always"
       xlink:href="#linearGradient3206"
       id="radialGradient3284"
       gradientUnits="userSpaceOnUse"
       gradientTransform="matrix(1,0,0,0.9916254,0,0.6359256)"
       cx="-199.61379"
       cy="75.935236"
       fx="-199.61379"
       fy="75.935236"
       r="38.068785" />
    <radialGradient
       inkscape:collect="always"
       xlink:href="#linearGradient3184"
       id="radialGradient4908"
       gradientUnits="userSpaceOnUse"
       gradientTransform="matrix(1,0,0,0.9867044,0,0.9655247)"
       cx="-231.21355"
       cy="72.619738"
       fx="-231.21355"
       fy="72.619738"
       r="23.978572" />
    <radialGradient
       inkscape:collect="always"
       xlink:href="#linearGradient3184"
       id="radialGradient4918"
       gradientUnits="userSpaceOnUse"
       gradientTransform="matrix(1,0,0,0.9867044,0,0.9655247)"
       cx="-231.21355"
       cy="72.619738"
       fx="-231.21355"
       fy="72.619738"
       r="23.978572" />
    <radialGradient
       inkscape:collect="always"
       xlink:href="#linearGradient3206"
       id="radialGradient4930"
       gradientUnits="userSpaceOnUse"
       gradientTransform="matrix(1,0,0,0.9916254,0,0.6359256)"
       cx="-199.61379"
       cy="75.935236"
       fx="-199.61379"
       fy="75.935236"
       r="38.068785" />
    <radialGradient
       inkscape:collect="always"
       xlink:href="#linearGradient3184"
       id="radialGradient4938"
       gradientUnits="userSpaceOnUse"
       gradientTransform="matrix(1,0,0,0.9867044,0,0.9655247)"
       cx="-231.21355"
       cy="72.619738"
       fx="-231.21355"
       fy="72.619738"
       r="23.978572" />
    <radialGradient
       inkscape:collect="always"
       xlink:href="#linearGradient3184"
       id="radialGradient2468"
       gradientUnits="userSpaceOnUse"
       gradientTransform="matrix(1,0,0,0.9867044,0,0.9655247)"
       cx="-231.21355"
       cy="72.619738"
       fx="-231.21355"
       fy="72.619738"
       r="23.978572" />
    <radialGradient
       inkscape:collect="always"
       xlink:href="#linearGradient3206"
       id="radialGradient2470"
       gradientUnits="userSpaceOnUse"
       gradientTransform="matrix(1,0,0,0.9916254,0,0.6359256)"
       cx="-199.61379"
       cy="75.935236"
       fx="-199.61379"
       fy="75.935236"
       r="38.068785" />
    <radialGradient
       inkscape:collect="always"
       xlink:href="#linearGradient3184"
       id="radialGradient2478"
       gradientUnits="userSpaceOnUse"
       gradientTransform="matrix(1,0,0,0.9867044,0,0.9655247)"
       cx="-231.21355"
       cy="72.619738"
       fx="-231.21355"
       fy="72.619738"
       r="23.978572" />
    <radialGradient
       inkscape:collect="always"
       xlink:href="#linearGradient3206"
       id="radialGradient2481"
       gradientUnits="userSpaceOnUse"
       gradientTransform="matrix(1,0,0,0.9916254,0,0.6359256)"
       cx="-199.61379"
       cy="75.935236"
       fx="-199.61379"
       fy="75.935236"
       r="38.068785" />
    <radialGradient
       inkscape:collect="always"
       xlink:href="#linearGradient3206"
       id="radialGradient2840"
       gradientUnits="userSpaceOnUse"
       gradientTransform="matrix(1,0,0,0.9916254,0,0.6359256)"
       cx="-199.61379"
       cy="75.935236"
       fx="-199.61379"
       fy="75.935236"
       r="38.068785" />
  </defs>
  <sodipodi:namedview
     id="base"
     pagecolor="#ffffff"
     bordercolor="#666666"
     borderopacity="1.0"
     inkscape:pageopacity="0.0"
     inkscape:pageshadow="2"
     inkscape:zoom="1.979899"
     inkscape:cx="-140.36761"
     inkscape:cy="210.30775"
     inkscape:document-units="px"
     inkscape:current-layer="layer1"
     showgrid="false"
     inkscape:window-width="1276"
     inkscape:window-height="718"
     inkscape:window-x="0"
     inkscape:window-y="14" />
  <metadata
     id="metadata7">
    <rdf:RDF>
      <cc:Work
         rdf:about="">
        <dc:format>image/svg+xml</dc:format>
        <dc:type
           rdf:resource="http://purl.org/dc/dcmitype/StillImage" />
      </cc:Work>
    </rdf:RDF>
  </metadata>
  <g
     inkscape:label="Ebene 1"
     inkscape:groupmode="layer"
     id="layer1">
    <path
       sodipodi:type="arc"
       style="opacity:1;fill:#000000;fill-opacity:1;fill-rule:nonzero;stroke:#000000;stroke-width:1;stroke-linecap:butt;stroke-linejoin:miter;marker:none;marker-start:none;marker-mid:none;marker-end:none;stroke-miterlimit:4;stroke-dasharray:none;stroke-dashoffset:0;stroke-opacity:1;visibility:visible;display:inline;overflow:visible;enable-background:accumulate"
       id="path3254"
       sodipodi:cx="-85.610428"
       sodipodi:cy="142.86292"
       sodipodi:rx="21.970818"
       sodipodi:ry="38.385796"
       d="M -63.63961,142.86292 A 21.970818,38.385796 0 1 1 -107.58125,142.86292 A 21.970818,38.385796 0 1 1 -63.63961,142.86292 z"
       transform="matrix(-0.9983687,0,0,1.1503821,-62.999953,-100.02338)" />
    <rect
       style="fill:#000000;fill-opacity:1;fill-rule:nonzero;stroke:#000000;stroke-width:0;stroke-linecap:round;stroke-linejoin:round;stroke-miterlimit:4;stroke-dasharray:none;stroke-opacity:1"
       id="rect2383"
       width="236"
       height="236"
       x="-256"
       y="20"
       transform="scale(-1,1)" />
    <rect
       style="fill:#000000;fill-opacity:1;fill-rule:nonzero;stroke:#000000;stroke-width:0;stroke-linecap:round;stroke-linejoin:round;stroke-miterlimit:4;stroke-dasharray:none;stroke-opacity:1"
       id="rect2387"
       width="0"
       height="0"
       x="-29.294453"
       y="68.111633"
       rx="0"
       ry="0" />
    <rect
       style="fill:#000000;fill-opacity:1;fill-rule:nonzero;stroke:#000000;stroke-width:0;stroke-linecap:round;stroke-linejoin:round;stroke-miterlimit:4;stroke-dasharray:none;stroke-opacity:1"
       id="rect2389"
       width="0"
       height="69.700523"
       x="-30.304577"
       y="33.766441"
       rx="0"
       ry="12.12183" />
    <path
       sodipodi:type="star"
       style="fill:#681c20;fill-opacity:1;fill-rule:nonzero;stroke:#000000;stroke-width:0;stroke-linecap:round;stroke-linejoin:round;stroke-miterlimit:4;stroke-dasharray:none;stroke-opacity:1"
       id="path3176"
       sodipodi:sides="5"
       sodipodi:cx="-347.49249"
       sodipodi:cy="-27.34779"
       sodipodi:r1="36.827927"
       sodipodi:r2="34.138332"
       sodipodi:arg1="-0.69751242"
       sodipodi:arg2="-0.069193859"
       inkscape:flatsided="true"
       inkscape:rounded="-1.9775848e-16"
       inkscape:randomized="0"
       d="M -319.26601,-51.002849 L -316.27273,-7.8126244 L -356.4241,8.3806657 L -384.23229,-24.801555 L -361.26733,-61.502586 L -319.26601,-51.002849 z"
       transform="matrix(-0.9795869,0,0,0.4974123,-148.88347,33.225224)" />
    <path
       sodipodi:type="star"
       style="fill:url(#radialGradient3190);fill-opacity:1;fill-rule:nonzero;stroke:#000000;stroke-width:0;stroke-linecap:round;stroke-linejoin:round;stroke-miterlimit:4;stroke-dasharray:none;stroke-opacity:1"
       id="path3182"
       sodipodi:sides="5"
       sodipodi:cx="-230.31477"
       sodipodi:cy="74.172539"
       sodipodi:r1="25.379768"
       sodipodi:r2="20.532663"
       sodipodi:arg1="0.82762657"
       sodipodi:arg2="1.4559451"
       inkscape:flatsided="true"
       inkscape:rounded="-1.9775848e-16"
       inkscape:randomized="0"
       d="M -213.14218,92.860361 L -242.78133,96.2795 L -255.19212,69.14757 L -233.22327,48.959976 L -207.23498,63.615287 L -213.14218,92.860361 z"
       transform="matrix(-1,0,0,1,-4.6793785,-26.263966)" />
    <path
       sodipodi:type="star"
       style="fill:url(#radialGradient3212);fill-opacity:1;fill-rule:nonzero;stroke:#000000;stroke-width:0;stroke-linecap:round;stroke-linejoin:round;stroke-miterlimit:4;stroke-dasharray:none;stroke-opacity:1"
       id="path3204"
       sodipodi:sides="5"
       sodipodi:cx="-197.9899"
       sodipodi:cy="78.21315"
       sodipodi:r1="33.21209"
       sodipodi:r2="32.661118"
       sodipodi:arg1="2.6462749"
       sodipodi:arg2="3.2745934"
       inkscape:flatsided="true"
       inkscape:rounded="-1.9775848e-16"
       inkscape:randomized="0"
       d="M -227.21048,93.99923 L -222.03301,55.300889 L -183.62877,48.266515 L -165.07112,82.617372 L -192.0061,110.88174 L -227.21048,93.99923 z"
       transform="matrix(-1.0512254,0,0,0.7969154,-32.406928,-6.0840619)" />
    <path
       sodipodi:type="star"
       style="fill:#681c20;fill-opacity:1;fill-rule:nonzero;stroke:#000000;stroke-width:0;stroke-linecap:round;stroke-linejoin:round;stroke-miterlimit:4;stroke-dasharray:none;stroke-opacity:1"
       id="path3226"
       sodipodi:sides="5"
       sodipodi:cx="-347.49249"
       sodipodi:cy="-27.34779"
       sodipodi:r1="36.827927"
       sodipodi:r2="34.138332"
       sodipodi:arg1="-0.69751242"
       sodipodi:arg2="-0.069193859"
       inkscape:flatsided="true"
       inkscape:rounded="-1.9775848e-16"
       inkscape:randomized="0"
       d="M -319.26601,-51.002849 L -316.27273,-7.8126244 L -356.4241,8.3806657 L -384.23229,-24.801555 L -361.26733,-61.502586 L -319.26601,-51.002849 z"
       transform="matrix(-8.7090446e-2,-0.4971172,-0.3159573,5.5352861e-2,83.046602,-135.62186)" />
    <path
       sodipodi:type="star"
       style="fill:url(#radialGradient3232);fill-opacity:1;fill-rule:nonzero;stroke:#000000;stroke-width:0;stroke-linecap:round;stroke-linejoin:round;stroke-miterlimit:4;stroke-dasharray:none;stroke-opacity:1"
       id="path3228"
       sodipodi:sides="5"
       sodipodi:cx="-230.31477"
       sodipodi:cy="74.172539"
       sodipodi:r1="25.379768"
       sodipodi:r2="20.532663"
       sodipodi:arg1="0.82762657"
       sodipodi:arg2="1.4559451"
       inkscape:flatsided="true"
       inkscape:rounded="-1.9775848e-16"
       inkscape:randomized="0"
       d="M -213.14218,92.860361 L -242.78133,96.2795 L -255.19212,69.14757 L -233.22327,48.959976 L -207.23498,63.615287 L -213.14218,92.860361 z"
       transform="matrix(-8.8905289e-2,-0.5074765,-0.6352021,0.1112817,133.65476,-69.061739)" />
    <path
       sodipodi:type="star"
       style="fill:url(#radialGradient3234);fill-opacity:1;fill-rule:nonzero;stroke:#000000;stroke-width:0;stroke-linecap:round;stroke-linejoin:round;stroke-miterlimit:4;stroke-dasharray:none;stroke-opacity:1"
       id="path3230"
       sodipodi:sides="5"
       sodipodi:cx="-197.9899"
       sodipodi:cy="78.21315"
       sodipodi:r1="33.21209"
       sodipodi:r2="32.661118"
       sodipodi:arg1="2.6462749"
       sodipodi:arg2="3.2745934"
       inkscape:flatsided="true"
       inkscape:rounded="-1.9775848e-16"
       inkscape:randomized="0"
       d="M -227.21048,93.99923 L -222.03301,55.300889 L -183.62877,48.266515 L -165.07112,82.617372 L -192.0061,110.88174 L -227.21048,93.99923 z"
       transform="matrix(-9.3459498e-2,-0.5334721,-0.5062024,8.8682079e-2,118.37132,-80.887164)" />
    <path
       sodipodi:type="star"
       style="fill:url(#radialGradient3242);fill-opacity:1;fill-rule:nonzero;stroke:#000000;stroke-width:0;stroke-linecap:round;stroke-linejoin:round;stroke-miterlimit:4;stroke-dasharray:none;stroke-opacity:1"
       id="path3238"
       sodipodi:sides="5"
       sodipodi:cx="-230.31477"
       sodipodi:cy="74.172539"
       sodipodi:r1="25.379768"
       sodipodi:r2="20.532663"
       sodipodi:arg1="0.82762657"
       sodipodi:arg2="1.4559451"
       inkscape:flatsided="true"
       inkscape:rounded="-1.9775848e-16"
       inkscape:randomized="0"
       d="M -213.14218,92.860361 L -242.78133,96.2795 L -255.19212,69.14757 L -233.22327,48.959976 L -207.23498,63.615287 L -213.14218,92.860361 z"
       transform="matrix(0.2885055,0.5868667,0.5342831,-6.478455e-2,104.16624,217.3392)" />
    <path
       sodipodi:type="star"
       style="fill:#681c20;fill-opacity:1;fill-rule:nonzero;stroke:#000000;stroke-width:0;stroke-linecap:round;stroke-linejoin:round;stroke-miterlimit:4;stroke-dasharray:none;stroke-opacity:1"
       id="path3246"
       sodipodi:sides="5"
       sodipodi:cx="-347.49249"
       sodipodi:cy="-27.34779"
       sodipodi:r1="36.827927"
       sodipodi:r2="34.138332"
       sodipodi:arg1="-0.69751242"
       sodipodi:arg2="-0.069193859"
       inkscape:flatsided="true"
       inkscape:rounded="-1.9775848e-16"
       inkscape:randomized="0"
       d="M -319.26601,-51.002849 L -316.27273,-7.8126244 L -356.4241,8.3806657 L -384.23229,-24.801555 L -361.26733,-61.502586 L -319.26601,-51.002849 z"
       transform="matrix(-8.7090446e-2,-0.4971172,-0.3159573,5.5352861e-2,7.7966967,-73.473628)" />
    <path
       sodipodi:type="star"
       style="fill:url(#radialGradient3252);fill-opacity:1;fill-rule:nonzero;stroke:#000000;stroke-width:0;stroke-linecap:round;stroke-linejoin:round;stroke-miterlimit:4;stroke-dasharray:none;stroke-opacity:1"
       id="path3248"
       sodipodi:sides="5"
       sodipodi:cx="-230.31477"
       sodipodi:cy="74.172539"
       sodipodi:r1="25.379768"
       sodipodi:r2="20.532663"
       sodipodi:arg1="0.82762657"
       sodipodi:arg2="1.4559451"
       inkscape:flatsided="true"
       inkscape:rounded="-1.9775848e-16"
       inkscape:randomized="0"
       d="M -213.14218,92.860361 L -242.78133,96.2795 L -255.19212,69.14757 L -233.22327,48.959976 L -207.23498,63.615287 L -213.14218,92.860361 z"
       transform="matrix(-8.8905289e-2,-0.5074765,-0.6352021,0.1112817,58.404857,-6.9135129)" />
    <path
       sodipodi:type="star"
       style="fill:url(#radialGradient3254);fill-opacity:1;fill-rule:nonzero;stroke:#000000;stroke-width:0;stroke-linecap:round;stroke-linejoin:round;stroke-miterlimit:4;stroke-dasharray:none;stroke-opacity:1"
       id="path3250"
       sodipodi:sides="5"
       sodipodi:cx="-197.9899"
       sodipodi:cy="78.21315"
       sodipodi:r1="33.21209"
       sodipodi:r2="32.661118"
       sodipodi:arg1="2.6462749"
       sodipodi:arg2="3.2745934"
       inkscape:flatsided="true"
       inkscape:rounded="-1.9775848e-16"
       inkscape:randomized="0"
       d="M -227.21048,93.99923 L -222.03301,55.300889 L -183.62877,48.266515 L -165.07112,82.617372 L -192.0061,110.88174 L -227.21048,93.99923 z"
       transform="matrix(-9.3459498e-2,-0.5334721,-0.5062024,8.8682079e-2,43.121417,-18.738938)" />
    <path
       sodipodi:type="star"
       style="fill:url(#radialGradient3272);fill-opacity:1;fill-rule:nonzero;stroke:#000000;stroke-width:0;stroke-linecap:round;stroke-linejoin:round;stroke-miterlimit:4;stroke-dasharray:none;stroke-opacity:1"
       id="path3268"
       sodipodi:sides="5"
       sodipodi:cx="-230.31477"
       sodipodi:cy="74.172539"
       sodipodi:r1="25.379768"
       sodipodi:r2="20.532663"
       sodipodi:arg1="0.82762657"
       sodipodi:arg2="1.4559451"
       inkscape:flatsided="true"
       inkscape:rounded="-1.9775848e-16"
       inkscape:randomized="0"
       d="M -213.14218,92.860361 L -242.78133,96.2795 L -255.19212,69.14757 L -233.22327,48.959976 L -207.23498,63.615287 L -213.14218,92.860361 z"
       transform="matrix(-0.1627007,0.4888405,0.6118757,0.2036504,61.565912,122.32786)" />
    <path
       sodipodi:type="star"
       style="fill:#681c20;fill-opacity:1;fill-rule:nonzero;stroke:#000000;stroke-width:0;stroke-linecap:round;stroke-linejoin:round;stroke-miterlimit:4;stroke-dasharray:none;stroke-opacity:1"
       id="path3276"
       sodipodi:sides="5"
       sodipodi:cx="-347.49249"
       sodipodi:cy="-27.34779"
       sodipodi:r1="36.827927"
       sodipodi:r2="34.138332"
       sodipodi:arg1="-0.69751242"
       sodipodi:arg2="-0.069193859"
       inkscape:flatsided="true"
       inkscape:rounded="-1.9775848e-16"
       inkscape:randomized="0"
       d="M -319.26601,-51.002849 L -316.27273,-7.8126244 L -356.4241,8.3806657 L -384.23229,-24.801555 L -361.26733,-61.502586 L -319.26601,-51.002849 z"
       transform="matrix(-8.7090446e-2,-0.4971172,-0.3159573,5.5352861e-2,7.7967006,-128.52694)" />
    <path
       sodipodi:type="star"
       style="fill:url(#radialGradient3282);fill-opacity:1;fill-rule:nonzero;stroke:#000000;stroke-width:0;stroke-linecap:round;stroke-linejoin:round;stroke-miterlimit:4;stroke-dasharray:none;stroke-opacity:1"
       id="path3278"
       sodipodi:sides="5"
       sodipodi:cx="-230.31477"
       sodipodi:cy="74.172539"
       sodipodi:r1="25.379768"
       sodipodi:r2="20.532663"
       sodipodi:arg1="0.82762657"
       sodipodi:arg2="1.4559451"
       inkscape:flatsided="true"
       inkscape:rounded="-1.9775848e-16"
       inkscape:randomized="0"
       d="M -213.14218,92.860361 L -242.78133,96.2795 L -255.19212,69.14757 L -233.22327,48.959976 L -207.23498,63.615287 L -213.14218,92.860361 z"
       transform="matrix(-8.8905289e-2,-0.5074765,-0.6352021,0.1112817,58.404861,-61.966827)" />
    <path
       sodipodi:type="star"
       style="fill:url(#radialGradient3284);fill-opacity:1;fill-rule:nonzero;stroke:#000000;stroke-width:0;stroke-linecap:round;stroke-linejoin:round;stroke-miterlimit:4;stroke-dasharray:none;stroke-opacity:1"
       id="path3280"
       sodipodi:sides="5"
       sodipodi:cx="-197.9899"
       sodipodi:cy="78.21315"
       sodipodi:r1="33.21209"
       sodipodi:r2="32.661118"
       sodipodi:arg1="2.6462749"
       sodipodi:arg2="3.2745934"
       inkscape:flatsided="true"
       inkscape:rounded="-1.9775848e-16"
       inkscape:randomized="0"
       d="M -227.21048,93.99923 L -222.03301,55.300889 L -183.62877,48.266515 L -165.07112,82.617372 L -192.0061,110.88174 L -227.21048,93.99923 z"
       transform="matrix(-9.3459498e-2,-0.5334721,-0.5062024,8.8682079e-2,43.121421,-73.792252)" />
    <path
       sodipodi:type="spiral"
       style="fill:#643128;fill-opacity:1;fill-rule:nonzero;stroke:#000000;stroke-width:0;stroke-linecap:round;stroke-linejoin:round;stroke-miterlimit:4;stroke-dasharray:none;stroke-opacity:1"
       id="path3286"
       sodipodi:cx="-141.42136"
       sodipodi:cy="65.081169"
       sodipodi:expansion="17.5"
       sodipodi:revolution="40.387367"
       sodipodi:radius="49.747204"
       sodipodi:argument="-251.38757"
       sodipodi:t0="0.67984587"
       d="M -141.47631,65.099941 C -141.49084,65.068277 -141.47429,65.030933 -141.44335,65.016771 C -141.40627,64.999791 -141.36255,65.01919 -141.346,65.055426 C -141.32618,65.098805 -141.34888,65.149915 -141.39127,65.169233 C -141.44194,65.192324 -141.50161,65.165801 -141.52413,65.116276 C -141.551,65.057175 -141.52005,64.987613 -141.46227,64.961401 C -141.39342,64.930169 -141.31244,64.966235 -141.28196,65.033552 C -141.24571,65.113641 -141.28768,65.207813 -141.36601,65.243191 C -141.45906,65.285219 -141.56842,65.236438 -141.60944,65.14542 C -141.6581,65.037452 -141.60148,64.910616 -141.49585,64.863107 C -141.37072,64.806831 -141.2238,64.872475 -141.16885,64.994912 C -141.10385,65.139736 -141.17986,65.309715 -141.3216,65.373203 C -141.48902,65.448196 -141.68544,65.360297 -141.7587,65.196408 C -141.84512,65.003086 -141.74359,64.776381 -141.55432,64.691941 C -141.33135,64.59247 -141.07,64.709606 -140.97279,64.927935 C -140.85842,65.184789 -140.99341,65.485746 -141.24496,65.597538 C -141.54052,65.728885 -141.88669,65.573507 -142.0151,65.283997 C -142.16579,64.944279 -141.98714,64.546551 -141.65432,64.399201 C -141.26428,64.226516 -140.80781,64.431698 -140.63891,64.813882 C -140.44122,65.261224 -140.67662,65.78455 -141.11502,65.977933 C -141.62753,66.204009 -142.22687,65.934235 -142.44806,65.431896 C -142.70633,64.845338 -142.39749,64.159662 -141.82249,63.906921 C -141.15187,63.612156 -140.36823,63.965364 -140.07973,64.622863 C -139.74365,65.388791 -140.14719,66.2835 -140.89825,66.612488 C -141.77217,66.99529 -142.79266,66.534727 -143.16746,65.677646 C -143.60306,64.681495 -143.07793,63.518668 -142.10083,63.092109 C -140.96645,62.596888 -139.64272,63.19506 -139.15771,64.307895 C -138.59524,65.598439 -139.27595,67.103901 -140.54217,67.654869 C -142.00899,68.293129 -143.71953,67.519217 -144.34484,66.079847 C -145.06845,64.414206 -144.1894,62.472452 -142.55472,61.763418 C -140.66505,60.943785 -138.46283,61.941337 -137.65958,63.796128 C -136.732,65.938019 -137.86301,68.433391 -139.96564,69.342569 C -142.39126,70.391405 -145.21631,69.110243 -146.24449,66.728776 C -147.42941,63.984259 -145.97943,60.788767 -143.28453,59.627011 C -140.18187,58.289477 -136.57047,59.929089 -135.2589,62.976041 C -133.75036,66.480575 -135.60282,70.558548 -139.04486,72.038022 C -143,73.738036 -147.60097,71.646866 -149.26846,67.761781 C -151.18269,63.301809 -148.82402,58.115049 -144.44251,56.237176 C -139.41738,54.083453 -133.57502,56.741666 -131.46192,61.678971 C -129.04066,67.336295 -132.03402,73.911853 -137.59312,76.287766 C -143.95711,79.007675 -151.352,75.639604 -154.02132,69.385384 C -157.07437,62.232104 -153.28767,53.922287 -146.25696,50.925629 C -138.22273,47.501243 -128.89199,51.755283 -125.53042,59.652742 C -121.69241,68.669519 -126.4678,79.138615 -135.33206,82.90671 C -145.44389,87.205135 -157.1814,81.848566 -161.40205,71.906681 C -166.21261,60.575254 -160.20862,47.425411 -149.06643,42.701313 C -136.37766,37.321491 -121.65634,44.046166 -116.37256,56.524366 C -110.36038,70.722745 -117.88676,87.191442 -131.851,93.097005 C -147.72719,99.811148 -166.13752,91.393537 -172.73339,75.777524 C -180.22626,58.037817 -170.81858,37.471454 -153.36779,30.109711 C -133.5597,21.75352 -110.60079,32.260341 -102.38988,51.74781 C -93.077197,73.850188 -104.80345,99.462359 -126.55025,108.61418 C -143.56613,115.77506 -163.58121,111.93229 -177.20966,99.635207"
       transform="matrix(0.4975901,0.8674123,0.8674123,-0.4975901,132.11397,292.03103)" />
    <path
       sodipodi:type="spiral"
       style="opacity:1;fill:none;fill-opacity:1;fill-rule:nonzero;stroke:#000000;stroke-width:2;stroke-linecap:round;stroke-linejoin:round;stroke-miterlimit:4;stroke-dasharray:none;stroke-opacity:1"
       id="path3338"
       sodipodi:cx="-297.48993"
       sodipodi:cy="98.92128"
       sodipodi:expansion="17.5"
       sodipodi:revolution="40"
       sodipodi:radius="127.31529"
       sodipodi:argument="-250.66011"
       sodipodi:t0="0.91900003"
       d="M -278.12519,77.288848 C -264.65212,87.627522 -262.97049,107.4948 -273.13325,120.72469 C -284.77581,135.88098 -307.13494,137.76912 -322.01952,126.32339 C -339.0559,113.22299 -341.1743,88.07941 -328.29397,71.346377 C -313.56484,52.211543 -285.31213,49.83661 -266.51573,64.31987 C -245.04042,80.867311 -242.37987,112.58913 -258.65283,133.68715 C -277.22876,157.77098 -312.81857,160.7493 -336.48209,142.47958 C -363.47115,121.64233 -366.80277,81.742877 -346.30688,55.221733 C -322.95054,24.999248 -278.25272,21.275096 -248.55079,44.251165 C -214.73211,70.411771 -210.57212,120.44838 -236.30941,153.68835 C -265.58959,191.504 -321.5622,196.14757 -358.73491,167.33831 C -400.98996,134.59017 -406.16977,72.02199 -373.94513,30.480748 C -337.34436,-16.701841 -267.45265,-22.475857 -221.06203,13.543353 C -170.8739,52.511077 -162.23553,125.94366 -197.48449,177.71275"
       transform="matrix(0.3052483,-0.236025,-0.22604,-0.307485,231.38549,97.794066)" />
    <path
       sodipodi:type="star"
       style="fill:#681c20;fill-opacity:1;fill-rule:nonzero;stroke:#000000;stroke-width:0;stroke-linecap:round;stroke-linejoin:round;stroke-miterlimit:4;stroke-dasharray:none;stroke-opacity:1"
       id="path2462"
       sodipodi:sides="5"
       sodipodi:cx="-347.49249"
       sodipodi:cy="-27.34779"
       sodipodi:r1="36.827927"
       sodipodi:r2="34.138332"
       sodipodi:arg1="-0.69751242"
       sodipodi:arg2="-0.069193859"
       inkscape:flatsided="true"
       inkscape:rounded="-1.9775848e-16"
       inkscape:randomized="0"
       d="M -319.26601,-51.002849 L -316.27273,-7.8126244 L -356.4241,8.3806657 L -384.23229,-24.801555 L -361.26733,-61.502586 L -319.26601,-51.002849 z"
       transform="matrix(0.8740991,-0.4422005,-0.2245395,-0.443848,511.10387,43.984269)" />
    <path
       sodipodi:type="star"
       style="fill:url(#radialGradient2468);fill-opacity:1;fill-rule:nonzero;stroke:#000000;stroke-width:0;stroke-linecap:round;stroke-linejoin:round;stroke-miterlimit:4;stroke-dasharray:none;stroke-opacity:1"
       id="path2464"
       sodipodi:sides="5"
       sodipodi:cx="-230.31477"
       sodipodi:cy="74.172539"
       sodipodi:r1="25.379768"
       sodipodi:r2="20.532663"
       sodipodi:arg1="0.82762657"
       sodipodi:arg2="1.4559451"
       inkscape:flatsided="true"
       inkscape:rounded="-1.9775848e-16"
       inkscape:randomized="0"
       d="M -213.14218,92.860361 L -242.78133,96.2795 L -255.19212,69.14757 L -233.22327,48.959976 L -207.23498,63.615287 L -213.14218,92.860361 z"
       transform="matrix(0.892314,-0.4514152,-0.4514152,-0.892314,409.28286,162.16322)" />
    <path
       sodipodi:type="star"
       style="fill:url(#radialGradient2470);fill-opacity:1;fill-rule:nonzero;stroke:#000000;stroke-width:0;stroke-linecap:round;stroke-linejoin:round;stroke-miterlimit:4;stroke-dasharray:none;stroke-opacity:1"
       id="path2466"
       sodipodi:sides="5"
       sodipodi:cx="-197.9899"
       sodipodi:cy="78.21315"
       sodipodi:r1="33.21209"
       sodipodi:r2="32.661118"
       sodipodi:arg1="2.6462749"
       sodipodi:arg2="3.2745934"
       inkscape:flatsided="true"
       inkscape:rounded="-1.9775848e-16"
       inkscape:randomized="0"
       d="M -227.21048,93.99923 L -222.03301,55.300889 L -183.62877,48.266515 L -165.07112,82.617372 L -192.0061,110.88174 L -227.21048,93.99923 z"
       transform="matrix(0.9380232,-0.4745391,-0.3597397,-0.7110988,424.91503,131.63978)" />
    <path
       sodipodi:type="star"
       style="fill:#681c20;fill-opacity:1;fill-rule:nonzero;stroke:#000000;stroke-width:0;stroke-linecap:round;stroke-linejoin:round;stroke-miterlimit:4;stroke-dasharray:none;stroke-opacity:1"
       id="path2472"
       sodipodi:sides="5"
       sodipodi:cx="-347.49249"
       sodipodi:cy="-27.34779"
       sodipodi:r1="36.827927"
       sodipodi:r2="34.138332"
       sodipodi:arg1="-0.69751242"
       sodipodi:arg2="-0.069193859"
       inkscape:flatsided="true"
       inkscape:rounded="-1.9775848e-16"
       inkscape:randomized="0"
       d="M -319.26601,-51.002849 L -316.27273,-7.8126244 L -356.4241,8.3806657 L -384.23229,-24.801555 L -361.26733,-61.502586 L -319.26601,-51.002849 z"
       transform="matrix(0.5388813,0.5504975,0.277614,-0.2730913,278.70249,410.21387)" />
    <path
       sodipodi:type="star"
       style="fill:url(#radialGradient2478);fill-opacity:1;fill-rule:nonzero;stroke:#000000;stroke-width:0;stroke-linecap:round;stroke-linejoin:round;stroke-miterlimit:4;stroke-dasharray:none;stroke-opacity:1"
       id="path2474"
       sodipodi:sides="5"
       sodipodi:cx="-230.31477"
       sodipodi:cy="74.172539"
       sodipodi:r1="25.379768"
       sodipodi:r2="20.532663"
       sodipodi:arg1="0.82762657"
       sodipodi:arg2="1.4559451"
       inkscape:flatsided="true"
       inkscape:rounded="-1.9775848e-16"
       inkscape:randomized="0"
       d="M -213.14218,92.860361 L -242.78133,96.2795 L -255.19212,69.14757 L -233.22327,48.959976 L -207.23498,63.615287 L -213.14218,92.860361 z"
       transform="matrix(0.5501108,0.5619689,0.5581165,-0.5490239,166.17238,361.83664)" />
    <path
       sodipodi:type="star"
       style="fill:url(#radialGradient2481);fill-opacity:1;fill-rule:nonzero;stroke:#000000;stroke-width:0;stroke-linecap:round;stroke-linejoin:round;stroke-miterlimit:4;stroke-dasharray:none;stroke-opacity:1"
       id="path2476"
       sodipodi:sides="5"
       sodipodi:cx="-197.9899"
       sodipodi:cy="78.21315"
       sodipodi:r1="33.21209"
       sodipodi:r2="32.661118"
       sodipodi:arg1="2.6462749"
       sodipodi:arg2="3.2745934"
       inkscape:flatsided="true"
       inkscape:rounded="-1.9775848e-16"
       inkscape:randomized="0"
       d="M -227.21048,93.99923 L -222.03301,55.300889 L -183.62877,48.266515 L -165.07112,82.617372 L -192.0061,110.88174 L -227.21048,93.99923 z"
       transform="matrix(0.5782904,0.590756,0.4447716,-0.4375257,192.68835,366.33941)" />
    <path
       sodipodi:type="star"
       style="fill:url(#radialGradient3729);fill-opacity:1;fill-rule:nonzero;stroke:#000000;stroke-width:0;stroke-linecap:round;stroke-linejoin:round;stroke-miterlimit:4;stroke-dasharray:none;stroke-opacity:1"
       id="path3727"
       sodipodi:sides="5"
       sodipodi:cx="-197.9899"
       sodipodi:cy="78.21315"
       sodipodi:r1="33.21209"
       sodipodi:r2="32.661118"
       sodipodi:arg1="2.6462749"
       sodipodi:arg2="3.2745934"
       inkscape:flatsided="true"
       inkscape:rounded="-1.9775848e-16"
       inkscape:randomized="0"
       d="M -227.21048,93.99923 L -222.03301,55.300889 L -183.62877,48.266515 L -165.07112,82.617372 L -192.0061,110.88174 L -227.21048,93.99923 z"
       transform="matrix(-0.8578228,9.5239263e-2,-0.1017396,-0.784424,-131.90186,237.73894)" />
    <path
       sodipodi:type="star"
       style="fill:url(#radialGradient2840);fill-opacity:1;fill-rule:nonzero;stroke:#000000;stroke-width:0;stroke-linecap:round;stroke-linejoin:round;stroke-miterlimit:4;stroke-dasharray:none;stroke-opacity:1"
       id="path2838"
       sodipodi:sides="5"
       sodipodi:cx="-197.9899"
       sodipodi:cy="78.21315"
       sodipodi:r1="33.21209"
       sodipodi:r2="32.661118"
       sodipodi:arg1="2.6462749"
       sodipodi:arg2="3.2745934"
       inkscape:flatsided="true"
       inkscape:rounded="-1.9775848e-16"
       inkscape:randomized="0"
       d="M -227.21048,93.99923 L -222.03301,55.300889 L -183.62877,48.266515 L -165.07112,82.617372 L -192.0061,110.88174 L -227.21048,93.99923 z"
       transform="matrix(-0.8578512,9.4983679e-2,-0.1015059,-0.7844543,-132.43084,308.40219)" />
  </g>
</svg>
