<?xml version="1.0" encoding="UTF-8" standalone="no"?>
<!-- Created with Inkscape (http://www.inkscape.org/) -->

<svg
   xmlns:dc="http://purl.org/dc/elements/1.1/"
   xmlns:cc="http://creativecommons.org/ns#"
   xmlns:rdf="http://www.w3.org/1999/02/22-rdf-syntax-ns#"
   xmlns:svg="http://www.w3.org/2000/svg"
   xmlns="http://www.w3.org/2000/svg"
   xmlns:xlink="http://www.w3.org/1999/xlink"
   xmlns:sodipodi="http://sodipodi.sourceforge.net/DTD/sodipodi-0.dtd"
   xmlns:inkscape="http://www.inkscape.org/namespaces/inkscape"
   width="32"
   height="32"
   id="svg2"
   sodipodi:version="0.32"
   inkscape:version="0.48.5 r10040"
   version="1.0"
   sodipodi:docname="1.svg"
   inkscape:export-filename="/home/sydney/Downloads/1.png"
   inkscape:export-xdpi="360"
   inkscape:export-ydpi="360"
   inkscape:output_extension="org.inkscape.output.svg.inkscape">
  <defs
     id="defs4">
    <linearGradient
       id="linearGradient3819">
      <stop
         style="stop-color:#cce45c;stop-opacity:1;"
         offset="0"
         id="stop3821" />
      <stop
         style="stop-color:#217200;stop-opacity:1;"
         offset="1"
         id="stop3823" />
    </linearGradient>
    <linearGradient
       id="linearGradient3795">
      <stop
         style="stop-color:#cce45c;stop-opacity:1;"
         offset="0"
         id="stop3797" />
      <stop
         style="stop-color:#217200;stop-opacity:1;"
         offset="1"
         id="stop3799" />
    </linearGradient>
    <linearGradient
       id="linearGradient3555">
      <stop
         style="stop-color:#24e41d;stop-opacity:1;"
         offset="0"
         id="stop3557" />
      <stop
         style="stop-color:#22b225;stop-opacity:1;"
         offset="1"
         id="stop3559" />
    </linearGradient>
    <linearGradient
       id="linearGradient3161">
      <stop
         id="stop3163"
         offset="0"
         style="stop-color:#cce45c;stop-opacity:1;" />
      <stop
         id="stop3165"
         offset="1"
         style="stop-color:#217200;stop-opacity:1;" />
    </linearGradient>
    <radialGradient
       inkscape:collect="always"
       xlink:href="#linearGradient3555"
       id="radialGradient3561"
       cx="41.678631"
       cy="35.351364"
       fx="41.678631"
       fy="35.351364"
       r="10.393677"
       gradientTransform="matrix(0.9116367,-0.410997,0.3699828,0.8206628,-3.5972049,6.0630139)"
       gradientUnits="userSpaceOnUse" />
    <radialGradient
       inkscape:collect="always"
       xlink:href="#linearGradient3555"
       id="radialGradient3569"
       cx="49.991676"
       cy="35.808765"
       fx="49.991676"
       fy="35.808765"
       r="5.8126392"
       gradientTransform="matrix(0.67832976,-0.92699749,2.0159644,2.1470169,-50.583094,-13.118596)"
       gradientUnits="userSpaceOnUse" />
    <radialGradient
       inkscape:collect="always"
       xlink:href="#linearGradient3161"
       id="radialGradient3202"
       cx="11.514997"
       cy="9.4373131"
       fx="11.514997"
       fy="9.4373131"
       r="11.99541"
       gradientTransform="matrix(0.9513818,-0.3080142,0.4304998,1.3297103,27.988851,-1.8783822)"
       gradientUnits="userSpaceOnUse" />
    <radialGradient
       inkscape:collect="always"
       xlink:href="#linearGradient3161"
       id="radialGradient3204"
       cx="29.834003"
       cy="13.69742"
       fx="29.834003"
       fy="13.69742"
       r="7.5"
       gradientTransform="matrix(0.7449735,-0.8507405,1.0476416,0.9173946,18.408134,28.969844)"
       gradientUnits="userSpaceOnUse" />
    <filter
       inkscape:collect="always"
       id="filter3222"
       x="-0.17958056"
       width="1.3591611"
       y="-0.12018714"
       height="1.2403743">
      <feGaussianBlur
         inkscape:collect="always"
         stdDeviation="0.8701705"
         id="feGaussianBlur3224" />
    </filter>
    <filter
       inkscape:collect="always"
       id="filter3238">
      <feGaussianBlur
         inkscape:collect="always"
         stdDeviation="0.027761789"
         id="feGaussianBlur3240" />
    </filter>
    <filter
       inkscape:collect="always"
       id="filter3246">
      <feGaussianBlur
         inkscape:collect="always"
         stdDeviation="0.017885213"
         id="feGaussianBlur3248" />
    </filter>
    <filter
       inkscape:collect="always"
       id="filter3266">
      <feGaussianBlur
         inkscape:collect="always"
         stdDeviation="0.015555187"
         id="feGaussianBlur3268" />
    </filter>
    <filter
       inkscape:collect="always"
       id="filter3270">
      <feGaussianBlur
         inkscape:collect="always"
         stdDeviation="0.015555187"
         id="feGaussianBlur3272" />
    </filter>
    <filter
       inkscape:collect="always"
       id="filter3274">
      <feGaussianBlur
         inkscape:collect="always"
         stdDeviation="0.02093107"
         id="feGaussianBlur3276" />
    </filter>
    <filter
       inkscape:collect="always"
       id="filter3278">
      <feGaussianBlur
         inkscape:collect="always"
         stdDeviation="0.02093107"
         id="feGaussianBlur3280" />
    </filter>
    <filter
       inkscape:collect="always"
       id="filter3282"
       x="-0.14353563"
       width="1.2870713"
       y="-0.10309538"
       height="1.2061908">
      <feGaussianBlur
         inkscape:collect="always"
         stdDeviation="1.1534802"
         id="feGaussianBlur3284" />
    </filter>
    <radialGradient
       inkscape:collect="always"
       xlink:href="#linearGradient3161"
       id="radialGradient3023"
       gradientUnits="userSpaceOnUse"
       gradientTransform="matrix(0.8509798,-0.2598077,0.632954,2.0731914,-14.845706,-22.156492)"
       cx="15.105124"
       cy="19.806374"
       fx="15.105124"
       fy="19.806374"
       r="12.5" />
    <radialGradient
       inkscape:collect="always"
       xlink:href="#linearGradient3795"
       id="radialGradient3805"
       cx="15.485069"
       cy="19.880173"
       fx="15.485069"
       fy="19.880173"
       r="16.06586"
       gradientTransform="matrix(0.31666364,-0.756173,1.6600155,0.71937417,-20.873952,15.272633)"
       gradientUnits="userSpaceOnUse" />
    <radialGradient
       inkscape:collect="always"
       xlink:href="#linearGradient3555"
       id="radialGradient3809"
       gradientUnits="userSpaceOnUse"
       gradientTransform="matrix(0.74552869,-0.42501233,1.1123213,1.9468564,-19.181036,-32.556304)"
       cx="41.101105"
       cy="28.672106"
       fx="41.101105"
       fy="28.672106"
       r="10.393677" />
    <radialGradient
       inkscape:collect="always"
       xlink:href="#linearGradient3819"
       id="radialGradient3827"
       cx="-94.530899"
       cy="33.146152"
       fx="-94.530899"
       fy="33.146152"
       r="7.0185184"
       gradientTransform="matrix(0.60950546,-1.0319631,1.1472811,0.55232981,18.51035,-86.942741)"
       gradientUnits="userSpaceOnUse" />
    <radialGradient
       inkscape:collect="always"
       xlink:href="#linearGradient3819"
       id="radialGradient3818"
       gradientUnits="userSpaceOnUse"
       gradientTransform="matrix(0.60950546,-1.0319631,1.1472811,0.55232981,18.51035,-86.942741)"
       cx="-94.530899"
       cy="33.146152"
       fx="-94.530899"
       fy="33.146152"
       r="7.0185184" />
    <radialGradient
       inkscape:collect="always"
       xlink:href="#linearGradient3555"
       id="radialGradient3820"
       gradientUnits="userSpaceOnUse"
       gradientTransform="matrix(0.67832976,-0.92699749,2.0159644,2.1470169,-50.583094,-13.118596)"
       cx="49.991676"
       cy="35.808765"
       fx="49.991676"
       fy="35.808765"
       r="5.8126392" />
    <filter
       inkscape:collect="always"
       id="filter3871">
      <feGaussianBlur
         inkscape:collect="always"
         stdDeviation="0.020814801"
         id="feGaussianBlur3873" />
    </filter>
    <filter
       inkscape:collect="always"
       id="filter3949"
       x="-1.1033696"
       width="3.2067392"
       y="-0.2758424"
       height="1.5516848">
      <feGaussianBlur
         inkscape:collect="always"
         stdDeviation="0.45973733"
         id="feGaussianBlur3951" />
    </filter>
    <filter
       inkscape:collect="always"
       id="filter3957"
       x="-1.1033051"
       width="3.2066101"
       y="-0.27582627"
       height="1.5516525">
      <feGaussianBlur
         inkscape:collect="always"
         stdDeviation="0.45971044"
         id="feGaussianBlur3959" />
    </filter>
    <filter
       inkscape:collect="always"
       id="filter3961"
       x="-0.46116873"
       width="1.9223375"
       y="-0.50043464"
       height="2.0008693">
      <feGaussianBlur
         inkscape:collect="always"
         stdDeviation="0.4794681"
         id="feGaussianBlur3963" />
    </filter>
    <filter
       inkscape:collect="always"
       id="filter3965"
       x="-0.48123889"
       width="1.9624778"
       y="-0.55166411"
       height="2.1033282">
      <feGaussianBlur
         inkscape:collect="always"
         stdDeviation="1.1282894"
         id="feGaussianBlur3967" />
    </filter>
    <filter
       inkscape:collect="always"
       id="filter3973"
       x="-1.0516952"
       width="3.1033904"
       y="-0.2629238"
       height="1.5258476">
      <feGaussianBlur
         inkscape:collect="always"
         stdDeviation="0.43820634"
         id="feGaussianBlur3975" />
    </filter>
    <filter
       inkscape:collect="always"
       id="filter3981"
       x="-1.0516952"
       width="3.1033904"
       y="-0.2629238"
       height="1.5258476">
      <feGaussianBlur
         inkscape:collect="always"
         stdDeviation="0.43820634"
         id="feGaussianBlur3983" />
    </filter>
    <filter
       inkscape:collect="always"
       id="filter3985"
       x="-0.53665632"
       width="2.0733126"
       y="-0.42932505"
       height="1.8586501">
      <feGaussianBlur
         inkscape:collect="always"
         stdDeviation="0.30287481"
         id="feGaussianBlur3987" />
    </filter>
    <filter
       inkscape:collect="always"
       id="filter3997"
       x="-0.3441837"
       width="1.6883674"
       y="-0.80710276"
       height="2.6142055">
      <feGaussianBlur
         inkscape:collect="always"
         stdDeviation="0.59501372"
         id="feGaussianBlur3999" />
    </filter>
    <filter
       inkscape:collect="always"
       id="filter4005"
       x="-0.3074803"
       width="1.6149606"
       y="-1.357042"
       height="3.7140841">
      <feGaussianBlur
         inkscape:collect="always"
         stdDeviation="0.56436394"
         id="feGaussianBlur4007" />
    </filter>
    <filter
       inkscape:collect="always"
       id="filter4009"
       x="-0.53665632"
       width="2.0733126"
       y="-0.42932505"
       height="1.8586501">
      <feGaussianBlur
         inkscape:collect="always"
         stdDeviation="0.30287481"
         id="feGaussianBlur4011" />
    </filter>
    <filter
       inkscape:collect="always"
       id="filter4013"
       x="-1.0516952"
       width="3.1033904"
       y="-0.2629238"
       height="1.5258476">
      <feGaussianBlur
         inkscape:collect="always"
         stdDeviation="0.43820634"
         id="feGaussianBlur4015" />
    </filter>
    <filter
       inkscape:collect="always"
       id="filter4017"
       x="-1.0516952"
       width="3.1033904"
       y="-0.2629238"
       height="1.5258476">
      <feGaussianBlur
         inkscape:collect="always"
         stdDeviation="0.43820634"
         id="feGaussianBlur4019" />
    </filter>
    <radialGradient
       inkscape:collect="always"
       xlink:href="#linearGradient3819"
       id="radialGradient3905"
       gradientUnits="userSpaceOnUse"
       gradientTransform="matrix(0.60950546,-1.0319631,1.1472811,0.55232981,18.51035,-86.942741)"
       cx="-94.530899"
       cy="33.146152"
       fx="-94.530899"
       fy="33.146152"
       r="7.0185184" />
    <filter
       inkscape:collect="always"
       id="filter4014"
       x="-0.30077431"
       width="1.6015486"
       y="-0.34479007"
       height="1.6895801">
      <feGaussianBlur
         inkscape:collect="always"
         stdDeviation="0.7051809"
         id="feGaussianBlur4016" />
    </filter>
    <filter
       inkscape:collect="always"
       id="filter3869"
       x="-1.4666717"
       width="3.9333433"
       y="-0.23783867"
       height="1.4756773">
      <feGaussianBlur
         inkscape:collect="always"
         stdDeviation="0.11458373"
         id="feGaussianBlur3871" />
    </filter>
    <filter
       inkscape:collect="always"
       id="filter3873"
       x="-1.4666717"
       width="3.9333433"
       y="-0.23783867"
       height="1.4756773">
      <feGaussianBlur
         inkscape:collect="always"
         stdDeviation="0.11458373"
         id="feGaussianBlur3875" />
    </filter>
    <filter
       inkscape:collect="always"
       id="filter3877"
       x="-1.4666717"
       width="3.9333433"
       y="-0.23783867"
       height="1.4756773">
      <feGaussianBlur
         inkscape:collect="always"
         stdDeviation="0.11458373"
         id="feGaussianBlur3879" />
    </filter>
    <filter
       inkscape:collect="always"
       id="filter3881"
       x="-1.4666717"
       width="3.9333433"
       y="-0.23783867"
       height="1.4756773">
      <feGaussianBlur
         inkscape:collect="always"
         stdDeviation="0.11458373"
         id="feGaussianBlur3883" />
    </filter>
    <filter
       inkscape:collect="always"
       id="filter3889"
       x="-1.4666717"
       width="3.9333433"
       y="-0.23783867"
       height="1.4756773">
      <feGaussianBlur
         inkscape:collect="always"
         stdDeviation="0.11458373"
         id="feGaussianBlur3891" />
    </filter>
    <filter
       inkscape:collect="always"
       id="filter3897"
       x="-1.4666717"
       width="3.9333433"
       y="-0.23783867"
       height="1.4756773">
      <feGaussianBlur
         inkscape:collect="always"
         stdDeviation="0.11458373"
         id="feGaussianBlur3899" />
    </filter>
  </defs>
  <sodipodi:namedview
     id="base"
     pagecolor="#000000"
     bordercolor="#666666"
     borderopacity="1.0"
     inkscape:pageopacity="0"
     inkscape:pageshadow="2"
     inkscape:zoom="5.656854"
     inkscape:cx="33.728534"
     inkscape:cy="-2.9907431"
     inkscape:document-units="px"
     inkscape:current-layer="layer2"
     width="32px"
     height="32px"
     gridtolerance="10000"
     showgrid="true"
     inkscape:grid-points="true"
     inkscape:window-width="1600"
     inkscape:window-height="853"
     inkscape:window-x="0"
     inkscape:window-y="24"
     showguides="true"
     inkscape:guide-bbox="true"
     inkscape:window-maximized="1" />
  <metadata
     id="metadata7">
    <rdf:RDF>
      <cc:Work
         rdf:about="">
        <dc:format>image/svg+xml</dc:format>
        <dc:type
           rdf:resource="http://purl.org/dc/dcmitype/StillImage" />
        <dc:title></dc:title>
      </cc:Work>
    </rdf:RDF>
  </metadata>
  <g
     inkscape:label="big_hill"
     inkscape:groupmode="layer"
     id="layer1"
     style="display:inline">
    <path
       sodipodi:type="inkscape:offset"
       inkscape:radius="0"
       inkscape:original="M 45.8125 1.25 C 39.1885 1.25 34.606559 13.90785 34.8125 21.3125 C 34.965355 26.723808 34.897029 31.69771 38.5625 31.75 C 41.518099 31.79216 50.65898 31.667 53.8125 31.75 C 55.971172 31.806815 57.8125 24.25 57.8125 21.75 C 57.8125 10.434 52.4365 1.25 45.8125 1.25 z "
       xlink:href="#path2760"
       style="fill:url(#radialGradient3023);fill-opacity:1;stroke:#000000;stroke-width:1;stroke-miterlimit:4;stroke-opacity:1;stroke-dashoffset:0"
       id="path2404"
       inkscape:href="#path2760"
       d="M 13,1 C 6.376,1 1.8253098,13.65785 2.03125,21.0625 2.1841053,26.473808 2.0845289,31.478959 5.75,31.53125 c 2.9555984,0.04216 12.09648,-0.083 15.25,0 C 23.158672,31.588065 25,24 25,21.5 25,10.184 19.624,1 13,1 z" />
    <path
       style="fill:url(#radialGradient3202);fill-opacity:1;stroke:#000000;stroke-width:1;stroke-miterlimit:4;stroke-opacity:1;stroke-dashoffset:0;filter:url(#filter3238)"
       d="m 57.803769,21.739444 c 0,2.5 -1.841328,10.080625 -4,10.02381 -3.15352,-0.083 -12.282497,0.04216 -15.238096,0 -3.665471,-0.05229 -3.593176,-5.035782 -3.746031,-10.44709 -0.205941,-7.40465 4.360127,-20.0767204 10.984127,-20.0767204 6.624,0 12,9.1840004 12,20.5000004 z"
       id="path2760"
       sodipodi:nodetypes="csssss"
       inkscape:connector-curvature="0" />
    <path
       sodipodi:type="inkscape:offset"
       inkscape:radius="-1.833112"
       inkscape:original="M 45.8125 1.25 C 39.1885 1.25 34.606559 13.90785 34.8125 21.3125 C 34.965355 26.723808 34.897029 31.69771 38.5625 31.75 C 41.518099 31.79216 50.65898 31.667 53.8125 31.75 C 55.971172 31.806815 57.8125 24.25 57.8125 21.75 C 57.8125 10.434 52.4365 1.25 45.8125 1.25 z "
       xlink:href="#path2760"
       style="fill:url(#radialGradient3561);fill-opacity:1;stroke:none;filter:url(#filter3282)"
       id="path2408"
       inkscape:href="#path2760"
       d="m 45.8125,3.09375 c -1.072182,0 -2.151706,0.4790984 -3.28125,1.5625 -1.129544,1.0834016 -2.218909,2.7223085 -3.125,4.625 -1.812183,3.805383 -2.84166,8.673109 -2.75,11.96875 0.07709,2.729206 0.123331,5.298273 0.5,6.875 0.188334,0.788363 0.457734,1.283331 0.65625,1.5 0.198516,0.216669 0.279414,0.274091 0.78125,0.28125 2.785857,0.03974 11.46603,-0.07557 14.9375,0 0.02794,-0.0293 0.128659,-0.106774 0.28125,-0.34375 0.335426,-0.52092 0.727186,-1.429674 1.0625,-2.4375 0.670628,-2.015652 1.09375,-4.575048 1.09375,-5.375 0,-5.367709 -1.283214,-10.202574 -3.25,-13.5625 C 50.751964,4.8275741 48.277313,3.09375 45.8125,3.09375 z"
       transform="matrix(1.0566925,0,0,1.0566925,2.4914216,0.92568291)" />
    <g
       id="g3801"
       transform="translate(-2.0072352,-5.3904638)">
      <g
         style="display:inline"
         id="g3803"
         inkscape:label="big_hill" />
    </g>
    <path
       sodipodi:type="arc"
       style="fill:url(#radialGradient3805);fill-opacity:1;fill-rule:nonzero;stroke:#000000;stroke-width:0.18621308;stroke-linecap:round;stroke-linejoin:round;stroke-miterlimit:4;stroke-opacity:1;stroke-dasharray:none"
       id="path3793"
       sodipodi:cx="18.377295"
       sodipodi:cy="25.774467"
       sodipodi:rx="15.623693"
       sodipodi:ry="15.204666"
       d="m 34.000988,25.774467 a 15.623693,15.204666 0 1 1 -31.2473869,0 15.623693,15.204666 0 1 1 31.2473869,0 z"
       transform="matrix(0.9001615,0,0.0070879,2.0023464,0.54903909,-18.709967)" />
    <path
       transform="matrix(1.2138559,0,0,1.2122987,-39.741122,1.0094094)"
       d="m 45.8125,3.09375 c -1.072182,0 -2.151706,0.4790984 -3.28125,1.5625 -1.129544,1.0834016 -2.218909,2.7223085 -3.125,4.625 -1.812183,3.805383 -2.84166,8.673109 -2.75,11.96875 0.07709,2.729206 0.123331,5.298273 0.5,6.875 0.188334,0.788363 0.457734,1.283331 0.65625,1.5 0.198516,0.216669 0.279414,0.274091 0.78125,0.28125 2.785857,0.03974 11.46603,-0.07557 14.9375,0 0.02794,-0.0293 0.128659,-0.106774 0.28125,-0.34375 0.335426,-0.52092 0.727186,-1.429674 1.0625,-2.4375 0.670628,-2.015652 1.09375,-4.575048 1.09375,-5.375 0,-5.367709 -1.283214,-10.202574 -3.25,-13.5625 C 50.751964,4.8275741 48.277313,3.09375 45.8125,3.09375 z"
       inkscape:href="#path2760"
       id="path3807"
       style="fill:url(#radialGradient3809);fill-opacity:1;stroke:none;filter:url(#filter3282)"
       xlink:href="#path2760"
       inkscape:original="M 45.8125 1.25 C 39.1885 1.25 34.606559 13.90785 34.8125 21.3125 C 34.965355 26.723808 34.897029 31.69771 38.5625 31.75 C 41.518099 31.79216 50.65898 31.667 53.8125 31.75 C 55.971172 31.806815 57.8125 24.25 57.8125 21.75 C 57.8125 10.434 52.4365 1.25 45.8125 1.25 z "
       inkscape:radius="-1.833112"
       sodipodi:type="inkscape:offset"
       inkscape:transform-center-x="-25.284249"
       inkscape:transform-center-y="-6.6043215" />
    <path
       style="fill:#272727;fill-opacity:1;stroke:#272727;stroke-width:0.79361784000000002;stroke-linecap:round;stroke-linejoin:round;stroke-miterlimit:4;stroke-opacity:1;stroke-dasharray:none"
       d="m 17.237862,16.2178 -1.243762,2.269548 2.495233,0.0299 z"
       id="path3813"
       inkscape:connector-curvature="0" />
    <path
       sodipodi:type="arc"
       style="fill:#272727;fill-opacity:1;stroke:#272727;stroke-width:1;stroke-miterlimit:4;stroke-opacity:1;stroke-dasharray:none;stroke-dashoffset:0;filter:url(#filter3266)"
       id="path4552"
       sodipodi:cx="8.5"
       sodipodi:cy="10"
       sodipodi:rx="0.5"
       sodipodi:ry="2"
       d="m 9,10 a 0.5,2 0 1 1 -1,0 0.5,2 0 1 1 1,0 z"
       transform="matrix(1.1613911,0,0,0.85487787,4.1729207,2.8712031)" />
    <path
       sodipodi:type="arc"
       style="fill:#272727;fill-opacity:1;stroke:#272727;stroke-width:1;stroke-miterlimit:4;stroke-opacity:1;stroke-dasharray:none;stroke-dashoffset:0;filter:url(#filter3270)"
       id="path4554"
       sodipodi:cx="8.5"
       sodipodi:cy="10"
       sodipodi:rx="0.5"
       sodipodi:ry="2"
       d="m 9,10 a 0.5,2 0 1 1 -1,0 0.5,2 0 1 1 1,0 z"
       transform="matrix(1.1616988,0,0,0.85490145,10.485458,2.8709855)" />
    <path
       sodipodi:type="arc"
       style="fill:#272727;fill-opacity:1;fill-rule:nonzero;stroke:#272727;stroke-width:0.98443656999999996;stroke-linecap:round;stroke-linejoin:round;stroke-miterlimit:4;stroke-opacity:1;stroke-dasharray:none"
       id="path3815"
       sodipodi:cx="18.85618"
       sodipodi:cy="34.334576"
       sodipodi:rx="2.813462"
       sodipodi:ry="2.4542966"
       d="m 21.669642,34.334576 a 2.813462,2.4542966 0 1 1 -5.626924,0 2.813462,2.4542966 0 1 1 5.626924,0 z"
       transform="matrix(1.3088495,0,0,0.70037245,-7.220656,0.16134011)" />
    <path
       transform="matrix(1.3088495,0,0,0.70037245,-7.220656,0.16134011)"
       d="m 21.669642,34.334576 a 2.813462,2.4542966 0 1 1 -5.626924,0 2.813462,2.4542966 0 1 1 5.626924,0 z"
       sodipodi:ry="2.4542966"
       sodipodi:rx="2.813462"
       sodipodi:cy="34.334576"
       sodipodi:cx="18.85618"
       id="path3851"
       style="fill:#272727;fill-opacity:1;fill-rule:nonzero;stroke:#272727;stroke-width:0.98443656999999996;stroke-linecap:round;stroke-linejoin:round;stroke-miterlimit:4;stroke-opacity:1;stroke-dasharray:none;filter:url(#filter3965)"
       sodipodi:type="arc" />
    <path
       sodipodi:type="arc"
       style="fill:#800000;fill-opacity:1;fill-rule:nonzero;stroke:#272727;stroke-width:0.98443657;stroke-linecap:round;stroke-linejoin:round;stroke-miterlimit:4;stroke-opacity:1;stroke-dasharray:none;filter:url(#filter4014)"
       id="path4000"
       sodipodi:cx="18.85618"
       sodipodi:cy="34.334576"
       sodipodi:rx="2.813462"
       sodipodi:ry="2.4542966"
       d="m 21.669642,34.334576 a 2.813462,2.4542966 0 1 1 -5.626924,0 2.813462,2.4542966 0 1 1 5.626924,0 z"
       transform="matrix(1.0689432,0,0,0.57199727,-2.590225,4.745824)" />
    <path
       sodipodi:type="arc"
       style="fill:url(#radialGradient3827);fill-opacity:1;stroke:#000000;stroke-width:0.21329801;stroke-linecap:round;stroke-linejoin:round;stroke-miterlimit:4;stroke-opacity:1;stroke-dasharray:none"
       id="path3817"
       sodipodi:cx="-1.1005291"
       sodipodi:cy="36.910053"
       sodipodi:rx="6.5185184"
       sodipodi:ry="14.730159"
       d="m 5.4179894,36.910053 a 6.5185184,14.730159 0 1 1 -13.0370369,0 6.5185184,14.730159 0 1 1 13.0370369,0 z"
       transform="matrix(1.1685205,0,0,1.1756284,10.088198,-11.816066)" />
    <path
       transform="matrix(1.0049171,0,0,1.0600915,26.269458,-7.3058074)"
       d="m 5.4179894,36.910053 a 6.5185184,14.730159 0 1 1 -13.0370369,0 6.5185184,14.730159 0 1 1 13.0370369,0 z"
       sodipodi:ry="14.730159"
       sodipodi:rx="6.5185184"
       sodipodi:cy="36.910053"
       sodipodi:cx="-1.1005291"
       id="path3805"
       style="fill:url(#radialGradient3905);fill-opacity:1;stroke:#000000;stroke-width:0.30287504;stroke-linecap:round;stroke-linejoin:round;stroke-miterlimit:4;stroke-opacity:1;stroke-dasharray:none"
       sodipodi:type="arc" />
    <path
       transform="matrix(1.1616988,0,0,0.85490145,10.485458,2.8709855)"
       d="m 9,10 a 0.5,2 0 1 1 -1,0 0.5,2 0 1 1 1,0 z"
       sodipodi:ry="2"
       sodipodi:rx="0.5"
       sodipodi:cy="10"
       sodipodi:cx="8.5"
       id="path3835"
       style="fill:#272727;fill-opacity:1;stroke:#272727;stroke-width:1;stroke-miterlimit:4;stroke-opacity:1;stroke-dasharray:none;stroke-dashoffset:0;filter:url(#filter3957)"
       sodipodi:type="arc" />
    <path
       inkscape:connector-curvature="0"
       id="path3045"
       d="m 17.237862,16.2178 -1.243762,2.269548 2.495233,0.0299 z"
       style="fill:#272727;fill-opacity:1;stroke:#272727;stroke-width:0.79361784000000002;stroke-linecap:round;stroke-linejoin:round;stroke-miterlimit:4;stroke-opacity:1;stroke-dasharray:none;filter:url(#filter3961)"
       inkscape:transform-center-y="-1.8556876" />
    <path
       transform="matrix(1.1613911,0,0,0.85487787,4.1729207,2.8712031)"
       d="m 9,10 a 0.5,2 0 1 1 -1,0 0.5,2 0 1 1 1,0 z"
       sodipodi:ry="2"
       sodipodi:rx="0.5"
       sodipodi:cy="10"
       sodipodi:cx="8.5"
       id="path3845"
       style="fill:#272727;fill-opacity:1;stroke:#272727;stroke-width:1;stroke-miterlimit:4;stroke-opacity:1;stroke-dasharray:none;stroke-dashoffset:0;filter:url(#filter3949)"
       sodipodi:type="arc" />
  </g>
  <g
     inkscape:groupmode="layer"
     id="layer2"
     inkscape:label="small_hill"
     style="display:inline">
    <path
       style="fill:url(#radialGradient3204);fill-opacity:1;stroke:#000000;stroke-width:1;stroke-miterlimit:4;stroke-opacity:1;stroke-dashoffset:0;display:inline;filter:url(#filter3246)"
       d="m 63.253504,24.636667 c -0.106169,7.177587 -0.213303,7.231997 -7.190476,7.261905 -5.706256,0.02446 -6.640212,0.132275 -6.809524,-7.261905 -0.147115,-6.498335 3.136,-12.499999 7,-12.499999 3.864,0 7,5.599999 7,12.499999 z"
       id="path2764"
       sodipodi:nodetypes="csssc"
       inkscape:connector-curvature="0" />
    <path
       sodipodi:type="inkscape:offset"
       inkscape:radius="-1.1961735"
       inkscape:original="M 56.25 12.125 C 52.386 12.125 49.102885 18.126665 49.25 24.625 C 49.419312 32.01918 50.356244 31.93071 56.0625 31.90625 C 63.039673 31.876342 63.143831 31.802587 63.25 24.625 C 63.25 17.725 60.114 12.125 56.25 12.125 z "
       xlink:href="#path2764"
       style="fill:url(#radialGradient3569);fill-opacity:1;stroke:none;display:inline;filter:url(#filter3222)"
       id="path3238"
       inkscape:href="#path2764"
       d="m 56.25,13.3125 c -1.312691,0 -2.805305,1.125447 -3.96875,3.21875 -1.163445,2.093303 -1.912562,5.022953 -1.84375,8.0625 0.04175,1.823249 0.137133,3.162004 0.3125,4.0625 0.175367,0.900496 0.426315,1.286582 0.65625,1.5 0.229935,0.213418 0.5745,0.379327 1.34375,0.46875 0.76925,0.08942 1.882985,0.09988 3.3125,0.09375 1.742199,-0.0075 3.033839,-0.01666 3.90625,-0.125 0.872411,-0.108345 1.219176,-0.311301 1.40625,-0.5 0.187074,-0.188699 0.381485,-0.567583 0.5,-1.46875 0.117598,-0.894196 0.161122,-2.229397 0.1875,-4 0,-0.01097 1.7e-5,-0.02029 0,-0.03125 C 62.057432,21.338092 61.292778,18.404515 60.15625,16.375 59.015894,14.33865 57.604138,13.3125 56.25,13.3125 z"
       transform="matrix(1.024407,0,0,1.2045787,-48.843269,-0.24217138)" />
    <path
       sodipodi:type="arc"
       style="fill:#272727;fill-opacity:1;stroke:#272727;stroke-width:1;stroke-miterlimit:4;stroke-opacity:1;stroke-dasharray:none;stroke-dashoffset:0;display:inline;filter:url(#filter3871)"
       id="path4556"
       sodipodi:cx="8.5"
       sodipodi:cy="10"
       sodipodi:rx="0.5"
       sodipodi:ry="2"
       d="m 9,10 a 0.5,2 0 1 1 -1,0 0.5,2 0 1 1 1,0 z"
       transform="matrix(0.8723888,0,0,0.519191,-0.99486938,14.657281)" />
    <path
       sodipodi:type="arc"
       style="fill:#272727;fill-opacity:1;stroke:#272727;stroke-width:1;stroke-miterlimit:4;stroke-opacity:1;stroke-dasharray:none;stroke-dashoffset:0;display:inline;filter:url(#filter3278)"
       id="path4558"
       sodipodi:cx="8.5"
       sodipodi:cy="10"
       sodipodi:rx="0.5"
       sodipodi:ry="2"
       d="m 9,10 a 0.5,2 0 1 1 -1,0 0.5,2 0 1 1 1,0 z"
       transform="matrix(0.8723888,0,0,0.519191,2.9765943,14.657281)" />
    <path
       sodipodi:type="arc"
       style="fill:#272727;fill-opacity:1;stroke:none"
       id="path3829"
       sodipodi:cx="5.9259257"
       sodipodi:cy="28.78307"
       sodipodi:rx="0.67724866"
       sodipodi:ry="0.84656084"
       d="m 6.6031744,28.78307 a 0.67724866,0.84656084 0 1 1 -1.3544973,0 0.67724866,0.84656084 0 1 1 1.3544973,0 z"
       transform="matrix(0.95976565,0,0,0.76781251,2.823999,1.5813611)" />
    <path
       sodipodi:type="arc"
       style="fill:none;stroke:#272727;stroke-linecap:round;stroke-linejoin:round;stroke-opacity:1"
       id="path3831"
       sodipodi:cx="-38.603176"
       sodipodi:cy="17.269842"
       sodipodi:rx="6.2645502"
       sodipodi:ry="14.363611"
       d="M -36.794038,31.021456 A 6.2645502,14.363611 0 0 1 -41.17564,30.366559"
       transform="matrix(1.1375427,-0.10951537,0.07437539,0.99642621,50.516852,-7.4531527)"
       sodipodi:start="1.2778338"
       sodipodi:end="1.9939503"
       sodipodi:open="true"
       inkscape:transform-center-x="2.3191777"
       inkscape:transform-center-y="1.676105" />
    <path
       transform="matrix(0.88134626,0,0,1.1911383,-23.967078,2.9618712)"
       d="m 56.25,13.3125 c -1.312691,0 -2.805305,1.125447 -3.96875,3.21875 -1.163445,2.093303 -1.912562,5.022953 -1.84375,8.0625 0.04175,1.823249 0.137133,3.162004 0.3125,4.0625 0.175367,0.900496 0.426315,1.286582 0.65625,1.5 0.229935,0.213418 0.5745,0.379327 1.34375,0.46875 0.76925,0.08942 1.882985,0.09988 3.3125,0.09375 1.742199,-0.0075 3.033839,-0.01666 3.90625,-0.125 0.872411,-0.108345 1.219176,-0.311301 1.40625,-0.5 0.187074,-0.188699 0.381485,-0.567583 0.5,-1.46875 0.117598,-0.894196 0.161122,-2.229397 0.1875,-4 0,-0.01097 1.7e-5,-0.02029 0,-0.03125 C 62.057432,21.338092 61.292778,18.404515 60.15625,16.375 59.015894,14.33865 57.604138,13.3125 56.25,13.3125 z"
       inkscape:href="#path2764"
       id="path3808"
       style="fill:url(#radialGradient3820);fill-opacity:1;stroke:none;display:inline;filter:url(#filter3222)"
       xlink:href="#path2764"
       inkscape:original="M 56.25 12.125 C 52.386 12.125 49.102885 18.126665 49.25 24.625 C 49.419312 32.01918 50.356244 31.93071 56.0625 31.90625 C 63.039673 31.876342 63.143831 31.802587 63.25 24.625 C 63.25 17.725 60.114 12.125 56.25 12.125 z "
       inkscape:radius="-1.1961735"
       sodipodi:type="inkscape:offset" />
    <path
       transform="matrix(0.75024651,0,0,0.4681666,16.841497,16.565824)"
       d="m 9,10 a 0.5,2 0 1 1 -1,0 0.5,2 0 1 1 1,0 z"
       sodipodi:ry="2"
       sodipodi:rx="0.5"
       sodipodi:cy="10"
       sodipodi:cx="8.5"
       id="path3810"
       style="fill:#272727;fill-opacity:1;stroke:#272727;stroke-width:1;stroke-miterlimit:4;stroke-opacity:1;stroke-dasharray:none;stroke-dashoffset:0;display:inline;filter:url(#filter3274)"
       sodipodi:type="arc" />
    <path
       transform="matrix(0.75024651,0,0,0.4681666,20.463678,16.565824)"
       d="m 9,10 a 0.5,2 0 1 1 -1,0 0.5,2 0 1 1 1,0 z"
       sodipodi:ry="2"
       sodipodi:rx="0.5"
       sodipodi:cy="10"
       sodipodi:cx="8.5"
       id="path3812"
       style="fill:#272727;fill-opacity:1;stroke:#272727;stroke-width:1;stroke-miterlimit:4;stroke-opacity:1;stroke-dasharray:none;stroke-dashoffset:0;display:inline;filter:url(#filter3278)"
       sodipodi:type="arc" />
    <path
       transform="matrix(0.82538983,0,0,0.69235437,20.192669,4.6665694)"
       d="m 6.6031744,28.78307 a 0.67724866,0.84656084 0 1 1 -1.3544973,0 0.67724866,0.84656084 0 1 1 1.3544973,0 z"
       sodipodi:ry="0.84656084"
       sodipodi:rx="0.67724866"
       sodipodi:cy="28.78307"
       sodipodi:cx="5.9259257"
       id="path3814"
       style="fill:#272727;fill-opacity:1;stroke:none"
       sodipodi:type="arc" />
    <path
       inkscape:transform-center-y="-2.1434728"
       inkscape:transform-center-x="1.5450442"
       sodipodi:open="true"
       sodipodi:end="1.9939503"
       sodipodi:start="1.2778338"
       transform="matrix(0.89748678,0.48006834,0.33325666,-0.94936874,49.786477,75.848182)"
       d="M -36.794038,31.021456 A 6.2645502,14.363611 0 0 1 -41.17564,30.366559"
       sodipodi:ry="14.363611"
       sodipodi:rx="6.2645502"
       sodipodi:cy="17.269842"
       sodipodi:cx="-38.603176"
       id="path3816"
       style="fill:none;stroke:#272727;stroke-linecap:round;stroke-linejoin:round;stroke-opacity:1"
       sodipodi:type="arc" />
    <path
       transform="matrix(0.8723888,0,0,0.519191,2.9765943,14.657281)"
       d="m 9,10 a 0.5,2 0 1 1 -1,0 0.5,2 0 1 1 1,0 z"
       sodipodi:ry="2"
       sodipodi:rx="0.5"
       sodipodi:cy="10"
       sodipodi:cx="8.5"
       id="path3861"
       style="fill:#272727;fill-opacity:1;stroke:#272727;stroke-width:1;stroke-miterlimit:4;stroke-opacity:1;stroke-dasharray:none;stroke-dashoffset:0;display:inline;filter:url(#filter3981)"
       sodipodi:type="arc" />
    <path
       transform="matrix(0.8723888,0,0,0.519191,-0.99486938,14.657281)"
       d="m 9,10 a 0.5,2 0 1 1 -1,0 0.5,2 0 1 1 1,0 z"
       sodipodi:ry="2"
       sodipodi:rx="0.5"
       sodipodi:cy="10"
       sodipodi:cx="8.5"
       id="path3875"
       style="fill:#272727;fill-opacity:1;stroke:#272727;stroke-width:1;stroke-miterlimit:4;stroke-opacity:1;stroke-dasharray:none;stroke-dashoffset:0;display:inline;filter:url(#filter3973)"
       sodipodi:type="arc" />
    <path
       transform="matrix(0.95976565,0,0,0.76781251,2.823999,1.5813611)"
       d="m 6.6031744,28.78307 a 0.67724866,0.84656084 0 1 1 -1.3544973,0 0.67724866,0.84656084 0 1 1 1.3544973,0 z"
       sodipodi:ry="0.84656084"
       sodipodi:rx="0.67724866"
       sodipodi:cy="28.78307"
       sodipodi:cx="5.9259257"
       id="path3885"
       style="fill:#272727;fill-opacity:1;stroke:none;filter:url(#filter3985)"
       sodipodi:type="arc" />
    <path
       inkscape:transform-center-y="1.676105"
       inkscape:transform-center-x="2.3191777"
       sodipodi:open="true"
       sodipodi:end="1.9939503"
       sodipodi:start="1.2778338"
       transform="matrix(1.1375427,-0.10951537,0.07437539,0.99642621,50.516852,-7.4531527)"
       d="M -36.794038,31.021456 A 6.2645502,14.363611 0 0 1 -41.17564,30.366559"
       sodipodi:ry="14.363611"
       sodipodi:rx="6.2645502"
       sodipodi:cy="17.269842"
       sodipodi:cx="-38.603176"
       id="path3891"
       style="fill:none;stroke:#272727;stroke-linecap:round;stroke-linejoin:round;stroke-opacity:1;stroke-width:0.99956254000000000;stroke-miterlimit:4;stroke-dasharray:none;filter:url(#filter4005)"
       sodipodi:type="arc" />
    <path
       sodipodi:type="arc"
       style="fill:#272727;fill-opacity:1;stroke:#272727;stroke-width:1;stroke-miterlimit:4;stroke-opacity:1;stroke-dasharray:none;stroke-dashoffset:0;display:inline;filter:url(#filter4013)"
       id="path3909"
       sodipodi:cx="8.5"
       sodipodi:cy="10"
       sodipodi:rx="0.5"
       sodipodi:ry="2"
       d="m 9,10 a 0.5,2 0 1 1 -1,0 0.5,2 0 1 1 1,0 z"
       transform="matrix(0.75024651,0,0,0.4681666,16.841497,16.565824)" />
    <path
       sodipodi:type="arc"
       style="fill:#272727;fill-opacity:1;stroke:#272727;stroke-width:1;stroke-miterlimit:4;stroke-opacity:1;stroke-dasharray:none;stroke-dashoffset:0;display:inline;filter:url(#filter4017)"
       id="path3919"
       sodipodi:cx="8.5"
       sodipodi:cy="10"
       sodipodi:rx="0.5"
       sodipodi:ry="2"
       d="m 9,10 a 0.5,2 0 1 1 -1,0 0.5,2 0 1 1 1,0 z"
       transform="matrix(0.75024651,0,0,0.4681666,20.463678,16.565824)" />
    <path
       sodipodi:type="arc"
       style="fill:#272727;fill-opacity:1;stroke:none;filter:url(#filter4009)"
       id="path3929"
       sodipodi:cx="5.9259257"
       sodipodi:cy="28.78307"
       sodipodi:rx="0.67724866"
       sodipodi:ry="0.84656084"
       d="m 6.6031744,28.78307 a 0.67724866,0.84656084 0 1 1 -1.3544973,0 0.67724866,0.84656084 0 1 1 1.3544973,0 z"
       transform="matrix(0.82538983,0,0,0.69235437,20.192669,4.6665694)" />
    <path
       sodipodi:type="arc"
       style="fill:none;stroke:#272727;stroke-linecap:round;stroke-linejoin:round;stroke-opacity:1;filter:url(#filter3997)"
       id="path3939"
       sodipodi:cx="-38.603176"
       sodipodi:cy="17.269842"
       sodipodi:rx="6.2645502"
       sodipodi:ry="14.363611"
       d="M -36.794038,31.021456 A 6.2645502,14.363611 0 0 1 -41.17564,30.366559"
       transform="matrix(0.92551241,0.42352674,0.27378204,-0.96819647,52.583858,74.321401)"
       sodipodi:start="1.2778338"
       sodipodi:end="1.9939503"
       sodipodi:open="true"
       inkscape:transform-center-x="1.6657523"
       inkscape:transform-center-y="-2.090105" />
    <path
       sodipodi:type="arc"
       style="fill:#0000ff;fill-opacity:1;fill-rule:nonzero;stroke:#ffffff;stroke-width:3;stroke-linecap:round;stroke-linejoin:round;stroke-miterlimit:4;stroke-opacity:1;stroke-dasharray:none;filter:url(#filter3869)"
       id="path3084"
       sodipodi:cx="6.3125005"
       sodipodi:cy="19.703125"
       sodipodi:rx="0.093750007"
       sodipodi:ry="0.578125"
       d="m 6.4062505,19.703125 a 0.09375001,0.578125 0 1 1 -0.1875,0 0.09375001,0.578125 0 1 1 0.1875,0 z"
       transform="matrix(0.08257754,0,0,0.54958099,5.9076824,9.0831258)" />
    <path
       transform="matrix(0.08257753,0,0,0.54958104,9.8322383,9.0831248)"
       d="m 6.4062505,19.703125 a 0.09375001,0.578125 0 1 1 -0.1875,0 0.09375001,0.578125 0 1 1 0.1875,0 z"
       sodipodi:ry="0.578125"
       sodipodi:rx="0.093750007"
       sodipodi:cy="19.703125"
       sodipodi:cx="6.3125005"
       id="path3970"
       style="fill:#0000ff;fill-opacity:1;fill-rule:nonzero;stroke:#ffffff;stroke-width:3;stroke-linecap:round;stroke-linejoin:round;stroke-miterlimit:4;stroke-opacity:1;stroke-dasharray:none;filter:url(#filter3873)"
       sodipodi:type="arc" />
    <path
       transform="matrix(0.08257754,0,0,0.54958102,22.675989,10.533125)"
       d="m 6.4062505,19.703125 a 0.09375001,0.578125 0 1 1 -0.1875,0 0.09375001,0.578125 0 1 1 0.1875,0 z"
       sodipodi:ry="0.578125"
       sodipodi:rx="0.093750007"
       sodipodi:cy="19.703125"
       sodipodi:cx="6.3125005"
       id="path3992"
       style="fill:#0000ff;fill-opacity:1;fill-rule:nonzero;stroke:#ffffff;stroke-width:3;stroke-linecap:round;stroke-linejoin:round;stroke-miterlimit:4;stroke-opacity:1;stroke-dasharray:none;filter:url(#filter3877)"
       sodipodi:type="arc" />
    <path
       sodipodi:type="arc"
       style="fill:#0000ff;fill-opacity:1;fill-rule:nonzero;stroke:#ffffff;stroke-width:3;stroke-linecap:round;stroke-linejoin:round;stroke-miterlimit:4;stroke-opacity:1;stroke-dasharray:none;filter:url(#filter3881)"
       id="path3994"
       sodipodi:cx="6.3125005"
       sodipodi:cy="19.703125"
       sodipodi:rx="0.093750007"
       sodipodi:ry="0.578125"
       d="m 6.4062505,19.703125 a 0.09375001,0.578125 0 1 1 -0.1875,0 0.09375001,0.578125 0 1 1 0.1875,0 z"
       transform="matrix(0.08257754,0,0,0.54958102,26.300989,10.533125)" />
    <path
       sodipodi:type="arc"
       style="fill:#f9f9f9;fill-opacity:1;fill-rule:nonzero;stroke:#ffffff;stroke-width:3;stroke-linecap:round;stroke-linejoin:round;stroke-miterlimit:4;stroke-opacity:1;stroke-dasharray:none;filter:url(#filter3889)"
       id="path3996"
       sodipodi:cx="6.3125005"
       sodipodi:cy="19.703125"
       sodipodi:rx="0.093750007"
       sodipodi:ry="0.578125"
       d="m 6.4062505,19.703125 a 0.09375001,0.578125 0 1 1 -0.1875,0 0.09375001,0.578125 0 1 1 0.1875,0 z"
       transform="matrix(0.13566309,0,0,0.9028831,13.193897,-6.3848657)" />
    <path
       transform="matrix(0.13566309,0,0,0.9028831,19.475147,-6.3848657)"
       d="m 6.4062505,19.703125 a 0.09375001,0.578125 0 1 1 -0.1875,0 0.09375001,0.578125 0 1 1 0.1875,0 z"
       sodipodi:ry="0.578125"
       sodipodi:rx="0.093750007"
       sodipodi:cy="19.703125"
       sodipodi:cx="6.3125005"
       id="path3998"
       style="fill:#0000ff;fill-opacity:1;fill-rule:nonzero;stroke:#ffffff;stroke-width:3;stroke-linecap:round;stroke-linejoin:round;stroke-miterlimit:4;stroke-opacity:1;stroke-dasharray:none;filter:url(#filter3897)"
       sodipodi:type="arc" />
  </g>
</svg>
