<?xml version="1.0" encoding="UTF-8" standalone="no"?>
<!-- Created with Inkscape (http://www.inkscape.org/) -->

<svg
   xmlns:dc="http://purl.org/dc/elements/1.1/"
   xmlns:cc="http://creativecommons.org/ns#"
   xmlns:rdf="http://www.w3.org/1999/02/22-rdf-syntax-ns#"
   xmlns:svg="http://www.w3.org/2000/svg"
   xmlns="http://www.w3.org/2000/svg"
   xmlns:xlink="http://www.w3.org/1999/xlink"
   xmlns:sodipodi="http://sodipodi.sourceforge.net/DTD/sodipodi-0.dtd"
   xmlns:inkscape="http://www.inkscape.org/namespaces/inkscape"
   width="1024.0001"
   height="256"
   id="svg2"
   version="1.1"
   inkscape:version="0.48.4 r9939"
   sodipodi:docname="New Clubhouse ladder 1.svg">
  <defs
     id="defs4">
    <inkscape:perspective
       sodipodi:type="inkscape:persp3d"
       inkscape:vp_x="0 : 526.18109 : 1"
       inkscape:vp_y="0 : 1000 : 0"
       inkscape:vp_z="744.09448 : 526.18109 : 1"
       inkscape:persp3d-origin="372.04724 : 350.78739 : 1"
       id="perspective10" />
    <inkscape:perspective
       id="perspective2858"
       inkscape:persp3d-origin="0.5 : 0.33333333 : 1"
       inkscape:vp_z="1 : 0.5 : 1"
       inkscape:vp_y="0 : 1000 : 0"
       inkscape:vp_x="0 : 0.5 : 1"
       sodipodi:type="inkscape:persp3d" />
    <clipPath
       clipPathUnits="userSpaceOnUse"
       id="clipPath2816">
      <rect
         y="-4.7806745"
         x="0"
         height="1057.1428"
         width="748.57141"
         id="use2818"
         style="fill:#803300;stroke:none;filter:url(#filter2879)"
         transform="matrix(0.92366412,0,0,1,-951.42857,40)" />
    </clipPath>
    <filter
       id="filter2879"
       inkscape:label="Diffuse light"
       inkscape:menu="ABCs"
       inkscape:menu-tooltip="Basic diffuse bevel to use for building textures"
       color-interpolation-filters="sRGB">
      <feGaussianBlur
         id="feGaussianBlur2881"
         stdDeviation="6"
         in="SourceGraphic"
         result="result0" />
      <feDiffuseLighting
         id="feDiffuseLighting2883"
         diffuseConstant="1"
         surfaceScale="10"
         result="result5">
        <feDistantLight
           id="feDistantLight2885"
           elevation="25"
           azimuth="235" />
      </feDiffuseLighting>
      <feComposite
         id="feComposite2887"
         in2="SourceGraphic"
         k1="1"
         in="result5"
         result="result4"
         operator="arithmetic"
         k2="0"
         k3="0.6"
         k4="0" />
    </filter>
    <inkscape:perspective
       id="perspective2901"
       inkscape:persp3d-origin="0.5 : 0.33333333 : 1"
       inkscape:vp_z="1 : 0.5 : 1"
       inkscape:vp_y="0 : 1000 : 0"
       inkscape:vp_x="0 : 0.5 : 1"
       sodipodi:type="inkscape:persp3d" />
    <clipPath
       clipPathUnits="userSpaceOnUse"
       id="clipPath2889">
      <rect
         y="-4.7806745"
         x="0"
         height="1057.1428"
         width="748.57141"
         id="use2891"
         style="fill:#803300;stroke:none;filter:url(#filter2879)"
         transform="matrix(0.5829793,0,0,0.71277118,-812.08546,174.03692)" />
    </clipPath>
    <inkscape:perspective
       id="perspective2983"
       inkscape:persp3d-origin="0.5 : 0.33333333 : 1"
       inkscape:vp_z="1 : 0.5 : 1"
       inkscape:vp_y="0 : 1000 : 0"
       inkscape:vp_x="0 : 0.5 : 1"
       sodipodi:type="inkscape:persp3d" />
    <clipPath
       clipPathUnits="userSpaceOnUse"
       id="clipPath2935">
      <path
         sodipodi:type="arc"
         style="fill:#808080;fill-opacity:1;stroke:none"
         id="path2937"
         sodipodi:cx="-1634.4268"
         sodipodi:cy="476.57523"
         sodipodi:rx="563.6651"
         sodipodi:ry="583.86816"
         d="m -1070.7617,476.57523 a 563.6651,583.86816 0 1 1 -1127.3302,0 563.6651,583.86816 0 1 1 1127.3302,0 z"
         transform="matrix(1.5842294,0,0,1.4705882,274.03741,-147.4991)" />
    </clipPath>
    <filter
       id="filter3012"
       inkscape:label="Diffuse light"
       inkscape:menu="ABCs"
       inkscape:menu-tooltip="Basic diffuse bevel to use for building textures"
       color-interpolation-filters="sRGB">
      <feGaussianBlur
         id="feGaussianBlur3014"
         stdDeviation="6"
         in="SourceGraphic"
         result="result0" />
      <feDiffuseLighting
         id="feDiffuseLighting3016"
         diffuseConstant="1"
         surfaceScale="10"
         result="result5">
        <feDistantLight
           id="feDistantLight3018"
           elevation="25"
           azimuth="235" />
      </feDiffuseLighting>
      <feComposite
         id="feComposite3020"
         in2="SourceGraphic"
         k1="1"
         in="result5"
         result="result4"
         operator="arithmetic"
         k2="0"
         k3="0.6"
         k4="0" />
    </filter>
    <filter
       inkscape:collect="always"
       id="filter3786"
       color-interpolation-filters="sRGB">
      <feGaussianBlur
         inkscape:collect="always"
         stdDeviation="1.6579559"
         id="feGaussianBlur3788" />
    </filter>
    <clipPath
       clipPathUnits="userSpaceOnUse"
       id="clipPath3792">
      <rect
         style="fill:#aa4400;fill-opacity:1;stroke:none"
         id="use3794"
         width="59.633717"
         height="74.322258"
         x="-378.58142"
         y="153.6817" />
    </clipPath>
    <clipPath
       clipPathUnits="userSpaceOnUse"
       id="clipPath3877">
      <path
         style="fill:#aa4400;fill-opacity:1;stroke:none"
         d="m -378.89816,670.8944 c -17.2838,-8.74508 -16.99844,-4.2276 -16.1066,-254.9448 0.8222,-231.14016 0.91544,-234.02248 7.7932,-240.89908 3.82856,-3.82796 12.50252,-7.859 19.27548,-8.9582 10.59996,-1.72008 15.93272,-1.11124 24.7948,7.75076 l 8.11028,10.84164 0,235.3966 0,235.39684 -9.8786,9.87848 c -10.63132,10.63128 -20.68444,12.26928 -33.98856,5.53776 z"
         id="path3879"
         sodipodi:nodetypes="cssscccccc" />
    </clipPath>
    <inkscape:perspective
       id="perspective3000"
       inkscape:persp3d-origin="0.5 : 0.33333333 : 1"
       inkscape:vp_z="1 : 0.5 : 1"
       inkscape:vp_y="0 : 1000 : 0"
       inkscape:vp_x="0 : 0.5 : 1"
       sodipodi:type="inkscape:persp3d" />
    <clipPath
       clipPathUnits="userSpaceOnUse"
       id="clipPath2988">
      <rect
         y="-4.7806745"
         x="0"
         height="1057.1428"
         width="748.57141"
         id="rect2990"
         style="fill:#803300;stroke:none;filter:url(#filter2879)"
         transform="matrix(0,0.26600362,1,0,-1729.3226,319.7475)" />
    </clipPath>
    <filter
       inkscape:collect="always"
       id="filter3724"
       color-interpolation-filters="sRGB">
      <feGaussianBlur
         inkscape:collect="always"
         stdDeviation="3.6114049"
         id="feGaussianBlur3726" />
    </filter>
    <filter
       id="filter3730"
       inkscape:label="Clouds"
       x="0"
       y="0"
       width="1"
       height="1"
       inkscape:menu="Overlays"
       inkscape:menu-tooltip="Airy, fluffy, sparse white clouds"
       color-interpolation-filters="sRGB">
      <feTurbulence
         id="feTurbulence3732"
         numOctaves="3"
         baseFrequency="0.040 0.107"
         type="fractalNoise" />
      <feColorMatrix
         id="feColorMatrix3734"
         result="result0"
         values="1 0 0 0 0 0 1 0 0 0 0 0 1 0 0 0 0 0 5 -2.7" />
      <feFlood
         id="feFlood3736"
         flood-opacity="1"
         flood-color="rgb(255,255,255)"
         result="result1" />
      <feComposite
         id="feComposite3738"
         in2="result0"
         operator="in"
         result="result2" />
      <feComposite
         id="feComposite3740"
         in2="SourceGraphic"
         operator="atop" />
    </filter>
    <filter
       id="filter3758"
       inkscape:label="Air spray"
       inkscape:menu="Scatter"
       inkscape:menu-tooltip="Convert to small scattered particles with some thickness"
       width="2"
       height="2"
       y="-0.5"
       x="-0.5"
       color-interpolation-filters="sRGB">
      <feGaussianBlur
         id="feGaussianBlur3760"
         stdDeviation="0.01"
         result="result1" />
      <feBlend
         id="feBlend3762"
         in2="result1"
         result="fbSourceGraphic"
         mode="multiply" />
      <feTurbulence
         id="feTurbulence3764"
         baseFrequency="0.8"
         type="fractalNoise"
         seed="0"
         numOctaves="3"
         result="result3" />
      <feDisplacementMap
         id="feDisplacementMap3766"
         in2="result3"
         in="fbSourceGraphic"
         xChannelSelector="R"
         yChannelSelector="G"
         scale="50"
         result="result2" />
      <feMorphology
         id="feMorphology3768"
         radius="1"
         operator="dilate"
         result="result4" />
      <feBlend
         id="feBlend3770"
         in2="result2"
         mode="screen" />
    </filter>
    <filter
       inkscape:collect="always"
       id="filter3875"
       x="-0.10051546"
       width="1.2010309"
       y="-0.40206185"
       height="1.8041238"
       color-interpolation-filters="sRGB">
      <feGaussianBlur
         inkscape:collect="always"
         stdDeviation="4.3924896"
         id="feGaussianBlur3877" />
    </filter>
  </defs>
  <sodipodi:namedview
     id="base"
     pagecolor="#521400"
     bordercolor="#666666"
     borderopacity="1.0"
     inkscape:pageopacity="0"
     inkscape:pageshadow="2"
     inkscape:zoom="0.64724267"
     inkscape:cx="-0.7290487"
     inkscape:cy="-104.2309"
     inkscape:document-units="px"
     inkscape:current-layer="layer1"
     showgrid="false"
     inkscape:window-width="1920"
     inkscape:window-height="969"
     inkscape:window-x="0"
     inkscape:window-y="38"
     inkscape:window-maximized="1" />
  <metadata
     id="metadata7">
    <rdf:RDF>
      <cc:Work
         rdf:about="">
        <dc:format>image/svg+xml</dc:format>
        <dc:type
           rdf:resource="http://purl.org/dc/dcmitype/StillImage" />
        <dc:title></dc:title>
      </cc:Work>
    </rdf:RDF>
  </metadata>
  <g
     inkscape:label="Layer 1"
     inkscape:groupmode="layer"
     id="layer1"
     transform="translate(400.21322,-368.42652)"
     style="display:inline">
    <g
       id="g3022"
       transform="matrix(0.025,0,0,0.025,-2634.5307,356.656)">
      <path
         transform="matrix(1.5842294,0,0,1.4705882,274.03741,-147.4991)"
         d="m -1070.7617,476.57523 c 0,322.46148 -252.3614,583.86817 -563.6651,583.86817 -311.3036,0 -563.6651,-261.40669 -563.6651,-583.86817 0,-322.46149 252.3615,-583.86817 563.6651,-583.86817 311.3037,0 563.6651,261.40668 563.6651,583.86817 z"
         sodipodi:ry="583.86816"
         sodipodi:rx="563.6651"
         sodipodi:cy="476.57523"
         sodipodi:cx="-1634.4268"
         id="path2925"
         style="fill:#808080;fill-opacity:1;stroke:none;filter:url(#filter3012)"
         sodipodi:type="arc" />
      <flowRoot
         clip-path="url(#clipPath2935)"
         style="font-size:56px;font-style:normal;font-weight:normal;text-align:center;writing-mode:lr-tb;text-anchor:middle;fill:#cccccc;fill-opacity:1;stroke:none;font-family:Bitstream Vera Sans"
         id="flowRoot2927"
         xml:space="preserve"
         transform="translate(-2.56866,-4.182724)"><flowRegion
           id="flowRegion2929"><rect
             style="font-size:56px;fill:#cccccc"
             y="-333.56711"
             x="-3305.2192"
             height="1826.3558"
             width="1992.0209"
             id="rect2931" /></flowRegion><flowPara
           id="flowPara2933">ANAAWASM  ANAAWASM  ANAAWASM  ANAAWASM  ANAAWASM  ANAAWASM  ANAAWASM  ANAAWASM  ANAAWASM  ANAAWASM  ANAAWASM  ANAAWASM  ANAAWASM  ANAAWASM  ANAAWASM  ANAAWASM  ANAAWASM  ANAAWASM  ANAAWASM  ANAAWASM  ANAAWASM  ANAAWASM  ANAAWASM  ANAAWASM  ANAAWASM  ANAAWASM  ANAAWASM  ANAAWASM  ANAAWASM  ANAAWASM  ANAAWASM  ANAAWASM  ANAAWASM  ANAAWASM  ANAAWASM  ANAAWASM  ANAAWASM  ANAAWASM  ANAAWASM  ANAAWASM  ANAAWASM  ANAAWASM  ANAAWASM  ANAAWASM  ANAAWASM  ANAAWASM  ANAAWASM  ANAAWASM  ANAAWASM  ANAAWASM  ANAAWASM  ANAAWASM  ANAAWASM  ANAAWASM  ANAAWASM  ANAAWASM  ANAAWASM  ANAAWASM  ANAAWASM  ANAAWASM  ANAAWASM  ANAAWASM  ANAAWASM  ANAAWASM  ANAAWASM  ANAAWASM  ANAAWASM  ANAAWASM  ANAAWASM  ANAAWASM  ANAAWASM  ANAAWASM  ANAAWASM  ANAAWASM  ANAAWASM  ANAAWASM  ANAAWASM  ANAAWASM  ANAAWASM  ANAAWASM  ANAAWASM  ANAAWASM  ANAAWASM  ANAAWASM  ANAAWASM  ANAAWASM  ANAAWASM  ANAAWASM  ANAAWASM  ANAAWASM  ANAAWASM  ANAAWASM  ANAAWASM  ANAAWASM  ANAAWASM  ANAAWASM  ANAAWASM  ANAAWASM  ANAAWASM  ANAAWASM  ANAAWASM  ANAAWASM  ANAAWASM  ANAAWASM  ANAAWASM  ANAAWASM  ANAAWASM  ANAAWASM  ANAAWASM  ANAAWASM  ANAAWASM  ANAAWASM  ANAAWASM  ANAAWASM  ANAAWASM  ANAAWASM  ANAAWASM  ANAAWASM  ANAAWASM  ANAAWASM  ANAAWASM  ANAAWASM  ANAAWASM  ANAAWASM  ANAAWASM  ANAAWASM  ANAAWASM  ANAAWASM  ANAAWASM  ANAAWASM  </flowPara></flowRoot>    </g>
    <g
       id="g3058"
       transform="matrix(0.81450625,0,0,0.66342043,20.735758,167.04123)">
      <rect
         y="-4.7806745"
         x="0"
         height="1057.1428"
         width="748.57141"
         id="use2917"
         style="fill:#803300;stroke:none;filter:url(#filter2879)"
         transform="matrix(0,0.26600362,1,0,-412.0039,320.63761)" />
      <g
         style="filter:url(#filter3724)"
         transform="translate(1315.5222,0.690679)"
         id="use3053"
         clip-path="url(#clipPath2988)">
        <path
           sodipodi:nodetypes="csscc"
           transform="translate(-446.8645,299.83523)"
           id="path3092"
           d="m -181.35351,104.03558 c 0,0 -209.75827,-19.664836 -233.79307,4.36997 -24.03481,24.0348 -275.30774,-52.439572 -260.01286,-2.18499 15.29487,50.25459 -301.52752,-28.404762 -301.52752,-28.404762 -121.73884,-18.352411 -262.71684,-87.1202461 -314.63734,21.84982"
           style="fill:none;stroke:#000000;stroke-width:1px;stroke-linecap:butt;stroke-linejoin:miter;stroke-opacity:1" />
        <path
           style="fill:none;stroke:#000000;stroke-width:1px;stroke-linecap:butt;stroke-linejoin:miter;stroke-opacity:1"
           d="m -638.21801,377.87081 c 0,0 -209.75827,-19.66484 -233.79307,4.36997 -24.03481,24.0348 -275.30772,-52.43957 -260.01282,-2.18499 15.2948,50.25459 -301.5276,-28.40476 -301.5276,-28.40476 -121.7388,-18.35241 -262.7168,-87.12025 -314.6373,21.84982"
           id="path3094"
           sodipodi:nodetypes="csscc" />
        <path
           style="fill:none;stroke:#000000;stroke-width:1px;stroke-linecap:butt;stroke-linejoin:miter;stroke-opacity:1"
           d="m -658.21801,355.87081 c 0,0 -209.75827,-19.66484 -233.79307,4.36997 -24.03481,24.0348 -275.30772,-52.43957 -260.01282,-2.18499 15.2948,50.25459 -301.5276,-28.40476 -301.5276,-28.40476 -121.7388,-18.35241 -262.7168,-87.12025 -314.6373,21.84982"
           id="path3096"
           sodipodi:nodetypes="csscc" />
        <path
           style="fill:none;stroke:#000000;stroke-width:1px;stroke-linecap:butt;stroke-linejoin:miter;stroke-opacity:1"
           d="m -670.21801,329.87081 c 0,0 -209.75827,-19.66484 -233.79307,4.36997 -24.03481,24.0348 -275.30772,-52.43957 -260.01282,-2.18499 15.2948,50.25459 -301.5276,-28.40476 -301.5276,-28.40476 -121.7388,-18.35241 -262.7168,-87.12025 -314.6373,21.84982"
           id="path3098"
           sodipodi:nodetypes="csscc" />
        <path
           style="fill:none;stroke:#000000;stroke-width:1px;stroke-linecap:butt;stroke-linejoin:miter;stroke-opacity:1"
           d="m -690.21801,309.87081 c 0,0 -209.75827,-19.66484 -233.79307,4.36997 -24.03481,24.0348 -275.30772,-52.43957 -260.01282,-2.18499 15.2948,50.25459 -301.5276,-28.40476 -301.5276,-28.40476 -121.7388,-18.35241 -262.7168,-87.12025 -314.6373,21.84982"
           id="path3100"
           sodipodi:nodetypes="csscc" />
        <path
           style="fill:none;stroke:#000000;stroke-width:1px;stroke-linecap:butt;stroke-linejoin:miter;stroke-opacity:1"
           d="m -618.21801,419.87081 c 0,0 -209.75827,-19.66484 -233.79307,4.36997 -24.03481,24.0348 -275.30772,-52.43957 -260.01282,-2.18499 15.2948,50.25459 -301.5276,-28.40476 -301.5276,-28.40476 -121.7388,-18.35241 -262.7168,-87.12025 -314.6373,21.84982 l -24.9864,26.80495"
           id="path3102"
           sodipodi:nodetypes="csscc" />
        <path
           style="fill:none;stroke:#000000;stroke-width:1px;stroke-linecap:butt;stroke-linejoin:miter;stroke-opacity:1"
           d="m -610.21801,449.87081 c 0,0 -209.75827,-19.66484 -233.79307,4.36997 -24.03481,24.0348 -275.30772,-52.43957 -260.01282,-2.18499 15.2948,50.25459 -301.5276,-28.40476 -301.5276,-28.40476 -121.7388,-18.35241 -262.7168,-87.12025 -314.6373,21.84982 -29.1239,68.64818 -90.152,-27.91529 -90.152,-27.91529"
           id="path3104"
           sodipodi:nodetypes="csscc" />
        <path
           style="fill:none;stroke:#000000;stroke-width:1px;stroke-linecap:butt;stroke-linejoin:miter;stroke-opacity:1"
           d="m -606.21801,473.87081 c 0,0 -209.75827,-19.66484 -233.79307,4.36997 -24.03481,24.0348 -275.30772,-52.43957 -260.01282,-2.18499 15.2948,50.25459 -301.5276,-28.40476 -301.5276,-28.40476 -121.7388,-18.35241 -262.7168,-87.12025 -314.6373,21.84982 -44.7115,35.37809 -22.3087,115.7189 -22.3087,115.7189"
           id="path3106"
           sodipodi:nodetypes="csscc" />
        <path
           style="fill:none;stroke:#000000;stroke-width:1px;stroke-linecap:butt;stroke-linejoin:miter;stroke-opacity:1"
           d="m -594.21801,497.87081 c 0,0 -209.75827,-19.66484 -233.79307,4.36997 -24.03481,24.0348 -275.30772,-52.43957 -260.01282,-2.18499 15.2948,50.25459 -301.5276,-28.40476 -301.5276,-28.40476 -121.7388,-18.35241 -262.7168,-87.12025 -314.6373,21.84982 12.8142,80.13128 -143.2323,-28.01981 -143.2323,-28.01981"
           id="path3108"
           sodipodi:nodetypes="csscc" />
        <path
           style="fill:none;stroke:#000000;stroke-width:1px;stroke-linecap:butt;stroke-linejoin:miter;stroke-opacity:1"
           d="m -582.21801,531.87081 c 0,0 -209.75827,-19.66484 -233.79307,4.36997 -24.03481,24.0348 -275.30772,-52.43957 -260.01282,-2.18499 15.2948,50.25459 -301.5276,-28.40476 -301.5276,-28.40476 -121.7388,-18.35241 -262.7168,-87.12025 -314.6373,21.84982"
           id="path3110"
           sodipodi:nodetypes="csscc" />
        <path
           style="fill:none;stroke:#000000;stroke-width:1px;stroke-linecap:butt;stroke-linejoin:miter;stroke-opacity:1"
           d="m -582.21801,555.87081 c 0,0 -209.75827,-19.66484 -233.79307,4.36997 -24.03481,24.0348 -275.30772,-52.43957 -260.01282,-2.18499 15.2948,50.25459 -301.5276,-28.40476 -301.5276,-28.40476 -121.7388,-18.35241 -262.7168,-87.12025 -314.6373,21.84982"
           id="path3112"
           sodipodi:nodetypes="csscc" />
      </g>
      <g
         transform="matrix(0.25,0,0,0.25,-273.29947,307.52739)"
         id="use3806">
        <rect
           style="fill:#aa4400;fill-opacity:1;stroke:none"
           id="rect3194"
           width="60.641872"
           height="152.18404"
           x="-394.72021"
           y="160.61116" />
        <path
           style="fill:#c87137;fill-opacity:1;stroke:none;filter:url(#filter3786)"
           d="m -371.26204,193.87137 56.87333,-42.29042 23.32525,2.44925 2.85114,16.99846 -51.40997,30.51216 -48.82096,31.70136 -8.21784,-4.08515 -20.50499,-0.77251 33.36957,-24.7038 12.53447,-9.80935 z"
           id="path3196"
           sodipodi:nodetypes="cccccccccc"
           transform="matrix(1.0169058,0,0,2.0476239,-9.7385677,-154.07117)"
           clip-path="url(#clipPath3792)"
           inkscape:connector-curvature="0" />
      </g>
      <use
         height="2370.6538"
         width="1113.3835"
         transform="translate(0,38)"
         id="use3810"
         xlink:href="#use3806"
         y="0"
         x="0" />
      <g
         transform="matrix(0.25,0,0,0.25,-273.29947,383.52739)"
         id="use3812">
        <rect
           style="fill:#aa4400;fill-opacity:1;stroke:none"
           id="rect3200"
           width="60.641872"
           height="152.18404"
           x="-394.72021"
           y="160.61116" />
        <path
           style="fill:#c87137;fill-opacity:1;stroke:none;filter:url(#filter3786)"
           d="m -371.26204,193.87137 56.87333,-42.29042 23.32525,2.44925 2.85114,16.99846 -51.40997,30.51216 -48.82096,31.70136 -8.21784,-4.08515 -20.50499,-0.77251 33.36957,-24.7038 12.53447,-9.80935 z"
           id="path3202"
           sodipodi:nodetypes="cccccccccc"
           transform="matrix(1.0169058,0,0,2.0476239,-9.7385677,-154.07117)"
           clip-path="url(#clipPath3792)"
           inkscape:connector-curvature="0" />
      </g>
      <g
         transform="matrix(0.25,0,0,0.25,-273.29947,421.52739)"
         id="use3814">
        <rect
           style="fill:#aa4400;fill-opacity:1;stroke:none"
           id="rect3206"
           width="60.641872"
           height="152.18404"
           x="-394.72021"
           y="160.61116" />
        <path
           style="fill:#c87137;fill-opacity:1;stroke:none;filter:url(#filter3786)"
           d="m -371.26204,193.87137 56.87333,-42.29042 23.32525,2.44925 2.85114,16.99846 -51.40997,30.51216 -48.82096,31.70136 -8.21784,-4.08515 -20.50499,-0.77251 33.36957,-24.7038 12.53447,-9.80935 z"
           id="path3208"
           sodipodi:nodetypes="cccccccccc"
           transform="matrix(1.0169058,0,0,2.0476239,-9.7385677,-154.07117)"
           clip-path="url(#clipPath3792)"
           inkscape:connector-curvature="0" />
      </g>
      <use
         height="2370.6538"
         width="1113.3835"
         transform="translate(0,38)"
         id="use3816"
         xlink:href="#use3814"
         y="0"
         x="0" />
      <g
         transform="matrix(0.25,0,0,0.25,-273.29947,497.52739)"
         id="use3818">
        <rect
           style="fill:#aa4400;fill-opacity:1;stroke:none"
           id="rect3212"
           width="60.641872"
           height="152.18404"
           x="-394.72021"
           y="160.61116" />
        <path
           style="fill:#c87137;fill-opacity:1;stroke:none;filter:url(#filter3786)"
           d="m -371.26204,193.87137 56.87333,-42.29042 23.32525,2.44925 2.85114,16.99846 -51.40997,30.51216 -48.82096,31.70136 -8.21784,-4.08515 -20.50499,-0.77251 33.36957,-24.7038 12.53447,-9.80935 z"
           id="path3214"
           sodipodi:nodetypes="cccccccccc"
           transform="matrix(1.0169058,0,0,2.0476239,-9.7385677,-154.07117)"
           clip-path="url(#clipPath3792)"
           inkscape:connector-curvature="0" />
      </g>
      <g
         clip-path="url(#clipPath3877)"
         id="use3820"
         transform="matrix(0.255025,0,0,0.255025,-271.46597,268.32611)">
        <rect
           y="160.61116"
           x="-394.72021"
           height="152.18404"
           width="60.641872"
           id="rect3842"
           style="fill:#aa4400;fill-opacity:1;stroke:none" />
        <path
           clip-path="url(#clipPath3792)"
           transform="matrix(1.0169058,0,0,2.0476239,-9.7385677,-154.07117)"
           sodipodi:nodetypes="cccccccccc"
           id="path3844"
           d="m -371.26204,193.87137 56.87333,-42.29042 23.32525,2.44925 2.85114,16.99846 -51.40997,30.51216 -48.82096,31.70136 -8.21784,-4.08515 -20.50499,-0.77251 33.36957,-24.7038 12.53447,-9.80935 z"
           style="fill:#c87137;fill-opacity:1;stroke:none;filter:url(#filter3786)" />
      </g>
      <g
         transform="matrix(0.25,0,0,0.25,-273.35173,535.4598)"
         id="use3822">
        <rect
           style="fill:#aa4400;fill-opacity:1;stroke:none"
           id="rect3218"
           width="60.641872"
           height="152.18404"
           x="-394.72021"
           y="160.61116" />
        <path
           style="fill:#c87137;fill-opacity:1;stroke:none;filter:url(#filter3786)"
           d="m -371.26204,193.87137 56.87333,-42.29042 23.32525,2.44925 2.85114,16.99846 -51.40997,30.51216 -48.82096,31.70136 -8.21784,-4.08515 -20.50499,-0.77251 33.36957,-24.7038 12.53447,-9.80935 z"
           id="path3220"
           sodipodi:nodetypes="cccccccccc"
           transform="matrix(1.0169058,0,0,2.0476239,-9.7385677,-154.07117)"
           clip-path="url(#clipPath3792)"
           inkscape:connector-curvature="0" />
      </g>
      <g
         transform="matrix(0.25,0,0,0.25,-273.29445,573.23609)"
         id="use3826">
        <rect
           style="fill:#aa4400;fill-opacity:1;stroke:none"
           id="rect3224"
           width="60.641872"
           height="152.18404"
           x="-394.72021"
           y="160.61116" />
        <path
           style="fill:#c87137;fill-opacity:1;stroke:none;filter:url(#filter3786)"
           d="m -371.26204,193.87137 56.87333,-42.29042 23.32525,2.44925 2.85114,16.99846 -51.40997,30.51216 -48.82096,31.70136 -8.21784,-4.08515 -20.50499,-0.77251 33.36957,-24.7038 12.53447,-9.80935 z"
           id="path3226"
           sodipodi:nodetypes="cccccccccc"
           transform="matrix(1.0169058,0,0,2.0476239,-9.7385677,-154.07117)"
           clip-path="url(#clipPath3792)"
           inkscape:connector-curvature="0" />
      </g>
      <g
         transform="matrix(0.25,0,0,0.25,-273.29445,611.23624)"
         id="use3830">
        <rect
           style="fill:#aa4400;fill-opacity:1;stroke:none"
           id="rect3230"
           width="60.641872"
           height="152.18404"
           x="-394.72021"
           y="160.61116" />
        <path
           style="fill:#c87137;fill-opacity:1;stroke:none;filter:url(#filter3786)"
           d="m -371.26204,193.87137 56.87333,-42.29042 23.32525,2.44925 2.85114,16.99846 -51.40997,30.51216 -48.82096,31.70136 -8.21784,-4.08515 -20.50499,-0.77251 33.36957,-24.7038 12.53447,-9.80935 z"
           id="path3232"
           sodipodi:nodetypes="cccccccccc"
           transform="matrix(1.0169058,0,0,2.0476239,-9.7385677,-154.07117)"
           clip-path="url(#clipPath3792)"
           inkscape:connector-curvature="0" />
      </g>
      <use
         height="2370.6538"
         width="1113.3835"
         transform="translate(14,0)"
         id="use3881"
         xlink:href="#use3806"
         y="0"
         x="0" />
      <use
         height="2370.6538"
         width="1113.3835"
         transform="translate(14,0)"
         id="use3883"
         xlink:href="#use3810"
         y="0"
         x="0" />
      <use
         height="2370.6538"
         width="1113.3835"
         transform="translate(14,0)"
         id="use3885"
         xlink:href="#use3812"
         y="0"
         x="0" />
      <use
         height="2370.6538"
         width="1113.3835"
         transform="translate(14,0)"
         id="use3887"
         xlink:href="#use3814"
         y="0"
         x="0" />
      <use
         height="2370.6538"
         width="1113.3835"
         transform="translate(14,0)"
         id="use3891"
         xlink:href="#use3820"
         y="0"
         x="0" />
      <use
         height="2370.6538"
         width="1113.3835"
         transform="matrix(-1,0,0,-1,-715.03674,844.58478)"
         id="use3893"
         xlink:href="#use3820"
         y="0"
         x="0" />
      <use
         height="2370.6538"
         width="1113.3835"
         transform="matrix(-1,0,0,1,211.05145,0)"
         id="use3895"
         xlink:href="#use3806"
         y="0"
         x="0" />
      <use
         height="2370.6538"
         width="1113.3835"
         transform="matrix(-1,0,0,1,211.05145,0)"
         id="use3897"
         xlink:href="#use3810"
         y="0"
         x="0" />
      <use
         height="2370.6538"
         width="1113.3835"
         transform="matrix(-1,0,0,1,211.05145,0)"
         id="use3899"
         xlink:href="#use3812"
         y="0"
         x="0" />
      <use
         height="2370.6538"
         width="1113.3835"
         transform="matrix(-1,0,0,1,211.05145,0)"
         id="use3901"
         xlink:href="#use3814"
         y="0"
         x="0" />
      <use
         height="2370.6538"
         width="1113.3835"
         transform="matrix(-1,0,0,1,211.05145,0)"
         id="use3903"
         xlink:href="#use3816"
         y="0"
         x="0" />
      <use
         height="2370.6538"
         width="1113.3835"
         transform="matrix(-1,0,0,1,211.05145,0)"
         id="use3905"
         xlink:href="#use3818"
         y="0"
         x="0" />
      <use
         height="2370.6538"
         width="1113.3835"
         transform="matrix(-1,0,0,1,211.05145,0)"
         id="use3907"
         xlink:href="#use3820"
         y="0"
         x="0" />
      <use
         height="2370.6538"
         width="1113.3835"
         transform="matrix(-1,0,0,1,211.05145,0)"
         id="use3909"
         xlink:href="#use3822"
         y="0"
         x="0" />
      <use
         height="2370.6538"
         width="1113.3835"
         transform="matrix(-1,0,0,1,211.05145,0)"
         id="use3911"
         xlink:href="#use3826"
         y="0"
         x="0" />
      <use
         height="2370.6538"
         width="1113.3835"
         transform="matrix(-1,0,0,1,211.05145,0)"
         id="use3913"
         xlink:href="#use3830"
         y="0"
         x="0" />
      <use
         height="2370.6538"
         width="1113.3835"
         transform="matrix(-1,0,0,1,211.05145,0)"
         id="use3917"
         xlink:href="#use3881"
         y="0"
         x="0" />
      <use
         height="2370.6538"
         width="1113.3835"
         transform="matrix(-1,0,0,1,211.05145,0)"
         id="use3919"
         xlink:href="#use3883"
         y="0"
         x="0" />
      <use
         height="2370.6538"
         width="1113.3835"
         transform="matrix(-1,0,0,1,211.05145,0)"
         id="use3921"
         xlink:href="#use3885"
         y="0"
         x="0" />
      <use
         height="2370.6538"
         width="1113.3835"
         transform="matrix(-1,0,0,1,211.05145,0)"
         id="use3923"
         xlink:href="#use3887"
         y="0"
         x="0" />
      <use
         height="2370.6538"
         width="1113.3835"
         transform="matrix(-1,0,0,1,211.05145,0)"
         id="use3925"
         xlink:href="#use3891"
         y="0"
         x="0" />
      <use
         height="2370.6538"
         width="1113.3835"
         transform="matrix(-1,0,0,1,211.05145,0)"
         id="use3927"
         xlink:href="#use3893"
         y="0"
         x="0" />
    </g>
  </g>
  <g
     inkscape:groupmode="layer"
     id="layer2"
     inkscape:label="EXPORT"
     transform="translate(-46.651285,-68.591295)"
     style="opacity:0">
    <rect
       style="opacity:0.50000000000000000;fill:#550000;fill-opacity:1;stroke:#000000;stroke-width:0.74729246000000005;stroke-linecap:round;stroke-linejoin:round;stroke-miterlimit:4;stroke-opacity:1;stroke-dasharray:none;stroke-dashoffset:0"
       id="rect3187"
       width="1023.2528"
       height="255.2527"
       x="-399.83957"
       y="368.80017"
       inkscape:export-filename="Ladder_Top.png"
       inkscape:export-xdpi="200"
       inkscape:export-ydpi="200"
       transform="translate(446.8645,-299.83523)" />
  </g>
</svg>
