<?xml version="1.0" encoding="UTF-8" standalone="no"?>
<!-- Created with Inkscape (http://www.inkscape.org/) -->

<svg
   xmlns:dc="http://purl.org/dc/elements/1.1/"
   xmlns:cc="http://creativecommons.org/ns#"
   xmlns:rdf="http://www.w3.org/1999/02/22-rdf-syntax-ns#"
   xmlns:svg="http://www.w3.org/2000/svg"
   xmlns="http://www.w3.org/2000/svg"
   xmlns:xlink="http://www.w3.org/1999/xlink"
   xmlns:sodipodi="http://sodipodi.sourceforge.net/DTD/sodipodi-0.dtd"
   xmlns:inkscape="http://www.inkscape.org/namespaces/inkscape"
   sodipodi:docname="spiderweb"
   inkscape:version="0.46+devel 22040"
   version="1.1"
   id="svg2"
   height="512"
   width="512">
  <sodipodi:namedview
     id="base"
     pagecolor="#ffffff"
     bordercolor="#666666"
     borderopacity="1.0"
     inkscape:pageopacity="0.0"
     inkscape:pageshadow="2"
     inkscape:zoom="0.35"
     inkscape:cx="58.49182"
     inkscape:cy="346.41208"
     inkscape:document-units="px"
     inkscape:current-layer="layer1"
     showgrid="false"
     inkscape:snap-bbox="false"
     objecttolerance="10000"
     inkscape:snap-to-guides="false"
     inkscape:snap-grids="false"
     inkscape:object-paths="true"
     inkscape:window-width="1024"
     inkscape:window-height="708"
     inkscape:window-x="1276"
     inkscape:window-y="-4"
     inkscape:window-maximized="1"
     inkscape:snap-global="false" />
  <defs
     id="defs4">
    <inkscape:perspective
       id="perspective10"
       inkscape:persp3d-origin="372.04724 : 350.78739 : 1"
       inkscape:vp_z="744.09448 : 526.18109 : 1"
       inkscape:vp_y="0 : 1000 : 0"
       inkscape:vp_x="0 : 526.18109 : 1"
       sodipodi:type="inkscape:persp3d" />
  </defs>
  <metadata
     id="metadata7">
    <rdf:RDF>
      <cc:Work
         rdf:about="">
        <dc:format>image/svg+xml</dc:format>
        <dc:type
           rdf:resource="http://purl.org/dc/dcmitype/StillImage" />
        <dc:title></dc:title>
      </cc:Work>
    </rdf:RDF>
  </metadata>
  <g
     style="display:inline"
     id="layer1"
     inkscape:groupmode="layer"
     inkscape:label="Layer 1"
     transform="translate(-8.069052,-496.57094)">
    <path
       style="opacity:0.75;fill:none;stroke:#cccccc;stroke-width:0.69626838;stroke-linecap:butt;stroke-linejoin:miter;stroke-miterlimit:4;stroke-opacity:1;stroke-dasharray:none"
       d="m 8.4171862,752.5822 c 507.2601738,0 511.2386638,0 511.2386638,0"
       id="path3608" />
    <path
       id="path3620"
       d="m 264.03651,1008.2228 c 10e-6,-507.30233 2e-5,-511.28116 2e-5,-511.28116"
       style="opacity:0.75;fill:none;stroke:#cccccc;stroke-width:0.69626838;stroke-linecap:butt;stroke-linejoin:miter;stroke-miterlimit:4;stroke-opacity:1;stroke-dasharray:none" />
    <path
       id="path3622"
       d="M 510.94586,818.74687 C 20.970131,687.44736 17.127198,686.41756 17.127198,686.41756"
       style="opacity:0.75;fill:none;stroke:#cccccc;stroke-width:0.69626838;stroke-linecap:butt;stroke-linejoin:miter;stroke-miterlimit:4;stroke-opacity:1;stroke-dasharray:none" />
    <path
       id="path3624"
       d="M 485.40937,880.4025 C 46.109159,626.75134 42.66368,624.76193 42.66368,624.76193"
       style="opacity:0.75;fill:none;stroke:#cccccc;stroke-width:0.69626838;stroke-linecap:butt;stroke-linejoin:miter;stroke-miterlimit:4;stroke-opacity:1;stroke-dasharray:none" />
    <path
       id="path3626"
       d="M 444.78669,933.3474 C 86.099574,574.6305 83.286355,571.81703 83.286355,571.81703"
       style="opacity:0.75;fill:none;stroke:#cccccc;stroke-width:0.69626838;stroke-linecap:butt;stroke-linejoin:miter;stroke-miterlimit:4;stroke-opacity:1;stroke-dasharray:none" />
    <path
       id="path3628"
       d="M 391.84618,973.97346 C 138.2161,534.63675 136.22686,531.19098 136.22686,531.19098"
       style="opacity:0.75;fill:none;stroke:#cccccc;stroke-width:0.69626838;stroke-linecap:butt;stroke-linejoin:miter;stroke-miterlimit:4;stroke-opacity:1;stroke-dasharray:none" />
    <path
       style="opacity:0.75;fill:none;stroke:#cccccc;stroke-width:0.69626838;stroke-linecap:butt;stroke-linejoin:miter;stroke-miterlimit:4;stroke-opacity:1;stroke-dasharray:none"
       d="M 330.19568,999.51205 C 198.90709,509.49564 197.87738,505.65239 197.87738,505.65239"
       id="path3610" />
    <path
       style="opacity:0.75;fill:none;stroke:#cccccc;stroke-width:0.69626838;stroke-linecap:butt;stroke-linejoin:miter;stroke-miterlimit:4;stroke-opacity:1;stroke-dasharray:none"
       d="M 197.87737,999.51203 C 329.16597,509.49564 330.19569,505.65239 330.19569,505.65239"
       id="path3612" />
    <path
       style="opacity:0.75;fill:none;stroke:#cccccc;stroke-width:0.69626838;stroke-linecap:butt;stroke-linejoin:miter;stroke-miterlimit:4;stroke-opacity:1;stroke-dasharray:none"
       d="M 136.22685,973.97342 C 389.85693,534.63675 391.84619,531.19099 391.84619,531.19099"
       id="path3614" />
    <path
       style="opacity:0.75;fill:none;stroke:#cccccc;stroke-width:0.69626838;stroke-linecap:butt;stroke-linejoin:miter;stroke-miterlimit:4;stroke-opacity:1;stroke-dasharray:none"
       d="M 83.286355,933.34737 C 441.97347,574.63049 444.78669,571.81703 444.78669,571.81703"
       id="path3616" />
    <path
       style="opacity:0.75;fill:none;stroke:#cccccc;stroke-width:0.69626838;stroke-linecap:butt;stroke-linejoin:miter;stroke-miterlimit:4;stroke-opacity:1;stroke-dasharray:none"
       d="M 42.663684,880.40248 C 481.96387,626.75133 485.40936,624.76193 485.40936,624.76193"
       id="path3618" />
    <path
       id="path3606"
       d="M 17.127203,818.74685 C 507.1029,687.44735 510.94585,686.41756 510.94585,686.41756"
       style="opacity:0.75;fill:none;stroke:#cccccc;stroke-width:0.69626838;stroke-linecap:butt;stroke-linejoin:miter;stroke-miterlimit:4;stroke-opacity:1;stroke-dasharray:none" />
    <path
       sodipodi:nodetypes="ccccccccccccccccccccccccc"
       id="path3638"
       d="m 264.10866,496.91907 c -32.18443,25.70108 -48.46928,15.62514 -66.15915,8.71075 -17.12049,20.49931 -37.02794,31.24338 -61.63896,25.52365 -6.00447,21.30757 -13.83479,41.39781 -52.957711,40.62459 5.280635,24.8935 2.354551,46.6303 -40.621219,52.9621 5.472834,20.54803 6.031634,41.09605 -25.521527,61.64407 6.968214,19.86171 16.938205,39.05632 -8.7247511,66.17 16.1585961,21.95513 18.6999221,44.43777 8.6035931,66.39289 21.975264,11.95841 33.70612,30.75972 25.695036,61.46116 23.671758,10.34782 56.0259,14.0929 40.568868,52.90037 28.258751,-0.60847 47.189711,11.22114 52.957711,40.60283 33.48451,-2.79946 58.04757,2.20798 61.63896,25.56717 26.57315,-15.32585 50.75681,-21.09297 66.16449,8.24675 22.05484,-16.19926 44.10967,-21.9926 66.16452,-8.24675 15.52838,-21.8974 34.88424,-33.58732 61.63894,-25.54541 6.77876,-25.96148 20.05694,-44.49444 52.93595,-40.62459 -0.86945,-32.05783 15.28889,-47.08647 40.62122,-52.94036 14.18024,-65.87825 18.25454,-50.90232 25.54328,-61.64405 -12.91086,-22.05667 0.18233,-44.11334 8.703,-66.17001 -35.17629,-22.04216 -10.86793,-44.08431 -8.83354,-66.12647 -34.24124,-8.67034 -39.96681,-30.50284 -25.47801,-61.66583 -42.97614,1.97866 -53.81805,-17.46726 -40.55595,-52.98387 -44.18167,-3.33439 -57.43376,-18.56577 -52.93595,-40.62459 -22.4081,1.60946 -46.34775,11.73108 -61.63717,-25.81536 -30.02753,23.66585 -46.78882,3.40038 -66.17163,-8.41904 z"
       style="opacity:0.75;fill:none;stroke:#cccccc;stroke-width:0.69626838px;stroke-linecap:round;stroke-linejoin:round;stroke-opacity:1" />
    <use
       x="0"
       y="0"
       xlink:href="#path3638"
       id="use3942"
       transform="matrix(0.80000744,0,0,0.8,52.820565,150.46446)"
       width="744.09448"
       height="1052.3622"
       style="opacity:0.75;stroke:#cccccc;stroke-linecap:round;stroke-linejoin:round" />
    <use
       x="0"
       y="0"
       xlink:href="#use3942"
       id="use3944"
       transform="matrix(0.60000558,0,0,0.6,105.56908,300.95147)"
       width="744.09448"
       height="1052.3622"
       style="opacity:0.75;stroke:#cccccc;stroke-linecap:round;stroke-linejoin:round" />
    <use
       x="0"
       y="0"
       xlink:href="#use3944"
       id="use3946"
       transform="matrix(0.40000372,0,0,0.4,158.41856,451.40689)"
       width="744.09448"
       height="1052.3622"
       style="opacity:0.75;stroke:#cccccc;stroke-linecap:round;stroke-linejoin:round" />
    <use
       x="0"
       y="0"
       xlink:href="#use3946"
       id="use3948"
       transform="matrix(0.20000186,0,0,0.2,211.22478,601.87585)"
       width="744.09448"
       height="1052.3622"
       style="opacity:0.75;stroke:#cccccc" />
    <use
       x="0"
       y="0"
       xlink:href="#path3638"
       id="use3952"
       transform="matrix(0.63000586,0,0,0.63,97.71811,278.35923)"
       width="744.09448"
       height="1052.3622"
       style="opacity:0.75;stroke:#cccccc;stroke-linecap:round;stroke-linejoin:round" />
    <use
       x="0"
       y="0"
       xlink:href="#use3944"
       id="use3954"
       transform="matrix(0.66000614,0,0,0.66,89.77049,255.79724)"
       width="744.09448"
       height="1052.3622"
       style="opacity:0.75;stroke:#cccccc;stroke-linecap:round;stroke-linejoin:round" />
    <rect
       style="fill:#0000ff;fill-rule:evenodd;stroke:#000000;stroke-width:1px;stroke-linecap:butt;stroke-linejoin:miter;stroke-opacity:1"
       id="rect3956"
       width="0"
       height="367.65567"
       x="56.669434"
       y="457.36218" />
  </g>
</svg>
