<?xml version="1.0" encoding="UTF-8" standalone="no"?>
<!-- Created with Inkscape (http://www.inkscape.org/) -->
<svg
   xmlns:dc="http://purl.org/dc/elements/1.1/"
   xmlns:cc="http://creativecommons.org/ns#"
   xmlns:rdf="http://www.w3.org/1999/02/22-rdf-syntax-ns#"
   xmlns:svg="http://www.w3.org/2000/svg"
   xmlns="http://www.w3.org/2000/svg"
   xmlns:xlink="http://www.w3.org/1999/xlink"
   xmlns:sodipodi="http://sodipodi.sourceforge.net/DTD/sodipodi-0.dtd"
   xmlns:inkscape="http://www.inkscape.org/namespaces/inkscape"
   width="256"
   height="256"
   id="svg2"
   sodipodi:version="0.32"
   inkscape:version="0.46"
   version="1.0"
   sodipodi:docname="cave_middle_ul_ammonite.svg"
   inkscape:output_extension="org.inkscape.output.svg.inkscape">
  <defs
     id="defs4">
    <linearGradient
       id="linearGradient3184">
      <stop
         style="stop-color:#646464;stop-opacity:1;"
         offset="0"
         id="stop3186" />
      <stop
         style="stop-color:#282828;stop-opacity:1;"
         offset="1"
         id="stop3188" />
    </linearGradient>
    <radialGradient
       inkscape:collect="always"
       xlink:href="#linearGradient3184"
       id="radialGradient3190"
       cx="-231.21355"
       cy="72.619738"
       fx="-231.21355"
       fy="72.619738"
       r="23.978572"
       gradientTransform="matrix(1,0,0,0.9867044,0,0.9655247)"
       gradientUnits="userSpaceOnUse" />
    <linearGradient
       id="linearGradient3206">
      <stop
         style="stop-color:#454564;stop-opacity:1;"
         offset="0"
         id="stop3208" />
      <stop
         style="stop-color:#5696dc;stop-opacity:1;"
         offset="1"
         id="stop3210" />
    </linearGradient>
    <radialGradient
       inkscape:collect="always"
       xlink:href="#linearGradient3206"
       id="radialGradient3212"
       cx="-199.61379"
       cy="75.935236"
       fx="-199.61379"
       fy="75.935236"
       r="38.068785"
       gradientTransform="matrix(1,0,0,0.9916254,0,0.6359256)"
       gradientUnits="userSpaceOnUse" />
    <inkscape:perspective
       sodipodi:type="inkscape:persp3d"
       inkscape:vp_x="0 : 526.18109 : 1"
       inkscape:vp_y="0 : 1000 : 0"
       inkscape:vp_z="744.09448 : 526.18109 : 1"
       inkscape:persp3d-origin="372.04724 : 350.78739 : 1"
       id="perspective10" />
    <radialGradient
       inkscape:collect="always"
       xlink:href="#linearGradient3184"
       id="radialGradient4019"
       gradientUnits="userSpaceOnUse"
       gradientTransform="matrix(1,0,0,0.9867044,0,0.9655247)"
       cx="-231.21355"
       cy="72.619738"
       fx="-231.21355"
       fy="72.619738"
       r="23.978572" />
    <radialGradient
       inkscape:collect="always"
       xlink:href="#linearGradient3206"
       id="radialGradient4021"
       gradientUnits="userSpaceOnUse"
       gradientTransform="matrix(1,0,0,0.9916254,0,0.6359256)"
       cx="-199.61379"
       cy="75.935236"
       fx="-199.61379"
       fy="75.935236"
       r="38.068785" />
    <radialGradient
       inkscape:collect="always"
       xlink:href="#linearGradient3184"
       id="radialGradient4029"
       gradientUnits="userSpaceOnUse"
       gradientTransform="matrix(1,0,0,0.9867044,0,0.9655247)"
       cx="-231.21355"
       cy="72.619738"
       fx="-231.21355"
       fy="72.619738"
       r="23.978572" />
    <radialGradient
       inkscape:collect="always"
       xlink:href="#linearGradient3206"
       id="radialGradient4031"
       gradientUnits="userSpaceOnUse"
       gradientTransform="matrix(1,0,0,0.9916254,0,0.6359256)"
       cx="-199.61379"
       cy="75.935236"
       fx="-199.61379"
       fy="75.935236"
       r="38.068785" />
    <radialGradient
       inkscape:collect="always"
       xlink:href="#linearGradient3184"
       id="radialGradient4039"
       gradientUnits="userSpaceOnUse"
       gradientTransform="matrix(1,0,0,0.9867044,0,0.9655247)"
       cx="-231.21355"
       cy="72.619738"
       fx="-231.21355"
       fy="72.619738"
       r="23.978572" />
    <radialGradient
       inkscape:collect="always"
       xlink:href="#linearGradient3206"
       id="radialGradient4041"
       gradientUnits="userSpaceOnUse"
       gradientTransform="matrix(1,0,0,0.9916254,0,0.6359256)"
       cx="-199.61379"
       cy="75.935236"
       fx="-199.61379"
       fy="75.935236"
       r="38.068785" />
    <radialGradient
       inkscape:collect="always"
       xlink:href="#linearGradient3206"
       id="radialGradient4859"
       gradientUnits="userSpaceOnUse"
       gradientTransform="matrix(1,0,0,0.9916254,0,0.6359256)"
       cx="-199.61379"
       cy="75.935236"
       fx="-199.61379"
       fy="75.935236"
       r="38.068785" />
    <radialGradient
       inkscape:collect="always"
       xlink:href="#linearGradient3184"
       id="radialGradient4867"
       gradientUnits="userSpaceOnUse"
       gradientTransform="matrix(1,0,0,0.9867044,0,0.9655247)"
       cx="-231.21355"
       cy="72.619738"
       fx="-231.21355"
       fy="72.619738"
       r="23.978572" />
    <radialGradient
       inkscape:collect="always"
       xlink:href="#linearGradient3206"
       id="radialGradient4869"
       gradientUnits="userSpaceOnUse"
       gradientTransform="matrix(1,0,0,0.9916254,0,0.6359256)"
       cx="-199.61379"
       cy="75.935236"
       fx="-199.61379"
       fy="75.935236"
       r="38.068785" />
    <radialGradient
       inkscape:collect="always"
       xlink:href="#linearGradient3184"
       id="radialGradient3071"
       gradientUnits="userSpaceOnUse"
       gradientTransform="matrix(1,0,0,0.9867044,0,0.9655247)"
       cx="-231.21355"
       cy="72.619738"
       fx="-231.21355"
       fy="72.619738"
       r="23.978572" />
  </defs>
  <sodipodi:namedview
     id="base"
     pagecolor="#ffffff"
     bordercolor="#666666"
     borderopacity="1.0"
     inkscape:pageopacity="0.0"
     inkscape:pageshadow="2"
     inkscape:zoom="0.35"
     inkscape:cx="350"
     inkscape:cy="520"
     inkscape:document-units="px"
     inkscape:current-layer="layer1"
     showgrid="false" />
  <metadata
     id="metadata7">
    <rdf:RDF>
      <cc:Work
         rdf:about="">
        <dc:format>image/svg+xml</dc:format>
        <dc:type
           rdf:resource="http://purl.org/dc/dcmitype/StillImage" />
      </cc:Work>
    </rdf:RDF>
  </metadata>
  <g
     inkscape:label="Ebene 1"
     inkscape:groupmode="layer"
     id="layer1">
    <rect
       style="opacity:1;fill:#000000;fill-opacity:1;fill-rule:nonzero;stroke:#000000;stroke-width:1.91393971;stroke-linecap:round;stroke-linejoin:round;stroke-miterlimit:4;stroke-dasharray:none;stroke-opacity:1"
       id="rect4849"
       width="229.08606"
       height="23.08606"
       x="-255.04303"
       y="0.95697057"
       ry="0"
       transform="scale(-1,1)" />
    <rect
       style="opacity:1;fill:#000000;fill-opacity:1;fill-rule:nonzero;stroke:#000000;stroke-width:3.49419737;stroke-linecap:round;stroke-linejoin:round;stroke-miterlimit:4;stroke-dasharray:none;stroke-opacity:1"
       id="rect2383"
       width="252.5058"
       height="227.50581"
       x="-254.2529"
       y="26.747108"
       transform="scale(-1,1)" />
    <path
       sodipodi:type="star"
       style="fill:#681c20;fill-opacity:1;fill-rule:nonzero;stroke:#000000;stroke-width:0;stroke-linecap:round;stroke-linejoin:round;stroke-miterlimit:4;stroke-dasharray:none;stroke-opacity:1"
       id="path3176"
       sodipodi:sides="5"
       sodipodi:cx="-347.49249"
       sodipodi:cy="-27.34779"
       sodipodi:r1="36.827927"
       sodipodi:r2="34.138332"
       sodipodi:arg1="-0.69751242"
       sodipodi:arg2="-0.069193859"
       inkscape:flatsided="true"
       inkscape:rounded="-1.9775848e-16"
       inkscape:randomized="0"
       d="M -319.26601,-51.002849 L -316.27273,-7.8126244 L -356.4241,8.3806657 L -384.23229,-24.801555 L -361.26733,-61.502586 L -319.26601,-51.002849 z"
       transform="matrix(-0.9795869,0,0,0.4974123,-154.02245,204.92715)" />
    <path
       sodipodi:type="star"
       style="fill:url(#radialGradient3190);fill-opacity:1;fill-rule:nonzero;stroke:#000000;stroke-width:0;stroke-linecap:round;stroke-linejoin:round;stroke-miterlimit:4;stroke-dasharray:none;stroke-opacity:1"
       id="path3182"
       sodipodi:sides="5"
       sodipodi:cx="-230.31477"
       sodipodi:cy="74.172539"
       sodipodi:r1="25.379768"
       sodipodi:r2="20.532663"
       sodipodi:arg1="0.82762657"
       sodipodi:arg2="1.4559451"
       inkscape:flatsided="true"
       inkscape:rounded="-1.9775848e-16"
       inkscape:randomized="0"
       d="M -213.14218,92.860361 L -242.78133,96.2795 L -255.19212,69.14757 L -233.22327,48.959976 L -207.23498,63.615287 L -213.14218,92.860361 z"
       transform="matrix(-1,0,0,1,-9.8183619,145.43795)" />
    <path
       sodipodi:type="star"
       style="fill:url(#radialGradient3212);fill-opacity:1;fill-rule:nonzero;stroke:#000000;stroke-width:0;stroke-linecap:round;stroke-linejoin:round;stroke-miterlimit:4;stroke-dasharray:none;stroke-opacity:1"
       id="path3204"
       sodipodi:sides="5"
       sodipodi:cx="-197.9899"
       sodipodi:cy="78.21315"
       sodipodi:r1="33.21209"
       sodipodi:r2="32.661118"
       sodipodi:arg1="2.6462749"
       sodipodi:arg2="3.2745934"
       inkscape:flatsided="true"
       inkscape:rounded="-1.9775848e-16"
       inkscape:randomized="0"
       d="M -227.21048,93.99923 L -222.03301,55.300889 L -183.62877,48.266515 L -165.07112,82.617372 L -192.0061,110.88174 L -227.21048,93.99923 z"
       transform="matrix(-1.0512254,0,0,0.7969154,-37.545962,165.61785)" />
    <path
       sodipodi:type="star"
       style="fill:#681c20;fill-opacity:1;fill-rule:nonzero;stroke:#000000;stroke-width:0;stroke-linecap:round;stroke-linejoin:round;stroke-miterlimit:4;stroke-dasharray:none;stroke-opacity:1"
       id="path4013"
       sodipodi:sides="5"
       sodipodi:cx="-347.49249"
       sodipodi:cy="-27.34779"
       sodipodi:r1="36.827927"
       sodipodi:r2="34.138332"
       sodipodi:arg1="-0.69751242"
       sodipodi:arg2="-0.069193859"
       inkscape:flatsided="true"
       inkscape:rounded="-1.9775848e-16"
       inkscape:randomized="0"
       d="M -319.26601,-51.002849 L -316.27273,-7.8126244 L -356.4241,8.3806657 L -384.23229,-24.801555 L -361.26733,-61.502586 L -319.26601,-51.002849 z"
       transform="matrix(0.2469258,1.1107525,0.3630974,-0.3399696,121.32886,588.73854)" />
    <path
       sodipodi:type="star"
       style="fill:url(#radialGradient4019);fill-opacity:1;fill-rule:nonzero;stroke:#000000;stroke-width:0;stroke-linecap:round;stroke-linejoin:round;stroke-miterlimit:4;stroke-dasharray:none;stroke-opacity:1"
       id="path4015"
       sodipodi:sides="5"
       sodipodi:cx="-230.31477"
       sodipodi:cy="74.172539"
       sodipodi:r1="25.379768"
       sodipodi:r2="20.532663"
       sodipodi:arg1="0.82762657"
       sodipodi:arg2="1.4559451"
       inkscape:flatsided="true"
       inkscape:rounded="-1.9775848e-16"
       inkscape:randomized="0"
       d="M -213.14218,92.860361 L -242.78133,96.2795 L -255.19212,69.14757 L -233.22327,48.959976 L -207.23498,63.615287 L -213.14218,92.860361 z"
       transform="matrix(0.2520715,1.1338988,0.7299726,-0.6834764,41.553651,465.88514)" />
    <path
       sodipodi:type="star"
       style="fill:url(#radialGradient4021);fill-opacity:1;fill-rule:nonzero;stroke:#000000;stroke-width:0;stroke-linecap:round;stroke-linejoin:round;stroke-miterlimit:4;stroke-dasharray:none;stroke-opacity:1"
       id="path4017"
       sodipodi:sides="5"
       sodipodi:cx="-197.9899"
       sodipodi:cy="78.21315"
       sodipodi:r1="33.21209"
       sodipodi:r2="32.661118"
       sodipodi:arg1="2.6462749"
       sodipodi:arg2="3.2745934"
       inkscape:flatsided="true"
       inkscape:rounded="-1.9775848e-16"
       inkscape:randomized="0"
       d="M -227.21048,93.99923 L -222.03301,55.300889 L -183.62877,48.266515 L -165.07112,82.617372 L -192.0061,110.88174 L -227.21048,93.99923 z"
       transform="matrix(0.2649839,1.1919833,0.5817264,-0.5446729,63.273756,483.53289)" />
    <path
       sodipodi:type="star"
       style="fill:#681c20;fill-opacity:1;fill-rule:nonzero;stroke:#000000;stroke-width:0;stroke-linecap:round;stroke-linejoin:round;stroke-miterlimit:4;stroke-dasharray:none;stroke-opacity:1"
       id="path4023"
       sodipodi:sides="5"
       sodipodi:cx="-347.49249"
       sodipodi:cy="-27.34779"
       sodipodi:r1="36.827927"
       sodipodi:r2="34.138332"
       sodipodi:arg1="-0.69751242"
       sodipodi:arg2="-0.069193859"
       inkscape:flatsided="true"
       inkscape:rounded="-1.9775848e-16"
       inkscape:randomized="0"
       d="M -319.26601,-51.002849 L -316.27273,-7.8126244 L -356.4241,8.3806657 L -384.23229,-24.801555 L -361.26733,-61.502586 L -319.26601,-51.002849 z"
       transform="matrix(2.0269984e-2,0.9732624,0.4973058,-0.160314,181.17267,422.70612)" />
    <path
       sodipodi:type="star"
       style="fill:url(#radialGradient4029);fill-opacity:1;fill-rule:nonzero;stroke:#000000;stroke-width:0;stroke-linecap:round;stroke-linejoin:round;stroke-miterlimit:4;stroke-dasharray:none;stroke-opacity:1"
       id="path4025"
       sodipodi:sides="5"
       sodipodi:cx="-230.31477"
       sodipodi:cy="74.172539"
       sodipodi:r1="25.379768"
       sodipodi:r2="20.532663"
       sodipodi:arg1="0.82762657"
       sodipodi:arg2="1.4559451"
       inkscape:flatsided="true"
       inkscape:rounded="-1.9775848e-16"
       inkscape:randomized="0"
       d="M -213.14218,92.860361 L -242.78133,96.2795 L -255.19212,69.14757 L -233.22327,48.959976 L -207.23498,63.615287 L -213.14218,92.860361 z"
       transform="matrix(2.0692379e-2,0.9935437,0.9997859,-0.3222961,118.7123,298.60619)" />
    <path
       sodipodi:type="star"
       style="fill:url(#radialGradient4031);fill-opacity:1;fill-rule:nonzero;stroke:#000000;stroke-width:0;stroke-linecap:round;stroke-linejoin:round;stroke-miterlimit:4;stroke-dasharray:none;stroke-opacity:1"
       id="path4027"
       sodipodi:sides="5"
       sodipodi:cx="-197.9899"
       sodipodi:cy="78.21315"
       sodipodi:r1="33.21209"
       sodipodi:r2="32.661118"
       sodipodi:arg1="2.6462749"
       sodipodi:arg2="3.2745934"
       inkscape:flatsided="true"
       inkscape:rounded="-1.9775848e-16"
       inkscape:randomized="0"
       d="M -227.21048,93.99923 L -222.03301,55.300889 L -183.62877,48.266515 L -165.07112,82.617372 L -192.0061,110.88174 L -227.21048,93.99923 z"
       transform="matrix(2.1752355e-2,1.0444383,0.7967448,-0.2568427,139.46163,319.65082)" />
    <path
       sodipodi:type="star"
       style="fill:#681c20;fill-opacity:1;fill-rule:nonzero;stroke:#000000;stroke-width:0;stroke-linecap:round;stroke-linejoin:round;stroke-miterlimit:4;stroke-dasharray:none;stroke-opacity:1"
       id="path4033"
       sodipodi:sides="5"
       sodipodi:cx="-347.49249"
       sodipodi:cy="-27.34779"
       sodipodi:r1="36.827927"
       sodipodi:r2="34.138332"
       sodipodi:arg1="-0.69751242"
       sodipodi:arg2="-0.069193859"
       inkscape:flatsided="true"
       inkscape:rounded="-1.9775848e-16"
       inkscape:randomized="0"
       d="M -319.26601,-51.002849 L -316.27273,-7.8126244 L -356.4241,8.3806657 L -384.23229,-24.801555 L -361.26733,-61.502586 L -319.26601,-51.002849 z"
       transform="matrix(-0.9795869,0,0,0.3901649,-282.64915,72.487708)" />
    <path
       sodipodi:type="star"
       style="fill:url(#radialGradient3071);fill-opacity:1;fill-rule:nonzero;stroke:#000000;stroke-width:0;stroke-linecap:round;stroke-linejoin:round;stroke-miterlimit:4;stroke-dasharray:none;stroke-opacity:1"
       id="path4035"
       sodipodi:sides="5"
       sodipodi:cx="-230.31477"
       sodipodi:cy="74.172539"
       sodipodi:r1="25.379768"
       sodipodi:r2="20.532663"
       sodipodi:arg1="0.82762657"
       sodipodi:arg2="1.4559451"
       inkscape:flatsided="true"
       inkscape:rounded="-1.9775848e-16"
       inkscape:randomized="0"
       d="M -213.14218,92.860361 L -242.78133,96.2795 L -255.19212,69.14757 L -233.22327,48.959976 L -207.23498,63.615287 L -213.14218,92.860361 z"
       transform="matrix(-1,0,0,0.7843892,-138.44506,25.825034)" />
    <path
       sodipodi:type="star"
       style="fill:url(#radialGradient4041);fill-opacity:1;fill-rule:nonzero;stroke:#000000;stroke-width:0;stroke-linecap:round;stroke-linejoin:round;stroke-miterlimit:4;stroke-dasharray:none;stroke-opacity:1"
       id="path4037"
       sodipodi:sides="5"
       sodipodi:cx="-197.9899"
       sodipodi:cy="78.21315"
       sodipodi:r1="33.21209"
       sodipodi:r2="32.661118"
       sodipodi:arg1="2.6462749"
       sodipodi:arg2="3.2745934"
       inkscape:flatsided="true"
       inkscape:rounded="-1.9775848e-16"
       inkscape:randomized="0"
       d="M -227.21048,93.99923 L -222.03301,55.300889 L -183.62877,48.266515 L -165.07112,82.617372 L -192.0061,110.88174 L -227.21048,93.99923 z"
       transform="matrix(-1.0512254,0,0,0.6250918,-166.17261,41.653932)" />
    <path
       sodipodi:type="star"
       style="fill:url(#radialGradient4859);fill-opacity:1;fill-rule:nonzero;stroke:#000000;stroke-width:0;stroke-linecap:round;stroke-linejoin:round;stroke-miterlimit:4;stroke-dasharray:none;stroke-opacity:1"
       id="path4857"
       sodipodi:sides="5"
       sodipodi:cx="-197.9899"
       sodipodi:cy="78.21315"
       sodipodi:r1="33.21209"
       sodipodi:r2="32.661118"
       sodipodi:arg1="2.6462749"
       sodipodi:arg2="3.2745934"
       inkscape:flatsided="true"
       inkscape:rounded="-1.9775848e-16"
       inkscape:randomized="0"
       d="M -227.21048,93.99923 L -222.03301,55.300889 L -183.62877,48.266515 L -165.07112,82.617372 L -192.0061,110.88174 L -227.21048,93.99923 z"
       transform="matrix(-0.4859511,-0.4512369,-0.2867271,0.2375874,-53.846484,-86.868099)" />
    <path
       sodipodi:type="star"
       style="fill:#681c20;fill-opacity:1;fill-rule:nonzero;stroke:#000000;stroke-width:0;stroke-linecap:round;stroke-linejoin:round;stroke-miterlimit:4;stroke-dasharray:none;stroke-opacity:1"
       id="path4861"
       sodipodi:sides="5"
       sodipodi:cx="-347.49249"
       sodipodi:cy="-27.34779"
       sodipodi:r1="36.827927"
       sodipodi:r2="34.138332"
       sodipodi:arg1="-0.69751242"
       sodipodi:arg2="-0.069193859"
       inkscape:flatsided="true"
       inkscape:rounded="-1.9775848e-16"
       inkscape:randomized="0"
       d="M -319.26601,-51.002849 L -316.27273,-7.8126244 L -356.4241,8.3806657 L -384.23229,-24.801555 L -361.26733,-61.502586 L -319.26601,-51.002849 z"
       transform="matrix(-0.9795869,0,0,0.3901649,-235.67705,39.657751)" />
    <path
       sodipodi:type="spiral"
       style="fill:#643128;fill-opacity:1;fill-rule:nonzero;stroke:#000000;stroke-width:0;stroke-linecap:round;stroke-linejoin:round;stroke-miterlimit:4;stroke-dasharray:none;stroke-opacity:1"
       id="path3286"
       sodipodi:cx="-141.42136"
       sodipodi:cy="65.081169"
       sodipodi:expansion="17.5"
       sodipodi:revolution="40.387367"
       sodipodi:radius="49.747204"
       sodipodi:argument="-251.38757"
       sodipodi:t0="0.67984587"
       d="M -141.47631,65.099941 C -141.49084,65.068277 -141.47429,65.030933 -141.44335,65.016771 C -141.40627,64.999791 -141.36255,65.01919 -141.346,65.055426 C -141.32618,65.098805 -141.34888,65.149915 -141.39127,65.169233 C -141.44194,65.192324 -141.50161,65.165801 -141.52413,65.116276 C -141.551,65.057175 -141.52005,64.987613 -141.46227,64.961401 C -141.39342,64.930169 -141.31244,64.966235 -141.28196,65.033552 C -141.24571,65.113641 -141.28768,65.207813 -141.36601,65.243191 C -141.45906,65.285219 -141.56842,65.236438 -141.60944,65.14542 C -141.6581,65.037452 -141.60148,64.910616 -141.49585,64.863107 C -141.37072,64.806831 -141.2238,64.872475 -141.16885,64.994912 C -141.10385,65.139736 -141.17986,65.309715 -141.3216,65.373203 C -141.48902,65.448196 -141.68544,65.360297 -141.7587,65.196408 C -141.84512,65.003086 -141.74359,64.776381 -141.55432,64.691941 C -141.33135,64.59247 -141.07,64.709606 -140.97279,64.927935 C -140.85842,65.184789 -140.99341,65.485746 -141.24496,65.597538 C -141.54052,65.728885 -141.88669,65.573507 -142.0151,65.283997 C -142.16579,64.944279 -141.98714,64.546551 -141.65432,64.399201 C -141.26428,64.226516 -140.80781,64.431698 -140.63891,64.813882 C -140.44122,65.261224 -140.67662,65.78455 -141.11502,65.977933 C -141.62753,66.204009 -142.22687,65.934235 -142.44806,65.431896 C -142.70633,64.845338 -142.39749,64.159662 -141.82249,63.906921 C -141.15187,63.612156 -140.36823,63.965364 -140.07973,64.622863 C -139.74365,65.388791 -140.14719,66.2835 -140.89825,66.612488 C -141.77217,66.99529 -142.79266,66.534727 -143.16746,65.677646 C -143.60306,64.681495 -143.07793,63.518668 -142.10083,63.092109 C -140.96645,62.596888 -139.64272,63.19506 -139.15771,64.307895 C -138.59524,65.598439 -139.27595,67.103901 -140.54217,67.654869 C -142.00899,68.293129 -143.71953,67.519217 -144.34484,66.079847 C -145.06845,64.414206 -144.1894,62.472452 -142.55472,61.763418 C -140.66505,60.943785 -138.46283,61.941337 -137.65958,63.796128 C -136.732,65.938019 -137.86301,68.433391 -139.96564,69.342569 C -142.39126,70.391405 -145.21631,69.110243 -146.24449,66.728776 C -147.42941,63.984259 -145.97943,60.788767 -143.28453,59.627011 C -140.18187,58.289477 -136.57047,59.929089 -135.2589,62.976041 C -133.75036,66.480575 -135.60282,70.558548 -139.04486,72.038022 C -143,73.738036 -147.60097,71.646866 -149.26846,67.761781 C -151.18269,63.301809 -148.82402,58.115049 -144.44251,56.237176 C -139.41738,54.083453 -133.57502,56.741666 -131.46192,61.678971 C -129.04066,67.336295 -132.03402,73.911853 -137.59312,76.287766 C -143.95711,79.007675 -151.352,75.639604 -154.02132,69.385384 C -157.07437,62.232104 -153.28767,53.922287 -146.25696,50.925629 C -138.22273,47.501243 -128.89199,51.755283 -125.53042,59.652742 C -121.69241,68.669519 -126.4678,79.138615 -135.33206,82.90671 C -145.44389,87.205135 -157.1814,81.848566 -161.40205,71.906681 C -166.21261,60.575254 -160.20862,47.425411 -149.06643,42.701313 C -136.37766,37.321491 -121.65634,44.046166 -116.37256,56.524366 C -110.36038,70.722745 -117.88676,87.191442 -131.851,93.097005 C -147.72719,99.811148 -166.13752,91.393537 -172.73339,75.777524 C -180.22626,58.037817 -170.81858,37.471454 -153.36779,30.109711 C -133.5597,21.75352 -110.60079,32.260341 -102.38988,51.74781 C -93.077197,73.850188 -104.80345,99.462359 -126.55025,108.61418 C -143.56613,115.77506 -163.58121,111.93229 -177.20966,99.635207"
       transform="matrix(-0.8709712,-0.4913341,0.4913341,-0.8709712,-46.14111,143.79966)" />
    <path
       sodipodi:type="spiral"
       style="opacity:1;fill:none;fill-opacity:1;fill-rule:nonzero;stroke:#000000;stroke-width:2;stroke-linecap:round;stroke-linejoin:round;stroke-miterlimit:4;stroke-dasharray:none;stroke-opacity:1"
       id="path3338"
       sodipodi:cx="-297.48993"
       sodipodi:cy="98.92128"
       sodipodi:expansion="15.55"
       sodipodi:revolution="40"
       sodipodi:radius="127.31529"
       sodipodi:argument="-250.66011"
       sodipodi:t0="0.90899998"
       d="M -325.7181,105.00726 C -330.3561,88.896936 -320.11676,72.076291 -304.26019,67.519288 C -286.34418,62.370425 -267.64218,73.759566 -262.58258,91.395267 C -256.87059,111.30499 -269.52949,132.08385 -289.12978,137.69753 C -311.23935,144.02987 -334.30937,129.96968 -340.53349,108.20146 C -347.54878,83.666197 -331.94316,58.070277 -307.78422,51.174042 C -280.57598,43.407378 -252.19717,60.716265 -244.56139,87.509904 C -235.96858,117.66171 -255.15348,149.10459 -284.84882,157.5536 C -318.24014,167.05421 -353.05452,145.80433 -362.39724,112.91528 C -372.89476,75.960985 -349.37336,37.439112 -312.97137,27.114849 C -272.10078,15.523209 -229.50447,41.541818 -218.10283,81.805447 C -205.3111,126.97807 -234.07332,174.04939 -278.57934,186.63287 C -328.47489,200.74016 -380.45819,168.96542 -394.33735,119.80155 C -409.88596,64.72409 -374.80541,7.3523635 -320.53059,-7.9464858 C -259.77096,-25.073255 -196.49159,13.632804 -179.63809,73.51246 C -169.68173,108.88692 -176.61645,147.56773 -197.48449,177.71275"
       transform="matrix(0.2284891,-0.3069334,0.302157,0.2238953,147.05701,43.123334)" />
  </g>
</svg>
